<svg width="12" height="10" viewBox="0 0 12 10" fill="none" xmlns="http://www.w3.org/2000/svg">
<path d="M0 5.49805C0 5.45508 0.00585938 5.41211 0.0175781 5.36914C0.134766 4.92773 0.300781 4.51367 0.515625 4.12695C0.734375 3.73633 0.990234 3.37891 1.2832 3.05469C1.58008 2.73047 1.90625 2.44141 2.26172 2.1875C2.62109 1.93359 3.00195 1.71875 3.4043 1.54297C3.81055 1.36328 4.23242 1.22852 4.66992 1.13867C5.10742 1.04492 5.55078 0.998047 6 0.998047C6.44531 0.998047 6.88477 1.04492 7.31836 1.13867C7.75586 1.22852 8.17578 1.36133 8.57812 1.53711C8.98438 1.71289 9.36719 1.92969 9.72656 2.1875C10.0898 2.44141 10.418 2.73047 10.7109 3.05469C11.0078 3.375 11.2637 3.72852 11.4785 4.11523C11.6973 4.50195 11.8652 4.91602 11.9824 5.35742C11.9941 5.40039 12 5.44531 12 5.49219C12 5.63281 11.9512 5.75195 11.8535 5.84961C11.7598 5.94336 11.6426 5.99023 11.502 5.99023C11.3848 5.99023 11.2832 5.95703 11.1973 5.89062C11.1152 5.82422 11.0547 5.73633 11.0156 5.62695C10.9805 5.51758 10.9453 5.41602 10.9102 5.32227C10.8789 5.22852 10.8457 5.13672 10.8105 5.04688C10.7754 4.95312 10.7363 4.86133 10.6934 4.77148C10.6504 4.68164 10.5977 4.58594 10.5352 4.48438C10.3047 4.09766 10.0254 3.75195 9.69727 3.44727C9.37305 3.13867 9.01562 2.87891 8.625 2.66797C8.23438 2.45312 7.82031 2.28906 7.38281 2.17578C6.94922 2.05859 6.50977 2 6.06445 2H5.93555C5.49023 2 5.04883 2.05859 4.61133 2.17578C4.17773 2.28906 3.76562 2.45312 3.375 2.66797C2.98438 2.88281 2.625 3.14453 2.29688 3.45312C1.96875 3.75781 1.69141 4.10352 1.46484 4.49023C1.40234 4.5918 1.34961 4.68945 1.30664 4.7832C1.26367 4.87305 1.22461 4.96289 1.18945 5.05273C1.1543 5.14258 1.11914 5.23438 1.08398 5.32812C1.05273 5.42188 1.01953 5.52344 0.984375 5.63281C0.945312 5.74219 0.884766 5.83203 0.802734 5.90234C0.720703 5.96875 0.619141 6.00195 0.498047 6.00195C0.431641 6.00195 0.367188 5.98828 0.304688 5.96094C0.246094 5.93359 0.193359 5.89844 0.146484 5.85547C0.103516 5.80859 0.0683594 5.75586 0.0410156 5.69727C0.0136719 5.63477 0 5.56836 0 5.49805ZM3 6.00195V5.94336C3 5.53711 3.08008 5.15625 3.24023 4.80078C3.4043 4.44141 3.62305 4.12891 3.89648 3.86328C4.17383 3.59766 4.49219 3.38867 4.85156 3.23633C5.21484 3.08008 5.59766 3.00195 6 3.00195C6.41406 3.00195 6.80273 3.08008 7.16602 3.23633C7.5332 3.39258 7.85156 3.60742 8.12109 3.88086C8.39453 4.15039 8.60938 4.46875 8.76562 4.83594C8.92188 5.19922 9 5.58789 9 6.00195C9 6.41602 8.92188 6.80664 8.76562 7.17383C8.60938 7.53711 8.39453 7.85547 8.12109 8.12891C7.85156 8.39844 7.5332 8.61133 7.16602 8.76758C6.80273 8.92383 6.41406 9.00195 6 9.00195C5.58594 9.00195 5.19531 8.92383 4.82812 8.76758C4.46484 8.61133 4.14648 8.39844 3.87305 8.12891C3.60352 7.85547 3.39062 7.53711 3.23438 7.17383C3.07812 6.80664 3 6.41602 3 6.00195ZM7.99805 6.00195V5.96094C7.99805 5.69141 7.94336 5.4375 7.83398 5.19922C7.72852 4.96094 7.58398 4.75391 7.40039 4.57812C7.2168 4.39844 7.00391 4.25781 6.76172 4.15625C6.51953 4.05078 6.26562 3.99805 6 3.99805C5.72266 3.99805 5.46289 4.05078 5.2207 4.15625C4.97852 4.26172 4.76758 4.40625 4.58789 4.58984C4.4082 4.76953 4.26562 4.98242 4.16016 5.22852C4.05469 5.4707 4.00195 5.72852 4.00195 6.00195C4.00195 6.2793 4.05469 6.53906 4.16016 6.78125C4.26562 7.02344 4.4082 7.23438 4.58789 7.41406C4.76758 7.59375 4.97852 7.73633 5.2207 7.8418C5.46289 7.94727 5.72266 8 6 8C6.27344 8 6.53125 7.94727 6.77344 7.8418C7.01953 7.73633 7.23242 7.59375 7.41211 7.41406C7.5918 7.23438 7.73438 7.02344 7.83984 6.78125C7.94531 6.53906 7.99805 6.2793 7.99805 6.00195Z" fill="black" fill-opacity="0.6063"/>
</svg>
