<svg width="16" height="20" viewBox="0 0 16 20" fill="none" xmlns="http://www.w3.org/2000/svg">
<path d="M8 20C7.83333 20 7.675 19.975 7.525 19.925C7.375 19.875 7.23333 19.8 7.1 19.7L1.1 15.225C0.916667 15.075 0.770667 14.8917 0.662 14.675C0.554 14.4583 0.5 14.2333 0.5 14V2.3C0.5 1.8 0.675 1.375 1.025 1.025C1.375 0.675 1.8 0.5 2.3 0.5H13.7C14.2 0.5 14.625 0.675 14.975 1.025C15.325 1.375 15.5 1.8 15.5 2.3V14C15.5 14.2333 15.4457 14.4583 15.337 14.675C15.229 14.8917 15.0833 15.075 14.9 15.225L8.9 19.7C8.76667 19.8 8.625 19.875 8.475 19.925C8.325 19.975 8.16667 20 8 20ZM8 18.5L14 14V2.3C14 2.21667 13.971 2.14567 13.913 2.087C13.8543 2.029 13.7833 2 13.7 2H2.3C2.21667 2 2.146 2.029 2.088 2.087C2.02933 2.14567 2 2.21667 2 2.3V14L8 18.5ZM6.95 12.275C7.06667 12.275 7.17933 12.254 7.288 12.212C7.396 12.1707 7.49167 12.1083 7.575 12.025L11.725 7.875C11.875 7.725 11.95 7.55 11.95 7.35C11.95 7.15 11.875 6.975 11.725 6.825C11.575 6.675 11.4 6.59567 11.2 6.587C11 6.579 10.8167 6.65 10.65 6.8L6.95 10.525L5.35 8.925C5.21667 8.775 5.046 8.7 4.838 8.7C4.62933 8.7 4.45 8.775 4.3 8.925C4.15 9.075 4.07067 9.25 4.062 9.45C4.054 9.65 4.13333 9.83333 4.3 10L6.325 12.025C6.40833 12.1083 6.50433 12.1707 6.613 12.212C6.721 12.254 6.83333 12.275 6.95 12.275ZM2 2C2 2 2.02933 2 2.088 2C2.146 2 2.21667 2 2.3 2H13.7C13.7833 2 13.8543 2 13.913 2C13.971 2 14 2 14 2H2Z" fill="white"/>
</svg>
