<svg width="20" height="13" viewBox="0 0 20 13" fill="none" xmlns="http://www.w3.org/2000/svg">
<path d="M4.90156 9.55312C3.6349 9.55312 2.5599 9.10746 1.67656 8.21613C0.793229 7.32413 0.351562 6.25313 0.351562 5.00313C0.351562 3.75313 0.793229 2.68212 1.67656 1.79012C2.5599 0.898792 3.6349 0.453125 4.90156 0.453125H7.95156C8.16823 0.453125 8.34756 0.528125 8.48956 0.678125C8.6309 0.828125 8.70156 1.00313 8.70156 1.20312C8.70156 1.41979 8.6309 1.59879 8.48956 1.74013C8.34756 1.88213 8.16823 1.95312 7.95156 1.95312H4.90156C4.05156 1.95312 3.33056 2.25313 2.73856 2.85313C2.14723 3.45313 1.85156 4.16979 1.85156 5.00313C1.85156 5.83646 2.14723 6.55312 2.73856 7.15312C3.33056 7.75312 4.05156 8.05313 4.90156 8.05313H7.95156C8.16823 8.05313 8.34756 8.12379 8.48956 8.26513C8.6309 8.40713 8.70156 8.58646 8.70156 8.80313C8.70156 9.00313 8.6309 9.17813 8.48956 9.32813C8.34756 9.47813 8.16823 9.55312 7.95156 9.55312H4.90156ZM6.90156 5.75313C6.6849 5.75313 6.5059 5.68213 6.36456 5.54012C6.22256 5.39879 6.15156 5.21979 6.15156 5.00313C6.15156 4.78646 6.22256 4.60713 6.36456 4.46513C6.5059 4.32379 6.6849 4.25313 6.90156 4.25313H12.9016C13.1182 4.25313 13.2976 4.32379 13.4396 4.46513C13.5809 4.60713 13.6516 4.78646 13.6516 5.00313C13.6516 5.21979 13.5809 5.39879 13.4396 5.54012C13.2976 5.68213 13.1182 5.75313 12.9016 5.75313H6.90156ZM19.4266 5.00313H17.9266C17.9266 4.16979 17.6309 3.45313 17.0396 2.85313C16.4476 2.25313 15.7349 1.95312 14.9016 1.95312H11.8266C11.6266 1.95312 11.4516 1.88213 11.3016 1.74013C11.1516 1.59879 11.0766 1.41979 11.0766 1.20312C11.0766 1.00313 11.1516 0.828125 11.3016 0.678125C11.4516 0.528125 11.6266 0.453125 11.8266 0.453125H14.9016C16.1516 0.453125 17.2182 0.898792 18.1016 1.79012C18.9849 2.68212 19.4266 3.75313 19.4266 5.00313ZM15.9016 12.7531C15.6849 12.7531 15.5059 12.6825 15.3646 12.5411C15.2226 12.3991 15.1516 12.2198 15.1516 12.0031V9.75313H12.9016C12.6849 9.75313 12.5059 9.68246 12.3646 9.54113C12.2226 9.39913 12.1516 9.21979 12.1516 9.00313C12.1516 8.78646 12.2226 8.60713 12.3646 8.46513C12.5059 8.32379 12.6849 8.25313 12.9016 8.25313H15.1516V6.00313C15.1516 5.78646 15.2226 5.60713 15.3646 5.46513C15.5059 5.32379 15.6849 5.25313 15.9016 5.25313C16.1182 5.25313 16.2976 5.32379 16.4396 5.46513C16.5809 5.60713 16.6516 5.78646 16.6516 6.00313V8.25313H18.9016C19.1182 8.25313 19.2976 8.32379 19.4396 8.46513C19.5809 8.60713 19.6516 8.78646 19.6516 9.00313C19.6516 9.21979 19.5809 9.39913 19.4396 9.54113C19.2976 9.68246 19.1182 9.75313 18.9016 9.75313H16.6516V12.0031C16.6516 12.2198 16.5809 12.3991 16.4396 12.5411C16.2976 12.6825 16.1182 12.7531 15.9016 12.7531Z" fill="white"/>
</svg>
