<svg width="15" height="12" viewBox="0 0 15 12" fill="none" xmlns="http://www.w3.org/2000/svg">
<path d="M1.86797 10C1.53464 10 1.2513 9.88333 1.01797 9.65C0.784635 9.41667 0.667969 9.13333 0.667969 8.8V1.2C0.667969 0.866667 0.784635 0.583333 1.01797 0.35C1.2513 0.116667 1.53464 0 1.86797 0H12.1346C12.468 0 12.7513 0.116667 12.9846 0.35C13.218 0.583333 13.3346 0.866667 13.3346 1.2V4.73333H1.66797V8.8C1.66797 8.86667 1.68752 8.91667 1.72664 8.95C1.7653 8.98333 1.81241 9 1.86797 9H7.56797C7.71241 9 7.83197 9.04711 7.92664 9.14133C8.02086 9.236 8.06797 9.35556 8.06797 9.5C8.06797 9.64444 8.02086 9.764 7.92664 9.85867C7.83197 9.95289 7.71241 10 7.56797 10H1.86797ZM1.66797 2.6H12.3346V1.2C12.3346 1.14444 12.3153 1.09733 12.2766 1.05867C12.2375 1.01956 12.1902 1 12.1346 1H1.86797C1.81241 1 1.7653 1.01956 1.72664 1.05867C1.68752 1.09733 1.66797 1.14444 1.66797 1.2V2.6ZM12.3346 11.5C12.1902 11.5 12.0706 11.4529 11.976 11.3587C11.8817 11.264 11.8346 11.1444 11.8346 11V9.5H10.3346C10.1902 9.5 10.0706 9.45289 9.97597 9.35867C9.88175 9.264 9.83464 9.14444 9.83464 9C9.83464 8.85556 9.88175 8.736 9.97597 8.64133C10.0706 8.54711 10.1902 8.5 10.3346 8.5H11.8346V7C11.8346 6.85556 11.8817 6.736 11.976 6.64133C12.0706 6.54711 12.1902 6.5 12.3346 6.5C12.4791 6.5 12.5986 6.54711 12.6933 6.64133C12.7875 6.736 12.8346 6.85556 12.8346 7V8.5H14.3346C14.4791 8.5 14.5986 8.54711 14.6933 8.64133C14.7875 8.736 14.8346 8.85556 14.8346 9C14.8346 9.14444 14.7875 9.264 14.6933 9.35867C14.5986 9.45289 14.4791 9.5 14.3346 9.5H12.8346V11C12.8346 11.1444 12.7875 11.264 12.6933 11.3587C12.5986 11.4529 12.4791 11.5 12.3346 11.5ZM1.66797 9V8.5C1.66797 7.57778 1.66797 6.79156 1.66797 6.14133C1.66797 5.49156 1.66797 5.16667 1.66797 5.16667V4.73333V1.2V8.8C1.66797 8.86667 1.66797 8.91667 1.66797 8.95C1.66797 8.98333 1.66797 9 1.66797 9Z" fill="#063468"/>
</svg>
