<svg width="24" height="22" viewBox="0 0 24 22" fill="none" xmlns="http://www.w3.org/2000/svg">
<g filter="url(#filter0_d_585_1119)">
<mask id="mask0_585_1119" style="mask-type:alpha" maskUnits="userSpaceOnUse" x="4" y="1" width="16" height="16">
<rect x="4" y="1" width="16" height="16" fill="#D9D9D9"/>
</mask>
<g mask="url(#mask0_585_1119)">
<path d="M11.9982 16C10.6982 16 9.51773 15.6778 8.45684 15.0333C7.39551 14.3889 6.56484 13.5278 5.96484 12.45V13.9333C5.96484 14.0778 5.91773 14.1973 5.82351 14.292C5.72884 14.3862 5.60929 14.4333 5.46484 14.4333C5.3204 14.4333 5.20107 14.3862 5.10684 14.292C5.01218 14.1973 4.96484 14.0778 4.96484 13.9333V11.3667C4.96484 11.2 5.02329 11.0582 5.14018 10.9413C5.25662 10.8249 5.39818 10.7667 5.56484 10.7667H8.13151C8.27595 10.7667 8.39551 10.814 8.49018 10.9087C8.5844 11.0029 8.63151 11.1222 8.63151 11.2667C8.63151 11.4111 8.5844 11.5307 8.49018 11.6253C8.39551 11.7196 8.27595 11.7667 8.13151 11.7667H6.73151C7.2204 12.7444 7.93707 13.5278 8.88151 14.1167C9.82595 14.7056 10.8648 15 11.9982 15C13.5426 15 14.8788 14.4944 16.0068 13.4833C17.1344 12.4722 17.7871 11.2 17.9648 9.66667C17.9871 9.52222 18.0453 9.40267 18.1395 9.308C18.2342 9.21378 18.3537 9.16667 18.4982 9.16667C18.6315 9.16667 18.7482 9.21667 18.8482 9.31667C18.9482 9.41667 18.9871 9.53333 18.9648 9.66667C18.8871 10.5556 18.6482 11.3862 18.2482 12.1587C17.8482 12.9307 17.3371 13.6 16.7148 14.1667C16.0926 14.7333 15.3788 15.1804 14.5735 15.508C13.7677 15.836 12.9093 16 11.9982 16ZM5.49818 8.83333C5.36484 8.83333 5.24818 8.78333 5.14818 8.68333C5.04818 8.58333 5.00929 8.46667 5.03151 8.33333C5.1204 7.42222 5.36484 6.58044 5.76484 5.808C6.16484 5.036 6.67595 4.36667 7.29818 3.8C7.9204 3.23333 8.6344 2.79156 9.44018 2.47467C10.2455 2.15822 11.0982 2 11.9982 2C13.2871 2 14.4675 2.32222 15.5395 2.96667C16.612 3.61111 17.4426 4.48333 18.0315 5.58333V4.06667C18.0315 3.92222 18.0788 3.80267 18.1735 3.708C18.2677 3.61378 18.3871 3.56667 18.5315 3.56667C18.676 3.56667 18.7953 3.61378 18.8895 3.708C18.9842 3.80267 19.0315 3.92222 19.0315 4.06667V6.63333C19.0315 6.8 18.9733 6.94156 18.8568 7.058C18.74 7.17489 18.5982 7.23333 18.4315 7.23333H15.8648C15.7204 7.23333 15.6011 7.186 15.5068 7.09133C15.4122 6.99711 15.3648 6.87778 15.3648 6.73333C15.3648 6.58889 15.4122 6.46933 15.5068 6.37467C15.6011 6.28044 15.7204 6.23333 15.8648 6.23333H17.2648C16.7871 5.27778 16.076 4.5 15.1315 3.9C14.1871 3.3 13.1426 3 11.9982 3C10.476 3 9.14551 3.5 8.00684 4.5C6.86773 5.5 6.20929 6.77778 6.03151 8.33333C6.00929 8.47778 5.95107 8.59711 5.85684 8.69133C5.76218 8.786 5.64262 8.83333 5.49818 8.83333Z" fill="#063468"/>
</g>
</g>
<defs>
<filter id="filter0_d_585_1119" x="0.964844" y="0" width="22.0664" height="22" filterUnits="userSpaceOnUse" color-interpolation-filters="sRGB">
<feFlood flood-opacity="0" result="BackgroundImageFix"/>
<feColorMatrix in="SourceAlpha" type="matrix" values="0 0 0 0 0 0 0 0 0 0 0 0 0 0 0 0 0 0 127 0" result="hardAlpha"/>
<feOffset dy="2"/>
<feGaussianBlur stdDeviation="2"/>
<feColorMatrix type="matrix" values="0 0 0 0 0 0 0 0 0 0 0 0 0 0 0 0 0 0 0.04 0"/>
<feBlend mode="normal" in2="BackgroundImageFix" result="effect1_dropShadow_585_1119"/>
<feBlend mode="normal" in="SourceGraphic" in2="effect1_dropShadow_585_1119" result="shape"/>
</filter>
</defs>
</svg>
