<svg width="20" height="20" viewBox="0 0 20 20" fill="none" xmlns="http://www.w3.org/2000/svg">
<g filter="url(#filter0_d_585_1180)">
<mask id="mask0_585_1180" style="mask-type:alpha" maskUnits="userSpaceOnUse" x="2" y="0" width="16" height="16">
<rect x="2" width="16" height="16" fill="#D9D9D9"/>
</mask>
<g mask="url(#mask0_585_1180)">
<path d="M12.419 10.6502C12.319 10.5391 12.269 10.4168 12.269 10.2835C12.269 10.1502 12.319 10.0335 12.419 9.9335L13.6857 8.66683H8.58568C8.44123 8.66683 8.3219 8.6195 8.22768 8.52483C8.13301 8.43061 8.08568 8.31127 8.08568 8.16683C8.08568 8.02239 8.13301 7.90283 8.22768 7.80816C8.3219 7.71394 8.44123 7.66683 8.58568 7.66683H13.6857L12.419 6.3835C12.319 6.2835 12.269 6.16683 12.269 6.0335C12.269 5.90016 12.319 5.7835 12.419 5.6835C12.519 5.5835 12.6357 5.5335 12.769 5.5335C12.9023 5.5335 13.0135 5.57794 13.1023 5.66683L15.1857 7.75016C15.2412 7.80572 15.283 7.8695 15.311 7.9415C15.3386 8.01394 15.3523 8.08905 15.3523 8.16683C15.3523 8.24461 15.3386 8.3195 15.311 8.3915C15.283 8.46394 15.2412 8.52794 15.1857 8.5835L13.1023 10.6668C13.0023 10.7779 12.8886 10.8279 12.761 10.8168C12.633 10.8057 12.519 10.7502 12.419 10.6502ZM5.60234 14.0002C5.26901 14.0002 4.98568 13.8835 4.75234 13.6502C4.51901 13.4168 4.40234 13.1335 4.40234 12.8002V3.5335C4.40234 3.20016 4.51901 2.91683 4.75234 2.6835C4.98568 2.45016 5.26901 2.3335 5.60234 2.3335H9.58568C9.71901 2.3335 9.83568 2.38061 9.93568 2.47483C10.0357 2.5695 10.0857 2.68905 10.0857 2.8335C10.0857 2.97794 10.0357 3.09727 9.93568 3.1915C9.83568 3.28616 9.71901 3.3335 9.58568 3.3335H5.60234C5.5579 3.3335 5.51345 3.35572 5.46901 3.40016C5.42457 3.44461 5.40234 3.48905 5.40234 3.5335V12.8002C5.40234 12.8446 5.42457 12.8891 5.46901 12.9335C5.51345 12.9779 5.5579 13.0002 5.60234 13.0002H9.58568C9.71901 13.0002 9.83568 13.0473 9.93568 13.1415C10.0357 13.2362 10.0857 13.3557 10.0857 13.5002C10.0857 13.6446 10.0357 13.7642 9.93568 13.8588C9.83568 13.9531 9.71901 14.0002 9.58568 14.0002H5.60234Z" fill="#063468"/>
</g>
</g>
<defs>
<filter id="filter0_d_585_1180" x="0.402344" y="0.333496" width="18.9492" height="19.6665" filterUnits="userSpaceOnUse" color-interpolation-filters="sRGB">
<feFlood flood-opacity="0" result="BackgroundImageFix"/>
<feColorMatrix in="SourceAlpha" type="matrix" values="0 0 0 0 0 0 0 0 0 0 0 0 0 0 0 0 0 0 127 0" result="hardAlpha"/>
<feOffset dy="2"/>
<feGaussianBlur stdDeviation="2"/>
<feColorMatrix type="matrix" values="0 0 0 0 0 0 0 0 0 0 0 0 0 0 0 0 0 0 0.04 0"/>
<feBlend mode="normal" in2="BackgroundImageFix" result="effect1_dropShadow_585_1180"/>
<feBlend mode="normal" in="SourceGraphic" in2="effect1_dropShadow_585_1180" result="shape"/>
</filter>
</defs>
</svg>
