<svg width="21" height="20" viewBox="0 0 21 20" fill="none" xmlns="http://www.w3.org/2000/svg">
<g filter="url(#filter0_d_585_1192)">
<mask id="mask0_585_1192" style="mask-type:alpha" maskUnits="userSpaceOnUse" x="3" y="0" width="16" height="16">
<rect x="3" width="16" height="16" fill="#D9D9D9"/>
</mask>
<g mask="url(#mask0_585_1192)">
<path d="M9.66797 7.79997C9.02352 7.79997 8.47352 7.5693 8.01797 7.10797C7.56241 6.64708 7.33464 6.09997 7.33464 5.46663C7.33464 4.82219 7.56241 4.27219 8.01797 3.81663C8.47352 3.36108 9.02352 3.1333 9.66797 3.1333C10.3124 3.1333 10.8624 3.36108 11.318 3.81663C11.7735 4.27219 12.0013 4.82219 12.0013 5.46663C12.0013 6.09997 11.7735 6.64708 11.318 7.10797C10.8624 7.5693 10.3124 7.79997 9.66797 7.79997ZM5.26797 12.8666C5.1013 12.8666 4.95975 12.8111 4.8433 12.7C4.72641 12.5889 4.66797 12.4444 4.66797 12.2666V11.3833C4.66797 11.05 4.75419 10.7471 4.92664 10.4746C5.09864 10.2026 5.34019 9.98886 5.6513 9.8333C6.19575 9.56663 6.79019 9.33886 7.43464 9.14997C8.07908 8.96108 8.82352 8.86663 9.66797 8.86663C9.74575 8.86663 9.81241 8.86663 9.86797 8.86663C9.92352 8.86663 9.97908 8.87775 10.0346 8.89997C9.96797 9.05552 9.91241 9.21375 9.86797 9.37463C9.82352 9.53597 9.79019 9.69997 9.76797 9.86663H9.66797C8.9013 9.86663 8.22086 9.95552 7.62664 10.1333C7.03197 10.3111 6.52352 10.5111 6.1013 10.7333C5.95686 10.8111 5.84841 10.9055 5.77597 11.0166C5.70397 11.1277 5.66797 11.25 5.66797 11.3833V11.8666H9.86797C9.91241 12.0444 9.97641 12.2193 10.06 12.3913C10.1431 12.5637 10.2291 12.7222 10.318 12.8666H5.26797ZM9.66797 6.79997C10.0346 6.79997 10.3486 6.6693 10.61 6.40797C10.8709 6.14708 11.0013 5.8333 11.0013 5.46663C11.0013 5.09997 10.8709 4.78597 10.61 4.52463C10.3486 4.26375 10.0346 4.1333 9.66797 4.1333C9.3013 4.1333 8.98752 4.26375 8.72664 4.52463C8.4653 4.78597 8.33464 5.09997 8.33464 5.46663C8.33464 5.8333 8.4653 6.14708 8.72664 6.40797C8.98752 6.6693 9.3013 6.79997 9.66797 6.79997ZM14.2013 11.7C14.5569 11.7 14.8569 11.5751 15.1013 11.3253C15.3457 11.0751 15.468 10.7722 15.468 10.4166C15.468 10.0722 15.3457 9.77486 15.1013 9.52463C14.8569 9.27486 14.5569 9.14997 14.2013 9.14997C13.8569 9.14997 13.5597 9.27486 13.31 9.52463C13.0597 9.77486 12.9346 10.0722 12.9346 10.4166C12.9346 10.7722 13.0597 11.0751 13.31 11.3253C13.5597 11.5751 13.8569 11.7 14.2013 11.7ZM13.5846 12.4833C13.4291 12.4389 13.282 12.3777 13.1433 12.3C13.0042 12.2222 12.868 12.1277 12.7346 12.0166L12.1013 12.2333C12.0346 12.2555 11.9735 12.2526 11.918 12.2246C11.8624 12.1971 11.818 12.1555 11.7846 12.1L11.5346 11.7C11.5013 11.6444 11.4902 11.5833 11.5013 11.5166C11.5124 11.45 11.5457 11.3944 11.6013 11.35L12.118 10.9333C12.0624 10.7555 12.0346 10.5833 12.0346 10.4166C12.0346 10.25 12.0624 10.0833 12.118 9.91663L11.6013 9.4833C11.5457 9.43886 11.5124 9.3833 11.5013 9.31663C11.4902 9.24997 11.5013 9.18886 11.5346 9.1333L11.7846 8.71663C11.8291 8.67219 11.8791 8.63597 11.9346 8.60797C11.9902 8.58041 12.0457 8.57774 12.1013 8.59997L12.7346 8.8333C12.8569 8.71108 12.9902 8.61375 13.1346 8.5413C13.2791 8.4693 13.4291 8.41108 13.5846 8.36663L13.7013 7.69997C13.7235 7.6333 13.7569 7.58041 13.8013 7.5413C13.8457 7.50263 13.9013 7.4833 13.968 7.4833H14.4513C14.5291 7.4833 14.5902 7.50263 14.6346 7.5413C14.6791 7.58041 14.7069 7.6333 14.718 7.69997L14.8346 8.36663C14.9902 8.41108 15.1402 8.47219 15.2846 8.54997C15.4291 8.62774 15.5624 8.72774 15.6846 8.84997L16.3013 8.59997C16.368 8.57774 16.432 8.58041 16.4933 8.60797C16.5542 8.63597 16.6013 8.67775 16.6346 8.7333L16.8846 9.16663C16.918 9.22219 16.9291 9.28041 16.918 9.3413C16.9069 9.40263 16.8735 9.45552 16.818 9.49997L16.3013 9.9333C16.3569 10.0889 16.3846 10.2555 16.3846 10.4333C16.3846 10.6111 16.3569 10.7777 16.3013 10.9333L16.818 11.35C16.8735 11.3944 16.9069 11.45 16.918 11.5166C16.9291 11.5833 16.918 11.6444 16.8846 11.7L16.6346 12.1166C16.6013 12.1722 16.5569 12.2111 16.5013 12.2333C16.4457 12.2555 16.3846 12.2555 16.318 12.2333L15.6846 12.0166C15.5513 12.1277 15.4153 12.2222 15.2766 12.3C15.1375 12.3777 14.9902 12.4389 14.8346 12.4833L14.718 13.15C14.7069 13.2055 14.6791 13.2555 14.6346 13.3C14.5902 13.3444 14.5291 13.3666 14.4513 13.3666H13.968C13.9013 13.3666 13.8457 13.3444 13.8013 13.3C13.7569 13.2555 13.7235 13.2055 13.7013 13.15L13.5846 12.4833Z" fill="#063468"/>
</g>
</g>
<defs>
<filter id="filter0_d_585_1192" x="0.667969" y="1.1333" width="20.2539" height="18.2334" filterUnits="userSpaceOnUse" color-interpolation-filters="sRGB">
<feFlood flood-opacity="0" result="BackgroundImageFix"/>
<feColorMatrix in="SourceAlpha" type="matrix" values="0 0 0 0 0 0 0 0 0 0 0 0 0 0 0 0 0 0 127 0" result="hardAlpha"/>
<feOffset dy="2"/>
<feGaussianBlur stdDeviation="2"/>
<feColorMatrix type="matrix" values="0 0 0 0 0 0 0 0 0 0 0 0 0 0 0 0 0 0 0.04 0"/>
<feBlend mode="normal" in2="BackgroundImageFix" result="effect1_dropShadow_585_1192"/>
<feBlend mode="normal" in="SourceGraphic" in2="effect1_dropShadow_585_1192" result="shape"/>
</filter>
</defs>
</svg>
