<svg width="23" height="24" viewBox="0 0 23 24" fill="none" xmlns="http://www.w3.org/2000/svg">
<path d="M22.5535 13.6617L20.6535 6.82569C20.0966 4.82302 18.8863 3.06398 17.2149 1.82816C15.5435 0.592343 13.5069 -0.0493232 11.429 0.00515695C9.35104 0.0596371 7.35093 0.807137 5.74658 2.12884C4.14223 3.45054 3.02572 5.27059 2.57452 7.29969L1.10352 13.9147C0.941032 14.6456 0.944789 15.4037 1.11451 16.133C1.28423 16.8623 1.61558 17.5442 2.0841 18.1282C2.55262 18.7123 3.14634 19.1837 3.82143 19.5076C4.49652 19.8316 5.23574 19.9997 5.98452 19.9997H7.09852C7.32803 21.13 7.94125 22.1462 8.83426 22.8761C9.72727 23.606 10.8452 24.0047 11.9985 24.0047C13.1519 24.0047 14.2698 23.606 15.1628 22.8761C16.0558 22.1462 16.669 21.13 16.8985 19.9997H17.7365C18.5073 19.9997 19.2677 19.8216 19.9583 19.4791C20.6488 19.1367 21.2509 18.6392 21.7173 18.0256C22.1838 17.4119 22.5021 16.6987 22.6473 15.9417C22.7925 15.1847 22.7608 14.4044 22.5545 13.6617H22.5535ZM11.9985 21.9997C11.3803 21.9971 10.7779 21.8036 10.2738 21.4456C9.76975 21.0876 9.3886 20.5826 9.18252 19.9997H14.8145C14.6084 20.5826 14.2273 21.0876 13.7232 21.4456C13.2191 21.8036 12.6168 21.9971 11.9985 21.9997ZM20.1245 16.8147C19.8459 17.1844 19.4848 17.4839 19.0701 17.6897C18.6554 17.8954 18.1984 18.0015 17.7355 17.9997H5.98452C5.5353 17.9996 5.09184 17.8987 4.68686 17.7043C4.28188 17.5099 3.92572 17.227 3.64468 16.8766C3.36363 16.5261 3.16488 16.1171 3.06308 15.6795C2.96128 15.242 2.95904 14.7872 3.05652 14.3487L4.52652 7.73269C4.88087 6.1389 5.75782 4.70929 7.01797 3.67114C8.27812 2.63298 9.84914 2.04586 11.4813 2.0031C13.1134 1.96035 14.713 2.46441 16.0258 3.43516C17.3386 4.40591 18.2892 5.78764 18.7265 7.36069L20.6265 14.1967C20.7521 14.6421 20.7721 15.1106 20.6849 15.565C20.5978 16.0195 20.4059 16.4473 20.1245 16.8147Z" fill="#063468"/>
</svg>
