<svg width="12" height="12" viewBox="0 0 12 12" fill="none" xmlns="http://www.w3.org/2000/svg">
<path d="M3.5849 3.3513C3.6849 3.46241 3.7349 3.58464 3.7349 3.71797C3.7349 3.8513 3.6849 3.96797 3.5849 4.06797L2.31823 5.33464L7.41823 5.33464C7.56267 5.33464 7.68201 5.38197 7.77623 5.47664C7.87089 5.57086 7.91823 5.69019 7.91823 5.83464C7.91823 5.97908 7.87089 6.09864 7.77623 6.1933C7.68201 6.28752 7.56267 6.33464 7.41823 6.33464L2.31823 6.33464L3.5849 7.61797C3.6849 7.71797 3.7349 7.83464 3.7349 7.96797C3.7349 8.1013 3.6849 8.21797 3.5849 8.31797C3.4849 8.41797 3.36823 8.46797 3.2349 8.46797C3.10156 8.46797 2.99045 8.42352 2.90156 8.33464L0.818229 6.2513C0.762673 6.19575 0.720896 6.13197 0.692896 6.05997C0.66534 5.98753 0.651562 5.91241 0.651562 5.83464C0.651562 5.75686 0.66534 5.68197 0.692896 5.60997C0.720896 5.53753 0.762673 5.47353 0.818229 5.41797L2.90156 3.33464C3.00156 3.22352 3.11534 3.17352 3.24289 3.18464C3.37089 3.19575 3.4849 3.2513 3.5849 3.3513ZM10.4016 0.00130184C10.7349 0.00130181 11.0182 0.117968 11.2516 0.351302C11.4849 0.584635 11.6016 0.867968 11.6016 1.2013L11.6016 10.468C11.6016 10.8013 11.4849 11.0846 11.2516 11.318C11.0182 11.5513 10.7349 11.668 10.4016 11.668L6.41823 11.668C6.2849 11.668 6.16823 11.6209 6.06823 11.5266C5.96823 11.432 5.91823 11.3124 5.91823 11.168C5.91823 11.0235 5.96823 10.9042 6.06823 10.81C6.16823 10.7153 6.2849 10.668 6.41823 10.668L10.4016 10.668C10.446 10.668 10.4905 10.6457 10.5349 10.6013C10.5793 10.5569 10.6016 10.5124 10.6016 10.468L10.6016 1.2013C10.6016 1.15686 10.5793 1.11241 10.5349 1.06797C10.4905 1.02352 10.446 1.0013 10.4016 1.0013L6.41823 1.0013C6.28489 1.0013 6.16823 0.954191 6.06823 0.859969C5.96823 0.765302 5.91823 0.645747 5.91823 0.501302C5.91823 0.356858 5.96823 0.237302 6.06823 0.142635C6.16823 0.0484133 6.28489 0.0013022 6.41823 0.00130219L10.4016 0.00130184Z" fill="#F35242"/>
</svg>
