<svg width="19" height="19" viewBox="0 0 19 19" fill="none" xmlns="http://www.w3.org/2000/svg">
<path d="M1.12752 0.125977H7.1192C7.66844 0.125977 8.11781 0.581313 8.11781 1.13783V7.20898C8.11781 7.7655 7.66844 8.22084 7.1192 8.22084H1.12752C0.578282 8.22084 0.128906 7.7655 0.128906 7.20898V1.13783C0.128906 0.581313 0.578282 0.125977 1.12752 0.125977ZM11.1137 0.125977H17.1053C17.6546 0.125977 18.1039 0.581313 18.1039 1.13783V7.20898C18.1039 7.7655 17.6546 8.22084 17.1053 8.22084H11.1137C10.5644 8.22084 10.115 7.7655 10.115 7.20898V1.13783C10.115 0.581313 10.5644 0.125977 11.1137 0.125977ZM1.12752 10.2446H7.1192C7.66844 10.2446 8.11781 10.6999 8.11781 11.2564V17.3276C8.11781 17.8841 7.66844 18.3394 7.1192 18.3394H1.12752C0.578282 18.3394 0.128906 17.8841 0.128906 17.3276V11.2564C0.128906 10.6999 0.578282 10.2446 1.12752 10.2446ZM14.1095 10.2446C13.5603 10.2446 13.1109 10.6999 13.1109 11.2564V13.2801H11.1137C10.5644 13.2801 10.115 13.7355 10.115 14.292C10.115 14.8485 10.5644 15.3038 11.1137 15.3038H13.1109V17.3276C13.1109 17.8841 13.5603 18.3394 14.1095 18.3394C14.6587 18.3394 15.1081 17.8841 15.1081 17.3276V15.3038H17.1053C17.6546 15.3038 18.1039 14.8485 18.1039 14.292C18.1039 13.7355 17.6546 13.2801 17.1053 13.2801H15.1081V11.2564C15.1081 10.6999 14.6587 10.2446 14.1095 10.2446Z" fill="#0A65CD"/>
</svg>
