<svg width="109" height="108" viewBox="0 0 109 108" fill="none" xmlns="http://www.w3.org/2000/svg">
<path d="M29.2317 84.5842C30.4566 84.5842 31.5284 84.1514 32.4471 83.2858C33.3657 82.4162 33.8251 81.3178 33.8251 79.9909V49.3687C33.8251 48.0418 33.3657 46.9435 32.4471 46.0738C31.5284 45.2082 30.4566 44.7754 29.2317 44.7754C27.9048 44.7754 26.8085 45.2082 25.9429 46.0738C25.0732 46.9435 24.6384 48.0418 24.6384 49.3687V79.9909C24.6384 81.3178 25.0732 82.4162 25.9429 83.2858C26.8085 84.1514 27.9048 84.5842 29.2317 84.5842ZM52.9639 84.5842C54.2909 84.5842 55.3892 84.1514 56.2589 83.2858C57.1244 82.4162 57.5572 81.3178 57.5572 79.9909V30.9954C57.5572 29.6685 57.1244 28.5722 56.2589 27.7066C55.3892 26.837 54.2909 26.4021 52.9639 26.4021C51.6369 26.4021 50.5407 26.837 49.6751 27.7066C48.8054 28.5722 48.3706 29.6685 48.3706 30.9954V79.9909C48.3706 81.3178 48.8054 82.4162 49.6751 83.2858C50.5407 84.1514 51.6369 84.5842 52.9639 84.5842ZM76.6961 84.5842C78.023 84.5842 79.1213 84.1514 79.991 83.2858C80.8566 82.4162 81.2894 81.3178 81.2894 79.9909V67.742C81.2894 66.4151 80.8566 65.3167 79.991 64.4471C79.1213 63.5815 78.023 63.1487 76.6961 63.1487C75.4712 63.1487 74.3994 63.5815 73.4808 64.4471C72.5621 65.3167 72.1028 66.4151 72.1028 67.742V79.9909C72.1028 81.3178 72.5621 82.4162 73.4808 83.2858C74.3994 84.1514 75.4712 84.5842 76.6961 84.5842ZM11.9302 107.551C8.86801 107.551 6.26513 106.479 4.12158 104.335C1.97803 102.192 0.90625 99.5891 0.90625 96.5268V14.4595C0.90625 11.3973 1.97803 8.79438 4.12158 6.65083C6.26513 4.50728 8.86801 3.43551 11.9302 3.43551H63.3754C64.7024 3.43551 65.8007 3.8683 66.6704 4.73388C67.536 5.60355 67.9688 6.70187 67.9688 8.02883C67.9688 9.35579 67.536 10.4521 66.6704 11.3176C65.8007 12.1873 64.7024 12.6222 63.3754 12.6222H11.9302C11.4199 12.6222 10.9871 12.8018 10.6318 13.1611C10.2725 13.5163 10.0929 13.9491 10.0929 14.4595V96.5268C10.0929 97.0372 10.2725 97.472 10.6318 97.8314C10.9871 98.1866 11.4199 98.3642 11.9302 98.3642H93.9976C94.508 98.3642 94.9428 98.1866 95.3021 97.8314C95.6573 97.472 95.8349 97.0372 95.8349 96.5268V45.0816C95.8349 43.7547 96.2677 42.6564 97.1333 41.7867C98.003 40.9211 99.1013 40.4883 100.428 40.4883C101.755 40.4883 102.854 40.9211 103.723 41.7867C104.589 42.6564 105.022 43.7547 105.022 45.0816V96.5268C105.022 99.5891 103.95 102.192 101.806 104.335C99.6627 106.479 97.0598 107.551 93.9976 107.551H11.9302ZM91.2416 34.0577C89.9146 34.0577 88.8163 33.6228 87.9466 32.7532C87.0811 31.8876 86.6483 30.7913 86.6483 29.4643V21.8088H78.9927C77.6658 21.8088 76.5695 21.374 75.7039 20.5043C74.8343 19.6387 74.3994 18.5424 74.3994 17.2155C74.3994 15.8885 74.8343 14.7922 75.7039 13.9267C76.5695 13.057 77.6658 12.6222 78.9927 12.6222H86.6483V4.96661C86.6483 3.63965 87.0811 2.54134 87.9466 1.67167C88.8163 0.806083 89.9146 0.373291 91.2416 0.373291C92.5686 0.373291 93.6669 0.806083 94.5365 1.67167C95.4021 2.54134 95.8349 3.63965 95.8349 4.96661V12.6222H103.49C104.817 12.6222 105.916 13.057 106.785 13.9267C107.651 14.7922 108.084 15.8885 108.084 17.2155C108.084 18.5424 107.651 19.6387 106.785 20.5043C105.916 21.374 104.817 21.8088 103.49 21.8088H95.8349V29.4643C95.8349 30.7913 95.4021 31.8876 94.5365 32.7532C93.6669 33.6228 92.5686 34.0577 91.2416 34.0577Z" fill="#D9D9D9"/>
</svg>
