<svg width="17" height="20" viewBox="0 0 17 20" fill="none" xmlns="http://www.w3.org/2000/svg">
<path d="M6.27812 15.7998C5.76146 15.7998 5.32812 15.6248 4.97812 15.2748C4.62812 14.9248 4.45312 14.4998 4.45312 13.9998V2.6248C4.45312 2.10814 4.62812 1.6748 4.97812 1.3248C5.32812 0.974805 5.76146 0.799805 6.27812 0.799805H14.6281C15.1281 0.799805 15.5575 0.978805 15.9161 1.3368C16.2741 1.69547 16.4531 2.1248 16.4531 2.6248V13.9998C16.4531 14.4998 16.2741 14.9248 15.9161 15.2748C15.5575 15.6248 15.1281 15.7998 14.6281 15.7998H6.27812ZM6.27812 14.2998H14.6281C14.7281 14.2998 14.8075 14.2705 14.8661 14.2118C14.9241 14.1538 14.9531 14.0831 14.9531 13.9998V2.6248C14.9531 2.5248 14.9241 2.44547 14.8661 2.3868C14.8075 2.3288 14.7281 2.2998 14.6281 2.2998H6.27812C6.17812 2.2998 6.09913 2.3288 6.04113 2.3868C5.98246 2.44547 5.95312 2.5248 5.95312 2.6248V13.9998C5.95312 14.0831 5.98246 14.1538 6.04113 14.2118C6.09913 14.2705 6.17812 14.2998 6.27812 14.2998ZM2.75312 19.2998C2.25312 19.2998 1.82812 19.1248 1.47812 18.7748C1.12812 18.4248 0.953125 17.9998 0.953125 17.4998V5.5498C0.953125 5.3498 1.02379 5.17481 1.16513 5.02481C1.30713 4.8748 1.48646 4.7998 1.70312 4.7998C1.90312 4.7998 2.07812 4.8748 2.22812 5.02481C2.37812 5.17481 2.45312 5.3498 2.45312 5.5498V17.4998C2.45312 17.5831 2.48213 17.6538 2.54013 17.7118C2.59879 17.7705 2.66979 17.7998 2.75312 17.7998H11.7031C11.9031 17.7998 12.0781 17.8748 12.2281 18.0248C12.3781 18.1748 12.4531 18.3498 12.4531 18.5498C12.4531 18.7665 12.3781 18.9455 12.2281 19.0868C12.0781 19.2288 11.9031 19.2998 11.7031 19.2998H2.75312Z" fill="white"/>
</svg>
