<svg width="20" height="12" viewBox="0 0 20 12" fill="none" xmlns="http://www.w3.org/2000/svg">
<path d="M1.075 9.3001L9.375 0.975098C9.45833 0.891764 9.55433 0.829431 9.663 0.788098C9.771 0.746098 9.88333 0.725098 10 0.725098C10.1167 0.725098 10.2293 0.746098 10.338 0.788098C10.446 0.829431 10.5417 0.891764 10.625 0.975098L18.95 9.3001C19.15 9.5001 19.25 9.73343 19.25 10.0001C19.25 10.2668 19.1417 10.5084 18.925 10.7251C18.7417 10.9251 18.5127 11.0251 18.238 11.0251C17.9627 11.0251 17.725 10.9251 17.525 10.7251L10 3.1751L2.45 10.7251C2.26667 10.9084 2.04167 11.0001 1.775 11.0001C1.50833 11.0001 1.275 10.9001 1.075 10.7001C0.875001 10.5001 0.775 10.2668 0.775 10.0001C0.775 9.73343 0.875001 9.5001 1.075 9.3001Z" fill="#7D7D7D"/>
</svg>
