<svg width="20" height="12" viewBox="0 0 20 12" fill="none" xmlns="http://www.w3.org/2000/svg">
<path d="M18.925 2.6999L10.625 11.0249C10.5417 11.1082 10.4457 11.1706 10.337 11.2119C10.229 11.2539 10.1167 11.2749 10 11.2749C9.88333 11.2749 9.77067 11.2539 9.662 11.2119C9.554 11.1706 9.45833 11.1082 9.375 11.0249L1.05 2.6999C0.85 2.4999 0.75 2.26657 0.75 1.9999C0.75 1.73324 0.858333 1.49157 1.075 1.2749C1.25833 1.0749 1.48733 0.974903 1.762 0.974903C2.03733 0.974903 2.275 1.0749 2.475 1.2749L10 8.8249L17.55 1.2749C17.7333 1.09157 17.9583 0.999902 18.225 0.999902C18.4917 0.999902 18.725 1.0999 18.925 1.2999C19.125 1.4999 19.225 1.73324 19.225 1.9999C19.225 2.26657 19.125 2.4999 18.925 2.6999Z" fill="#002145"/>
</svg>
