<svg width="16" height="16" viewBox="0 0 16 16" fill="none" xmlns="http://www.w3.org/2000/svg">
<path d="M8 11.2531C7.88333 11.2531 7.771 11.2325 7.663 11.1911C7.55433 11.1491 7.45833 11.0781 7.375 10.9781L4.25 7.87813C4.11667 7.74479 4.05 7.56979 4.05 7.35313C4.05 7.13646 4.11667 6.96146 4.25 6.82812C4.4 6.67812 4.579 6.59879 4.787 6.59013C4.99567 6.58213 5.175 6.65313 5.325 6.80313L7.25 8.72813V1.07812C7.25 0.861458 7.321 0.682125 7.463 0.540125C7.60433 0.398792 7.78333 0.328125 8 0.328125C8.21667 0.328125 8.396 0.398792 8.538 0.540125C8.67933 0.682125 8.75 0.861458 8.75 1.07812V8.72813L10.675 6.80313C10.8083 6.66979 10.9833 6.60313 11.2 6.60313C11.4167 6.60313 11.6 6.67812 11.75 6.82812C11.8833 6.96146 11.95 7.13212 11.95 7.34013C11.95 7.54879 11.8833 7.72813 11.75 7.87813L8.625 10.9781C8.54167 11.0781 8.446 11.1491 8.338 11.1911C8.22933 11.2325 8.11667 11.2531 8 11.2531ZM2.3 15.5031C1.8 15.5031 1.375 15.3281 1.025 14.9781C0.675 14.6281 0.5 14.2031 0.5 13.7031V11.7531C0.5 11.5365 0.571 11.3571 0.713 11.2151C0.854333 11.0738 1.03333 11.0031 1.25 11.0031C1.46667 11.0031 1.64567 11.0738 1.787 11.2151C1.929 11.3571 2 11.5365 2 11.7531V13.7031C2 13.7698 2.03333 13.8365 2.1 13.9031C2.16667 13.9698 2.23333 14.0031 2.3 14.0031H13.7C13.7667 14.0031 13.8333 13.9698 13.9 13.9031C13.9667 13.8365 14 13.7698 14 13.7031V11.7531C14 11.5365 14.0707 11.3571 14.212 11.2151C14.354 11.0738 14.5333 11.0031 14.75 11.0031C14.9667 11.0031 15.146 11.0738 15.288 11.2151C15.4293 11.3571 15.5 11.5365 15.5 11.7531V13.7031C15.5 14.2031 15.325 14.6281 14.975 14.9781C14.625 15.3281 14.2 15.5031 13.7 15.5031H2.3Z" fill="#002145"/>
</svg>
