<svg width="18" height="18" viewBox="0 0 18 18" fill="none" xmlns="http://www.w3.org/2000/svg">
<path d="M14.9992 3.03896C13.243 1.49224 10.9534 0.690407 8.61588 0.803492C6.2784 0.916577 4.07689 1.93569 2.4782 3.64471C0.879509 5.35374 0.00936705 7.61826 0.0522975 9.95808C0.095228 12.2979 1.04785 14.529 2.70816 16.1782C3.41012 16.8675 4.35536 17.2526 5.33916 17.25H12.6644C13.5958 17.2626 14.4964 16.9168 15.1799 16.284C16.079 15.4255 16.7914 14.3908 17.2726 13.2445C17.7537 12.0983 17.9933 10.8651 17.9763 9.62206C17.9594 8.37904 17.6862 7.15287 17.174 6.02017C16.6617 4.88748 15.9214 3.8726 14.9992 3.03896V3.03896ZM14.1502 15.1942C13.744 15.5624 13.2125 15.7612 12.6644 15.75H5.33916C4.74766 15.7514 4.17928 15.5203 3.75666 15.1065C2.68679 14.0607 1.9541 12.719 1.65277 11.2536C1.35145 9.78818 1.49525 8.26616 2.06571 6.88314C2.63616 5.50012 3.6072 4.31931 4.854 3.49248C6.1008 2.66565 7.56639 2.23059 9.06239 2.24322C10.5584 2.25585 12.0164 2.71559 13.2491 3.56336C14.4817 4.41112 15.4327 5.60816 15.9797 7.00061C16.5267 8.39306 16.6448 9.9173 16.3188 11.3774C15.9928 12.8375 15.2375 14.1667 14.1502 15.1942V15.1942ZM6.61416 5.01221C6.7279 5.17533 6.7722 5.37694 6.73732 5.57272C6.70244 5.7685 6.59124 5.94241 6.42816 6.05621C5.88851 6.43735 5.4389 6.93208 5.11096 7.50562C4.78301 8.07916 4.58468 8.71757 4.52992 9.37597C4.47516 10.0344 4.5653 10.6968 4.794 11.3166C5.02269 11.9364 5.38439 12.4987 5.85366 12.9637C5.92409 13.0327 5.98024 13.1148 6.01891 13.2054C6.05759 13.2961 6.07804 13.3935 6.07908 13.492C6.08013 13.5906 6.06175 13.6883 6.025 13.7798C5.98826 13.8712 5.93386 13.9545 5.86491 14.025C5.79597 14.0954 5.71383 14.1515 5.62319 14.1902C5.53254 14.2289 5.43516 14.2493 5.33662 14.2504C5.23807 14.2514 5.14029 14.233 5.04884 14.1963C4.9574 14.1596 4.87409 14.1052 4.80366 14.0362C4.17803 13.4161 3.69582 12.6665 3.39092 11.8401C3.08603 11.0137 2.96585 10.1305 3.03884 9.25264C3.11182 8.3748 3.3762 7.5236 3.81339 6.75888C4.25058 5.99415 4.84997 5.33447 5.56941 4.82621C5.65021 4.76978 5.74134 4.72982 5.83758 4.70862C5.93383 4.68743 6.03331 4.68541 6.13034 4.70269C6.22736 4.71996 6.32004 4.75619 6.40305 4.8093C6.48607 4.86241 6.55781 4.93136 6.61416 5.01221ZM14.9992 9.74996C15.0014 10.5491 14.8427 11.3405 14.5324 12.0769C14.2221 12.8133 13.7666 13.4797 13.1932 14.0362C13.0509 14.1754 12.8592 14.2525 12.6602 14.2504C12.4612 14.2483 12.2712 14.1672 12.1319 14.025C11.9927 13.8827 11.9156 13.691 11.9177 13.492C11.9199 13.293 12.0009 13.1029 12.1432 12.9637C12.6125 12.4987 12.9742 11.9365 13.203 11.3167C13.4317 10.6969 13.5219 10.0346 13.4673 9.37615C13.4126 8.71775 13.2143 8.07932 12.8864 7.50575C12.5586 6.93219 12.109 6.43741 11.5694 6.05621C11.4864 6.00081 11.4153 5.9294 11.3603 5.84617C11.3053 5.76295 11.2674 5.66958 11.2489 5.57153C11.2304 5.47348 11.2316 5.37273 11.2525 5.27517C11.2735 5.17761 11.3137 5.0852 11.3707 5.00337C11.4278 4.92153 11.5007 4.85191 11.585 4.79858C11.6693 4.74525 11.7634 4.70928 11.8619 4.69278C11.9603 4.67628 12.061 4.67959 12.1581 4.7025C12.2552 4.72541 12.3468 4.76747 12.4274 4.82621C13.2208 5.37922 13.869 6.11565 14.3167 6.9729C14.7645 7.83014 14.9986 8.78283 14.9992 9.74996V9.74996ZM10.4992 9.74996C10.4992 10.0133 10.4299 10.2719 10.2982 10.5C10.1666 10.728 9.97722 10.9174 9.74919 11.049C9.52116 11.1807 9.26249 11.25 8.99919 11.25C8.73588 11.25 8.47721 11.1807 8.24918 11.049C8.02115 10.9174 7.83179 10.728 7.70013 10.5C7.56848 10.272 7.49917 10.0133 7.49916 9.75001C7.49916 9.4867 7.56847 9.22803 7.70012 9C7.83178 8.77197 8.02113 8.58261 8.24916 8.45096V4.49996C8.24916 4.30105 8.32818 4.11028 8.46883 3.96963C8.60949 3.82898 8.80025 3.74996 8.99916 3.74996C9.19808 3.74996 9.38884 3.82898 9.52949 3.96963C9.67015 4.11028 9.74916 4.30105 9.74916 4.49996V8.45096C9.97719 8.58261 10.1665 8.77196 10.2982 8.99998C10.4298 9.228 10.4992 9.48666 10.4992 9.74996V9.74996Z" fill="#002145"/>
</svg>
