<svg width="24" height="24" viewBox="0 0 24 24" fill="none" xmlns="http://www.w3.org/2000/svg">
<path d="M10.5808 3.81505C9.88476 3.82876 8.92133 3.85619 8.43791 3.87676C7.95448 3.89734 7.22076 3.93162 6.80591 3.94876C5.98305 3.98648 4.73162 4.06876 4.21734 4.11676C4.03905 4.13733 3.75448 4.16133 3.58305 4.17162C2.74305 4.23334 2.00591 4.57619 1.42305 5.18991C0.864196 5.77276 0.603625 6.33162 0.329339 7.53162C0.253911 7.87105 0.157911 8.83448 0.0619107 10.2573C0.000196437 11.1693 0.000196437 14.9785 0.0619107 15.8459C0.212768 17.9785 0.253911 18.3179 0.46991 19.1373C0.78191 20.3305 1.34077 21.0848 2.24934 21.5339C2.78762 21.7979 3.38419 21.9213 4.41277 21.983C4.74877 22.0002 5.10191 22.0242 5.19448 22.0345C5.36934 22.0516 6.61048 22.0928 8.89733 22.1545C10.5533 22.2025 14.0402 22.2025 15.0688 22.1579C15.5042 22.1373 16.2653 22.1065 16.7659 22.0859C17.6813 22.0516 18.1819 22.0208 19.2516 21.9282C19.5739 21.9008 20.0368 21.863 20.2802 21.8425C21.2779 21.7636 21.9636 21.455 22.5773 20.8105C23.1362 20.2276 23.3968 19.6688 23.671 18.4688C23.7465 18.1293 23.8425 17.1659 23.9385 15.743C24.0002 14.831 24.0002 11.0219 23.9385 10.1545C23.8288 8.62191 23.743 7.74076 23.671 7.42876C23.3316 5.94419 22.999 5.34419 22.1796 4.72705C21.6482 4.32591 20.9728 4.10648 20.143 4.06876C19.9168 4.05505 19.4779 4.03448 19.1659 4.01734C17.4482 3.91791 15.607 3.85276 13.9888 3.82876C13.3202 3.81848 12.5625 3.80476 12.3088 3.80133C12.055 3.79448 11.2768 3.80133 10.5808 3.81505ZM15.9293 4.66876C17.1019 4.70648 18.2505 4.75105 18.4836 4.77162C18.7168 4.78876 19.255 4.81962 19.6802 4.84019C20.167 4.86419 20.5613 4.90191 20.7465 4.94305C21.6756 5.14533 22.3202 5.75562 22.639 6.74305C23.0642 8.05276 23.191 9.50305 23.1945 12.983C23.1945 15.311 23.1636 16.0036 22.9888 17.6802C22.9373 18.167 22.7728 18.9008 22.615 19.343C22.2825 20.2653 21.6413 20.8722 20.7773 21.0848C20.3796 21.1842 18.9465 21.2733 16.8345 21.3282C16.1282 21.3488 15.4253 21.3728 15.2745 21.383C14.7876 21.4173 10.4402 21.4036 9.25733 21.3693C8.62648 21.3488 7.60819 21.3179 6.99448 21.2973C4.96477 21.2356 3.37048 21.0916 2.90762 20.9339C2.1842 20.6905 1.67677 20.2105 1.39562 19.5145C1.1042 18.7876 0.994482 18.1499 0.850482 16.3602C0.78191 15.4722 0.775053 15.167 0.775053 12.983C0.775053 10.8196 0.785339 10.4905 0.850482 9.64019C0.99791 7.82648 1.10762 7.20934 1.42305 6.44819C1.63562 5.94076 1.90991 5.60819 2.36591 5.30305C2.87334 4.96705 3.19905 4.89505 4.50877 4.82305C5.03677 4.79562 5.75334 4.75791 6.10305 4.74076C7.84476 4.64476 11.0745 4.57619 12.8059 4.59333C13.3545 4.60019 14.7602 4.63448 15.9293 4.66876Z" fill="#D3D5E2"/>
<path d="M8.92099 8.6597L8.79413 8.77627L8.78385 13.2471C8.77699 17.4471 8.78042 17.7214 8.83528 17.8345C8.86956 17.8997 8.93471 17.9751 8.98271 17.9991C9.15413 18.0883 9.32213 18.0334 10.0147 17.646C10.3816 17.4403 10.7484 17.238 10.8341 17.19C10.9198 17.142 11.0878 17.046 11.2113 16.9774C11.3347 16.9054 11.5884 16.7648 11.777 16.6585C11.9656 16.5557 12.3838 16.326 12.7027 16.1477C14.1358 15.3454 15.4044 14.6357 16.169 14.2105C16.625 13.9603 17.0296 13.7134 17.0741 13.6688C17.1221 13.6208 17.1564 13.5283 17.1667 13.4391C17.1907 13.206 17.1084 13.1168 16.6113 12.8288C16.3678 12.6883 16.1176 12.5374 16.049 12.4997C15.9804 12.4585 15.3324 12.078 14.6056 11.6528C11.8867 10.0654 10.1861 9.07455 9.73699 8.81398C9.19528 8.49855 9.11642 8.48141 8.92099 8.6597ZM9.71985 9.70884C9.74042 9.72598 10.2101 10.0037 10.7656 10.3294C13.0078 11.6425 13.7073 12.054 14.6741 12.6231C15.2296 12.9488 15.7541 13.2574 15.8364 13.3054C16.0181 13.4048 16.0353 13.3843 15.4798 13.6928C15.2741 13.806 14.9553 13.9808 14.777 14.0803C14.5987 14.1797 13.5736 14.7488 12.497 15.3488C11.4238 15.9488 10.3747 16.5317 10.1656 16.6448C9.95985 16.758 9.75756 16.8711 9.71985 16.8951C9.55871 17.0083 9.56556 17.166 9.56556 13.2917C9.56556 9.83226 9.56899 9.64369 9.62728 9.66427C9.65813 9.67455 9.70271 9.69512 9.71985 9.70884Z" fill="#D3D5E2"/>
</svg>
