<svg width="18" height="19" viewBox="0 0 18 19" fill="none" xmlns="http://www.w3.org/2000/svg">
<path d="M9 0C4.032 0 0 4.08548 0 9.11937C0 14.1533 4.032 18.2387 9 18.2387C13.968 18.2387 18 14.1533 18 9.11937C18 4.08548 13.968 0 9 0ZM9.9 15.5029H8.1V13.6791H9.9V15.5029ZM11.763 8.43542L10.953 9.2744C10.503 9.73948 10.179 10.159 10.017 10.8156C9.945 11.1074 9.9 11.4357 9.9 11.8552H8.1V11.3992C8.1 10.9797 8.172 10.5785 8.298 10.2046C8.478 9.67565 8.775 9.20144 9.153 8.81843L10.269 7.66939C10.683 7.26814 10.881 6.66626 10.764 6.0279C10.647 5.37131 10.143 4.81503 9.513 4.63264C8.514 4.34994 7.587 4.92446 7.29 5.7908C7.182 6.12822 6.903 6.38356 6.552 6.38356H6.282C5.76 6.38356 5.4 5.87287 5.544 5.36219C5.931 4.02164 7.056 3.00027 8.451 2.78141C9.819 2.56254 11.124 3.28297 11.934 4.42289C12.996 5.90935 12.681 7.50524 11.763 8.43542Z" fill="#002145"/>
</svg>
