<svg width="16" height="17" viewBox="0 0 16 17" fill="none" xmlns="http://www.w3.org/2000/svg">
<path d="M1.775 16.7C1.475 16.8333 1.18733 16.8123 0.912 16.637C0.637334 16.4623 0.5 16.2083 0.5 15.875V2.3C0.5 1.8 0.675 1.375 1.025 1.025C1.375 0.675 1.8 0.5 2.3 0.5H8V2H2.3C2.23333 2 2.16667 2.03333 2.1 2.1C2.03333 2.16667 2 2.23333 2 2.3V14.95L7 12.8L12 14.95V8H13.5V15.875C13.5 16.2083 13.3623 16.4623 13.087 16.637C12.8123 16.8123 12.525 16.8333 12.225 16.7L7 14.45L1.775 16.7ZM12.75 6C12.5333 6 12.354 5.929 12.212 5.787C12.0707 5.64567 12 5.46667 12 5.25V4H10.75C10.5333 4 10.3543 3.929 10.213 3.787C10.071 3.64567 10 3.46667 10 3.25C10 3.03333 10.071 2.85433 10.213 2.713C10.3543 2.571 10.5333 2.5 10.75 2.5H12V1.25C12 1.03333 12.0707 0.854 12.212 0.712C12.354 0.570667 12.5333 0.5 12.75 0.5C12.9667 0.5 13.146 0.570667 13.288 0.712C13.4293 0.854 13.5 1.03333 13.5 1.25V2.5H14.75C14.9667 2.5 15.146 2.571 15.288 2.713C15.4293 2.85433 15.5 3.03333 15.5 3.25C15.5 3.46667 15.4293 3.64567 15.288 3.787C15.146 3.929 14.9667 4 14.75 4H13.5V5.25C13.5 5.46667 13.4293 5.64567 13.288 5.787C13.146 5.929 12.9667 6 12.75 6Z" fill="#002145"/>
</svg>
