<svg width="17" height="20" viewBox="0 0 17 20" fill="none" xmlns="http://www.w3.org/2000/svg">
<path d="M6.2752 15.7998C5.75853 15.7998 5.32519 15.6248 4.97519 15.2748C4.6252 14.9248 4.4502 14.4998 4.4502 13.9998V2.6248C4.4502 2.10814 4.6252 1.6748 4.97519 1.3248C5.32519 0.974805 5.75853 0.799805 6.2752 0.799805H14.6252C15.1252 0.799805 15.5545 0.978805 15.9132 1.3368C16.2712 1.69547 16.4502 2.1248 16.4502 2.6248V13.9998C16.4502 14.4998 16.2712 14.9248 15.9132 15.2748C15.5545 15.6248 15.1252 15.7998 14.6252 15.7998H6.2752ZM6.2752 14.2998H14.6252C14.7252 14.2998 14.8045 14.2705 14.8632 14.2118C14.9212 14.1538 14.9502 14.0831 14.9502 13.9998V2.6248C14.9502 2.5248 14.9212 2.44547 14.8632 2.3868C14.8045 2.3288 14.7252 2.2998 14.6252 2.2998H6.2752C6.1752 2.2998 6.0962 2.3288 6.0382 2.3868C5.97953 2.44547 5.9502 2.5248 5.9502 2.6248V13.9998C5.9502 14.0831 5.97953 14.1538 6.0382 14.2118C6.0962 14.2705 6.1752 14.2998 6.2752 14.2998ZM2.7502 19.2998C2.2502 19.2998 1.8252 19.1248 1.4752 18.7748C1.1252 18.4248 0.950195 17.9998 0.950195 17.4998V5.5498C0.950195 5.3498 1.02086 5.17481 1.1622 5.02481C1.3042 4.8748 1.48353 4.7998 1.7002 4.7998C1.9002 4.7998 2.0752 4.8748 2.2252 5.02481C2.3752 5.17481 2.4502 5.3498 2.4502 5.5498V17.4998C2.4502 17.5831 2.4792 17.6538 2.5372 17.7118C2.59586 17.7705 2.66686 17.7998 2.7502 17.7998H11.7002C11.9002 17.7998 12.0752 17.8748 12.2252 18.0248C12.3752 18.1748 12.4502 18.3498 12.4502 18.5498C12.4502 18.7665 12.3752 18.9455 12.2252 19.0868C12.0752 19.2288 11.9002 19.2998 11.7002 19.2998H2.7502Z" fill="#002145"/>
</svg>
