<svg width="16" height="18" viewBox="0 0 16 18" fill="none" xmlns="http://www.w3.org/2000/svg">
<path d="M6.125 17.2499C4.475 16.8332 3.125 15.9582 2.075 14.6249C1.025 13.2916 0.5 11.7499 0.5 9.9999C0.5 9.0999 0.658333 8.24157 0.975 7.4249C1.29167 6.60824 1.725 5.85824 2.275 5.1749C2.425 5.00824 2.59567 4.9249 2.787 4.9249C2.979 4.9249 3.15833 5.00824 3.325 5.1749C3.475 5.30824 3.55 5.4749 3.55 5.6749C3.55 5.8749 3.48333 6.05824 3.35 6.2249C2.91667 6.75824 2.58333 7.34557 2.35 7.9869C2.11667 8.6289 2 9.2999 2 9.9999C2 11.3832 2.41667 12.6082 3.25 13.6749C4.08333 14.7416 5.14167 15.4499 6.425 15.7999C6.59167 15.8499 6.72933 15.9456 6.838 16.0869C6.946 16.2289 7 16.3832 7 16.5499C7 16.7999 6.91267 16.9959 6.738 17.1379C6.56267 17.2792 6.35833 17.3166 6.125 17.2499ZM9.875 17.2749C9.64167 17.3416 9.43733 17.2999 9.262 17.1499C9.08733 16.9999 9 16.7999 9 16.5499C9 16.3832 9.05433 16.2332 9.163 16.0999C9.271 15.9666 9.40833 15.8749 9.575 15.8249C10.8583 15.4249 11.9167 14.6956 12.75 13.6369C13.5833 12.5789 14 11.3666 14 9.9999C14 8.33324 13.4167 6.91657 12.25 5.7499C11.0833 4.58324 9.66667 3.9999 8 3.9999H7.65L8.475 4.8249C8.60833 4.9749 8.675 5.1499 8.675 5.3499C8.675 5.5499 8.60833 5.7249 8.475 5.8749C8.325 6.0249 8.146 6.0999 7.938 6.0999C7.72933 6.0999 7.55833 6.0249 7.425 5.8749L5.425 3.8749C5.325 3.79157 5.25833 3.6959 5.225 3.5879C5.19167 3.47924 5.175 3.36657 5.175 3.2499C5.175 3.13324 5.19167 3.02057 5.225 2.9119C5.25833 2.8039 5.325 2.70824 5.425 2.6249L7.425 0.624902C7.55833 0.474902 7.72933 0.399902 7.938 0.399902C8.146 0.399902 8.325 0.474902 8.475 0.624902C8.60833 0.774902 8.675 0.949902 8.675 1.1499C8.675 1.3499 8.60833 1.5249 8.475 1.6749L7.65 2.4999H8C10.1 2.4999 11.875 3.2249 13.325 4.6749C14.775 6.1249 15.5 7.8999 15.5 9.9999C15.5 11.7332 14.975 13.2666 13.925 14.5999C12.875 15.9332 11.525 16.8249 9.875 17.2749Z" fill="#488CDA"/>
</svg>
