<svg width="18" height="14" viewBox="0 0 18 14" fill="none" xmlns="http://www.w3.org/2000/svg">
<path d="M2.37578 13.5C1.87578 13.5 1.44678 13.325 1.08878 12.975C0.730114 12.625 0.550781 12.2 0.550781 11.7V2.3C0.550781 1.8 0.730114 1.375 1.08878 1.025C1.44678 0.675 1.87578 0.5 2.37578 0.5H11.7508C12.1008 0.5 12.4258 0.579 12.7258 0.737C13.0258 0.895667 13.2758 1.11667 13.4758 1.4L16.7008 5.95C16.9174 6.26667 17.0258 6.61667 17.0258 7C17.0258 7.38333 16.9174 7.73333 16.7008 8.05L13.4758 12.6C13.2758 12.8667 13.0258 13.0833 12.7258 13.25C12.4258 13.4167 12.1008 13.5 11.7508 13.5H2.37578ZM15.6008 7L12.2258 2.25C12.1758 2.18333 12.1091 2.125 12.0258 2.075C11.9424 2.025 11.8508 2 11.7508 2H2.37578C2.29245 2 2.21745 2.03333 2.15078 2.1C2.08411 2.16667 2.05078 2.23333 2.05078 2.3V11.7C2.05078 11.7667 2.08411 11.8333 2.15078 11.9C2.21745 11.9667 2.29245 12 2.37578 12H11.7508C11.8508 12 11.9424 11.975 12.0258 11.925C12.1091 11.875 12.1758 11.8167 12.2258 11.75L15.6008 7Z" fill="#002145"/>
</svg>
