<svg width="16" height="16" viewBox="0 0 16 16" fill="none" xmlns="http://www.w3.org/2000/svg">
<path d="M8.525 0.899805C8.675 1.0498 8.75 1.22914 8.75 1.4378C8.75 1.64581 8.68333 1.82481 8.55 1.97481L3.25 7.24981L14.875 7.2498C15.075 7.2498 15.25 7.3208 15.4 7.4628C15.55 7.60414 15.625 7.78314 15.625 7.9998C15.625 8.21647 15.55 8.3958 15.4 8.5378C15.25 8.67914 15.075 8.7498 14.875 8.7498L3.25 8.74981L8.55 14.0248C8.68333 14.1748 8.75 14.3538 8.75 14.5618C8.75 14.7705 8.675 14.9498 8.525 15.0998C8.375 15.2331 8.2 15.2998 8 15.2998C7.8 15.2998 7.625 15.2331 7.475 15.0998L1.025 8.62481C0.924999 8.54147 0.853999 8.44581 0.812 8.33781C0.770666 8.22914 0.749999 8.11647 0.749999 7.99981C0.749999 7.88314 0.770666 7.77081 0.812 7.66281C0.853999 7.55414 0.924999 7.45814 1.025 7.37481L7.475 0.899805C7.625 0.766472 7.8 0.699806 8 0.699806C8.2 0.699806 8.375 0.766472 8.525 0.899805Z" fill="#0A65CD"/>
</svg>
