<svg width="9" height="36" viewBox="0 0 9 36" fill="none" xmlns="http://www.w3.org/2000/svg">
<path d="M0.781272 31.2418C0.779558 30.7338 0.879498 30.2307 1.07509 29.7627C1.27068 29.2948 1.55788 28.8716 1.91944 28.5186C2.28099 28.1656 2.70944 27.8901 3.17903 27.7087C3.64863 27.5273 4.14968 27.4436 4.65208 27.4628C5.15847 27.4324 5.66568 27.5064 6.14287 27.6804C6.62005 27.8543 7.05722 28.1245 7.4278 28.4745C7.79838 28.8245 8.09463 29.247 8.2985 29.7164C8.50237 30.1857 8.6096 30.6921 8.6137 31.2046C8.61779 31.7172 8.51866 32.2252 8.32232 32.6978C8.12598 33.1704 7.83652 33.5977 7.47159 33.9537C7.10665 34.3097 6.67385 34.587 6.19951 34.7687C5.72517 34.9504 5.21921 35.0327 4.7124 35.0106C4.20694 35.0339 3.70204 34.9538 3.22792 34.7752C2.75381 34.5966 2.32025 34.3232 1.9532 33.9713C1.58616 33.6194 1.29316 33.1963 1.09179 32.7273C0.890423 32.2583 0.784807 31.753 0.781272 31.2418V31.2418ZM0.901915 0.603516H8.04029L7.03488 23.4095H2.25922L0.901915 0.603516Z" fill="white"/>
</svg>
