<svg width="117" height="84" viewBox="0 0 117 84" fill="none" xmlns="http://www.w3.org/2000/svg">
<path d="M27.8541 71.7585C26.0836 71.7571 24.3445 71.2856 22.8111 70.3913C21.2776 69.497 20.0037 68.2113 19.1168 66.663C18.2299 65.1146 17.7613 63.358 17.7578 61.5691C17.7544 59.7801 18.2162 58.0217 19.0971 56.4698L48.0427 5.45349C48.922 3.90204 50.1933 2.61431 51.7266 1.72191C53.2598 0.829502 55.0001 0.364429 56.7696 0.374209C58.5392 0.363377 60.2799 0.828001 61.8133 1.72051C63.3468 2.61302 64.6179 3.90134 65.4965 5.45349L94.7537 56.2971C95.661 57.8432 96.146 59.6047 96.1593 61.402C96.1726 63.1993 95.7138 64.968 94.8296 66.5276C93.9453 68.0872 92.6675 69.3818 91.1263 70.2794C89.5851 71.1769 87.8358 71.6453 86.057 71.6366L27.8441 71.8194L27.8541 71.7585ZM56.8098 3.37098C55.5657 3.3701 54.3436 3.70245 53.268 4.33417C52.1924 4.96588 51.3018 5.87438 50.6869 6.96711L21.7413 57.9835C21.1227 59.0721 20.7982 60.306 20.8004 61.5613C20.8025 62.8166 21.1311 64.0493 21.7533 65.1358C22.3755 66.2224 23.2694 67.1246 24.3455 67.752C25.4215 68.3795 26.6419 68.7102 27.8843 68.7109L86.0972 68.5281C87.3467 68.539 88.5765 68.2137 89.6603 67.5855C90.7442 66.9573 91.6429 66.0489 92.2643 64.9535C92.8857 63.8582 93.2072 62.6155 93.1959 61.353C93.1846 60.0906 92.8408 58.8539 92.2 57.7701L62.9427 6.97728C62.3282 5.88115 61.4366 4.96964 60.359 4.336C59.2814 3.70235 58.0566 3.36932 56.8098 3.37098V3.37098Z" fill="white"/>
<path d="M52.7813 55.2418C52.7796 54.7338 52.8795 54.2307 53.0751 53.7627C53.2707 53.2948 53.5579 52.8716 53.9194 52.5186C54.281 52.1656 54.7094 51.8901 55.179 51.7087C55.6486 51.5273 56.1497 51.4436 56.6521 51.4628C57.1585 51.4324 57.6657 51.5064 58.1429 51.6804C58.6201 51.8543 59.0572 52.1245 59.4278 52.4745C59.7984 52.8245 60.0946 53.247 60.2985 53.7164C60.5024 54.1857 60.6096 54.6921 60.6137 55.2046C60.6178 55.7172 60.5187 56.2252 60.3223 56.6978C60.126 57.1704 59.8365 57.5977 59.4716 57.9537C59.1067 58.3097 58.6738 58.587 58.1995 58.7687C57.7252 58.9504 57.2192 59.0327 56.7124 59.0106C56.2069 59.0339 55.702 58.9538 55.2279 58.7752C54.7538 58.5966 54.3203 58.3232 53.9532 57.9713C53.5862 57.6194 53.2932 57.1963 53.0918 56.7273C52.8904 56.2583 52.7848 55.753 52.7813 55.2418V55.2418ZM52.9019 24.6035H60.0403L59.0349 47.4095H54.2592L52.9019 24.6035Z" fill="white"/>
<path d="M20.4391 83.2604C19.9859 83.1603 19.5468 83.0033 19.1321 82.7931C17.9721 82.2895 16.8614 81.6773 15.8143 80.9646C12.3166 78.5993 9.56341 75.2703 7.88122 71.3722C6.19903 67.4741 5.65835 63.1704 6.32327 58.9713C6.50929 57.7117 6.81568 56.4734 7.23818 55.2735C7.3733 54.8236 7.55883 54.3908 7.79116 53.9834C7.31758 55.6514 6.9482 57.3479 6.68521 59.0627C6.13543 63.186 6.71554 67.3827 8.36239 71.1961C10.0092 75.0094 12.6597 78.2933 16.0254 80.6903C17.4429 81.638 18.9169 82.4963 20.4391 83.2604V83.2604Z" fill="white"/>
<path d="M8.02636 82.0191C8.02636 82.0191 7.76496 81.8667 7.35274 81.501C6.77232 80.9948 6.23429 80.4409 5.74411 79.8452C4.08811 77.8925 2.78471 75.6609 1.89341 73.2522C0.996384 70.8443 0.520107 68.2973 0.485835 65.7247C0.47559 64.9506 0.51927 64.1766 0.616542 63.4086C0.629246 63.1202 0.686927 62.8356 0.787459 62.5654C0.877946 62.5654 0.787467 63.7844 0.857845 65.7146C1.11736 70.7752 2.92278 75.6303 6.02562 79.6115C7.26227 81.1251 8.08669 81.948 8.02636 82.0191Z" fill="white"/>
<path d="M109.573 46.6875C109.748 47.0417 109.876 47.4173 109.955 47.8049C110.096 48.2404 110.206 48.685 110.287 49.1357C110.419 49.7326 110.52 50.3362 110.589 50.9439C110.797 52.5193 110.861 54.1109 110.78 55.6981C110.664 57.6433 110.361 59.5725 109.875 61.4581C109.35 63.3361 108.65 65.1593 107.783 66.9031C107.062 68.3322 106.214 69.6923 105.25 70.9665C104.858 71.515 104.436 71.9823 104.084 72.3684C103.789 72.7291 103.47 73.0686 103.128 73.3842C102.862 73.6694 102.569 73.9279 102.254 74.1563C102.173 74.075 103.39 72.9373 104.948 70.7735C105.86 69.489 106.664 68.1298 107.351 66.7101C109.042 63.2717 110.044 59.5292 110.297 55.6981C110.398 54.1377 110.374 52.5716 110.227 51.015C109.955 48.2722 109.473 46.6875 109.573 46.6875Z" fill="white"/>
<path d="M116.162 57.8613C116.334 58.7407 116.381 59.6402 116.303 60.533C116.152 64.8687 114.984 69.1061 112.894 72.896C112.504 73.6983 112.003 74.4405 111.406 75.1004C111.744 74.2853 112.13 73.4915 112.562 72.7233C114.44 68.9124 115.583 64.7755 115.931 60.533C115.955 59.6386 116.032 58.7465 116.162 57.8613V57.8613Z" fill="white"/>
</svg>
