<svg width="80" height="72" viewBox="0 0 80 72" fill="none" xmlns="http://www.w3.org/2000/svg">
<path d="M10.8541 71.7575C9.08361 71.7561 7.34451 71.2846 5.81107 70.3904C4.27762 69.4961 3.00367 68.2104 2.11681 66.662C1.22994 65.1137 0.761293 63.357 0.757832 61.5681C0.754371 59.7792 1.21621 58.0207 2.09708 56.4689L31.0427 5.45252C31.922 3.90107 33.1933 2.61333 34.7266 1.72093C36.2598 0.828526 38.0001 0.363452 39.7696 0.373232C41.5392 0.362401 43.2799 0.827025 44.8133 1.71953C46.3468 2.61204 47.6179 3.90036 48.4965 5.45252L77.7537 56.2962C78.6609 57.8422 79.146 59.6037 79.1593 61.401C79.1726 63.1984 78.7138 64.9671 77.8296 66.5266C76.9454 68.0862 75.6675 69.3809 74.1263 70.2784C72.5851 71.1759 70.8358 71.6443 69.057 71.6356L10.8441 71.8185L10.8541 71.7575ZM39.8098 3.37001C38.5657 3.36913 37.3436 3.70148 36.268 4.33319C35.1924 4.96491 34.3018 5.8734 33.6869 6.96613L4.74129 57.9825C4.12274 59.0712 3.79825 60.305 3.80035 61.5603C3.80246 62.8156 4.13109 64.0483 4.75329 65.1348C5.37549 66.2214 6.26941 67.1236 7.34547 67.7511C8.42152 68.3785 9.64192 68.7092 10.8843 68.7099L69.0972 68.5271C70.3467 68.5381 71.5765 68.2127 72.6603 67.5845C73.7442 66.9563 74.6429 66.0479 75.2643 64.9525C75.8857 63.8572 76.2072 62.6145 76.1959 61.352C76.1846 60.0896 75.8408 58.853 75.2 57.7692L45.9427 6.9763C45.3282 5.88018 44.4366 4.96867 43.359 4.33502C42.2814 3.70138 41.0566 3.36835 39.8098 3.37001Z" fill="white"/>
</svg>
