<svg width="116" height="89" viewBox="0 0 116 89" fill="none" xmlns="http://www.w3.org/2000/svg">
<path d="M-nan -nanL20.5649 88.6013C20.1141 88.5027 19.6774 88.3481 19.2649 88.1413C18.1112 87.6455 17.0064 87.0429 15.9649 86.3413C12.486 84.0129 9.74764 80.7359 8.07449 76.8987C6.40134 73.0614 5.86357 68.8248 6.52491 64.6913C6.70993 63.4514 7.01467 62.2323 7.4349 61.0513V61.0513C7.49303 60.8597 7.67382 60.9265 7.6252 61.1207C7.32272 62.3287 7.07567 63.5502 6.8849 64.7812C6.33808 68.8402 6.91507 72.9714 8.55307 76.7252C10.1911 80.479 12.8273 83.7116 16.1749 86.0713C17.5848 87.0041 19.0509 87.8491 20.5649 88.6013L-nan -nanL-nan -nanZ" fill="white"/>
<path d="M7.70501 86.7235C8.02868 87.0898 7.91749 87.193 7.5502 86.8705V86.8705C6.9729 86.3721 6.43776 85.8269 5.95021 85.2405C4.30312 83.3183 3.00673 81.1215 2.12021 78.7505C1.22801 76.3802 0.75429 73.8729 0.720202 71.3405C0.710012 70.5784 0.753458 69.8165 0.850207 69.0605V69.0605C0.872965 68.5492 1.06508 68.5598 1.06269 69.0716C1.06019 69.609 1.05529 70.3826 1.09021 71.3305C1.34834 76.3121 3.14404 81.0914 6.23021 85.0105C6.84291 85.7527 7.35388 86.3262 7.70501 86.7235Z" fill="white"/>
<path d="M109.42 53.7436C109.284 53.0415 109.465 53.0011 109.609 53.7016V53.7016C109.749 54.1302 109.859 54.5679 109.939 55.0116C110.071 55.5991 110.171 56.1933 110.239 56.7916C110.447 58.3424 110.51 59.909 110.429 61.4716C110.315 63.3864 110.013 65.2854 109.529 67.1416C109.008 68.9902 108.311 70.785 107.449 72.5016C106.732 73.9084 105.888 75.2472 104.929 76.5016C104.539 77.0416 104.119 77.5016 103.769 77.8816C103.476 78.2367 103.159 78.5709 102.819 78.8816V78.8816C102.361 79.367 102.234 79.2532 102.673 78.7507C103.16 78.1944 103.852 77.38 104.629 76.3116C105.536 75.0471 106.335 73.7091 107.019 72.3116C108.701 68.9269 109.697 65.2428 109.949 61.4716C110.049 59.9355 110.026 58.3939 109.879 56.8616C109.746 55.5267 109.561 54.4704 109.42 53.7436Z" fill="white"/>
<path d="M-nan -nanL115.777 63.6016C115.948 64.4672 115.995 65.3527 115.917 66.2316C115.767 70.4995 114.605 74.6708 112.527 78.4016C112.523 78.4095 112.519 78.4175 112.515 78.4254C112.29 78.8808 111.946 78.6733 112.197 78.2316V78.2316C114.064 74.4801 115.201 70.4078 115.547 66.2316C115.571 65.3511 115.648 64.4729 115.777 63.6016L-nan -nanL-nan -nanZ" fill="white"/>
<path d="M50.8183 53.2853L40.8774 43.6272C39.7601 42.5417 37.9552 42.5417 36.838 43.6272C35.7207 44.7127 35.7207 46.4662 36.838 47.5517L48.8129 59.1859C49.9302 60.2714 51.735 60.2714 52.8523 59.1859L83.162 29.7386C84.2793 28.6531 84.2793 26.8996 83.162 25.8141C82.0448 24.7286 80.2399 24.7286 79.1226 25.8141L50.8183 53.2853Z" fill="white"/>
<circle cx="60" cy="42" r="40.5" stroke="white" stroke-width="3"/>
</svg>
