<svg width="14" height="10" viewBox="0 0 14 10" fill="none" xmlns="http://www.w3.org/2000/svg">
<path d="M8.16771 5.46536C7.70104 5.46536 7.3066 5.30425 6.98438 4.98203C6.66215 4.65981 6.50104 4.26536 6.50104 3.7987C6.50104 3.34314 6.66215 2.95159 6.98438 2.62403C7.3066 2.29603 7.70104 2.13203 8.16771 2.13203C8.63437 2.13203 9.02882 2.29603 9.35104 2.62403C9.67326 2.95159 9.83438 3.34314 9.83438 3.7987C9.83438 4.26536 9.67326 4.65981 9.35104 4.98203C9.02882 5.30425 8.63437 5.46536 8.16771 5.46536ZM3.76771 7.53203C3.43438 7.53203 3.15104 7.41536 2.91771 7.18203C2.68438 6.9487 2.56771 6.66536 2.56771 6.33203V1.28203C2.56771 0.948698 2.68438 0.665365 2.91771 0.432031C3.15104 0.198698 3.43438 0.0820312 3.76771 0.0820312H12.5677C12.901 0.0820312 13.1844 0.198698 13.4177 0.432031C13.651 0.665365 13.7677 0.948698 13.7677 1.28203V6.33203C13.7677 6.66536 13.651 6.9487 13.4177 7.18203C13.1844 7.41536 12.901 7.53203 12.5677 7.53203H3.76771ZM4.76771 6.53203H11.5677C11.5677 6.1987 11.6844 5.91536 11.9177 5.68203C12.151 5.4487 12.4344 5.33203 12.7677 5.33203V2.28203C12.4344 2.28203 12.151 2.16248 11.9177 1.92336C11.6844 1.6847 11.5677 1.40425 11.5677 1.08203H4.76771C4.76771 1.41536 4.65104 1.6987 4.41771 1.93203C4.18438 2.16536 3.90104 2.28203 3.56771 2.28203V5.33203C3.90104 5.33203 4.18438 5.4487 4.41771 5.68203C4.65104 5.91536 4.76771 6.1987 4.76771 6.53203ZM1.43438 9.86536C1.10104 9.86536 0.817708 9.7487 0.584375 9.51536C0.351042 9.28203 0.234375 8.9987 0.234375 8.66537V2.56536C0.234375 2.42092 0.281486 2.30136 0.375708 2.2067C0.470375 2.11248 0.58993 2.06536 0.734375 2.06536C0.878819 2.06536 0.998375 2.11248 1.09304 2.2067C1.18726 2.30136 1.23437 2.42092 1.23437 2.56536V8.66537C1.23437 8.72092 1.2566 8.76803 1.30104 8.8067C1.34549 8.84581 1.38993 8.86536 1.43438 8.86536H11.2844C11.4288 8.86536 11.5482 8.91536 11.6424 9.01536C11.737 9.11537 11.7844 9.23203 11.7844 9.36536C11.7844 9.50981 11.737 9.62914 11.6424 9.72336C11.5482 9.81803 11.4288 9.86536 11.2844 9.86536H1.43438ZM3.76771 6.53203H3.56771C3.56771 6.53203 3.56771 6.51248 3.56771 6.47336C3.56771 6.4347 3.56771 6.38759 3.56771 6.33203V1.28203C3.56771 1.22648 3.56771 1.17936 3.56771 1.1407C3.56771 1.10159 3.56771 1.08203 3.56771 1.08203H3.76771C3.71215 1.08203 3.66504 1.10159 3.62638 1.1407C3.58726 1.17936 3.56771 1.22648 3.56771 1.28203V6.33203C3.56771 6.38759 3.58726 6.4347 3.62638 6.47336C3.66504 6.51248 3.71215 6.53203 3.76771 6.53203Z" fill="#002145"/>
</svg>
