<svg width="14" height="14" viewBox="0 0 14 14" fill="none" xmlns="http://www.w3.org/2000/svg">
<path d="M7.64635 0.699219C9.15747 0.843663 10.4437 1.44366 11.505 2.49922C12.5659 3.55477 13.1686 4.84366 13.313 6.36589H8.79635C8.69635 6.08811 8.54635 5.84922 8.34635 5.64922C8.14635 5.44922 7.91302 5.29922 7.64635 5.19922V0.699219ZM8.64635 1.94922V4.59922C8.7908 4.71033 8.92702 4.827 9.05502 4.94922C9.18258 5.07144 9.29636 5.21033 9.39635 5.36589H12.063C11.8075 4.54366 11.377 3.82966 10.7717 3.22389C10.1659 2.61855 9.45747 2.19366 8.64635 1.94922ZM6.37969 0.699219V5.19922C6.00191 5.33255 5.69635 5.56589 5.46302 5.89922C5.22969 6.23255 5.11302 6.59922 5.11302 6.99922C5.11302 7.39922 5.22969 7.76033 5.46302 8.08255C5.69635 8.40477 6.00191 8.63255 6.37969 8.76589V13.2992C4.75746 13.1326 3.40191 12.4492 2.31302 11.2492C1.22413 10.0492 0.679688 8.63255 0.679688 6.99922C0.679688 5.36589 1.22413 3.94633 2.31302 2.74055C3.40191 1.53522 4.75746 0.854774 6.37969 0.699219ZM5.37969 1.94922C4.27969 2.28255 3.38791 2.91589 2.70435 3.84922C2.02124 4.78255 1.67969 5.83255 1.67969 6.99922C1.67969 8.16589 2.02124 9.21589 2.70435 10.1492C3.38791 11.0826 4.27969 11.7214 5.37969 12.0659V9.36589C4.9908 9.08811 4.68258 8.74366 4.45502 8.33255C4.22702 7.92144 4.11302 7.477 4.11302 6.99922C4.11302 6.52144 4.22702 6.07411 4.45502 5.65722C4.68258 5.24077 4.9908 4.89366 5.37969 4.61589V1.94922ZM8.79635 7.63255H13.313C13.1686 9.14366 12.5659 10.4299 11.505 11.4912C10.4437 12.5521 9.15747 13.1548 7.64635 13.2992V8.76589C7.91302 8.66589 8.14635 8.51855 8.34635 8.32389C8.54635 8.12966 8.69635 7.89922 8.79635 7.63255ZM9.39635 8.63255C9.29636 8.777 9.18258 8.91033 9.05502 9.03255C8.92702 9.15477 8.7908 9.26589 8.64635 9.36589V12.0492C9.46858 11.8048 10.1797 11.3799 10.7797 10.7746C11.3797 10.1688 11.8075 9.45477 12.063 8.63255H9.39635Z" fill="#002145"/>
</svg>
