<svg width="22" height="20" viewBox="0 0 22 20" fill="none" xmlns="http://www.w3.org/2000/svg">
<path d="M10.8033 17.975C10.8867 17.975 10.9827 17.95 11.0913 17.9C11.1993 17.85 11.2783 17.8 11.3283 17.75L19.3283 9.75C19.5617 9.51667 19.7323 9.275 19.8403 9.025C19.949 8.775 20.0033 8.50833 20.0033 8.225C20.0033 7.925 19.949 7.64167 19.8403 7.375C19.7323 7.10833 19.5617 6.86667 19.3283 6.65L15.3283 2.65C15.1117 2.41667 14.8783 2.25 14.6283 2.15C14.3783 2.05 14.1117 2 13.8283 2C13.545 2 13.27 2.05 13.0033 2.15C12.7367 2.25 12.495 2.41667 12.2783 2.65L11.7033 3.225L13.5533 5.075C13.7867 5.29167 13.9573 5.53733 14.0653 5.812C14.174 6.08733 14.2283 6.375 14.2283 6.675C14.2283 7.275 14.0243 7.77933 13.6163 8.188C13.2077 8.596 12.695 8.8 12.0783 8.8C11.7783 8.8 11.491 8.754 11.2163 8.662C10.941 8.57067 10.695 8.41667 10.4783 8.2L8.60332 6.325L4.25332 10.65C4.16999 10.7333 4.11166 10.8207 4.07832 10.912C4.04499 11.004 4.02832 11.1 4.02832 11.2C4.02832 11.3833 4.09099 11.5417 4.21632 11.675C4.34099 11.8083 4.49499 11.875 4.67832 11.875C4.77832 11.875 4.87832 11.85 4.97832 11.8C5.07832 11.75 5.16166 11.7 5.22832 11.65L8.50332 8.35L9.55332 9.425L6.27832 12.7C6.21166 12.7667 6.15766 12.85 6.11632 12.95C6.07432 13.05 6.05332 13.15 6.05332 13.25C6.05332 13.4167 6.11999 13.5667 6.25332 13.7C6.38666 13.8333 6.53666 13.9 6.70332 13.9C6.80332 13.9 6.90766 13.875 7.01632 13.825C7.12432 13.775 7.20332 13.725 7.25332 13.675L10.6533 10.275L11.7033 11.325L8.32832 14.725C8.26166 14.7917 8.20732 14.875 8.16532 14.975C8.12399 15.075 8.10332 15.175 8.10332 15.275C8.10332 15.4583 8.16566 15.6127 8.29032 15.738C8.41566 15.8627 8.56999 15.925 8.75332 15.925C8.85332 15.925 8.94932 15.9083 9.04132 15.875C9.13266 15.8417 9.21999 15.7833 9.30332 15.7L12.7033 12.325L13.7533 13.375L10.3533 16.775C10.27 16.8583 10.2117 16.95 10.1783 17.05C10.145 17.15 10.1283 17.2417 10.1283 17.325C10.1283 17.5083 10.195 17.6627 10.3283 17.788C10.4617 17.9127 10.62 17.975 10.8033 17.975ZM10.7783 19.475C10.2117 19.475 9.71999 19.2793 9.30332 18.888C8.88666 18.496 8.66166 18.0083 8.62832 17.425C8.06166 17.375 7.59099 17.1707 7.21632 16.812C6.84099 16.454 6.63666 15.975 6.60332 15.375C6.00332 15.3417 5.51999 15.1373 5.15332 14.762C4.78666 14.3873 4.59499 13.9167 4.57832 13.35C3.97832 13.3 3.48666 13.0793 3.10332 12.688C2.71999 12.296 2.52832 11.8 2.52832 11.2C2.52832 10.9 2.58266 10.6083 2.69132 10.325C2.79932 10.0417 2.96166 9.8 3.17832 9.6L8.60332 4.2L11.5283 7.125C11.5783 7.19167 11.6533 7.24567 11.7533 7.287C11.8533 7.329 11.9617 7.35 12.0783 7.35C12.245 7.35 12.395 7.28733 12.5283 7.162C12.6617 7.03733 12.7283 6.88333 12.7283 6.7C12.7283 6.58333 12.7077 6.479 12.6663 6.387C12.6243 6.29567 12.57 6.21667 12.5033 6.15L9.00332 2.65C8.78666 2.41667 8.54932 2.25 8.29132 2.15C8.03266 2.05 7.76166 2 7.47832 2C7.19499 2 6.92832 2.05 6.67832 2.15C6.42832 2.25 6.18666 2.41667 5.95332 2.65L2.67832 5.95C2.49499 6.13333 2.34499 6.34567 2.22832 6.587C2.11166 6.829 2.04499 7.08333 2.02832 7.35C1.99499 7.56667 1.99932 7.779 2.04132 7.987C2.08266 8.19567 2.15332 8.39167 2.25332 8.575L1.15332 9.675C0.919991 9.34167 0.749324 8.975 0.641324 8.575C0.532658 8.175 0.486658 7.76667 0.503324 7.35C0.519991 6.88333 0.623991 6.43733 0.815324 6.012C1.00732 5.58733 1.26999 5.20833 1.60332 4.875L4.87832 1.6C5.24499 1.23333 5.64932 0.958333 6.09132 0.775C6.53266 0.591667 6.99499 0.5 7.47832 0.5C7.96166 0.5 8.42432 0.591667 8.86632 0.775C9.30766 0.958333 9.71166 1.23333 10.0783 1.6L10.6533 2.15L11.2283 1.6C11.595 1.23333 11.995 0.958333 12.4283 0.775C12.8617 0.591667 13.3283 0.5 13.8283 0.5C14.3117 0.5 14.77 0.591667 15.2033 0.775C15.6367 0.958333 16.0367 1.23333 16.4033 1.6L20.3783 5.575C20.745 5.925 21.024 6.33333 21.2153 6.8C21.4073 7.26667 21.5033 7.74167 21.5033 8.225C21.5033 8.70833 21.4073 9.17067 21.2153 9.612C21.024 10.054 20.745 10.4583 20.3783 10.825L12.3783 18.8C12.1617 19.0167 11.916 19.1833 11.6413 19.3C11.366 19.4167 11.0783 19.475 10.7783 19.475Z" fill="#063468"/>
</svg>
