<svg width="20" height="20" viewBox="0 0 20 20" fill="none" xmlns="http://www.w3.org/2000/svg">
<g clip-path="url(#clip0_6_791)">
<path d="M3.75 14.5833H1.66667C1.22464 14.5833 0.800716 14.7589 0.488155 15.0715C0.175595 15.384 0 15.808 0 16.25L0 18.3333C0 18.7753 0.175595 19.1993 0.488155 19.5118C0.800716 19.8244 1.22464 20 1.66667 20H3.75C4.19203 20 4.61595 19.8244 4.92851 19.5118C5.24107 19.1993 5.41667 18.7753 5.41667 18.3333V16.25C5.41667 15.808 5.24107 15.384 4.92851 15.0715C4.61595 14.7589 4.19203 14.5833 3.75 14.5833ZM3.75 18.3333H1.66667V16.25H3.75V18.3333Z" fill="#063468"/>
<path d="M18.3334 14.5833H16.25C15.808 14.5833 15.3841 14.7589 15.0715 15.0715C14.759 15.384 14.5834 15.808 14.5834 16.25V18.3333C14.5834 18.7753 14.759 19.1993 15.0715 19.5118C15.3841 19.8244 15.808 20 16.25 20H18.3334C18.7754 20 19.1993 19.8244 19.5119 19.5118C19.8244 19.1993 20 18.7753 20 18.3333V16.25C20 15.808 19.8244 15.384 19.5119 15.0715C19.1993 14.7589 18.7754 14.5833 18.3334 14.5833ZM18.3334 18.3333H16.25V16.25H18.3334V18.3333Z" fill="#063468"/>
<path d="M3.75 7.29169H1.66667C1.22464 7.29169 0.800716 7.46728 0.488155 7.77984C0.175595 8.0924 0 8.51633 0 8.95835L0 11.0417C0 11.4837 0.175595 11.9076 0.488155 12.2202C0.800716 12.5328 1.22464 12.7084 1.66667 12.7084H3.75C4.19203 12.7084 4.61595 12.5328 4.92851 12.2202C5.24107 11.9076 5.41667 11.4837 5.41667 11.0417V8.95835C5.41667 8.51633 5.24107 8.0924 4.92851 7.77984C4.61595 7.46728 4.19203 7.29169 3.75 7.29169ZM3.75 11.0417H1.66667V8.95835H3.75V11.0417Z" fill="#063468"/>
<path d="M18.3334 7.29169H16.25C15.808 7.29169 15.3841 7.46728 15.0715 7.77984C14.759 8.0924 14.5834 8.51633 14.5834 8.95835V11.0417C14.5834 11.4837 14.759 11.9076 15.0715 12.2202C15.3841 12.5328 15.808 12.7084 16.25 12.7084H18.3334C18.7754 12.7084 19.1993 12.5328 19.5119 12.2202C19.8244 11.9076 20 11.4837 20 11.0417V8.95835C20 8.51633 19.8244 8.0924 19.5119 7.77984C19.1993 7.46728 18.7754 7.29169 18.3334 7.29169ZM18.3334 11.0417H16.25V8.95835H18.3334V11.0417Z" fill="#063468"/>
<path d="M3.75 0H1.66667C1.22464 0 0.800716 0.175595 0.488155 0.488155C0.175595 0.800716 0 1.22464 0 1.66667L0 3.75C0 4.19203 0.175595 4.61595 0.488155 4.92851C0.800716 5.24107 1.22464 5.41667 1.66667 5.41667H3.75C4.19203 5.41667 4.61595 5.24107 4.92851 4.92851C5.24107 4.61595 5.41667 4.19203 5.41667 3.75V1.66667C5.41667 1.22464 5.24107 0.800716 4.92851 0.488155C4.61595 0.175595 4.19203 0 3.75 0V0ZM3.75 3.75H1.66667V1.66667H3.75V3.75Z" fill="#063468"/>
<path d="M11.0416 14.5833H8.95829C8.51627 14.5833 8.09234 14.7589 7.77978 15.0715C7.46722 15.384 7.29163 15.808 7.29163 16.25V18.3333C7.29163 18.7753 7.46722 19.1993 7.77978 19.5118C8.09234 19.8244 8.51627 20 8.95829 20H11.0416C11.4837 20 11.9076 19.8244 12.2201 19.5118C12.5327 19.1993 12.7083 18.7753 12.7083 18.3333V16.25C12.7083 15.808 12.5327 15.384 12.2201 15.0715C11.9076 14.7589 11.4837 14.5833 11.0416 14.5833ZM11.0416 18.3333H8.95829V16.25H11.0416V18.3333Z" fill="#063468"/>
<path d="M11.0416 7.29169H8.95829C8.51627 7.29169 8.09234 7.46728 7.77978 7.77984C7.46722 8.0924 7.29163 8.51633 7.29163 8.95835V11.0417C7.29163 11.4837 7.46722 11.9076 7.77978 12.2202C8.09234 12.5328 8.51627 12.7084 8.95829 12.7084H11.0416C11.4837 12.7084 11.9076 12.5328 12.2201 12.2202C12.5327 11.9076 12.7083 11.4837 12.7083 11.0417V8.95835C12.7083 8.51633 12.5327 8.0924 12.2201 7.77984C11.9076 7.46728 11.4837 7.29169 11.0416 7.29169ZM11.0416 11.0417H8.95829V8.95835H11.0416V11.0417Z" fill="#063468"/>
<path d="M11.0416 0H8.95829C8.51627 0 8.09234 0.175595 7.77978 0.488155C7.46722 0.800716 7.29163 1.22464 7.29163 1.66667V3.75C7.29163 4.19203 7.46722 4.61595 7.77978 4.92851C8.09234 5.24107 8.51627 5.41667 8.95829 5.41667H11.0416C11.4837 5.41667 11.9076 5.24107 12.2201 4.92851C12.5327 4.61595 12.7083 4.19203 12.7083 3.75V1.66667C12.7083 1.22464 12.5327 0.800716 12.2201 0.488155C11.9076 0.175595 11.4837 0 11.0416 0V0ZM11.0416 3.75H8.95829V1.66667H11.0416V3.75Z" fill="#063468"/>
<path d="M18.3334 0H16.25C15.808 0 15.3841 0.175595 15.0715 0.488155C14.759 0.800716 14.5834 1.22464 14.5834 1.66667V3.75C14.5834 4.19203 14.759 4.61595 15.0715 4.92851C15.3841 5.24107 15.808 5.41667 16.25 5.41667H18.3334C18.7754 5.41667 19.1993 5.24107 19.5119 4.92851C19.8244 4.61595 20 4.19203 20 3.75V1.66667C20 1.22464 19.8244 0.800716 19.5119 0.488155C19.1993 0.175595 18.7754 0 18.3334 0V0ZM18.3334 3.75H16.25V1.66667H18.3334V3.75Z" fill="#063468"/>
</g>
<defs>
<clipPath id="clip0_6_791">
<rect width="20" height="20" fill="white"/>
</clipPath>
</defs>
</svg>
