<svg width="16" height="16" viewBox="0 0 16 16" fill="none" xmlns="http://www.w3.org/2000/svg">
<path d="M8 11.2492C7.88333 11.2492 7.771 11.2286 7.663 11.1872C7.55433 11.1452 7.45833 11.0742 7.375 10.9742L4.25 7.87422C4.11667 7.74089 4.05 7.56589 4.05 7.34922C4.05 7.13255 4.11667 6.95755 4.25 6.82422C4.4 6.67422 4.579 6.59489 4.787 6.58622C4.99567 6.57822 5.175 6.64922 5.325 6.79922L7.25 8.72422V1.07422C7.25 0.857552 7.321 0.678219 7.463 0.536219C7.60433 0.394886 7.78333 0.324219 8 0.324219C8.21667 0.324219 8.396 0.394886 8.538 0.536219C8.67933 0.678219 8.75 0.857552 8.75 1.07422V8.72422L10.675 6.79922C10.8083 6.66589 10.9833 6.59922 11.2 6.59922C11.4167 6.59922 11.6 6.67422 11.75 6.82422C11.8833 6.95755 11.95 7.12822 11.95 7.33622C11.95 7.54489 11.8833 7.72422 11.75 7.87422L8.625 10.9742C8.54167 11.0742 8.446 11.1452 8.338 11.1872C8.22933 11.2286 8.11667 11.2492 8 11.2492ZM2.3 15.4992C1.8 15.4992 1.375 15.3242 1.025 14.9742C0.675 14.6242 0.5 14.1992 0.5 13.6992V11.7492C0.5 11.5326 0.571 11.3532 0.713 11.2112C0.854333 11.0699 1.03333 10.9992 1.25 10.9992C1.46667 10.9992 1.64567 11.0699 1.787 11.2112C1.929 11.3532 2 11.5326 2 11.7492V13.6992C2 13.7659 2.03333 13.8326 2.1 13.8992C2.16667 13.9659 2.23333 13.9992 2.3 13.9992H13.7C13.7667 13.9992 13.8333 13.9659 13.9 13.8992C13.9667 13.8326 14 13.7659 14 13.6992V11.7492C14 11.5326 14.0707 11.3532 14.212 11.2112C14.354 11.0699 14.5333 10.9992 14.75 10.9992C14.9667 10.9992 15.146 11.0699 15.288 11.2112C15.4293 11.3532 15.5 11.5326 15.5 11.7492V13.6992C15.5 14.1992 15.325 14.6242 14.975 14.9742C14.625 15.3242 14.2 15.4992 13.7 15.4992H2.3Z" fill="white"/>
</svg>
