<svg width="24" height="24" viewBox="0 0 24 24" fill="none" xmlns="http://www.w3.org/2000/svg">
<path d="M17.0433 0.0510406C16.9261 0.116864 14.5349 2.5048 14.4763 2.6145C14.3811 2.79369 14.4433 3.06795 14.5971 3.14109C14.6338 3.15937 14.8791 3.18132 15.1391 3.19229L15.6151 3.21057L15.6261 3.60186L15.6371 3.9968H8.78944C1.21671 3.9968 1.61586 3.98583 1.11418 4.23084C0.645465 4.46488 0.304912 4.84519 0.110833 5.34984C0.0192869 5.58387 0.0192869 5.60947 0.015625 6.59317V7.59881H0.40012H0.784615L0.802925 6.62974C0.821234 5.69724 0.824896 5.65335 0.909118 5.4888C1.02264 5.26573 1.24967 5.039 1.48037 4.91467L1.66346 4.81959H8.6393H15.6151L15.6261 8.61176L15.6335 12.4076H16.0179H16.4024V7.56224C16.4024 2.2927 16.4134 2.56331 16.201 2.46823C16.1498 2.44263 16.0399 2.42435 15.963 2.42435C15.8825 2.42435 15.8165 2.41337 15.8165 2.39509C15.8165 2.35487 17.1824 0.998168 17.2264 0.998168C17.2776 0.998168 18.6325 2.36218 18.6142 2.39509C18.6032 2.40972 18.5263 2.42435 18.4421 2.42435C18.3542 2.42435 18.248 2.44994 18.2041 2.48285C18.0027 2.62182 18.0137 2.36584 18.0137 7.3794V12.0053H18.4165H18.8193V8.39966V4.79765L19.7823 4.80862C20.6465 4.81959 20.7564 4.8269 20.8882 4.89273C21.1189 5.00243 21.3386 5.19259 21.4412 5.36812C21.6426 5.71552 21.6389 5.58387 21.6389 9.9648V14.0166H22.0234H22.4079V9.90629C22.4079 7.38671 22.3932 5.72649 22.3713 5.60947C22.2394 4.90736 21.6609 4.29666 20.9248 4.07725C20.793 4.03702 20.4818 4.01874 19.7823 4.00777L18.8193 3.98948V3.59088V3.19229H19.2697C19.7823 3.19229 19.8702 3.16303 19.9654 2.9619C20.0204 2.8522 20.0277 2.80466 19.9947 2.70958C19.9654 2.62547 19.5516 2.18665 18.6801 1.31632C17.501 0.138805 17.3948 0.0400705 17.2593 0.0254431C17.1824 0.0181293 17.0835 0.0290995 17.0433 0.0510406Z" fill="#063468"/>
<path d="M19.6289 0.402018V0.804273L19.8596 0.829871C20.5078 0.895695 21.0644 1.44057 21.2072 2.15L21.2548 2.3877H21.6356H22.0201L21.9945 2.13171C21.9395 1.59416 21.7125 1.13705 21.2951 0.723822C20.8776 0.30694 20.4125 0.0838714 19.8596 0.0253615L19.6289 -0.000236511V0.402018Z" fill="#063468"/>
<path d="M2.01562 6.00839V6.41064H2.40012H2.78462V6.00839V5.60613H2.40012H2.01562V6.00839Z" fill="#063468"/>
<path d="M3.60326 5.65344C3.59228 5.68269 3.59228 5.85822 3.59594 6.04838L3.60693 6.39212L4.00241 6.40309L4.39423 6.41406V6.00815V5.6059H4.00973C3.72044 5.6059 3.61791 5.61687 3.60326 5.65344Z" fill="#063468"/>
<path d="M5.19922 6.00839V6.41064H5.60202H6.00483V6.00839V5.60613H5.60202H5.19922V6.00839Z" fill="#063468"/>
<path d="M11.8221 6.06648C11.5987 6.18716 11.6097 5.9129 11.6097 10.7802V15.2269L11.2179 15.216L10.8224 15.205L10.8041 12.1222L10.7858 9.03586L10.6649 8.92981L10.5478 8.82376H9.22583C7.83432 8.82376 7.74643 8.83473 7.66954 8.99563C7.65123 9.0322 7.62925 10.4437 7.61827 12.1332L7.59996 15.205L7.20814 15.216L6.81266 15.2269V13.5923C6.81266 11.7785 6.81266 11.7712 6.57464 11.6615C6.39521 11.5737 4.00768 11.5737 3.82825 11.6615C3.59389 11.7712 3.59022 11.8114 3.59022 13.6142V15.2233H2.80292H2.01562V15.6072V15.9912H7.21546H12.4153V11.4018V6.81248H13.2209H14.0265V10.0122V13.212H14.411H14.7955V9.73432V6.25664L14.671 6.13231L14.5465 6.00797H13.2319C12.1443 6.01163 11.9026 6.01894 11.8221 6.06648ZM9.99848 12.4075V15.2233L9.20385 15.216L8.40557 15.205L8.39458 12.4441C8.39092 10.9265 8.39458 9.66118 8.40557 9.63558C8.41655 9.60267 8.61429 9.5917 9.21118 9.5917H9.99848V12.4075ZM6.00705 13.8154V15.2233L5.21243 15.216L4.41414 15.205L4.40316 13.8044L4.39583 12.4075H5.20144H6.00705V13.8154Z" fill="#063468"/>
<path d="M0.00732371 13.4207L0.0183093 18.4233L0.109856 18.661C0.380833 19.3558 0.933774 19.8239 1.64417 19.9555C1.90783 20.0067 2.39852 20.014 5.30969 20.014H8.66762L8.60536 20.2444C8.56875 20.3687 8.52114 20.5187 8.50283 20.5808C8.48086 20.6393 8.4296 20.8149 8.38565 20.9648C8.34171 21.1147 8.25016 21.4183 8.18425 21.6413C8.11834 21.8607 8.01947 22.1899 7.96454 22.3727C7.91327 22.5519 7.85468 22.742 7.83637 22.7932C7.81807 22.8444 7.78511 22.9541 7.76314 23.0382L7.72286 23.1955H7.26879H6.81105V23.5977V24H11.2053H15.5995V23.5977V23.1991L15.1528 23.1882L14.706 23.1772L14.6621 23.0492C14.6364 22.9797 14.5925 22.8371 14.5632 22.7384C14.3105 21.879 14.1897 21.5133 14.1567 21.5133C14.1348 21.5133 13.97 21.5609 13.7869 21.6194C13.5123 21.7035 13.4573 21.7364 13.4683 21.7913C13.4793 21.8571 13.5159 21.9887 13.7649 22.8115C13.8272 23.009 13.8711 23.1772 13.8638 23.1845C13.8601 23.1918 12.659 23.1918 11.198 23.1882L8.54311 23.1772L8.64565 22.8481C8.70057 22.6652 8.77747 22.402 8.82141 22.263C8.8617 22.1204 9.01183 21.6267 9.15098 21.1659C9.29013 20.7015 9.42562 20.2554 9.44759 20.1713L9.48787 20.014L10.9416 20.0067L12.3954 19.9957L12.4064 19.6044L12.4174 19.2095L7.04175 19.2022L1.66615 19.1912L1.48305 19.0961C1.25236 18.9718 1.02532 18.7451 0.911803 18.522C0.842227 18.3831 0.823918 18.277 0.812932 17.9735L0.798285 17.6005H6.40459H12.0146L12.0036 17.2055L11.9926 16.8143L6.40093 16.8033L0.805609 16.796V12.6089V8.42176H0.402804H0L0.00732371 13.4207Z" fill="#063468"/>
<path d="M17.0066 12.8317C16.948 12.839 16.7832 12.8755 16.6404 12.9048C15.6846 13.1169 14.8973 13.5448 14.2235 14.2176C13.5571 14.8832 13.1579 15.6072 12.9163 16.5836C12.843 16.8762 12.832 17.0188 12.832 17.6002C12.832 18.1817 12.843 18.3243 12.9163 18.6168C13.1579 19.5896 13.5571 20.3209 14.2235 20.9865C14.8973 21.663 15.67 22.0799 16.677 22.3066C17.1311 22.409 18.2076 22.398 18.6544 22.2847C19.0901 22.175 19.4124 22.0579 19.7603 21.8824L20.0459 21.7398L21.0749 22.7601C22.2686 23.9412 22.3236 23.9814 22.8289 23.9814C23.0743 23.9814 23.1548 23.9632 23.3269 23.8791C23.5723 23.762 23.8066 23.5207 23.9165 23.2757C23.9751 23.1477 23.997 23.0307 23.997 22.8112C24.0007 22.3066 23.9604 22.2481 22.774 21.056L21.756 20.032L21.8988 19.7468C22.3199 18.9203 22.4957 17.9037 22.3748 16.9968C22.1624 15.4024 21.1774 14.0201 19.7529 13.3107C19.0755 12.9743 18.5189 12.8426 17.7206 12.828C17.3874 12.8207 17.0688 12.8244 17.0066 12.8317ZM18.2699 13.6545C18.5482 13.6983 18.7679 13.7642 19.1561 13.9141C19.9983 14.2396 20.8076 15.0075 21.2177 15.8596C21.4264 16.302 21.518 16.6056 21.5912 17.1358C21.6498 17.549 21.6498 17.6075 21.5912 18.0573C21.3532 19.9443 19.958 21.3375 18.0685 21.5752C17.6181 21.6337 17.5595 21.6337 17.1457 21.5752C16.6147 21.5021 16.3108 21.4107 15.8677 21.2022C15.0768 20.8219 14.3371 20.0796 13.9855 19.3043C13.6926 18.6644 13.601 18.1597 13.6303 17.4027C13.6559 16.7774 13.7475 16.4081 14.0295 15.8157C14.2895 15.2671 14.8753 14.6089 15.4136 14.2652C15.8824 13.9653 16.5561 13.702 17.0066 13.6398C17.2409 13.6069 18.0429 13.6179 18.2699 13.6545ZM23.2134 22.8076C23.2134 22.9502 23.1951 23.0014 23.1072 23.0892C23.0193 23.1769 22.9681 23.1952 22.8252 23.1952H22.6495L21.6864 22.2371L20.7233 21.2754L21.0053 20.9938L21.2909 20.7086L22.2503 21.6703L23.2134 22.6321V22.8076Z" fill="#063468"/>
<path d="M17.0827 14.4558C16.7897 14.507 16.5187 14.6021 16.2148 14.7484C15.8376 14.9349 15.6289 15.0812 15.3543 15.3591C14.2777 16.4306 14.1239 18.1273 14.9844 19.4146C15.1309 19.6413 15.563 20.0728 15.7937 20.23C16.3466 20.6067 16.9325 20.7822 17.6356 20.7822C18.1812 20.7822 18.5547 20.6945 19.0527 20.4495C19.9426 20.0106 20.5871 19.1476 20.7592 18.1712C20.8104 17.8896 20.8104 17.3082 20.7592 17.0303C20.6127 16.2038 20.0744 15.3883 19.386 14.9495C18.8221 14.5911 18.3863 14.4522 17.7418 14.4339C17.4818 14.4302 17.1852 14.4376 17.0827 14.4558ZM18.0567 15.2457C18.9905 15.4213 19.7339 16.1307 19.9572 17.0559C20.0488 17.4435 20.0488 17.758 19.9572 18.1456C19.7412 19.0379 19.0527 19.7254 18.1593 19.9411C17.7711 20.0326 17.4562 20.0326 17.068 19.9411C16.1416 19.7181 15.4312 18.9757 15.2554 18.0432C15.1822 17.6556 15.1822 17.5459 15.2664 17.1327C15.4715 16.1563 16.2185 15.4213 17.1925 15.2421C17.5441 15.1762 17.7015 15.1762 18.0567 15.2457Z" fill="#063468"/>
<path d="M17.1991 16.0684C16.6242 16.2037 16.1116 16.7851 16.053 17.3739L16.0273 17.6006H16.4192C16.7854 17.6006 16.8073 17.5969 16.8073 17.5274C16.8073 17.2239 17.2284 16.7997 17.5324 16.7961C17.6093 16.7961 17.6129 16.7851 17.6129 16.4121V16.0281L17.4774 16.0318C17.4005 16.0354 17.276 16.0501 17.1991 16.0684Z" fill="#063468"/>
</svg>
