<svg width="14" height="8" viewBox="0 0 14 8" fill="none" xmlns="http://www.w3.org/2000/svg">
<path d="M13.6937 1.52187L7.46875 7.76562C7.40625 7.82812 7.33425 7.87487 7.25275 7.90587C7.17175 7.93737 7.0875 7.95312 7 7.95312C6.9125 7.95312 6.828 7.93737 6.7465 7.90587C6.6655 7.87487 6.59375 7.82812 6.53125 7.76562L0.2875 1.52187C0.1375 1.37187 0.0624997 1.19687 0.0624997 0.996875C0.0624997 0.796875 0.14375 0.615624 0.30625 0.453125C0.44375 0.303124 0.6155 0.228125 0.8215 0.228125C1.028 0.228125 1.20625 0.303124 1.35625 0.453124L7 6.11562L12.6625 0.453124C12.8 0.315624 12.9687 0.246874 13.1688 0.246874C13.3688 0.246874 13.5437 0.321874 13.6937 0.471874C13.8437 0.621874 13.9188 0.796874 13.9188 0.996874C13.9188 1.19687 13.8437 1.37187 13.6937 1.52187Z" fill="#002145"/>
</svg>
