<svg width="18" height="18" viewBox="0 0 18 18" fill="none" xmlns="http://www.w3.org/2000/svg">
<path d="M16.5003 13.0136V4.98705C16.88 4.80768 17.211 4.53965 17.4654 4.20554C17.7197 3.87144 17.8901 3.48106 17.9619 3.06733C18.0338 2.65361 18.0052 2.22866 17.8784 1.82833C17.7516 1.428 17.5305 1.06402 17.2335 0.767088C16.9366 0.470156 16.5726 0.248977 16.1723 0.122202C15.7719 -0.00457228 15.347 -0.0332253 14.9333 0.0386594C14.5195 0.110544 14.1292 0.280859 13.7951 0.535241C13.461 0.789624 13.1929 1.12062 13.0136 1.5003H4.98705C4.80768 1.12062 4.53965 0.789624 4.20554 0.535241C3.87143 0.280859 3.48106 0.110544 3.06733 0.0386594C2.65361 -0.0332253 2.22866 -0.00457228 1.82833 0.122202C1.428 0.248977 1.06402 0.470156 0.767087 0.767088C0.470156 1.06402 0.248977 1.428 0.122202 1.82833C-0.00457228 2.22866 -0.0332253 2.65361 0.0386594 3.06733C0.110544 3.48106 0.280859 3.87144 0.535241 4.20554C0.789624 4.53965 1.12062 4.80768 1.5003 4.98705V13.0121C1.12081 13.1915 0.790005 13.4596 0.535781 13.7936C0.281558 14.1277 0.111361 14.518 0.0395347 14.9316C-0.0322919 15.3452 -0.00364386 15.77 0.123065 16.1702C0.249773 16.5704 0.470829 16.9343 0.767603 17.2312C1.06438 17.5281 1.42817 17.7493 1.82833 17.8762C2.22849 18.0031 2.65328 18.0319 3.06692 17.9602C3.48055 17.8886 3.8709 17.7186 4.20507 17.4645C4.53924 17.2104 4.80743 16.8797 4.98705 16.5003H13.0121C13.1915 16.8798 13.4596 17.2106 13.7936 17.4648C14.1277 17.7191 14.518 17.8892 14.9316 17.9611C15.3452 18.0329 15.77 18.0043 16.1702 17.8775C16.5704 17.7508 16.9343 17.5298 17.2312 17.233C17.5281 16.9362 17.7493 16.5724 17.8762 16.1723C18.0031 15.7721 18.0319 15.3473 17.9602 14.9337C17.8886 14.5201 17.7186 14.1297 17.4645 13.7955C17.2104 13.4614 16.8797 13.1932 16.5003 13.0136ZM12.7886 15.0003H5.21205C5.13119 14.4424 4.87213 13.9257 4.47354 13.5271C4.07495 13.1285 3.55817 12.8694 3.0003 12.7886V5.21205C3.55817 5.13119 4.07495 4.87213 4.47354 4.47354C4.87213 4.07495 5.13119 3.55817 5.21205 3.0003H12.7871C12.868 3.55839 13.1273 4.07533 13.5262 4.47395C13.9251 4.87256 14.4422 5.13148 15.0003 5.21205V12.7871C14.4422 12.868 13.9253 13.1273 13.5267 13.5262C13.128 13.9251 12.8691 14.4422 12.7886 15.0003ZM15.3753 1.5003C15.5978 1.5003 15.8153 1.56628 16.0003 1.6899C16.1853 1.81352 16.3295 1.98922 16.4147 2.19479C16.4998 2.40035 16.5221 2.62655 16.4787 2.84478C16.4353 3.06301 16.3281 3.26347 16.1708 3.4208C16.0135 3.57813 15.813 3.68528 15.5948 3.72869C15.3766 3.7721 15.1504 3.74982 14.9448 3.66467C14.7392 3.57952 14.5635 3.43533 14.4399 3.25032C14.3163 3.06532 14.2503 2.84781 14.2503 2.6253C14.2503 2.32694 14.3688 2.04079 14.5798 1.82981C14.7908 1.61883 15.0769 1.5003 15.3753 1.5003ZM2.6253 1.5003C2.84781 1.5003 3.06532 1.56628 3.25032 1.6899C3.43533 1.81352 3.57952 1.98922 3.66467 2.19479C3.74982 2.40035 3.7721 2.62655 3.72869 2.84478C3.68528 3.06301 3.57813 3.26347 3.4208 3.4208C3.26347 3.57813 3.06301 3.68528 2.84478 3.72869C2.62655 3.7721 2.40035 3.74982 2.19479 3.66467C1.98922 3.57952 1.81352 3.43533 1.6899 3.25032C1.56628 3.06532 1.5003 2.84781 1.5003 2.6253C1.5003 2.32694 1.61883 2.04079 1.82981 1.82981C2.04079 1.61883 2.32694 1.5003 2.6253 1.5003ZM2.6253 16.5003C2.4028 16.5003 2.18529 16.4343 2.00029 16.3107C1.81528 16.1871 1.67109 16.0114 1.58594 15.8058C1.50079 15.6003 1.47851 15.3741 1.52192 15.1558C1.56533 14.9376 1.67248 14.7371 1.82981 14.5798C1.98714 14.4225 2.1876 14.3153 2.40583 14.2719C2.62406 14.2285 2.85026 14.2508 3.05582 14.3359C3.26139 14.4211 3.43709 14.5653 3.56071 14.7503C3.68432 14.9353 3.7503 15.1528 3.7503 15.3753C3.7503 15.6737 3.63178 15.9598 3.4208 16.1708C3.20982 16.3818 2.92367 16.5003 2.6253 16.5003ZM15.3753 16.5003C15.1528 16.5003 14.9353 16.4343 14.7503 16.3107C14.5653 16.1871 14.4211 16.0114 14.3359 15.8058C14.2508 15.6003 14.2285 15.3741 14.2719 15.1558C14.3153 14.9376 14.4225 14.7371 14.5798 14.5798C14.7371 14.4225 14.9376 14.3153 15.1558 14.2719C15.3741 14.2285 15.6003 14.2508 15.8058 14.3359C16.0114 14.4211 16.1871 14.5653 16.3107 14.7503C16.4343 14.9353 16.5003 15.1528 16.5003 15.3753C16.5003 15.6737 16.3818 15.9598 16.1708 16.1708C15.9598 16.3818 15.6737 16.5003 15.3753 16.5003ZM9.7503 6.7503V9.00031H10.5003C10.6992 9.00031 10.89 9.07932 11.0306 9.21997C11.1713 9.36063 11.2503 9.55139 11.2503 9.75031C11.2503 9.94922 11.1713 10.14 11.0306 10.2806C10.89 10.4213 10.6992 10.5003 10.5003 10.5003H9.7503V11.2503C9.7503 11.4492 9.82932 11.64 9.96997 11.7806C10.1106 11.9213 10.3014 12.0003 10.5003 12.0003C10.6992 12.0003 10.89 12.0793 11.0306 12.22C11.1713 12.3606 11.2503 12.5514 11.2503 12.7503C11.2503 12.9492 11.1713 13.14 11.0306 13.2806C10.89 13.4213 10.6992 13.5003 10.5003 13.5003C9.945 13.4984 9.4103 13.2898 9.0003 12.9153C8.5903 13.2898 8.0556 13.4984 7.5003 13.5003C7.30139 13.5003 7.11063 13.4213 6.96997 13.2806C6.82932 13.14 6.7503 12.9492 6.7503 12.7503C6.7503 12.5514 6.82932 12.3606 6.96997 12.22C7.11063 12.0793 7.30139 12.0003 7.5003 12.0003C7.69922 12.0003 7.88998 11.9213 8.03063 11.7806C8.17129 11.64 8.2503 11.4492 8.2503 11.2503V10.5003H7.5003C7.30139 10.5003 7.11063 10.4213 6.96997 10.2806C6.82932 10.14 6.7503 9.94922 6.7503 9.75031C6.7503 9.55139 6.82932 9.36063 6.96997 9.21997C7.11063 9.07932 7.30139 9.00031 7.5003 9.00031H8.2503V6.7503C8.2503 6.55139 8.17129 6.36063 8.03063 6.21997C7.88998 6.07932 7.69922 6.0003 7.5003 6.0003C7.30139 6.0003 7.11063 5.92129 6.96997 5.78063C6.82932 5.63998 6.7503 5.44922 6.7503 5.2503C6.7503 5.05139 6.82932 4.86063 6.96997 4.71997C7.11063 4.57932 7.30139 4.5003 7.5003 4.5003C8.0556 4.50226 8.5903 4.71079 9.0003 5.0853C9.4103 4.71079 9.945 4.50226 10.5003 4.5003C10.6992 4.5003 10.89 4.57932 11.0306 4.71997C11.1713 4.86063 11.2503 5.05139 11.2503 5.2503C11.2503 5.44922 11.1713 5.63998 11.0306 5.78063C10.89 5.92129 10.6992 6.0003 10.5003 6.0003C10.3014 6.0003 10.1106 6.07932 9.96997 6.21997C9.82932 6.36063 9.7503 6.55139 9.7503 6.7503Z" fill="#002145"/>
</svg>
