<svg width="33" height="33" viewBox="0 0 33 33" fill="none" xmlns="http://www.w3.org/2000/svg">
<path d="M5.38617 17.5823H13.3751C14.1074 17.5823 14.7066 16.9751 14.7066 16.2331V5.43996C14.7066 4.69793 14.1074 4.09082 13.3751 4.09082H5.38617C4.65386 4.09082 4.05469 4.69793 4.05469 5.43996V16.2331C4.05469 16.9751 4.65386 17.5823 5.38617 17.5823ZM5.38617 28.3754H13.3751C14.1074 28.3754 14.7066 27.7683 14.7066 27.0263V21.6297C14.7066 20.8877 14.1074 20.2805 13.3751 20.2805H5.38617C4.65386 20.2805 4.05469 20.8877 4.05469 21.6297V27.0263C4.05469 27.7683 4.65386 28.3754 5.38617 28.3754ZM18.701 28.3754H26.6899C27.4222 28.3754 28.0214 27.7683 28.0214 27.0263V16.2331C28.0214 15.4911 27.4222 14.884 26.6899 14.884H18.701C17.9687 14.884 17.3695 15.4911 17.3695 16.2331V27.0263C17.3695 27.7683 17.9687 28.3754 18.701 28.3754ZM17.3695 5.43996V10.8365C17.3695 11.5786 17.9687 12.1857 18.701 12.1857H26.6899C27.4222 12.1857 28.0214 11.5786 28.0214 10.8365V5.43996C28.0214 4.69793 27.4222 4.09082 26.6899 4.09082H18.701C17.9687 4.09082 17.3695 4.69793 17.3695 5.43996Z" fill="#0A65CD"/>
</svg>
