<svg width="18" height="18" viewBox="0 0 18 18" fill="none" xmlns="http://www.w3.org/2000/svg">
<g clip-path="url(#clip0_1347_6870)">
<path d="M17.7817 16.7208L16.9739 15.913L15.6764 14.6178L17.7682 12.526C17.8572 12.4369 17.9223 12.3267 17.9576 12.2057C17.9928 12.0847 17.9969 11.9568 17.9696 11.8338C17.9424 11.7107 17.8845 11.5966 17.8015 11.5018C17.7184 11.407 17.6128 11.3347 17.4944 11.2915L10.7677 8.85103C10.4997 8.75419 10.2097 8.73566 9.93165 8.79761C9.65356 8.85956 9.39886 8.99943 9.19736 9.20085C8.99586 9.40227 8.85589 9.65692 8.79383 9.93499C8.73177 10.2131 8.75019 10.503 8.84693 10.771L11.2942 17.4978C11.3371 17.6163 11.4093 17.722 11.5039 17.8053C11.5986 17.8885 11.7127 17.9465 11.8357 17.974C11.8891 17.9857 11.9437 17.9914 11.9984 17.9913C12.1973 17.9912 12.3881 17.9122 12.5287 17.7715L14.6182 15.676L15.9134 16.9713L16.7212 17.779C16.8626 17.9157 17.0521 17.9912 17.2487 17.9895C17.4454 17.9878 17.6335 17.909 17.7725 17.7699C17.9116 17.6308 17.9905 17.4427 17.9922 17.2461C17.9939 17.0494 17.9183 16.86 17.7817 16.7185V16.7208ZM12.3014 15.8748L10.2584 10.2573L15.8759 12.3003L12.3014 15.8748Z" fill="#002145"/>
<path d="M7.5 15C6.01664 15 4.5666 14.5601 3.33323 13.736C2.09986 12.9119 1.13856 11.7406 0.570907 10.3701C0.00324963 8.99968 -0.145275 7.49168 0.144114 6.03683C0.433503 4.58197 1.14781 3.2456 2.1967 2.1967C3.2456 1.14781 4.58197 0.433503 6.03683 0.144114C7.49168 -0.145275 8.99968 0.00324963 10.3701 0.570907C11.7406 1.13856 12.9119 2.09986 13.736 3.33323C14.5601 4.5666 15 6.01664 15 7.5C15 7.69892 14.921 7.88968 14.7803 8.03033C14.6397 8.17099 14.4489 8.25 14.25 8.25C14.0511 8.25 13.8603 8.17099 13.7197 8.03033C13.579 7.88968 13.5 7.69892 13.5 7.5C13.5 6.31332 13.1481 5.15328 12.4888 4.16658C11.8295 3.17989 10.8925 2.41085 9.7961 1.95673C8.69975 1.5026 7.49335 1.38378 6.32946 1.61529C5.16558 1.8468 4.09648 2.41825 3.25736 3.25736C2.41825 4.09648 1.8468 5.16558 1.61529 6.32946C1.38378 7.49335 1.5026 8.69975 1.95673 9.7961C2.41085 10.8925 3.17989 11.8295 4.16658 12.4888C5.15328 13.1481 6.31332 13.5 7.5 13.5C7.69892 13.5 7.88968 13.579 8.03033 13.7197C8.17099 13.8603 8.25 14.0511 8.25 14.25C8.25 14.4489 8.17099 14.6397 8.03033 14.7803C7.88968 14.921 7.69892 15 7.5 15Z" fill="#002145"/>
<path d="M6.06119 11.7167C5.96263 11.7168 5.86502 11.6974 5.77394 11.6597C5.09059 11.3759 4.48776 10.9279 4.01886 10.3555C3.54996 9.78309 3.22944 9.10387 3.08571 8.37801C2.94198 7.65215 2.97946 6.90204 3.19483 6.19412C3.41021 5.4862 3.79683 4.84232 4.32046 4.31949C4.84408 3.79666 5.48856 3.41103 6.19681 3.19674C6.90506 2.98245 7.65522 2.94612 8.38086 3.09096C9.1065 3.23581 9.78523 3.55735 10.3569 4.02713C10.9286 4.49691 11.3757 5.10042 11.6584 5.78421C11.6981 5.87557 11.7191 5.97391 11.7204 6.07348C11.7216 6.17306 11.703 6.27188 11.6656 6.36419C11.6282 6.4565 11.5728 6.54043 11.5027 6.61111C11.4325 6.68178 11.349 6.73778 11.257 6.77582C11.1649 6.81387 11.0662 6.83321 10.9667 6.83271C10.8671 6.83221 10.7686 6.81188 10.6769 6.77292C10.5853 6.73395 10.5023 6.67712 10.4329 6.60575C10.3634 6.53438 10.3089 6.44989 10.2724 6.35721C10.0835 5.90176 9.78519 5.49991 9.40393 5.18722C9.02267 4.87452 8.57022 4.66062 8.0866 4.56444C7.60298 4.46826 7.10311 4.49278 6.63122 4.63581C6.15934 4.77884 5.72998 5.03599 5.38115 5.38449C5.03231 5.73299 4.77476 6.1621 4.63127 6.63385C4.48779 7.1056 4.4628 7.60544 4.55851 8.08915C4.65423 8.57287 4.86769 9.02553 5.18003 9.40708C5.49236 9.78864 5.89393 10.0873 6.34919 10.2767C6.50964 10.3431 6.64207 10.4631 6.7239 10.6163C6.80573 10.7694 6.83188 10.9462 6.7979 11.1165C6.76391 11.2868 6.67189 11.44 6.53754 11.55C6.40319 11.66 6.23483 11.72 6.06119 11.7197V11.7167Z" fill="#002145"/>
</g>
<defs>
<clipPath id="clip0_1347_6870">
<rect width="18" height="18" fill="white"/>
</clipPath>
</defs>
</svg>
