<svg width="18" height="18" viewBox="0 0 18 18" fill="none" xmlns="http://www.w3.org/2000/svg">
<path d="M14.9981 3.03712C13.2423 1.48758 10.9516 0.683447 8.61245 0.795469C6.27332 0.907491 4.06996 1.92684 2.47021 3.63709C0.870472 5.34733 0.000341151 7.61377 0.0445764 9.95517C0.0888116 12.2966 1.04393 14.5285 2.70713 16.1771C3.40943 16.8658 4.35451 17.2505 5.33813 17.2481H12.6634C13.5948 17.2608 14.4954 16.9149 15.1789 16.2821C16.0781 15.4237 16.7906 14.389 17.2718 13.2427C17.753 12.0965 17.9926 10.8633 17.9756 9.62022C17.9587 8.37716 17.6855 7.15097 17.1732 6.01826C16.6609 4.88556 15.9204 3.8707 14.9981 3.03712ZM14.1491 15.1924C13.743 15.5605 13.2114 15.7594 12.6634 15.7481H5.33813C4.74654 15.75 4.17802 15.5188 3.75563 15.1046C2.68575 14.0589 1.95306 12.7171 1.65174 11.2517C1.35041 9.78634 1.49422 8.26432 2.06467 6.8813C2.63513 5.49828 3.60616 4.31747 4.85297 3.49064C6.09977 2.66381 7.56536 2.22875 9.06135 2.24138C10.5573 2.25401 12.0154 2.71376 13.248 3.56152C14.4807 4.40928 15.4317 5.60632 15.9787 6.99877C16.5257 8.39123 16.6438 9.91546 16.3178 11.3756C15.9917 12.8356 15.2365 14.1649 14.1491 15.1924ZM14.2991 9.74062C14.2016 9.75462 14.1023 9.74928 14.0069 9.72489C13.9114 9.7005 13.8217 9.65755 13.7429 9.59849C13.664 9.53943 13.5976 9.46542 13.5474 9.38068C13.4971 9.29594 13.4641 9.20213 13.4501 9.10462C13.2922 8.03548 12.7561 7.05841 11.9393 6.3508C11.1224 5.64319 10.0789 5.25196 8.99813 5.24812C5.04713 5.17312 2.96813 10.2626 5.85338 12.9619C5.9956 13.1011 6.07669 13.2911 6.0788 13.4902C6.08091 13.6892 6.00387 13.8809 5.86463 14.0231C5.72539 14.1653 5.53536 14.2464 5.33633 14.2485C5.13731 14.2507 4.9456 14.1736 4.80338 14.0344C0.963378 10.3841 3.70238 3.68437 8.99813 3.74812C10.4396 3.75338 11.8315 4.2752 12.9212 5.2189C14.0109 6.1626 14.7262 7.46564 14.9374 8.89162C14.9514 8.98919 14.946 9.08855 14.9216 9.18404C14.8971 9.27952 14.8541 9.36925 14.795 9.4481C14.7358 9.52695 14.6617 9.59337 14.5769 9.64356C14.4921 9.69376 14.3982 9.72674 14.3006 9.74062H14.2991ZM14.5241 12.1736C14.4846 12.2639 14.4276 12.3454 14.3565 12.4136C14.2854 12.4819 14.2016 12.5354 14.1098 12.5712C14.018 12.607 13.92 12.6244 13.8215 12.6223C13.723 12.6202 13.6258 12.5987 13.5356 12.5591L9.88538 10.9571C9.61966 11.1532 9.29666 11.2561 8.96648 11.2499C8.63631 11.2437 8.31741 11.1287 8.05926 10.9228C7.80111 10.7168 7.61813 10.4314 7.53872 10.1109C7.45931 9.79033 7.48791 9.45254 7.62006 9.1499C7.75222 8.84726 7.98055 8.59669 8.26965 8.43706C8.55874 8.27743 8.89243 8.21767 9.21896 8.26704C9.54548 8.31641 9.84659 8.47215 10.0756 8.71011C10.3045 8.94807 10.4486 9.25494 10.4854 9.58312L14.1356 11.1851C14.2262 11.2243 14.3081 11.2811 14.3767 11.352C14.4454 11.4229 14.4993 11.5067 14.5354 11.5986C14.5716 11.6904 14.5893 11.7885 14.5875 11.8872C14.5857 11.9858 14.5644 12.0832 14.5249 12.1736H14.5241Z" fill="#002145"/>
</svg>
