<svg width="18" height="18" viewBox="0 0 18 18" fill="none" xmlns="http://www.w3.org/2000/svg">
<path d="M17.9241 8.57768C17.7115 6.95361 17.0596 5.41835 16.0389 4.13737C15.0181 2.85639 13.6672 1.87825 12.1316 1.30838C10.5959 0.738506 8.93393 0.598504 7.32463 0.903458C5.71533 1.20841 4.21976 1.94676 2.9991 3.03894C2.07676 3.87238 1.33621 4.88707 0.823692 6.01962C0.311179 7.15216 0.037723 8.37823 0.0204084 9.62123C0.00309374 10.8642 0.242292 12.0974 0.723061 13.2438C1.20383 14.3902 1.91584 15.4251 2.8146 16.2839C3.49953 16.9174 4.40177 17.2632 5.3346 17.2499H12.6591C13.6429 17.2525 14.5881 16.8675 15.2901 16.1782C16.2914 15.2044 17.051 14.01 17.5084 12.6903C17.9657 11.3706 18.1081 9.96221 17.9241 8.57768ZM14.2416 15.1064C13.819 15.5203 13.2506 15.7514 12.6591 15.7499H5.3346C4.78631 15.7613 4.25445 15.5625 3.8481 15.1942C3.09913 14.4786 2.50578 13.6162 2.10514 12.6609C1.70449 11.7056 1.50515 10.678 1.51958 9.64218C1.53401 8.60638 1.7619 7.58469 2.189 6.64094C2.6161 5.6972 3.23323 4.85167 4.00185 4.15719C5.4665 2.87548 7.37203 2.21332 9.31587 2.31061C11.2597 2.4079 13.0896 3.25702 14.4189 4.67857C15.7483 6.10012 16.473 7.98276 16.4399 9.92875C16.4068 11.8747 15.6185 13.7317 14.2416 15.1072V15.1064ZM13.2794 5.46969C13.42 5.61033 13.4989 5.80106 13.4989 5.99994C13.4989 6.19881 13.42 6.38954 13.2794 6.53018L10.4481 9.36143C10.5336 9.68039 10.5115 10.0186 10.3851 10.3237C10.2588 10.6288 10.0353 10.8837 9.7493 11.0488C9.46334 11.2139 9.13088 11.2801 8.80349 11.237C8.4761 11.1939 8.17208 11.0439 7.93859 10.8104C7.70509 10.577 7.55517 10.2729 7.51208 9.94555C7.46898 9.61816 7.53512 9.2857 7.70024 8.99973C7.86536 8.71377 8.12023 8.49028 8.42531 8.36393C8.7304 8.23759 9.06865 8.21544 9.3876 8.30093L12.2189 5.46969C12.3595 5.32908 12.5502 5.2501 12.7491 5.2501C12.948 5.2501 13.1387 5.32908 13.2794 5.46969Z" fill="#002145"/>
</svg>
