<svg width="18" height="18" viewBox="0 0 18 18" fill="none" xmlns="http://www.w3.org/2000/svg">
<path d="M17.25 18H2.25C1.0095 18 0 16.9905 0 15.75V0.75C0 0.336 0.336 0 0.75 0C1.164 0 1.5 0.336 1.5 0.75V15.75C1.5 16.1632 1.83675 16.5 2.25 16.5H17.25C17.664 16.5 18 16.836 18 17.25C18 17.664 17.664 18 17.25 18ZM18.0045 12.7568L18.0158 9.0225C18.0173 8.427 17.7773 7.84425 17.3565 7.425L15.8408 5.90925C14.9903 5.05875 13.5083 5.05875 12.6585 5.90925L11.2493 7.31775L8.34 4.40925C7.49025 3.55875 6.00825 3.55875 5.1585 4.40925L3.6585 5.90925C3.23325 6.33375 2.99925 6.89925 2.99925 7.5V12.75C2.99925 13.9905 4.00875 15 5.24925 15H15.7538C16.9913 15 18.0008 13.9935 18.0038 12.7568H18.0045ZM7.28025 5.46975L10.7198 8.9085C11.013 9.20175 11.487 9.20175 11.7803 8.9085L13.7198 6.96975C14.0025 6.68625 14.4968 6.68625 14.7803 6.96975L16.296 8.4855C16.4378 8.62725 16.5158 8.81625 16.515 9.018L16.5037 12.7523C16.503 13.164 16.1663 13.5 15.7538 13.5H5.25C4.83675 13.5 4.5 13.1632 4.5 12.75V7.5C4.5 7.30275 4.58025 7.10925 4.71975 6.96975L6.21975 5.46975C6.36075 5.328 6.549 5.25 6.75 5.25C6.951 5.25 7.1385 5.328 7.28025 5.46975Z" fill="#002145"/>
</svg>
