<svg width="18" height="15" viewBox="0 0 18 15" fill="none" xmlns="http://www.w3.org/2000/svg">
<path d="M14.25 0.25H3.75C2.7558 0.251191 1.80267 0.646661 1.09966 1.34966C0.396661 2.05267 0.00119089 3.0058 0 4L0 8.5C0.00119089 9.4942 0.396661 10.4473 1.09966 11.1503C1.80267 11.8533 2.7558 12.2488 3.75 12.25H8.25V13H6C5.80109 13 5.61032 13.079 5.46967 13.2197C5.32902 13.3603 5.25 13.5511 5.25 13.75C5.25 13.9489 5.32902 14.1397 5.46967 14.2803C5.61032 14.421 5.80109 14.5 6 14.5H12C12.1989 14.5 12.3897 14.421 12.5303 14.2803C12.671 14.1397 12.75 13.9489 12.75 13.75C12.75 13.5511 12.671 13.3603 12.5303 13.2197C12.3897 13.079 12.1989 13 12 13H9.75V12.25H14.25C15.2442 12.2488 16.1973 11.8533 16.9003 11.1503C17.6033 10.4473 17.9988 9.4942 18 8.5V4C17.9988 3.0058 17.6033 2.05267 16.9003 1.34966C16.1973 0.646661 15.2442 0.251191 14.25 0.25ZM16.5 8.5C16.5 9.09674 16.2629 9.66903 15.841 10.091C15.419 10.5129 14.8467 10.75 14.25 10.75H3.75C3.15326 10.75 2.58097 10.5129 2.15901 10.091C1.73705 9.66903 1.5 9.09674 1.5 8.5V4C1.5 3.40326 1.73705 2.83097 2.15901 2.40901C2.58097 1.98705 3.15326 1.75 3.75 1.75H14.25C14.8467 1.75 15.419 1.98705 15.841 2.40901C16.2629 2.83097 16.5 3.40326 16.5 4V8.5Z" fill="#002145"/>
</svg>
