<svg width="14" height="18" viewBox="0 0 14 18" fill="none" xmlns="http://www.w3.org/2000/svg">
<path d="M5.5 7.50001C4.90326 7.50001 4.33097 7.73706 3.90901 8.15902C3.48705 8.58098 3.25 9.15328 3.25 9.75001C3.25 10.3467 3.48705 10.919 3.90901 11.341C4.33097 11.763 4.90326 12 5.5 12H8.5C9.09674 12 9.66903 11.763 10.091 11.341C10.5129 10.919 10.75 10.3467 10.75 9.75001C10.75 9.15328 10.5129 8.58098 10.091 8.15902C9.66903 7.73706 9.09674 7.50001 8.5 7.50001H5.5ZM9.25 9.75001C9.25 9.94893 9.17098 10.1397 9.03033 10.2803C8.88968 10.421 8.69891 10.5 8.5 10.5H5.5C5.30109 10.5 5.11032 10.421 4.96967 10.2803C4.82902 10.1397 4.75 9.94893 4.75 9.75001C4.75 9.5511 4.82902 9.36033 4.96967 9.21968C5.11032 9.07903 5.30109 9.00001 5.5 9.00001H8.5C8.69891 9.00001 8.88968 9.07903 9.03033 9.21968C9.17098 9.36033 9.25 9.5511 9.25 9.75001ZM10.75 14.25C10.75 14.4489 10.671 14.6397 10.5303 14.7803C10.3897 14.921 10.1989 15 10 15H4C3.80109 15 3.61032 14.921 3.46967 14.7803C3.32902 14.6397 3.25 14.4489 3.25 14.25C3.25 14.0511 3.32902 13.8603 3.46967 13.7197C3.61032 13.579 3.80109 13.5 4 13.5H10C10.1989 13.5 10.3897 13.579 10.5303 13.7197C10.671 13.8603 10.75 14.0511 10.75 14.25ZM12.652 2.34076L11.4085 1.09876C11.0612 0.74945 10.648 0.472483 10.1929 0.283885C9.73782 0.0952868 9.24986 -0.00119848 8.75725 1.12359e-05H4C3.0058 0.00120213 2.05267 0.396673 1.34966 1.09968C0.646661 1.80268 0.251191 2.75582 0.25 3.75001V14.25C0.251191 15.2442 0.646661 16.1973 1.34966 16.9003C2.05267 17.6034 3.0058 17.9988 4 18H10C10.9942 17.9988 11.9473 17.6034 12.6503 16.9003C13.3533 16.1973 13.7488 15.2442 13.75 14.25V4.99276C13.7514 4.50008 13.6551 4.012 13.4666 3.55679C13.2781 3.10157 13.0013 2.68826 12.652 2.34076ZM11.5915 3.40126C11.697 3.50808 11.792 3.62488 11.875 3.75001H10V1.87501C10.1253 1.95716 10.2419 2.0519 10.348 2.15776L11.5915 3.40126ZM12.25 14.25C12.25 14.8467 12.0129 15.419 11.591 15.841C11.169 16.263 10.5967 16.5 10 16.5H4C3.40326 16.5 2.83097 16.263 2.40901 15.841C1.98705 15.419 1.75 14.8467 1.75 14.25V3.75001C1.75 3.15327 1.98705 2.58098 2.40901 2.15902C2.83097 1.73706 3.40326 1.50001 4 1.50001H8.5V3.75001C8.5 4.14784 8.65804 4.52937 8.93934 4.81067C9.22064 5.09198 9.60218 5.25001 10 5.25001H12.25V14.25Z" fill="#002145"/>
</svg>
