<svg width="24" height="24" viewBox="0 0 24 24" fill="none" xmlns="http://www.w3.org/2000/svg">
<g clip-path="url(#clip0_850_1229)">
<path d="M10.8521 0.0550671C8.2155 0.380781 6.0315 1.44707 4.2315 3.28135C2.58922 4.96136 1.60864 6.93279 1.22807 9.32936C1.16293 9.74422 1.15264 9.94993 1.15264 10.8208C1.14922 11.8905 1.17322 12.2059 1.3275 12.9808C1.48864 13.8139 1.70122 14.4928 2.03036 15.2436C3.06922 17.5991 4.78693 19.4299 7.04636 20.5854C7.5915 20.8631 8.0475 21.0619 8.07493 21.0311C8.08865 21.0174 7.95836 20.1499 7.9035 19.8859C7.89322 19.8379 7.81779 19.7797 7.69093 19.7145C5.54807 18.6654 3.90579 16.9168 2.94922 14.6814C2.78122 14.2905 2.43493 13.2139 2.43493 13.0905C2.43493 13.0562 2.41093 12.9396 2.3835 12.8299C2.1915 12.0928 2.13322 10.5362 2.2635 9.59336C2.7915 5.80821 5.37664 2.71907 9.00407 1.5465C10.4886 1.0665 12.2269 0.946497 13.7492 1.22421C14.4075 1.34421 15.0966 1.5465 15.6521 1.77621C15.7858 1.83107 15.9366 1.89278 15.9915 1.91335C16.3789 2.06078 17.2978 2.59564 17.8155 2.97964C19.1081 3.93621 20.0269 5.02993 20.7984 6.53507C21.2509 7.41279 21.6144 8.64707 21.7515 9.75793C21.8132 10.2551 21.8269 11.5236 21.7755 11.9179C21.6521 12.8574 21.5492 13.3168 21.3024 14.0436C21.1378 14.5339 21.0487 14.7362 20.7744 15.2848C19.8349 17.1568 18.3469 18.6619 16.4989 19.6151C16.0841 19.8277 16.1149 19.7865 16.0464 20.1979C16.0292 20.3111 15.9915 20.5408 15.9606 20.7122C15.9332 20.8802 15.9092 21.0311 15.9092 21.0414C15.9092 21.0757 16.3584 20.8871 16.8178 20.6608C19.8006 19.1899 21.9469 16.4196 22.6395 13.1522C22.8212 12.2951 22.8521 11.9728 22.8521 10.8551C22.8486 9.62764 22.7972 9.18879 22.5229 8.12936C22.3892 7.60479 21.8887 6.25736 21.7721 6.1065C21.7584 6.08593 21.6795 5.94193 21.5972 5.78078C21.2544 5.10536 20.7504 4.37507 20.1915 3.74078C18.3606 1.66307 15.9984 0.415068 13.2349 0.0722103C12.5286 -0.0169334 11.5001 -0.0237904 10.8521 0.0550671Z" fill="#D3D5E2"/>
<path d="M11.2473 3.3122C9.35477 3.5762 7.79134 4.4882 6.70448 5.96934C5.36048 7.8002 5.08277 10.2962 5.98448 12.3842C6.27591 13.0562 6.74563 13.7796 7.22563 14.2871C7.47248 14.5511 7.90448 14.9351 7.95248 14.9351C7.9662 14.9351 8.02105 14.8356 8.07248 14.7122C8.12734 14.5922 8.23705 14.3968 8.31934 14.2768C8.40163 14.1568 8.4702 14.0471 8.4702 14.0333C8.4702 14.0162 8.3022 13.8276 8.09648 13.6082C7.08505 12.5453 6.5742 11.2665 6.5742 9.80934C6.57077 7.93734 7.54791 6.19563 9.16277 5.19106C10.4039 4.41963 11.9639 4.18306 13.3696 4.54992C15.4473 5.0882 16.9765 6.73049 17.3913 8.86649C17.4873 9.37049 17.4942 10.2585 17.4051 10.7351C17.1822 11.9385 16.6782 12.8951 15.8279 13.7351C15.6668 13.8962 15.5331 14.0402 15.5331 14.0608C15.5331 14.0779 15.5948 14.1842 15.6668 14.2939C15.7388 14.4036 15.8416 14.5922 15.8965 14.7122C15.9513 14.8356 16.0131 14.9351 16.0336 14.9351C16.0542 14.9351 16.2496 14.7636 16.4725 14.5545C17.3536 13.7145 17.9125 12.8025 18.2622 11.6265C18.4165 11.1191 18.4851 10.6631 18.5056 10.0288C18.5262 9.3842 18.4953 8.99334 18.3719 8.4242C17.9605 6.49049 16.6165 4.78306 14.8371 3.93277C13.9182 3.49392 13.1673 3.31906 12.1216 3.29506C11.7651 3.2882 11.3708 3.29506 11.2473 3.3122Z" fill="#D3D5E2"/>
<path d="M11.5544 7.11764C10.4984 7.28907 9.61724 8.10507 9.35324 9.15422C9.29495 9.38736 9.28467 9.50393 9.29838 9.9085C9.31552 10.3302 9.32924 10.4262 9.41495 10.6662C9.67895 11.3862 10.1487 11.9245 10.7932 12.2434C11.5818 12.6274 12.5624 12.6034 13.3167 12.1782C13.9338 11.8285 14.3727 11.2799 14.5955 10.5805C14.6812 10.3199 14.6915 10.2376 14.6881 9.80907C14.6881 9.27422 14.6332 9.02736 14.4207 8.5885C14.0847 7.90622 13.423 7.36793 12.6687 7.16907C12.4184 7.10393 11.8115 7.0765 11.5544 7.11764ZM12.5144 8.2525C12.8675 8.37936 13.2481 8.69479 13.4161 9.00336C13.7898 9.68907 13.6458 10.5188 13.0698 11.0296C12.1955 11.8011 10.8378 11.4342 10.4332 10.3199C10.351 10.0936 10.351 9.52793 10.4298 9.3085C10.6595 8.67764 11.1807 8.24907 11.7944 8.18393C12.0172 8.15993 12.3464 8.19079 12.5144 8.2525Z" fill="#D3D5E2"/>
<path d="M11.3835 13.6526C10.9995 13.7006 10.4201 13.8583 10.1663 13.9852C8.7332 14.7155 8.43491 16.2309 9.0212 19.8035C9.38463 22.0183 9.7892 23.1532 10.4201 23.7189C10.7183 23.9898 10.6943 23.9863 11.9835 23.9863C13.0909 23.9863 13.1389 23.9829 13.2795 23.9143C13.7732 23.6606 14.1812 23.04 14.4521 22.1178C14.6852 21.3292 14.9698 19.9406 15.0692 19.1178C15.0795 19.032 15.1104 18.8023 15.1344 18.6035C15.2749 17.5886 15.2749 16.3715 15.1344 15.7475C14.8806 14.6366 14.1949 13.9818 13.0292 13.728C12.7858 13.6766 12.5492 13.656 12.1035 13.6492C11.7743 13.6423 11.4486 13.6458 11.3835 13.6526ZM12.8235 14.7875C13.5092 14.9075 13.8932 15.2469 14.0715 15.888C14.1366 16.128 14.1435 16.2343 14.1435 17.0435C14.1401 17.7635 14.1264 18.0515 14.0646 18.5349C13.7835 20.6846 13.3858 22.2549 12.9881 22.7589L12.8852 22.8892H11.9835H11.0818L10.9995 22.776C10.6463 22.3166 10.3412 21.2332 10.0498 19.4263C9.98463 19.0149 9.95034 18.7578 9.86806 18.0549C9.8132 17.5852 9.8132 16.3338 9.86806 16.1006C10.0532 15.3052 10.4441 14.9178 11.1983 14.784C11.3663 14.7532 11.5823 14.7223 11.6749 14.7155C11.9526 14.6949 12.5081 14.7292 12.8235 14.7875Z" fill="#D3D5E2"/>
</g>
<defs>
<clipPath id="clip0_850_1229">
<rect width="24" height="24" fill="white"/>
</clipPath>
</defs>
</svg>
