<svg width="30" height="26" viewBox="0 0 30 26" fill="none" xmlns="http://www.w3.org/2000/svg">
<path d="M2.50521 15.0885C1.92188 15.0885 1.42854 14.8869 1.02521 14.4835C0.622986 14.0813 0.421875 13.5885 0.421875 13.0052C0.421875 12.4219 0.622986 11.9291 1.02521 11.5269C1.42854 11.1235 1.92188 10.9219 2.50521 10.9219C3.08854 10.9219 3.58187 11.1235 3.98521 11.5269C4.38743 11.9291 4.58854 12.4219 4.58854 13.0052C4.58854 13.5885 4.38743 14.0813 3.98521 14.4835C3.58187 14.8869 3.08854 15.0885 2.50521 15.0885ZM2.50521 5.08854C1.92188 5.08854 1.42854 4.88688 1.02521 4.48354C0.622986 4.08132 0.421875 3.58854 0.421875 3.00521C0.421875 2.42188 0.622986 1.92854 1.02521 1.52521C1.42854 1.12299 1.92188 0.921875 2.50521 0.921875C3.08854 0.921875 3.58187 1.12299 3.98521 1.52521C4.38743 1.92854 4.58854 2.42188 4.58854 3.00521C4.58854 3.58854 4.38743 4.08132 3.98521 4.48354C3.58187 4.88688 3.08854 5.08854 2.50521 5.08854ZM2.50521 25.0885C1.92188 25.0885 1.42854 24.8869 1.02521 24.4835C0.622986 24.0813 0.421875 23.5885 0.421875 23.0052C0.421875 22.4219 0.622986 21.9291 1.02521 21.5269C1.42854 21.1235 1.92188 20.9219 2.50521 20.9219C3.08854 20.9219 3.58187 21.1235 3.98521 21.5269C4.38743 21.9291 4.58854 22.4219 4.58854 23.0052C4.58854 23.5885 4.38743 24.0813 3.98521 24.4835C3.58187 24.8869 3.08854 25.0885 2.50521 25.0885ZM10.0052 24.2552C9.6441 24.2552 9.34576 24.1374 9.11021 23.9019C8.87354 23.6652 8.75521 23.3663 8.75521 23.0052C8.75521 22.6441 8.87354 22.3452 9.11021 22.1085C9.34576 21.873 9.6441 21.7552 10.0052 21.7552H28.3385C28.6997 21.7552 28.9985 21.873 29.2352 22.1085C29.4708 22.3452 29.5885 22.6441 29.5885 23.0052C29.5885 23.3663 29.4708 23.6652 29.2352 23.9019C28.9985 24.1374 28.6997 24.2552 28.3385 24.2552H10.0052ZM10.0052 14.2552C9.6441 14.2552 9.34576 14.1369 9.11021 13.9002C8.87354 13.6647 8.75521 13.3663 8.75521 13.0052C8.75521 12.6441 8.87354 12.3452 9.11021 12.1085C9.34576 11.873 9.6441 11.7552 10.0052 11.7552H28.3385C28.6997 11.7552 28.9985 11.873 29.2352 12.1085C29.4708 12.3452 29.5885 12.6441 29.5885 13.0052C29.5885 13.3663 29.4708 13.6647 29.2352 13.9002C28.9985 14.1369 28.6997 14.2552 28.3385 14.2552H10.0052ZM10.0052 4.25521C9.6441 4.25521 9.34576 4.13688 9.11021 3.90021C8.87354 3.66465 8.75521 3.36632 8.75521 3.00521C8.75521 2.6441 8.87354 2.34576 9.11021 2.11021C9.34576 1.87354 9.6441 1.75521 10.0052 1.75521H28.3385C28.6997 1.75521 28.9985 1.87354 29.2352 2.11021C29.4708 2.34576 29.5885 2.6441 29.5885 3.00521C29.5885 3.36632 29.4708 3.66465 29.2352 3.90021C28.9985 4.13688 28.6997 4.25521 28.3385 4.25521H10.0052Z" fill="#1C1B1F"/>
</svg>
