<svg width="105" height="105" viewBox="0 0 105 105" fill="none" xmlns="http://www.w3.org/2000/svg">
<g filter="url(#filter0_f_3724_11693)">
<path fill-rule="evenodd" clip-rule="evenodd" d="M16.9853 20.821C16.079 23.6061 15.5825 26.5769 15.5675 29.6626L15.4144 61.0469C15.3363 77.063 28.2565 90.1099 44.2726 90.188L75.6569 90.3411C78.4432 90.3547 81.1397 89.9749 83.6936 89.2538C86.0356 85.0697 87.3706 80.2457 87.3706 75.1099V46.7422C87.3706 30.7259 74.3869 17.7422 58.3706 17.7422H30.0029C25.3219 17.7422 20.8998 18.8513 16.9853 20.821Z" fill="#36C1FE"/>
</g>
<path fill-rule="evenodd" clip-rule="evenodd" d="M29.725 0.000182272C21.4408 -0.0402243 14.6924 6.64265 14.652 14.9268L14.6172 22.0583C19.0771 19.2609 24.3523 17.6435 30.0053 17.6435H58.373C74.3892 17.6435 87.373 30.6272 87.373 46.6435V75.0112C87.373 80.3498 85.9304 85.3515 83.4138 89.6478L88.6729 89.6734C96.9571 89.7138 103.705 83.0309 103.746 74.7468L104.036 15.3628C104.076 7.07864 97.3931 0.330237 89.1089 0.289831L29.725 0.000182272Z" fill="#00B2FF"/>
<g filter="url(#filter1_b_3724_11693)">
<rect x="1" y="18.0273" width="86" height="86" rx="15" fill="url(#paint0_linear_3724_11693)" fill-opacity="0.37"/>
<rect x="1" y="18.0273" width="86" height="86" rx="15" stroke="url(#paint1_linear_3724_11693)" stroke-width="1.5"/>
</g>
<path d="M38.3212 68.5647L38.9657 71.1424L45.0879 71.7869H50.5657V71.1424L51.2102 69.8536V68.5647L52.1769 66.9535L54.1102 65.6646L56.0435 63.7313L57.3324 61.798L58.6213 59.8646L59.2658 58.8979L59.588 57.2868V55.3535V52.1312L58.6213 48.909L57.3324 46.9756L54.7546 44.0756L52.4991 42.4645L49.5991 40.8534L47.9879 40.5312L45.7324 39.8867H43.799L42.5101 40.5312L40.5768 40.8534L37.3546 41.8201L35.7434 43.109L33.8101 45.3645L31.8767 47.6201L30.9101 50.5201L30.2656 52.7757V55.3535V57.609L30.9101 59.2202L33.8101 63.7313L36.0657 65.6646L37.6768 67.2758L38.3212 68.5647Z" fill="white"/>
<path d="M44.7578 39.8892C51.8713 39.7594 57.9309 44.6806 59.6134 51.4899C61.9486 60.8365 53.2365 66.513 52.7574 66.9555C52.1854 67.4546 51.7289 68.0691 51.4189 68.7574C51.109 69.4456 50.9529 70.1914 50.9611 70.9444V72.2571" stroke="white" stroke-width="3" stroke-miterlimit="10"/>
<path d="M45.0579 39.8931C37.9265 39.7633 31.8848 44.6845 30.1843 51.4938C27.8551 60.8404 36.5612 66.5169 37.0403 66.9594C37.6159 67.4577 38.077 68.0713 38.393 68.7591C38.7089 69.4469 38.8724 70.1932 38.8725 70.9483V71.991" stroke="white" stroke-width="3" stroke-miterlimit="10"/>
<path d="M45.0729 60.8485V60.3905C45.0729 58.907 46.0224 58.1215 46.9719 57.4889C47.8988 56.878 48.8255 56.0927 48.8255 54.6528C48.8255 52.6457 47.1527 51.0312 45.0729 51.0312C42.9931 51.0312 41.3203 52.6457 41.3203 54.6528" stroke="#BCEBFF" stroke-width="3" stroke-linecap="round" stroke-linejoin="round"/>
<path d="M45.0547 64.2371H45.074" stroke="#BCEBFF" stroke-width="3" stroke-linecap="round" stroke-linejoin="round"/>
<rect x="36.7109" y="70.8203" width="16.1112" height="3.22224" rx="1.61112" fill="white"/>
<rect x="36.7109" y="79.0273" width="16.1112" height="3.22224" rx="1.61112" fill="white"/>
<rect x="36.7109" y="75.0273" width="16.1112" height="3.22224" rx="1.61112" fill="white"/>
<defs>
<filter id="filter0_f_3724_11693" x="10.4141" y="12.7422" width="81.9531" height="82.5977" filterUnits="userSpaceOnUse" color-interpolation-filters="sRGB">
<feFlood flood-opacity="0" result="BackgroundImageFix"/>
<feBlend mode="normal" in="SourceGraphic" in2="BackgroundImageFix" result="shape"/>
<feGaussianBlur stdDeviation="2.5" result="effect1_foregroundBlur_3724_11693"/>
</filter>
<filter id="filter1_b_3724_11693" x="-6.75" y="10.2773" width="101.5" height="101.5" filterUnits="userSpaceOnUse" color-interpolation-filters="sRGB">
<feFlood flood-opacity="0" result="BackgroundImageFix"/>
<feGaussianBlur in="BackgroundImage" stdDeviation="3.5"/>
<feComposite in2="SourceAlpha" operator="in" result="effect1_backgroundBlur_3724_11693"/>
<feBlend mode="normal" in="SourceGraphic" in2="effect1_backgroundBlur_3724_11693" result="shape"/>
</filter>
<linearGradient id="paint0_linear_3724_11693" x1="87" y1="18.0297" x2="0.999997" y2="108.44" gradientUnits="userSpaceOnUse">
<stop offset="0.14101" stop-color="#25BEFF"/>
<stop offset="0.630007" stop-color="#98E0FF" stop-opacity="0.527239"/>
<stop offset="1" stop-color="#D9F4FF" stop-opacity="0"/>
</linearGradient>
<linearGradient id="paint1_linear_3724_11693" x1="78.9145" y1="21.6012" x2="-10.7607" y2="109.439" gradientUnits="userSpaceOnUse">
<stop offset="0.189653" stop-color="white"/>
<stop offset="1" stop-color="#00B2FF"/>
</linearGradient>
</defs>
</svg>
