<svg width="105" height="106" viewBox="0 0 105 106" fill="none" xmlns="http://www.w3.org/2000/svg">
<g filter="url(#filter0_f_3724_11820)">
<path fill-rule="evenodd" clip-rule="evenodd" d="M16.9776 21.7546C16.0712 24.5398 15.5747 27.5106 15.5597 30.5964L15.4066 61.9796C15.3285 77.9956 28.2487 91.0426 44.2648 91.1207L75.6479 91.2738C78.4343 91.2873 81.1308 90.9075 83.6848 90.1864C86.0268 86.0023 87.3619 81.1783 87.3619 76.0424V47.6758C87.3619 31.6595 74.3782 18.6758 58.3619 18.6758H29.9953C25.3142 18.6758 20.8921 19.7849 16.9776 21.7546Z" fill="#36C1FE"/>
</g>
<path fill-rule="evenodd" clip-rule="evenodd" d="M29.7156 0.932067C21.4315 0.891661 14.6831 7.57454 14.6426 15.8587L14.6079 22.9901C19.0678 20.1926 24.3431 18.5751 29.9961 18.5751H58.3628C74.379 18.5751 87.3628 31.5589 87.3628 47.5751V75.9418C87.3628 81.2805 85.9202 86.2822 83.4035 90.5785L88.6625 90.6041C96.9466 90.6446 103.695 83.9617 103.735 75.6775L104.025 16.2947C104.065 8.01052 97.3826 1.26212 89.0984 1.22171L29.7156 0.932067Z" fill="#00B2FF"/>
<g filter="url(#filter1_b_3724_11820)">
<rect x="1" y="18.6797" width="86.3666" height="86.3666" rx="15" fill="url(#paint0_linear_3724_11820)" fill-opacity="0.37"/>
<rect x="1" y="18.6797" width="86.3666" height="86.3666" rx="15" stroke="url(#paint1_linear_3724_11820)" stroke-width="1.5"/>
</g>
<path d="M43.0854 86.5908H42.6666C31.4989 86.3463 24.7564 75.7904 30.2774 67.4133L40.2481 52.2656H45.9366L55.9091 67.4133C61.4214 75.7904 54.6876 86.3463 43.5199 86.5908H43.0854Z" fill="white"/>
<path d="M45.7716 51.3125L49.7202 42.8564C49.7562 42.7788 49.7698 42.6923 49.7593 42.6071C49.7488 42.5218 49.7146 42.4415 49.6609 42.3757C48.9986 41.5849 46.5441 39.1987 43.2239 42.6038C40.4611 45.4516 37.949 43.5461 36.7276 42.2067C36.6986 42.1749 36.6597 42.1545 36.6176 42.1491C36.5755 42.1438 36.5328 42.1538 36.4972 42.1774C36.4615 42.201 36.435 42.2368 36.4223 42.2784C36.4097 42.32 36.4116 42.3649 36.4278 42.4053L40.0122 51.3125H45.7716Z" fill="white"/>
<path d="M45.7659 51.3125H39.9321C39.5683 51.3125 39.2734 51.5259 39.2734 51.7892C39.2734 52.0525 39.5683 52.266 39.9321 52.266H45.7659C46.1296 52.266 46.4245 52.0525 46.4245 51.7892C46.4245 51.5259 46.1296 51.3125 45.7659 51.3125Z" stroke="white" stroke-width="3" stroke-miterlimit="10"/>
<path d="M42.082 79C40.3164 79 38.9531 78.9375 37.9922 78.8125V76.5391C38.9766 76.8125 40.3945 76.9492 42.2461 76.9492C44.7227 76.9492 45.9609 76.3789 45.9609 75.2383C45.9609 74.7695 45.7188 74.3711 45.2344 74.043C44.8594 73.7852 44.1484 73.4492 43.1016 73.0352L41.6719 72.4727C40.4844 72.0117 39.6133 71.5039 39.0586 70.9492C38.3555 70.2461 38.0039 69.3477 38.0039 68.2539C38.0039 66.8867 38.75 65.875 40.2422 65.2188C40.7578 65 41.3711 64.8438 42.082 64.75V61.0703H43.8633V64.6562C44.8867 64.6641 46.1445 64.7344 47.6367 64.8672V67.1406C46.2461 66.8516 45.0547 66.707 44.0625 66.707C43.0703 66.707 42.3672 66.7578 41.9531 66.8594C41.5391 66.9531 41.2109 67.0781 40.9688 67.2344C40.5469 67.5234 40.3359 67.8867 40.3359 68.3242C40.3359 68.7539 40.5117 69.125 40.8633 69.4375C41.2148 69.75 41.7852 70.0664 42.5742 70.3867L44.1797 71.043C45.5469 71.5977 46.4688 72.0859 46.9453 72.5078C47.4219 72.9297 47.7656 73.3633 47.9766 73.8086C48.1875 74.2461 48.293 74.7227 48.293 75.2383C48.293 75.7461 48.207 76.1953 48.0352 76.5859C47.8633 76.9688 47.5977 77.3164 47.2383 77.6289C46.4648 78.3008 45.3398 78.7266 43.8633 78.9062V82.9844H42.082V79Z" fill="#BCEBFF"/>
<defs>
<filter id="filter0_f_3724_11820" x="10.4062" y="13.6758" width="81.9531" height="82.5977" filterUnits="userSpaceOnUse" color-interpolation-filters="sRGB">
<feFlood flood-opacity="0" result="BackgroundImageFix"/>
<feBlend mode="normal" in="SourceGraphic" in2="BackgroundImageFix" result="shape"/>
<feGaussianBlur stdDeviation="2.5" result="effect1_foregroundBlur_3724_11820"/>
</filter>
<filter id="filter1_b_3724_11820" x="-6.75" y="10.9297" width="101.867" height="101.867" filterUnits="userSpaceOnUse" color-interpolation-filters="sRGB">
<feFlood flood-opacity="0" result="BackgroundImageFix"/>
<feGaussianBlur in="BackgroundImage" stdDeviation="3.5"/>
<feComposite in2="SourceAlpha" operator="in" result="effect1_backgroundBlur_3724_11820"/>
<feBlend mode="normal" in="SourceGraphic" in2="effect1_backgroundBlur_3724_11820" result="shape"/>
</filter>
<linearGradient id="paint0_linear_3724_11820" x1="87.3666" y1="18.682" x2="0.999997" y2="109.478" gradientUnits="userSpaceOnUse">
<stop offset="0.14101" stop-color="#25BEFF"/>
<stop offset="0.630007" stop-color="#98E0FF" stop-opacity="0.527239"/>
<stop offset="1" stop-color="#D9F4FF" stop-opacity="0"/>
</linearGradient>
<linearGradient id="paint1_linear_3724_11820" x1="79.2467" y1="22.2687" x2="-10.8108" y2="110.481" gradientUnits="userSpaceOnUse">
<stop offset="0.189653" stop-color="white"/>
<stop offset="1" stop-color="#00B2FF"/>
</linearGradient>
</defs>
</svg>
