<svg width="104" height="105" viewBox="0 0 104 105" fill="none" xmlns="http://www.w3.org/2000/svg">
<g filter="url(#filter0_f_3724_11819)">
<path fill-rule="evenodd" clip-rule="evenodd" d="M16.9245 20.7597C16.0058 23.5622 15.5023 26.5535 15.4871 29.6614L15.3363 60.582C15.2582 76.598 28.1784 89.645 44.1945 89.7231L75.1151 89.8739C77.923 89.8876 80.6397 89.5017 83.2113 88.7697C85.572 84.5732 86.9185 79.7299 86.9185 74.572V46.6523C86.9185 30.6361 73.9347 17.6523 57.9185 17.6523H29.9988C25.2952 17.6523 20.853 18.7722 16.9245 20.7597Z" fill="#36C1FE"/>
</g>
<path fill-rule="evenodd" clip-rule="evenodd" d="M29.6446 -0.00152634C21.3604 -0.0419329 14.612 6.64097 14.5716 14.9251L14.537 22.0093C19.0119 19.1845 24.3131 17.5499 29.9961 17.5499H57.9157C73.932 17.5499 86.9157 30.5336 86.9157 46.5499V74.4696C86.9157 79.8389 85.4565 84.8675 82.913 89.1803L88.1311 89.2057C96.4153 89.2461 103.164 82.5632 103.204 74.2791L103.491 15.3588C103.532 7.07467 96.849 0.326267 88.5648 0.28586L29.6446 -0.00152634Z" fill="#00B2FF"/>
<g filter="url(#filter1_b_3724_11819)">
<rect x="1" y="17.6523" width="85.9197" height="85.9197" rx="15" fill="url(#paint0_linear_3724_11819)" fill-opacity="0.37"/>
<rect x="1" y="17.6523" width="85.9197" height="85.9197" rx="15" stroke="url(#paint1_linear_3724_11819)" stroke-width="1.5"/>
</g>
<path d="M38.0356 63.5964H33.3241L28.0824 67.0829C27.305 67.6012 26.2567 67.0477 26.2567 66.1053V63.5964C22.723 63.5964 20.3672 61.2406 20.3672 57.7069V50.6395C20.3672 47.1058 22.723 44.75 26.2567 44.75H38.0356C41.5693 44.75 43.9251 47.1058 43.9251 50.6395V57.7069C43.9251 61.2406 41.5693 63.5964 38.0356 63.5964Z" fill="white" stroke="white" stroke-width="3" stroke-miterlimit="10" stroke-linecap="round" stroke-linejoin="round"/>
<path d="M26.0312 54.6133C26.0467 54.6133 26.0708 54.6133 26.0708 54.6133" stroke="#BCEBFF" stroke-width="3" stroke-linecap="round" stroke-linejoin="round"/>
<path d="M31.3743 54.6167H31.4138" stroke="#BCEBFF" stroke-width="4" stroke-linecap="round" stroke-linejoin="round"/>
<path d="M37.0227 54.6167H37.0623" stroke="#BCEBFF" stroke-width="5" stroke-linecap="round" stroke-linejoin="round"/>
<path d="M50.6831 77.4753H55.3947L60.6364 80.9619C61.4138 81.4801 62.4621 80.9266 62.4621 79.9842V77.4753C65.9958 77.4753 68.3516 75.1195 68.3516 71.5858V64.5184C68.3516 60.9847 65.9958 58.6289 62.4621 58.6289H50.6831C47.1494 58.6289 44.7936 60.9847 44.7936 64.5184V71.5858C44.7936 75.1195 47.1494 77.4753 50.6831 77.4753Z" fill="white" stroke="white" stroke-width="3" stroke-miterlimit="10" stroke-linecap="round" stroke-linejoin="round"/>
<path d="M62.6875 68.4922C62.672 68.4922 62.6479 68.4922 62.6479 68.4922" stroke="#BCEBFF" stroke-width="3" stroke-linecap="round" stroke-linejoin="round"/>
<path d="M57.3445 68.4956H57.3049" stroke="#BCEBFF" stroke-width="4" stroke-linecap="round" stroke-linejoin="round"/>
<path d="M51.696 68.4956H51.6565" stroke="#BCEBFF" stroke-width="5" stroke-linecap="round" stroke-linejoin="round"/>
<defs>
<filter id="filter0_f_3724_11819" x="10.3359" y="12.6523" width="81.5859" height="82.2227" filterUnits="userSpaceOnUse" color-interpolation-filters="sRGB">
<feFlood flood-opacity="0" result="BackgroundImageFix"/>
<feBlend mode="normal" in="SourceGraphic" in2="BackgroundImageFix" result="shape"/>
<feGaussianBlur stdDeviation="2.5" result="effect1_foregroundBlur_3724_11819"/>
</filter>
<filter id="filter1_b_3724_11819" x="-6.75" y="9.90234" width="101.422" height="101.418" filterUnits="userSpaceOnUse" color-interpolation-filters="sRGB">
<feFlood flood-opacity="0" result="BackgroundImageFix"/>
<feGaussianBlur in="BackgroundImage" stdDeviation="3.5"/>
<feComposite in2="SourceAlpha" operator="in" result="effect1_backgroundBlur_3724_11819"/>
<feBlend mode="normal" in="SourceGraphic" in2="effect1_backgroundBlur_3724_11819" result="shape"/>
</filter>
<linearGradient id="paint0_linear_3724_11819" x1="86.9197" y1="17.6547" x2="0.999997" y2="107.98" gradientUnits="userSpaceOnUse">
<stop offset="0.14101" stop-color="#25BEFF"/>
<stop offset="0.630007" stop-color="#98E0FF" stop-opacity="0.527239"/>
<stop offset="1" stop-color="#D9F4FF" stop-opacity="0"/>
</linearGradient>
<linearGradient id="paint1_linear_3724_11819" x1="78.8418" y1="21.2228" x2="-10.7497" y2="108.978" gradientUnits="userSpaceOnUse">
<stop offset="0.189653" stop-color="white"/>
<stop offset="1" stop-color="#00B2FF"/>
</linearGradient>
</defs>
</svg>
