<svg width="16" height="16" viewBox="0 0 16 16" fill="none" xmlns="http://www.w3.org/2000/svg">
<rect x="0.5" y="0.5" width="15" height="15" rx="7.5" fill="#0F7B0F" stroke="#0F7B0F"/>
<path d="M3.37695 8.49805C3.37695 8.41211 3.39258 8.33203 3.42383 8.25781C3.45898 8.17969 3.50391 8.11328 3.55859 8.05859C3.61719 8 3.68359 7.95508 3.75781 7.92383C3.83594 7.88867 3.91797 7.87109 4.00391 7.87109C4.17188 7.87109 4.31836 7.93359 4.44336 8.05859L6.5 10.1152L11.5566 5.05859C11.6816 4.93359 11.8301 4.87109 12.002 4.87109C12.0879 4.87109 12.168 4.88867 12.2422 4.92383C12.3203 4.95508 12.3867 5 12.4414 5.05859C12.5 5.11719 12.5449 5.18555 12.5762 5.26367C12.6113 5.33789 12.6289 5.41602 12.6289 5.49805C12.6289 5.66992 12.5664 5.81836 12.4414 5.94336L6.93945 11.4395C6.88086 11.498 6.8125 11.5449 6.73438 11.5801C6.66016 11.6113 6.58203 11.627 6.5 11.627C6.33203 11.627 6.18555 11.5645 6.06055 11.4395L3.55859 8.94336C3.4375 8.82227 3.37695 8.67383 3.37695 8.49805Z" fill="white"/>
</svg>
