<svg width="18" height="18" viewBox="0 0 18 18" fill="none" xmlns="http://www.w3.org/2000/svg">
<path d="M9.79688 8.7L12.5469 11.45C12.6802 11.5833 12.7469 11.7543 12.7469 11.963C12.7469 12.171 12.6802 12.35 12.5469 12.5C12.3969 12.65 12.2179 12.725 12.0099 12.725C11.8012 12.725 11.6219 12.65 11.4719 12.5L8.54688 9.575C8.46354 9.475 8.40121 9.37067 8.35987 9.262C8.31787 9.154 8.29688 9.04167 8.29688 8.925V4.75C8.29688 4.53333 8.36787 4.35433 8.50987 4.213C8.65121 4.071 8.83021 4 9.04688 4C9.24687 4 9.42188 4.071 9.57187 4.213C9.72187 4.35433 9.79688 4.53333 9.79688 4.75V8.7ZM9.04688 17.5C7.86354 17.5 6.75521 17.275 5.72188 16.825C4.68854 16.375 3.78854 15.7667 3.02188 15C2.25521 14.2333 1.65121 13.3373 1.20987 12.312C0.767875 11.2873 0.546875 10.1833 0.546875 9C0.546875 7.81667 0.767875 6.71267 1.20987 5.688C1.65121 4.66267 2.25521 3.76667 3.02188 3C3.78854 2.23333 4.68854 1.625 5.72188 1.175C6.75521 0.725 7.86354 0.5 9.04688 0.5C10.2969 0.5 11.4885 0.762334 12.6219 1.287C13.7552 1.81233 14.7302 2.55833 15.5469 3.525V1.9C15.5469 1.68333 15.6179 1.504 15.7599 1.362C15.9012 1.22067 16.0802 1.15 16.2969 1.15C16.4969 1.15 16.6719 1.22067 16.8219 1.362C16.9719 1.504 17.0469 1.68333 17.0469 1.9V5.325C17.0469 5.575 16.9595 5.78733 16.7849 5.962C16.6095 6.13733 16.3885 6.225 16.1219 6.225H12.6969C12.4969 6.225 12.3219 6.154 12.1719 6.012C12.0219 5.87067 11.9469 5.69167 11.9469 5.475C11.9469 5.25833 12.0219 5.079 12.1719 4.937C12.3219 4.79567 12.4969 4.725 12.6969 4.725H14.5719C13.8885 3.875 13.0679 3.20833 12.1099 2.725C11.1512 2.24167 10.1302 2 9.04688 2C7.09688 2 5.44287 2.679 4.08487 4.037C2.72621 5.39567 2.04688 7.05 2.04688 9C2.04688 10.95 2.72621 12.604 4.08487 13.962C5.44287 15.3207 7.09688 16 9.04688 16C10.6302 16 12.0469 15.5207 13.2969 14.562C14.5469 13.604 15.3719 12.3583 15.7719 10.825C15.8385 10.6083 15.9552 10.4333 16.1219 10.3C16.2885 10.1667 16.4719 10.125 16.6719 10.175C16.9052 10.225 17.0762 10.35 17.1849 10.55C17.2929 10.75 17.3135 10.9583 17.2469 11.175C16.7635 13.0417 15.7595 14.5627 14.2349 15.738C12.7095 16.9127 10.9802 17.5 9.04688 17.5Z" fill="white"/>
</svg>
