<svg width="14" height="17" viewBox="0 0 14 17" fill="none" xmlns="http://www.w3.org/2000/svg">
<path d="M2 14.95L7 12.8L12 14.95V2.3C12 2.23333 11.9667 2.16667 11.9 2.1C11.8333 2.03333 11.7667 2 11.7 2H2.3C2.23333 2 2.16667 2.03333 2.1 2.1C2.03333 2.16667 2 2.23333 2 2.3V14.95ZM1.775 16.7C1.475 16.8333 1.18733 16.8123 0.912 16.637C0.637334 16.4623 0.5 16.2083 0.5 15.875V2.3C0.5 1.8 0.675 1.375 1.025 1.025C1.375 0.675 1.8 0.5 2.3 0.5H11.7C12.2 0.5 12.625 0.675 12.975 1.025C13.325 1.375 13.5 1.8 13.5 2.3V15.875C13.5 16.2083 13.3623 16.4623 13.087 16.637C12.8123 16.8123 12.525 16.8333 12.225 16.7L7 14.45L1.775 16.7ZM2 2C2 2 2.03333 2 2.1 2C2.16667 2 2.23333 2 2.3 2H11.7C11.7667 2 11.8333 2 11.9 2C11.9667 2 12 2 12 2H2Z" fill="white"/>
</svg>
