<svg width="108" height="108" viewBox="0 0 108 108" fill="none" xmlns="http://www.w3.org/2000/svg">
<mask id="mask0_1233_2807" style="mask-type:alpha" maskUnits="userSpaceOnUse" x="0" y="0" width="108" height="108">
<rect width="108" height="108" fill="#D9D9D9"/>
</mask>
<g mask="url(#mask0_1233_2807)">
<path d="M76.5 88.875C75.525 88.875 74.718 88.557 74.079 87.921C73.443 87.282 73.125 86.475 73.125 85.5V70.875H58.5C57.525 70.875 56.7195 70.5555 56.0835 69.9165C55.4445 69.2805 55.125 68.475 55.125 67.5C55.125 66.525 55.4445 65.718 56.0835 65.079C56.7195 64.443 57.525 64.125 58.5 64.125H73.125V49.5C73.125 48.525 73.443 47.718 74.079 47.079C74.718 46.443 75.525 46.125 76.5 46.125C77.475 46.125 78.282 46.443 78.921 47.079C79.557 47.718 79.875 48.525 79.875 49.5V64.125H94.5C95.475 64.125 96.282 64.443 96.921 65.079C97.557 65.718 97.875 66.525 97.875 67.5C97.875 68.475 97.557 69.2805 96.921 69.9165C96.282 70.5555 95.475 70.875 94.5 70.875H79.875V85.5C79.875 86.475 79.557 87.282 78.921 87.921C78.282 88.557 77.475 88.875 76.5 88.875ZM18 70.875C17.025 70.875 16.2195 70.5555 15.5835 69.9165C14.9445 69.2805 14.625 68.475 14.625 67.5C14.625 66.525 14.9445 65.718 15.5835 65.079C16.2195 64.443 17.025 64.125 18 64.125H42.75C43.725 64.125 44.532 64.443 45.171 65.079C45.807 65.718 46.125 66.525 46.125 67.5C46.125 68.475 45.807 69.2805 45.171 69.9165C44.532 70.5555 43.725 70.875 42.75 70.875H18ZM18 52.875C17.025 52.875 16.2195 52.5555 15.5835 51.9165C14.9445 51.2805 14.625 50.475 14.625 49.5C14.625 48.525 14.9445 47.718 15.5835 47.079C16.2195 46.443 17.025 46.125 18 46.125H60.75C61.725 46.125 62.532 46.443 63.171 47.079C63.807 47.718 64.125 48.525 64.125 49.5C64.125 50.475 63.807 51.2805 63.171 51.9165C62.532 52.5555 61.725 52.875 60.75 52.875H18ZM18 34.875C17.025 34.875 16.2195 34.5555 15.5835 33.9165C14.9445 33.2805 14.625 32.475 14.625 31.5C14.625 30.525 14.9445 29.7195 15.5835 29.0835C16.2195 28.4445 17.025 28.125 18 28.125H60.75C61.725 28.125 62.532 28.4445 63.171 29.0835C63.807 29.7195 64.125 30.525 64.125 31.5C64.125 32.475 63.807 33.2805 63.171 33.9165C62.532 34.5555 61.725 34.875 60.75 34.875H18Z" fill="white"/>
</g>
</svg>
