<svg width="18" height="12" viewBox="0 0 18 12" fill="none" xmlns="http://www.w3.org/2000/svg">
<path d="M8.99976 11.081C8.5952 11.0808 8.1983 10.9706 7.85151 10.7623L0.363513 6.26901C0.252623 6.20233 0.160871 6.1081 0.0971733 5.99547C0.0334757 5.88285 0 5.75566 0 5.62626C0 5.49687 0.0334757 5.36968 0.0971733 5.25705C0.160871 5.14442 0.252623 5.05019 0.363513 4.98351L7.85151 0.490262C8.19829 0.281934 8.59522 0.171875 8.99976 0.171875C9.40431 0.171875 9.80123 0.281934 10.148 0.490262L17.636 4.98351C17.7469 5.05019 17.8387 5.14442 17.9024 5.25705C17.966 5.36968 17.9995 5.49687 17.9995 5.62626C17.9995 5.75566 17.966 5.88285 17.9024 5.99547C17.8387 6.1081 17.7469 6.20233 17.636 6.26901L10.148 10.7623C9.80122 10.9706 9.40433 11.0808 8.99976 11.081ZM2.20776 5.62626L8.62476 9.47601C8.7381 9.54381 8.8677 9.57961 8.99976 9.57961C9.13183 9.57961 9.26143 9.54381 9.37476 9.47601L15.7918 5.62626L9.37476 1.77651C9.26143 1.70872 9.13183 1.67291 8.99976 1.67291C8.8677 1.67291 8.7381 1.70872 8.62476 1.77651L2.20776 5.62626Z" fill="#002145"/>
</svg>
