<svg width="31" height="31" viewBox="0 0 31 31" fill="none" xmlns="http://www.w3.org/2000/svg">
<path d="M15.0378 0C6.76927 0 0.0585938 6.79968 0.0585938 15.1779C0.0585938 23.556 6.76927 30.3557 15.0378 30.3557C23.3063 30.3557 30.017 23.556 30.017 15.1779C30.017 6.79968 23.3063 0 15.0378 0ZM16.5357 25.8024H13.5399V22.7668H16.5357V25.8024ZM19.6364 14.0395L18.2883 15.4359C17.5393 16.21 17.0001 16.9081 16.7304 18.0009C16.6106 18.4866 16.5357 19.033 16.5357 19.7312H13.5399V18.9723C13.5399 18.2742 13.6597 17.6063 13.8694 16.984C14.169 16.1037 14.6633 15.3145 15.2924 14.677L17.1499 12.7646C17.8389 12.0968 18.1684 11.095 17.9737 10.0326C17.779 8.93976 16.9401 8.01391 15.8916 7.71036C14.2289 7.23984 12.6861 8.19605 12.1917 9.63795C12.012 10.1995 11.5476 10.6245 10.9634 10.6245H10.5141C9.64528 10.6245 9.04611 9.77455 9.28578 8.92459C9.92988 6.69344 11.8023 4.99352 14.1241 4.62925C16.4009 4.26498 18.5729 5.46403 19.921 7.36127C21.6886 9.83526 21.1643 12.4914 19.6364 14.0395Z" fill="#063468"/>
</svg>
