<svg width="24" height="24" viewBox="0 0 24 24" fill="none" xmlns="http://www.w3.org/2000/svg">
<path d="M2.75657 0.0309906C1.63543 0.178419 0.651429 0.96356 0.222857 2.05384C0.0994286 2.36927 0 2.87327 0 3.18527C0 3.48012 0.102857 4.01498 0.209143 4.29955C0.620571 5.36241 1.54629 6.14755 2.61943 6.33612C2.87657 6.38412 3.48343 6.38412 3.75771 6.33955C4.82743 6.16469 5.78057 5.36583 6.18514 4.29955C6.32914 3.92241 6.37714 3.63098 6.37714 3.12355C6.37714 2.71213 6.36343 2.60241 6.288 2.34184C6.12 1.75556 5.83886 1.30299 5.34857 0.846989C4.64229 0.178419 3.75771 -0.0992947 2.75657 0.0309906ZM3.94286 0.908703C4.95771 1.2447 5.58857 2.11899 5.58857 3.1887C5.58857 3.97384 5.33143 4.52241 4.71429 5.04698C4.224 5.46526 3.80914 5.60583 3.13371 5.57498C2.46857 5.54412 1.94743 5.32812 1.50857 4.89955C0.764571 4.16927 0.586286 3.01727 1.07657 2.07099C1.25486 1.72127 1.69714 1.26184 2.01257 1.1007C2.62286 0.781846 3.33943 0.709846 3.94286 0.908703Z" fill="#D3D5E2"/>
<path d="M17.1768 6.8163C16.4294 6.87458 15.7711 7.0563 15.1163 7.38887C14.602 7.64601 14.2797 7.87572 13.834 8.29401L13.5597 8.55115L13.5425 8.15687C13.5288 7.8483 13.5117 7.73515 13.4603 7.65972C13.3505 7.48487 13.2237 7.36487 13.0557 7.27915L12.8945 7.19687H10.7586H8.62255L8.45112 7.27915C8.21112 7.38887 8.0397 7.59115 7.9917 7.81058C7.94027 8.05058 7.94027 22.7797 7.9917 23.0026C8.03627 23.2014 8.15627 23.3557 8.35855 23.4723L8.5197 23.5683H10.954C13.2648 23.5683 13.3951 23.5649 13.5083 23.5032C13.6625 23.4209 13.8065 23.2872 13.8785 23.1569C13.9334 23.0643 13.9368 22.6529 13.954 18.4254L13.9711 13.7969L14.05 13.5466C14.2968 12.7443 14.7905 12.2197 15.5311 11.9694C15.9014 11.846 16.4568 11.8494 16.8545 11.9763C17.2488 12.1032 17.5677 12.2883 17.8317 12.5454C18.0854 12.7957 18.202 12.9946 18.3151 13.3889L18.3905 13.6597L18.4043 18.302L18.4145 22.9409L18.4968 23.1054C18.61 23.3317 18.8225 23.5032 19.042 23.5512C19.162 23.5786 19.8683 23.5854 21.3083 23.5786L23.3997 23.5683L23.5574 23.4757C23.7323 23.3729 23.8694 23.2117 23.9483 23.0129C23.9963 22.8929 23.9997 22.3032 23.9894 17.3626C23.9791 11.3694 23.9894 11.7157 23.794 10.9546C23.4854 9.74087 22.7414 8.63001 21.754 7.89972C21.0168 7.35801 20.314 7.0563 19.378 6.8883C18.9631 6.81287 17.7391 6.77172 17.1768 6.8163ZM19.3471 7.67687C21.1437 8.02315 22.5563 9.36372 23.0328 11.174C23.1974 11.7912 23.194 11.6917 23.194 17.3969V22.7797L21.2191 22.79L19.2443 22.7969L19.2237 20.4586C19.21 19.1694 19.1997 17.222 19.1997 16.1283C19.1997 15.0346 19.186 13.9683 19.1688 13.7626C19.1003 12.9706 18.8465 12.3877 18.37 11.942C17.3037 10.9443 15.7368 10.8037 14.5711 11.5957C13.8168 12.11 13.3403 12.9157 13.2374 13.862C13.2134 14.0746 13.1997 15.6997 13.1997 18.494V22.7969H11.0054H8.81112V15.3912V7.98544H10.7997H12.7883V9.23687C12.7883 9.92601 12.802 10.4883 12.8157 10.4883C12.8534 10.4883 13.9985 9.33287 14.1391 9.15115C14.266 8.98658 14.5711 8.70544 14.8591 8.48944C15.4934 8.00944 16.354 7.68715 17.2111 7.6083C17.7391 7.55687 18.9323 7.59801 19.3471 7.67687Z" fill="#D3D5E2"/>
<path d="M1.20924 7.2585C0.958959 7.34764 0.777244 7.48478 0.636673 7.68707C0.393245 8.04364 0.410387 7.43335 0.417245 15.4459L0.42753 22.6768L0.52353 22.8722C0.646959 23.1225 0.856101 23.3351 1.11667 23.4653L1.31896 23.5682L3.05039 23.5785C4.1681 23.5853 4.85724 23.5751 4.99096 23.5511C5.37496 23.4859 5.70753 23.2322 5.88924 22.8653L5.98181 22.6768V15.4082V8.13964L5.88924 7.94421C5.76238 7.66992 5.52924 7.43335 5.26867 7.31335L5.0561 7.21392L3.22181 7.20707C1.5281 7.20021 1.37382 7.20364 1.20924 7.2585ZM4.98753 8.05392C5.23096 8.20478 5.21039 7.58078 5.20353 15.4562L5.19324 22.5568L5.0801 22.6665L4.97039 22.7796H3.2081C1.49382 22.7796 1.44239 22.7762 1.37039 22.7111C1.18867 22.5465 1.19896 23.0059 1.19896 15.3671C1.20239 9.66535 1.20924 8.25964 1.24696 8.19792C1.27096 8.15335 1.3361 8.08821 1.39096 8.05049C1.48696 7.98878 1.56924 7.98535 3.1841 7.98535C4.82296 7.98535 4.88124 7.98878 4.98753 8.05392Z" fill="#D3D5E2"/>
</svg>
