<svg width="25" height="25" viewBox="0 0 25 25" fill="none" xmlns="http://www.w3.org/2000/svg">
<path d="M1.38544 13.5823H9.37434C10.1067 13.5823 10.7058 12.9752 10.7058 12.2332V1.44006C10.7058 0.698026 10.1067 0.0909119 9.37434 0.0909119H1.38544C0.653123 0.0909119 0.0539551 0.698026 0.0539551 1.44006V12.2332C0.0539551 12.9752 0.653123 13.5823 1.38544 13.5823ZM1.38544 24.3755H9.37434C10.1067 24.3755 10.7058 23.7684 10.7058 23.0264V17.6298C10.7058 16.8877 10.1067 16.2806 9.37434 16.2806H1.38544C0.653123 16.2806 0.0539551 16.8877 0.0539551 17.6298V23.0264C0.0539551 23.7684 0.653123 24.3755 1.38544 24.3755ZM14.7003 24.3755H22.6892C23.4215 24.3755 24.0207 23.7684 24.0207 23.0264V12.2332C24.0207 11.4912 23.4215 10.8841 22.6892 10.8841H14.7003C13.968 10.8841 13.3688 11.4912 13.3688 12.2332V23.0264C13.3688 23.7684 13.968 24.3755 14.7003 24.3755ZM13.3688 1.44006V6.83663C13.3688 7.57866 13.968 8.18577 14.7003 8.18577H22.6892C23.4215 8.18577 24.0207 7.57866 24.0207 6.83663V1.44006C24.0207 0.698026 23.4215 0.0909119 22.6892 0.0909119H14.7003C13.968 0.0909119 13.3688 0.698026 13.3688 1.44006Z" fill="#0A65CD"/>
</svg>
