<svg width="14" height="14" viewBox="0 0 14 14" fill="none" xmlns="http://www.w3.org/2000/svg">
<path d="M7 13.75C6.78333 13.75 6.60433 13.6793 6.463 13.538C6.321 13.396 6.25 13.2167 6.25 13V7.75H1C0.783333 7.75 0.604333 7.679 0.463 7.537C0.321 7.39567 0.25 7.21667 0.25 7C0.25 6.78333 0.321 6.604 0.463 6.462C0.604333 6.32067 0.783333 6.25 1 6.25H6.25V1C6.25 0.783333 6.321 0.604333 6.463 0.463C6.60433 0.321 6.78333 0.25 7 0.25C7.21667 0.25 7.396 0.321 7.538 0.463C7.67933 0.604333 7.75 0.783333 7.75 1V6.25H13C13.2167 6.25 13.396 6.32067 13.538 6.462C13.6793 6.604 13.75 6.78333 13.75 7C13.75 7.21667 13.6793 7.39567 13.538 7.537C13.396 7.679 13.2167 7.75 13 7.75H7.75V13C7.75 13.2167 7.67933 13.396 7.538 13.538C7.396 13.6793 7.21667 13.75 7 13.75Z" fill="white"/>
</svg>
