<svg width="32" height="32" viewBox="0 0 32 32" fill="none" xmlns="http://www.w3.org/2000/svg">
<path d="M24.9974 18.5013C25.2752 18.5013 25.5113 18.4041 25.7057 18.2096C25.9002 18.0152 25.9974 17.7791 25.9974 17.5013C25.9974 17.2235 25.9002 16.9874 25.7057 16.793C25.5113 16.5985 25.2752 16.5013 24.9974 16.5013H20.3307C20.053 16.5013 19.8168 16.5985 19.6224 16.793C19.428 16.9874 19.3307 17.2235 19.3307 17.5013C19.3307 17.7791 19.428 18.0152 19.6224 18.2096C19.8168 18.4041 20.053 18.5013 20.3307 18.5013H24.9974ZM24.9974 23.0013C25.2752 23.0013 25.5113 22.9041 25.7057 22.7096C25.9002 22.5152 25.9974 22.2791 25.9974 22.0013C25.9974 21.7235 25.9002 21.4874 25.7057 21.293C25.5113 21.0985 25.2752 21.0013 24.9974 21.0013H20.3307C20.053 21.0013 19.8168 21.0985 19.6224 21.293C19.428 21.4874 19.3307 21.7235 19.3307 22.0013C19.3307 22.2791 19.428 22.5152 19.6224 22.7096C19.8168 22.9041 20.053 23.0013 20.3307 23.0013H24.9974ZM20.1641 8.5013H28.8307C29.6641 8.5013 30.3724 8.79297 30.9557 9.3763C31.5391 9.95963 31.8307 10.668 31.8307 11.5013V28.8346C31.8307 29.668 31.5391 30.3763 30.9557 30.9596C30.3724 31.543 29.6641 31.8346 28.8307 31.8346H3.16406C2.33073 31.8346 1.6224 31.543 1.03906 30.9596C0.455729 30.3763 0.164062 29.668 0.164062 28.8346V11.5013C0.164062 10.668 0.455729 9.95963 1.03906 9.3763C1.6224 8.79297 2.33073 8.5013 3.16406 8.5013H11.8307V2.66797C11.8307 1.97352 12.0741 1.38352 12.5607 0.897969C13.0463 0.411302 13.6363 0.167969 14.3307 0.167969H17.6641C18.3585 0.167969 18.9485 0.411302 19.4341 0.897969C19.9207 1.38352 20.1641 1.97352 20.1641 2.66797V8.5013ZM14.3307 11.0013H17.6641V2.66797H14.3307V11.0013ZM10.9974 21.0013C11.6085 21.0013 12.1363 20.7863 12.5807 20.3563C13.0252 19.9252 13.2474 19.3902 13.2474 18.7513C13.2474 18.1402 13.0252 17.6124 12.5807 17.168C12.1363 16.7235 11.6085 16.5013 10.9974 16.5013C10.3863 16.5013 9.85851 16.7235 9.41406 17.168C8.96962 17.6124 8.7474 18.1402 8.7474 18.7513C8.7474 19.3624 8.96962 19.8902 9.41406 20.3346C9.85851 20.7791 10.3863 21.0013 10.9974 21.0013ZM6.2474 25.5013H15.7474V25.043C15.7474 24.5985 15.6296 24.1957 15.3941 23.8346C15.1574 23.4735 14.8307 23.1957 14.4141 23.0013C13.8585 22.7513 13.303 22.5707 12.7474 22.4596C12.1918 22.3485 11.6085 22.293 10.9974 22.293C10.3863 22.293 9.80295 22.3485 9.2474 22.4596C8.69184 22.5707 8.13628 22.7513 7.58073 23.0013C7.16406 23.1957 6.83795 23.4735 6.6024 23.8346C6.36573 24.1957 6.2474 24.5985 6.2474 25.043V25.5013ZM11.8307 11.0013H3.16406C3.02517 11.0013 2.9074 11.0496 2.81073 11.1463C2.71295 11.2441 2.66406 11.3624 2.66406 11.5013V28.8346C2.66406 28.9735 2.71295 29.0919 2.81073 29.1896C2.9074 29.2863 3.02517 29.3346 3.16406 29.3346H28.8307C28.9696 29.3346 29.088 29.2863 29.1857 29.1896C29.2824 29.0919 29.3307 28.9735 29.3307 28.8346V11.5013C29.3307 11.3624 29.2824 11.2441 29.1857 11.1463C29.088 11.0496 28.9696 11.0013 28.8307 11.0013H20.1641C20.1641 11.7513 19.9074 12.3552 19.3941 12.813C18.8796 13.2719 18.2474 13.5013 17.4974 13.5013H14.4974C13.7474 13.5013 13.1157 13.2719 12.6024 12.813C12.088 12.3552 11.8307 11.7513 11.8307 11.0013Z" fill="#002145"/>
</svg>
