<svg width="16" height="16" viewBox="0 0 16 16" fill="none" xmlns="http://www.w3.org/2000/svg">
<path d="M7.475 15.0992C7.325 14.9492 7.25 14.7699 7.25 14.5612C7.25 14.3532 7.31667 14.1742 7.45 14.0242L12.75 8.74922H1.125C0.925 8.74922 0.75 8.67822 0.6 8.53622C0.45 8.39489 0.375 8.21589 0.375 7.99922C0.375 7.78255 0.45 7.60322 0.6 7.46122C0.75 7.31989 0.925 7.24922 1.125 7.24922H12.75L7.45 1.97422C7.31667 1.82422 7.25 1.64522 7.25 1.43722C7.25 1.22855 7.325 1.04922 7.475 0.899219C7.625 0.765886 7.8 0.699219 8 0.699219C8.2 0.699219 8.375 0.765886 8.525 0.899219L14.975 7.37422C15.075 7.45755 15.146 7.55322 15.188 7.66122C15.2293 7.76989 15.25 7.88255 15.25 7.99922C15.25 8.11589 15.2293 8.22822 15.188 8.33622C15.146 8.44489 15.075 8.54089 14.975 8.62422L8.525 15.0992C8.375 15.2326 8.2 15.2992 8 15.2992C7.8 15.2992 7.625 15.2326 7.475 15.0992Z" fill="#488CDA"/>
</svg>
