<svg width="8" height="14" viewBox="0 0 8 14" fill="none" xmlns="http://www.w3.org/2000/svg">
<path d="M6.47813 13.6937L0.234375 7.46875C0.171875 7.40625 0.125125 7.33425 0.0941252 7.25275C0.0626252 7.17175 0.046875 7.0875 0.046875 7C0.046875 6.9125 0.0626252 6.828 0.0941252 6.7465C0.125125 6.6655 0.171875 6.59375 0.234375 6.53125L6.47813 0.2875C6.62813 0.1375 6.80313 0.0625 7.00313 0.0625C7.20313 0.0625 7.38438 0.14375 7.54688 0.30625C7.69688 0.44375 7.77187 0.6155 7.77187 0.8215C7.77187 1.028 7.69688 1.20625 7.54688 1.35625L1.88438 7L7.54688 12.6625C7.68438 12.8 7.75313 12.9688 7.75313 13.1688C7.75313 13.3688 7.67813 13.5437 7.52813 13.6937C7.37813 13.8437 7.20313 13.9188 7.00313 13.9188C6.80313 13.9188 6.62813 13.8437 6.47813 13.6937Z" fill="#002145"/>
</svg>
