<svg width="20" height="12" viewBox="0 0 20 12" fill="none" xmlns="http://www.w3.org/2000/svg">
<path d="M19.0656 2.58808L10.7656 10.9131C10.6823 10.9964 10.5863 11.0588 10.4776 11.1001C10.3696 11.1421 10.2573 11.1631 10.1406 11.1631C10.024 11.1631 9.91129 11.1421 9.80262 11.1001C9.69462 11.0588 9.59896 10.9964 9.51562 10.9131L1.19062 2.58809C0.990625 2.38809 0.890625 2.15475 0.890625 1.88809C0.890625 1.62142 0.998958 1.37975 1.21562 1.16309C1.39896 0.963086 1.62796 0.863087 1.90262 0.863087C2.17796 0.863087 2.41562 0.963086 2.61562 1.16309L10.1406 8.71309L17.6906 1.16309C17.874 0.979752 18.099 0.888086 18.3656 0.888086C18.6323 0.888086 18.8656 0.988085 19.0656 1.18808C19.2656 1.38808 19.3656 1.62142 19.3656 1.88809C19.3656 2.15475 19.2656 2.38808 19.0656 2.58808Z" fill="#063468"/>
</svg>
