<svg width="29" height="21" viewBox="0 0 29 21" fill="none" xmlns="http://www.w3.org/2000/svg">
<path d="M6.875 20.9668C4.97292 20.9668 3.35133 20.3077 2.01025 18.9895C0.670083 17.6723 0 16.0626 0 14.1605C0 12.4418 0.55 10.9348 1.65 9.63955C2.75 8.34521 4.11354 7.58346 5.74063 7.3543C6.17604 5.2918 7.20729 3.60742 8.83438 2.30117C10.4615 0.994922 12.3292 0.341797 14.4375 0.341797C16.9354 0.341797 19.0497 1.20667 20.7804 2.93642C22.5101 4.66709 23.375 6.78138 23.375 9.2793V9.9668H23.7875C25.2542 10.0814 26.4688 10.6658 27.4313 11.7199C28.3938 12.7741 28.875 14.023 28.875 15.4668C28.875 17.0022 28.3479 18.3025 27.2938 19.3677C26.2396 20.4338 24.9448 20.9668 23.4094 20.9668H15.8813C15.1938 20.9668 14.6094 20.7262 14.1281 20.2449C13.6469 19.7637 13.4062 19.1793 13.4062 18.4918V10.9637L10.8625 13.4387L9.41875 12.0293L14.4375 6.97617L19.4562 12.0293L18.0125 13.4387L15.4688 10.9637V18.4918C15.4688 18.5835 15.5146 18.6751 15.6063 18.7668C15.6979 18.8585 15.7896 18.9043 15.8813 18.9043H23.375C24.3375 18.9043 25.151 18.572 25.8156 17.9074C26.4802 17.2428 26.8125 16.4293 26.8125 15.4668C26.8125 14.5043 26.4802 13.6908 25.8156 13.0262C25.151 12.3616 24.3375 12.0293 23.375 12.0293H21.3125V9.2793C21.3125 7.37721 20.6424 5.75563 19.3023 4.41455C17.9612 3.07438 16.3396 2.4043 14.4375 2.4043C12.5354 2.4043 10.9143 3.07438 9.57413 4.41455C8.23304 5.75563 7.5625 7.37721 7.5625 9.2793H6.84062C5.53437 9.2793 4.41146 9.74909 3.47188 10.6887C2.53229 11.6283 2.0625 12.7626 2.0625 14.0918C2.0625 15.421 2.53229 16.5553 3.47188 17.4949C4.41146 18.4345 5.54583 18.9043 6.875 18.9043H10.3125V20.9668H6.875Z" fill="#0A65CD"/>
</svg>
