<svg width="24" height="24" viewBox="0 0 24 24" fill="none" xmlns="http://www.w3.org/2000/svg">
<path d="M1.54019 13.5805L18.7441 13.5805L11.228 21.2934C10.6273 21.9098 10.6273 22.9213 11.228 23.5377C11.8287 24.1541 12.799 24.1541 13.3996 23.5377L23.5495 13.1222C24.1502 12.5058 24.1502 11.51 23.5495 10.8936L13.415 0.462298C12.8144 -0.1541 11.8441 -0.1541 11.2434 0.462298C10.6427 1.0787 10.6427 2.07442 11.2434 2.69081L18.7441 10.4195L1.54019 10.4195C0.693084 10.4195 -4.86539e-07 11.1307 -5.24537e-07 12C-5.62534e-07 12.8693 0.693084 13.5805 1.54019 13.5805Z" fill="#063468"/>
</svg>
