<svg width="22" height="16" viewBox="0 0 22 16" fill="none" xmlns="http://www.w3.org/2000/svg">
<path d="M11.0484 15.75C8.88177 15.75 7.0401 14.996 5.52344 13.488C4.00677 11.9793 3.24844 10.15 3.24844 8V7.225L1.92344 8.55C1.77344 8.68333 1.59844 8.75 1.39844 8.75C1.19844 8.75 1.02344 8.68333 0.873438 8.55C0.723438 8.4 0.648438 8.22067 0.648438 8.012C0.648438 7.804 0.723438 7.63333 0.873438 7.5L3.37344 5C3.45677 4.9 3.55244 4.83333 3.66044 4.8C3.7691 4.76667 3.88177 4.75 3.99844 4.75C4.1151 4.75 4.22777 4.76667 4.33644 4.8C4.44444 4.83333 4.5401 4.9 4.62344 5L7.12344 7.5C7.27344 7.63333 7.34844 7.804 7.34844 8.012C7.34844 8.22067 7.27344 8.4 7.12344 8.55C6.97344 8.68333 6.79844 8.75 6.59844 8.75C6.39844 8.75 6.22344 8.68333 6.07344 8.55L4.74844 7.225V8C4.74844 9.73333 5.3611 11.2083 6.58644 12.425C7.8111 13.6417 9.29844 14.25 11.0484 14.25C11.3818 14.25 11.7191 14.221 12.0604 14.163C12.4024 14.1043 12.7401 14.0167 13.0734 13.9C13.1901 13.8333 13.3234 13.8167 13.4734 13.85C13.6234 13.8833 13.7401 13.95 13.8234 14.05C14.0568 14.2667 14.1484 14.504 14.0984 14.762C14.0484 15.0207 13.8818 15.2 13.5984 15.3C13.1818 15.4333 12.7611 15.5417 12.3364 15.625C11.9111 15.7083 11.4818 15.75 11.0484 15.75ZM17.9984 11.25C17.8818 11.25 17.7694 11.2333 17.6614 11.2C17.5528 11.1667 17.4568 11.1 17.3734 11L14.8734 8.5C14.7234 8.36667 14.6484 8.19567 14.6484 7.987C14.6484 7.779 14.7234 7.6 14.8734 7.45C15.0234 7.31667 15.1984 7.25 15.3984 7.25C15.5984 7.25 15.7734 7.31667 15.9234 7.45L17.2484 8.775V8C17.2484 6.26667 16.6361 4.79167 15.4114 3.575C14.1861 2.35833 12.6984 1.75 10.9484 1.75C10.6151 1.75 10.2778 1.77933 9.93644 1.838C9.59444 1.896 9.25677 1.98333 8.92344 2.1C8.80677 2.16667 8.67344 2.18333 8.52344 2.15C8.37344 2.11667 8.25677 2.05 8.17344 1.95C7.9401 1.73333 7.84844 1.49567 7.89844 1.237C7.94844 0.979 8.1151 0.8 8.39844 0.7C8.8151 0.566666 9.2361 0.458333 9.66144 0.375C10.0861 0.291667 10.5151 0.25 10.9484 0.25C13.1151 0.25 14.9568 1.004 16.4734 2.512C17.9901 4.02067 18.7484 5.85 18.7484 8V8.775L20.0734 7.45C20.2234 7.31667 20.3984 7.25 20.5984 7.25C20.7984 7.25 20.9734 7.31667 21.1234 7.45C21.2734 7.6 21.3484 7.779 21.3484 7.987C21.3484 8.19567 21.2734 8.36667 21.1234 8.5L18.6234 11C18.5401 11.1 18.4441 11.1667 18.3354 11.2C18.2274 11.2333 18.1151 11.25 17.9984 11.25Z" fill="white"/>
</svg>
