<svg width="26" height="25" viewBox="0 0 26 25" fill="none" xmlns="http://www.w3.org/2000/svg">
<path d="M23.5172 24.9695C20.7783 24.9695 18.0574 24.3141 15.3544 23.0032C12.6504 21.6933 10.2359 19.9758 8.11094 17.8508C5.98594 15.7258 4.26847 13.3174 2.95852 10.6258C1.64763 7.93411 0.992188 5.20703 0.992188 2.44453C0.992188 2.01953 1.13385 1.66536 1.41719 1.38203C1.70052 1.0987 2.05469 0.957031 2.47969 0.957031H7.08385C7.46163 0.957031 7.78605 1.06895 8.0571 1.29278C8.3291 1.51756 8.50052 1.80703 8.57135 2.1612L9.38594 6.34036C9.43316 6.69453 9.42135 7.01328 9.35052 7.29661C9.27969 7.57995 9.12622 7.82786 8.8901 8.04036L5.63177 11.2279C6.7651 13.1168 8.1048 14.8286 9.65085 16.3633C11.1979 17.898 12.9512 19.232 14.9109 20.3654L18.063 17.1779C18.2991 16.9418 18.5768 16.7765 18.896 16.682C19.2143 16.5876 19.5387 16.564 19.8693 16.6112L23.8005 17.4258C24.1547 17.4966 24.4442 17.6619 24.6689 17.9216C24.8928 18.1813 25.0047 18.5001 25.0047 18.8779V23.482C25.0047 23.907 24.863 24.2612 24.5797 24.5445C24.2964 24.8279 23.9422 24.9695 23.5172 24.9695ZM4.6401 9.20911L7.15469 6.80078C7.20191 6.75356 7.23166 6.7002 7.24394 6.6407C7.25527 6.58214 7.24913 6.52925 7.22552 6.48203L6.62344 3.29453C6.59983 3.2237 6.56441 3.17034 6.51719 3.13445C6.46997 3.0995 6.41094 3.08203 6.3401 3.08203H3.32969C3.25885 3.08203 3.20549 3.0995 3.1696 3.13445C3.13466 3.17034 3.11719 3.21189 3.11719 3.25911C3.18802 4.22717 3.34763 5.2127 3.59602 6.2157C3.84346 7.21964 4.19149 8.21745 4.6401 9.20911ZM22.7026 22.7737C22.7498 22.7737 22.7914 22.7558 22.8273 22.7199C22.8622 22.6849 22.8797 22.6438 22.8797 22.5966V19.6216C22.8797 19.5508 22.8622 19.4918 22.8273 19.4445C22.7914 19.3973 22.738 19.3619 22.6672 19.3383L19.6922 18.7362C19.645 18.7126 19.5977 18.7126 19.5505 18.7362L19.4089 18.807L16.8943 21.357C17.8387 21.8056 18.8186 22.148 19.8339 22.3841C20.8491 22.6202 21.8054 22.7501 22.7026 22.7737Z" fill="#002145"/>
</svg>
