<svg width="8" height="8" viewBox="0 0 8 8" fill="none" xmlns="http://www.w3.org/2000/svg">
<path d="M7.52063 0.176458C7.29312 -0.0510415 6.92562 -0.0510415 6.69812 0.176458L3.84563 3.02313L0.993125 0.170625C0.765625 -0.056875 0.398125 -0.056875 0.170625 0.170625C-0.056875 0.398125 -0.056875 0.765625 0.170625 0.993125L3.02313 3.84563L0.170625 6.69812C-0.056875 6.92562 -0.056875 7.29312 0.170625 7.52063C0.398125 7.74813 0.765625 7.74813 0.993125 7.52063L3.84563 4.66813L6.69812 7.52063C6.92562 7.74813 7.29312 7.74813 7.52063 7.52063C7.74813 7.29312 7.74813 6.92562 7.52063 6.69812L4.66813 3.84563L7.52063 0.993125C7.74229 0.771459 7.74229 0.398125 7.52063 0.176458Z" fill="#D02121"/>
</svg>
