<svg width="14" height="14" viewBox="0 0 14 14" fill="none" xmlns="http://www.w3.org/2000/svg">
<path d="M6.99844 8.0499L1.92344 13.1249C1.7901 13.2582 1.61944 13.3289 1.41144 13.3369C1.20277 13.3456 1.02344 13.2749 0.873437 13.1249C0.723437 12.9749 0.648438 12.7999 0.648438 12.5999C0.648438 12.3999 0.723437 12.2249 0.873437 12.0749L5.94844 6.9999L0.873437 1.9249C0.740104 1.79157 0.669438 1.62057 0.661438 1.4119C0.652771 1.2039 0.723437 1.0249 0.873437 0.874902C1.02344 0.724902 1.19844 0.649902 1.39844 0.649902C1.59844 0.649902 1.77344 0.724902 1.92344 0.874902L6.99844 5.9499L12.0734 0.874902C12.2068 0.741569 12.3778 0.670569 12.5864 0.661902C12.7944 0.653902 12.9734 0.724902 13.1234 0.874902C13.2734 1.0249 13.3484 1.1999 13.3484 1.3999C13.3484 1.5999 13.2734 1.7749 13.1234 1.9249L8.04844 6.9999L13.1234 12.0749C13.2568 12.2082 13.3274 12.3789 13.3354 12.5869C13.3441 12.7956 13.2734 12.9749 13.1234 13.1249C12.9734 13.2749 12.7984 13.3499 12.5984 13.3499C12.3984 13.3499 12.2234 13.2749 12.0734 13.1249L6.99844 8.0499Z" fill="#F35242"/>
</svg>
