<svg width="17" height="20" viewBox="0 0 17 20" fill="none" xmlns="http://www.w3.org/2000/svg">
<path d="M6.27812 15.7969C5.76146 15.7969 5.32812 15.6219 4.97812 15.2719C4.62812 14.9219 4.45312 14.4969 4.45312 13.9969V2.62188C4.45312 2.10521 4.62812 1.67188 4.97812 1.32188C5.32812 0.971875 5.76146 0.796875 6.27812 0.796875H14.6281C15.1281 0.796875 15.5575 0.975875 15.9161 1.33387C16.2741 1.69254 16.4531 2.12188 16.4531 2.62188V13.9969C16.4531 14.4969 16.2741 14.9219 15.9161 15.2719C15.5575 15.6219 15.1281 15.7969 14.6281 15.7969H6.27812ZM6.27812 14.2969H14.6281C14.7281 14.2969 14.8075 14.2675 14.8661 14.2089C14.9241 14.1509 14.9531 14.0802 14.9531 13.9969V2.62188C14.9531 2.52188 14.9241 2.44254 14.8661 2.38388C14.8075 2.32588 14.7281 2.29688 14.6281 2.29688H6.27812C6.17812 2.29688 6.09913 2.32588 6.04113 2.38388C5.98246 2.44254 5.95312 2.52188 5.95312 2.62188V13.9969C5.95312 14.0802 5.98246 14.1509 6.04113 14.2089C6.09913 14.2675 6.17812 14.2969 6.27812 14.2969ZM2.75312 19.2969C2.25312 19.2969 1.82812 19.1219 1.47812 18.7719C1.12812 18.4219 0.953125 17.9969 0.953125 17.4969V5.54688C0.953125 5.34688 1.02379 5.17188 1.16513 5.02188C1.30713 4.87188 1.48646 4.79688 1.70312 4.79688C1.90312 4.79688 2.07812 4.87188 2.22812 5.02188C2.37812 5.17188 2.45312 5.34688 2.45312 5.54688V17.4969C2.45312 17.5802 2.48213 17.6509 2.54013 17.7089C2.59879 17.7675 2.66979 17.7969 2.75312 17.7969H11.7031C11.9031 17.7969 12.0781 17.8719 12.2281 18.0219C12.3781 18.1719 12.4531 18.3469 12.4531 18.5469C12.4531 18.7635 12.3781 18.9425 12.2281 19.0839C12.0781 19.2259 11.9031 19.2969 11.7031 19.2969H2.75312Z" fill="#002145"/>
</svg>
