<svg width="24" height="24" viewBox="0 0 24 24" fill="none" xmlns="http://www.w3.org/2000/svg">
<g clip-path="url(#clip0_1_677)">
<path d="M24 2V6C24 6.26522 23.8946 6.51957 23.7071 6.70711C23.5195 6.89465 23.2652 7 23 7C22.7348 7 22.4804 6.89465 22.2929 6.70711C22.1053 6.51957 22 6.26522 22 6V3.439L16.7 8.71C16.6101 8.81541 16.4993 8.90099 16.3746 8.96132C16.2498 9.02164 16.114 9.0554 15.9755 9.06045C15.8371 9.06549 15.6991 9.04172 15.5703 8.99064C15.4416 8.93955 15.3248 8.86227 15.2275 8.76369C15.1302 8.6651 15.0544 8.54738 15.0049 8.41796C14.9555 8.28855 14.9335 8.15028 14.9403 8.01191C14.9471 7.87355 14.9826 7.73811 15.0445 7.61418C15.1064 7.49025 15.1934 7.38054 15.3 7.292L20.61 2H18C17.7348 2 17.4804 1.89464 17.2929 1.70711C17.1053 1.51957 17 1.26522 17 1C17 0.734785 17.1053 0.480431 17.2929 0.292894C17.4804 0.105358 17.7348 9.7882e-07 18 9.7882e-07H22C22.5304 9.7882e-07 23.0391 0.210715 23.4142 0.585788C23.7893 0.96086 24 1.46957 24 2ZM20.655 14.856C20.0776 14.3066 19.3108 14.0007 18.5138 14.0019C17.7168 14.003 16.9508 14.311 16.375 14.862L14.469 16.468C12.9131 15.8242 11.4997 14.8794 10.3101 13.6877C9.12047 12.496 8.17805 11.081 7.53697 9.524L9.13697 7.624C9.68797 7.04815 9.996 6.2822 9.99712 5.4852C9.99824 4.68821 9.69235 3.9214 9.14297 3.344C9.14297 3.344 7.29098 0.939001 7.26097 0.907001C6.68996 0.332861 5.9161 0.00624742 5.1064 -0.0023585C4.29669 -0.0109644 3.51607 0.299128 2.93298 0.861001L1.78398 1.861C-5.93602 10.07 13.984 29.999 22.184 22.161L23.096 21.112C23.6755 20.5309 24.0009 19.7437 24.0009 18.923C24.0009 18.1023 23.6755 17.3151 23.096 16.734C23.063 16.708 20.655 14.856 20.655 14.856Z" fill="#053A74"/>
</g>
<defs>
<clipPath id="clip0_1_677">
<rect width="24" height="24" fill="white"/>
</clipPath>
</defs>
</svg>
