<svg width="20" height="20" viewBox="0 0 20 20" fill="none" xmlns="http://www.w3.org/2000/svg">
<g clip-path="url(#clip0_6_805)">
<path d="M7.91675 9.16669C8.6071 9.16669 9.16675 8.60704 9.16675 7.91669C9.16675 7.22633 8.6071 6.66669 7.91675 6.66669C7.22639 6.66669 6.66675 7.22633 6.66675 7.91669C6.66675 8.60704 7.22639 9.16669 7.91675 9.16669Z" fill="#063468"/>
<path d="M15.4167 2.5C16.1071 2.5 16.6667 1.94036 16.6667 1.25C16.6667 0.559644 16.1071 0 15.4167 0C14.7264 0 14.1667 0.559644 14.1667 1.25C14.1667 1.94036 14.7264 2.5 15.4167 2.5Z" fill="#063468"/>
<path d="M17.9167 6.66669C18.6071 6.66669 19.1667 6.10704 19.1667 5.41669C19.1667 4.72633 18.6071 4.16669 17.9167 4.16669C17.2264 4.16669 16.6667 4.72633 16.6667 5.41669C16.6667 6.10704 17.2264 6.66669 17.9167 6.66669Z" fill="#063468"/>
<path d="M7.91675 13.3333C8.6071 13.3333 9.16675 12.7737 9.16675 12.0833C9.16675 11.393 8.6071 10.8333 7.91675 10.8333C7.22639 10.8333 6.66675 11.393 6.66675 12.0833C6.66675 12.7737 7.22639 13.3333 7.91675 13.3333Z" fill="#063468"/>
<path d="M12.0833 13.3333C12.7736 13.3333 13.3333 12.7737 13.3333 12.0833C13.3333 11.393 12.7736 10.8333 12.0833 10.8333C11.3929 10.8333 10.8333 11.393 10.8333 12.0833C10.8333 12.7737 11.3929 13.3333 12.0833 13.3333Z" fill="#063468"/>
<path d="M19.9525 9.045C19.934 8.85234 19.8491 8.67213 19.7122 8.53527C19.5754 8.39842 19.3952 8.31347 19.2025 8.295C17.2772 8.10951 15.4764 7.26007 14.1088 5.8923C12.7412 4.52454 11.892 2.72364 11.7067 0.798333C11.6882 0.605678 11.6032 0.42546 11.4664 0.288607C11.3295 0.151755 11.1493 0.0668038 10.9567 0.0483333C10.6408 0.0175 10.3225 0 10 0C8.02219 0 6.08879 0.58649 4.4443 1.6853C2.79981 2.78412 1.51809 4.3459 0.761209 6.17317C0.00433286 8.00043 -0.193701 10.0111 0.192152 11.9509C0.578004 13.8907 1.53041 15.6725 2.92894 17.0711C4.32746 18.4696 6.10929 19.422 8.0491 19.8079C9.98891 20.1937 11.9996 19.9957 13.8268 19.2388C15.6541 18.4819 17.2159 17.2002 18.3147 15.5557C19.4135 13.9112 20 11.9778 20 10C20 9.6775 19.9825 9.35917 19.9525 9.045ZM10 18.3333C7.78987 18.3333 5.67025 17.4554 4.10745 15.8926C2.54464 14.3298 1.66667 12.2101 1.66667 10C1.66667 7.78986 2.54464 5.67025 4.10745 4.10744C5.67025 2.54464 7.78987 1.66667 10 1.66667H10.1417C10.4887 3.71313 11.4636 5.60101 12.9313 7.06873C14.399 8.53645 16.2869 9.51134 18.3333 9.85833C18.3333 9.90583 18.3333 9.9525 18.3333 10C18.3309 12.2094 17.4522 14.3276 15.8899 15.8899C14.3276 17.4522 12.2094 18.3309 10 18.3333V18.3333Z" fill="#063468"/>
</g>
<defs>
<clipPath id="clip0_6_805">
<rect width="20" height="20" fill="white"/>
</clipPath>
</defs>
</svg>
