<svg width="14" height="18" viewBox="0 0 14 18" fill="none" xmlns="http://www.w3.org/2000/svg">
<path d="M11.4917 1.71429C10.5762 0.896451 9.45509 0.343732 8.24891 0.115618C7.04273 -0.112497 5.79718 -0.00736837 4.64631 0.419689C3.49543 0.846745 2.48279 1.57956 1.71738 2.53927C0.951975 3.49898 0.462768 4.64926 0.302412 5.86629C0.158397 6.93343 0.273576 8.01956 0.638201 9.03275C1.00283 10.0459 1.60617 10.9564 2.39716 11.687C2.88631 12.116 3.28102 12.6419 3.55627 13.2314C3.83153 13.8209 3.98132 14.4611 3.99616 15.1115V15.2323C3.99696 15.966 4.28879 16.6695 4.80762 17.1883C5.32646 17.7072 6.02992 17.999 6.76366 17.9998H7.22866C7.96241 17.999 8.66587 17.7072 9.1847 17.1883C9.70354 16.6695 9.99537 15.966 9.99616 15.2323V14.8205C10.0074 14.2456 10.1427 13.6799 10.3928 13.1622C10.6428 12.6444 11.0018 12.1867 11.4452 11.8205C12.1641 11.1909 12.741 10.4156 13.1377 9.54615C13.5345 8.67668 13.7419 7.73284 13.7463 6.77715C13.7507 5.82146 13.5519 4.87575 13.1632 4.00266C12.7746 3.12958 12.2048 2.34905 11.4917 1.71279V1.71429ZM7.22866 16.4998H6.76366C6.42762 16.4994 6.10546 16.3657 5.86784 16.1281C5.63023 15.8905 5.49656 15.5683 5.49616 15.2323C5.49616 15.2323 5.49091 15.0373 5.49016 14.9998H8.49616V15.2323C8.49576 15.5683 8.3621 15.8905 8.12448 16.1281C7.88687 16.3657 7.5647 16.4994 7.22866 16.4998ZM10.4537 10.694C9.59973 11.4347 8.98304 12.4106 8.68066 13.4998H7.74616V8.11179C8.18334 7.95723 8.56209 7.67137 8.8306 7.29332C9.0991 6.91527 9.24424 6.46349 9.24616 5.99979C9.24616 5.80088 9.16714 5.61012 9.02649 5.46946C8.88584 5.32881 8.69507 5.24979 8.49616 5.24979C8.29725 5.24979 8.10648 5.32881 7.96583 5.46946C7.82518 5.61012 7.74616 5.80088 7.74616 5.99979C7.74616 6.19871 7.66714 6.38947 7.52649 6.53012C7.38584 6.67078 7.19507 6.74979 6.99616 6.74979C6.79725 6.74979 6.60648 6.67078 6.46583 6.53012C6.32518 6.38947 6.24616 6.19871 6.24616 5.99979C6.24616 5.80088 6.16714 5.61012 6.02649 5.46946C5.88584 5.32881 5.69507 5.24979 5.49616 5.24979C5.29725 5.24979 5.10648 5.32881 4.96583 5.46946C4.82518 5.61012 4.74616 5.80088 4.74616 5.99979C4.74808 6.46349 4.89323 6.91527 5.16173 7.29332C5.43023 7.67137 5.80898 7.95723 6.24616 8.11179V13.4998H5.25466C4.91641 12.3817 4.282 11.3759 3.41866 10.589C2.68588 9.90624 2.16371 9.02807 1.91376 8.05816C1.66382 7.08825 1.69655 6.06708 2.00807 5.11516C2.31959 4.16325 2.89692 3.32031 3.67191 2.68582C4.44691 2.05133 5.38723 1.65177 6.38191 1.53429C6.58811 1.51128 6.79543 1.49976 7.00291 1.49979C8.29109 1.49596 9.53467 1.97126 10.4919 2.83329C11.0467 3.32799 11.49 3.93496 11.7924 4.61396C12.0948 5.29297 12.2494 6.02849 12.246 6.77178C12.2426 7.51508 12.0812 8.24916 11.7726 8.92536C11.464 9.60157 11.0152 10.2044 10.4559 10.694H10.4537Z" fill="#002145"/>
</svg>
