<svg width="18" height="20" viewBox="0 0 18 20" fill="none" xmlns="http://www.w3.org/2000/svg">
<path d="M5 11.95C4.75 11.95 4.54167 11.8627 4.375 11.688C4.20833 11.5127 4.125 11.3 4.125 11.05C4.125 10.8167 4.20833 10.6127 4.375 10.438C4.54167 10.2627 4.75 10.175 5 10.175C5.25 10.175 5.45833 10.2627 5.625 10.438C5.79167 10.6127 5.875 10.8167 5.875 11.05C5.875 11.3 5.79167 11.5127 5.625 11.688C5.45833 11.8627 5.25 11.95 5 11.95ZM9 11.95C8.75 11.95 8.54167 11.8627 8.375 11.688C8.20833 11.5127 8.125 11.3 8.125 11.05C8.125 10.8167 8.20833 10.6127 8.375 10.438C8.54167 10.2627 8.75 10.175 9 10.175C9.25 10.175 9.45833 10.2627 9.625 10.438C9.79167 10.6127 9.875 10.8167 9.875 11.05C9.875 11.3 9.79167 11.5127 9.625 11.688C9.45833 11.8627 9.25 11.95 9 11.95ZM13 11.95C12.75 11.95 12.5417 11.8627 12.375 11.688C12.2083 11.5127 12.125 11.3 12.125 11.05C12.125 10.8167 12.2083 10.6127 12.375 10.438C12.5417 10.2627 12.75 10.175 13 10.175C13.25 10.175 13.4583 10.2627 13.625 10.438C13.7917 10.6127 13.875 10.8167 13.875 11.05C13.875 11.3 13.7917 11.5127 13.625 11.688C13.4583 11.8627 13.25 11.95 13 11.95ZM2.3 19.5C1.8 19.5 1.375 19.325 1.025 18.975C0.675 18.625 0.5 18.2 0.5 17.7V4.3C0.5 3.8 0.675 3.375 1.025 3.025C1.375 2.675 1.8 2.5 2.3 2.5H3.7V1.125C3.7 0.908333 3.77067 0.729 3.912 0.587C4.054 0.445667 4.23333 0.375 4.45 0.375C4.68333 0.375 4.87067 0.45 5.012 0.6C5.154 0.75 5.225 0.933333 5.225 1.15V2.5H12.8V1.1C12.8 0.9 12.875 0.729 13.025 0.587C13.175 0.445667 13.35 0.375 13.55 0.375C13.7667 0.375 13.9457 0.45 14.087 0.6C14.229 0.75 14.3 0.925 14.3 1.125V2.5H15.7C16.2 2.5 16.625 2.675 16.975 3.025C17.325 3.375 17.5 3.8 17.5 4.3V17.7C17.5 18.2 17.325 18.625 16.975 18.975C16.625 19.325 16.2 19.5 15.7 19.5H2.3ZM2.3 18H15.7C15.7833 18 15.8543 17.971 15.913 17.913C15.971 17.8543 16 17.7833 16 17.7V8.3H2V17.7C2 17.7833 2.02933 17.8543 2.088 17.913C2.146 17.971 2.21667 18 2.3 18ZM2 6.8H16V4.3C16 4.21667 15.971 4.146 15.913 4.088C15.8543 4.02933 15.7833 4 15.7 4H2.3C2.21667 4 2.146 4.02933 2.088 4.088C2.02933 4.146 2 4.21667 2 4.3V6.8Z" fill="#002145"/>
</svg>
