<svg width="20" height="20" viewBox="0 0 20 20" fill="none" xmlns="http://www.w3.org/2000/svg">
<g clip-path="url(#clip0_6_803)">
<path d="M19.3499 4.78583L16.8407 1.39583C16.5322 0.964446 16.1252 0.612808 15.6537 0.370064C15.1821 0.12732 14.6594 0.000461434 14.1291 1.46866e-06H5.87073C5.34292 -0.000493946 4.82255 0.124354 4.35242 0.364271C3.88229 0.604187 3.47586 0.952314 3.16656 1.38L0.612397 4.79417C0.196534 5.38058 -0.018232 6.0859 0.000245332 6.80456C0.0187226 7.52322 0.269449 8.21657 0.714897 8.78083L8.04156 19.0542C8.27505 19.3498 8.57265 19.5886 8.91189 19.7524C9.25113 19.9163 9.62316 20.0009 9.9999 20C10.3831 19.9992 10.761 19.9106 11.1046 19.7408C11.4481 19.5711 11.7481 19.3247 11.9816 19.0208L19.2499 8.86167C19.7153 8.28916 19.9776 7.57841 19.9957 6.84082C20.0138 6.10323 19.7867 5.38048 19.3499 4.78583ZM15.4932 2.37583L18.0082 5.77417C18.0216 5.7925 18.0249 5.81417 18.0382 5.83333H13.9616L12.7716 1.66667H14.1291C14.3965 1.6675 14.6599 1.7323 14.8972 1.85567C15.1345 1.97904 15.3389 2.15739 15.4932 2.37583ZM9.9999 15.9317L7.7499 7.5H12.2499L9.9999 15.9317ZM7.77156 5.83333L8.96156 1.66667H11.0382L12.2282 5.83333H7.77156ZM4.51406 2.36417C4.66869 2.14866 4.87235 1.97302 5.10824 1.85174C5.34414 1.73046 5.60549 1.66702 5.87073 1.66667H7.22823L6.03823 5.83333H1.93156C1.94323 5.815 1.94656 5.7925 1.9599 5.775L4.51406 2.36417ZM2.0399 7.77083C1.97973 7.68585 1.92809 7.59513 1.88573 7.5H6.02656L8.52156 16.8583L2.0399 7.77083ZM11.4757 16.8667L13.9757 7.5H18.1307C18.077 7.62439 18.0091 7.74212 17.9282 7.85083L11.4757 16.8667Z" fill="#063468"/>
</g>
<defs>
<clipPath id="clip0_6_803">
<rect width="20" height="20" fill="white"/>
</clipPath>
</defs>
</svg>
