<svg width="117" height="84" viewBox="0 0 117 84" fill="none" xmlns="http://www.w3.org/2000/svg">
<path d="M27.8541 71.7575C26.0836 71.7561 24.3445 71.2846 22.8111 70.3904C21.2776 69.4961 20.0037 68.2104 19.1168 66.662C18.2299 65.1137 17.7613 63.357 17.7578 61.5681C17.7544 59.7792 18.2162 58.0207 19.0971 56.4689L48.0427 5.45252C48.922 3.90107 50.1933 2.61333 51.7266 1.72093C53.2598 0.828526 55.0001 0.363452 56.7696 0.373232C58.5392 0.362401 60.2799 0.827025 61.8133 1.71953C63.3468 2.61204 64.6179 3.90036 65.4965 5.45252L94.7537 56.2962C95.6609 57.8422 96.146 59.6037 96.1593 61.401C96.1726 63.1984 95.7138 64.9671 94.8296 66.5266C93.9454 68.0862 92.6675 69.3809 91.1263 70.2784C89.5851 71.1759 87.8358 71.6443 86.057 71.6356L27.8441 71.8185L27.8541 71.7575ZM56.8098 3.37001C55.5657 3.36913 54.3436 3.70148 53.268 4.33319C52.1924 4.96491 51.3018 5.8734 50.6869 6.96613L21.7413 57.9825C21.1227 59.0712 20.7982 60.305 20.8004 61.5603C20.8025 62.8156 21.1311 64.0483 21.7533 65.1348C22.3755 66.2214 23.2694 67.1236 24.3455 67.7511C25.4215 68.3785 26.6419 68.7092 27.8843 68.7099L86.0972 68.5271C87.3467 68.5381 88.5765 68.2127 89.6603 67.5845C90.7442 66.9563 91.6429 66.0479 92.2643 64.9525C92.8857 63.8572 93.2072 62.6145 93.1959 61.352C93.1846 60.0896 92.8408 58.853 92.2 57.7692L62.9427 6.9763C62.3282 5.88018 61.4366 4.96867 60.359 4.33502C59.2814 3.70138 58.0566 3.36835 56.8098 3.37001Z" fill="white"/>
<path d="M52.7813 55.2418C52.7796 54.7338 52.8795 54.2307 53.0751 53.7627C53.2707 53.2948 53.5579 52.8716 53.9194 52.5186C54.281 52.1656 54.7094 51.8901 55.179 51.7087C55.6486 51.5273 56.1497 51.4436 56.6521 51.4628C57.1585 51.4324 57.6657 51.5064 58.1429 51.6804C58.6201 51.8543 59.0572 52.1245 59.4278 52.4745C59.7984 52.8245 60.0946 53.247 60.2985 53.7164C60.5024 54.1857 60.6096 54.6921 60.6137 55.2046C60.6178 55.7172 60.5187 56.2252 60.3223 56.6978C60.126 57.1704 59.8365 57.5977 59.4716 57.9537C59.1067 58.3097 58.6738 58.587 58.1995 58.7687C57.7252 58.9504 57.2192 59.0327 56.7124 59.0106C56.2069 59.0339 55.702 58.9538 55.2279 58.7752C54.7538 58.5966 54.3203 58.3232 53.9532 57.9713C53.5862 57.6194 53.2932 57.1963 53.0918 56.7273C52.8904 56.2583 52.7848 55.753 52.7813 55.2418ZM52.9019 24.6035H60.0403L59.0349 47.4095H54.2592L52.9019 24.6035Z" fill="white"/>
<path d="M20.4352 83.2594C19.982 83.1593 19.5429 83.0023 19.1282 82.7921C17.9682 82.2885 16.8574 81.6763 15.8104 80.9636C12.3126 78.5984 9.55951 75.2694 7.87732 71.3713C6.19513 67.4732 5.65445 63.1694 6.31937 58.9703C6.50538 57.7107 6.81178 56.4724 7.23427 55.2726C7.3694 54.8227 7.55493 54.3898 7.78725 53.9824C7.31368 55.6504 6.9443 57.3469 6.6813 59.0617C6.13153 63.185 6.71163 67.3817 8.35848 71.1951C10.0053 75.0084 12.6558 78.2923 16.0215 80.6893C17.439 81.637 18.913 82.4953 20.4352 83.2594Z" fill="white"/>
<path d="M8.02246 82.0201C8.02246 82.0201 7.76105 81.8677 7.34884 81.502C6.76842 80.9957 6.23038 80.4419 5.7402 79.8461C4.08421 77.8935 2.78081 75.6619 1.8895 73.2532C0.992477 70.8453 0.516201 68.2983 0.481929 65.7257C0.471684 64.9515 0.515364 64.1776 0.612636 63.4096C0.62534 63.1212 0.683021 62.8366 0.783553 62.5664C0.874039 62.5664 0.78356 63.7854 0.853939 65.7156C1.11346 70.7762 2.91887 75.6313 6.02171 79.6125C7.25836 81.1261 8.08278 81.949 8.02246 82.0201Z" fill="white"/>
<path d="M109.577 46.6875C109.752 47.0417 109.88 47.4173 109.959 47.8049C110.099 48.2404 110.21 48.685 110.291 49.1357C110.423 49.7326 110.524 50.3362 110.592 50.9439C110.801 52.5193 110.865 54.1109 110.784 55.6981C110.668 57.6433 110.365 59.5725 109.879 61.4581C109.354 63.3361 108.654 65.1593 107.787 66.9031C107.066 68.3322 106.218 69.6923 105.254 70.9665C104.862 71.515 104.439 71.9823 104.088 72.3684C103.793 72.7291 103.474 73.0686 103.132 73.3842C102.866 73.6694 102.573 73.9279 102.258 74.1563C102.177 74.075 103.394 72.9373 104.952 70.7735C105.864 69.489 106.668 68.1298 107.355 66.7101C109.046 63.2717 110.047 59.5292 110.301 55.6981C110.402 54.1377 110.378 52.5716 110.231 51.015C109.959 48.2722 109.476 46.6875 109.577 46.6875Z" fill="white"/>
<path d="M116.162 57.8613C116.334 58.7407 116.381 59.6402 116.303 60.533C116.152 64.8687 114.984 69.1061 112.894 72.896C112.504 73.6983 112.003 74.4405 111.406 75.1004C111.744 74.2853 112.13 73.4915 112.562 72.7233C114.44 68.9124 115.583 64.7755 115.931 60.533C115.955 59.6386 116.032 58.7465 116.162 57.8613Z" fill="white"/>
</svg>
