<svg width="108" height="98" viewBox="0 0 108 98" fill="none" xmlns="http://www.w3.org/2000/svg">
<path d="M13.9079 97.3216C11.4689 97.3197 9.07331 96.677 6.96096 95.4577C4.84861 94.2385 3.09371 92.4857 1.87204 90.3747C0.650366 88.2638 0.00479413 85.8689 2.65993e-05 83.43C-0.00474093 80.991 0.631451 78.5936 1.84486 76.478L41.718 6.92507C42.9293 4.80991 44.6805 3.05428 46.7926 1.83763C48.9047 0.620975 51.302 -0.0130805 53.7395 0.000252395C56.1772 -0.0145143 58.575 0.618928 60.6874 1.83573C62.7997 3.05252 64.5507 4.80895 65.7609 6.92507L106.063 76.2425C107.313 78.3503 107.981 80.7519 108 83.2022C108.018 85.6526 107.386 88.0639 106.168 90.1902C104.95 92.3164 103.19 94.0815 101.067 95.3051C98.9435 96.5288 96.5338 97.1673 94.0835 97.1554L13.894 97.4048L13.9079 97.3216ZM53.7948 4.08589C52.0811 4.08469 50.3976 4.5378 48.916 5.39905C47.4344 6.26029 46.2075 7.49888 45.3604 8.98865L5.48732 78.5415C4.63525 80.0258 4.18826 81.7079 4.19116 83.4193C4.19406 85.1307 4.64675 86.8113 5.50385 88.2927C6.36095 89.774 7.59234 91.004 9.07463 91.8595C10.5569 92.7149 12.238 93.1657 13.9495 93.1667L94.1389 92.9175C95.86 92.9324 97.5541 92.4889 99.0471 91.6324C100.54 90.776 101.778 89.5375 102.634 88.0441C103.49 86.5508 103.933 84.8566 103.917 83.1354C103.902 81.4143 103.428 79.7283 102.546 78.2507L62.2431 9.00252C61.3967 7.50812 60.1684 6.26541 58.684 5.40154C57.1996 4.53766 55.5123 4.08363 53.7948 4.08589Z" fill="white"/>
<path d="M48.2422 74.8022C48.2399 74.1097 48.3775 73.4238 48.647 72.7858C48.9164 72.1478 49.312 71.5709 49.8101 71.0896C50.3081 70.6084 50.8983 70.2328 51.5452 69.9855C52.1921 69.7381 52.8823 69.624 53.5743 69.6502C54.2719 69.6088 54.9706 69.7097 55.6279 69.9468C56.2853 70.1839 56.8875 70.5523 57.3979 71.0295C57.9084 71.5067 58.3165 72.0827 58.5973 72.7226C58.8782 73.3625 59.0259 74.0528 59.0315 74.7516C59.0372 75.4504 58.9006 76.143 58.6302 76.7873C58.3597 77.4316 57.961 78.0142 57.4583 78.4996C56.9556 78.9849 56.3594 79.363 55.7059 79.6107C55.0525 79.8584 54.3556 79.9706 53.6574 79.9405C52.9611 79.9722 52.2656 79.863 51.6125 79.6195C50.9594 79.3761 50.3622 79.0033 49.8566 78.5236C49.351 78.0438 48.9474 77.4669 48.67 76.8275C48.3926 76.1881 48.2471 75.4992 48.2422 74.8022ZM48.4084 33.0317H58.2417L56.8567 64.1242H50.2781L48.4084 33.0317Z" fill="white"/>
</svg>
