<svg width="24" height="24" viewBox="0 0 24 24" fill="none" xmlns="http://www.w3.org/2000/svg">
<path d="M22.5 12C22.5018 9.57776 21.6621 7.23011 20.1243 5.35858L19.7743 4.93259L19.3844 5.32244L15.8134 8.89344L15.5237 9.18317L15.7509 9.52418C16.2393 10.2575 16.4999 11.1189 16.4999 12C16.4999 12.8811 16.2393 13.7425 15.7509 14.4758L15.5237 14.8168L15.8134 15.1066L19.3844 18.6776L19.7743 19.0674L20.1243 18.6414C21.6621 16.7699 22.5018 14.4222 22.5 12ZM22.5 12C22.5 12.0001 22.5 12.0003 22.5 12.0004L22 12L22.5 11.9996C22.5 11.9997 22.5 11.9999 22.5 12ZM12 1.5C9.57776 1.49816 7.2301 2.33792 5.35858 3.87568L4.93259 4.22569L5.32244 4.61555L8.89344 8.18655L9.18317 8.47628L9.52418 8.24913C10.2575 7.76068 11.1189 7.50005 12 7.50005C12.8811 7.50005 13.7425 7.76068 14.4758 8.24913L14.8168 8.47628L15.1066 8.18655L18.6776 4.61555L19.0674 4.22569L18.6414 3.87568C16.7699 2.33792 14.4222 1.49816 12 1.5ZM12 1.5C12.0001 1.5 12.0003 1.5 12.0004 1.5L12 2L11.9996 1.5C11.9997 1.5 11.9999 1.5 12 1.5ZM1.5 12C1.49816 14.4222 2.33792 16.7699 3.87568 18.6414L4.22569 19.0674L4.61555 18.6776L8.18655 15.1066L8.47628 14.8168L8.24913 14.4758C7.76068 13.7425 7.50005 12.8811 7.50005 12C7.50005 11.1189 7.76068 10.2575 8.24913 9.52418L8.47628 9.18317L8.18655 8.89344L4.61555 5.32244L4.22569 4.93259L3.87568 5.35858C2.33792 7.23011 1.49816 9.57775 1.5 12ZM1.5 12C1.5 11.9999 1.5 11.9997 1.5 11.9996L2 12L1.5 12.0004C1.5 12.0003 1.5 12.0001 1.5 12ZM4.262 18.324L3.90844 17.9704L3.95212 17.9268C4.05184 18.0615 4.15515 18.194 4.262 18.324ZM4.262 18.324L4.64832 18.0066C4.63795 17.994 4.62763 17.9813 4.61733 17.9687L4.262 18.324ZM4.262 5.676L4.61733 6.03133C4.62762 6.01867 4.63795 6.00603 4.64832 5.99342L4.262 5.676ZM4.262 5.676L3.90844 6.02955L3.95212 6.07322C4.05184 5.9385 4.15515 5.80604 4.262 5.676ZM12 22.5C14.4222 22.5018 16.7699 21.6621 18.6414 20.1243L19.0674 19.7743L18.6776 19.3844L15.1066 15.8134L14.8168 15.5237L14.4758 15.7509C13.7425 16.2393 12.8811 16.4999 12 16.4999C11.1189 16.4999 10.2575 16.2393 9.52418 15.7509L9.18317 15.5237L8.89344 15.8134L5.32244 19.3844L4.93259 19.7743L5.35858 20.1243C7.23011 21.6621 9.57775 22.5018 12 22.5ZM12 22.5C11.9999 22.5 11.9997 22.5 11.9996 22.5L12 22L12.0004 22.5C12.0003 22.5 12.0001 22.5 12 22.5ZM20.774 19.4172L20.4753 19.7687L20.8017 20.0948L21.6581 20.9502C21.7477 21.0441 21.7972 21.1693 21.7962 21.2992C21.7951 21.4303 21.7427 21.5558 21.65 21.6485C21.5574 21.7413 21.432 21.794 21.3009 21.7952C21.1711 21.7964 21.0459 21.7471 20.9518 21.6577L20.0956 20.8014L19.7695 20.4754L19.4182 20.774C17.3475 22.5337 14.7185 23.4999 12.001 23.4999C9.28351 23.4999 6.65454 22.5337 4.58378 20.774L4.23246 20.4754L3.90644 20.8014L3.04644 21.6614L3.04639 21.6614L3.04011 21.6679C2.99402 21.7157 2.93888 21.7538 2.87789 21.7801C2.81691 21.8063 2.75131 21.8201 2.68492 21.8208C2.61854 21.8214 2.55269 21.8088 2.49122 21.7837C2.42975 21.7586 2.3739 21.7215 2.32693 21.6746C2.27995 21.6277 2.24278 21.5719 2.2176 21.5104C2.19241 21.449 2.17971 21.3832 2.18024 21.3168C2.18077 21.2504 2.19452 21.1848 2.22068 21.1238C2.24684 21.0627 2.28489 21.0075 2.33261 20.9614L2.33266 20.9614L2.33855 20.9556L3.19855 20.0956L3.52456 19.7695L3.226 19.4182C1.46625 17.3475 0.500061 14.7185 0.500061 12.001C0.500061 9.28351 1.46625 6.65454 3.226 4.58378L3.52456 4.23246L3.19855 3.90644L2.342 3.04989C2.25236 2.95593 2.20276 2.83073 2.2038 2.70078C2.20485 2.56968 2.25734 2.44423 2.34998 2.35146C2.44262 2.25869 2.56799 2.20602 2.69909 2.20479C2.82894 2.20357 2.95412 2.25291 3.04819 2.34229L3.90444 3.19855L4.23046 3.52456L4.58178 3.226C6.65253 1.46625 9.28151 0.500061 11.999 0.500061C14.7165 0.500061 17.3455 1.46625 19.4162 3.226L19.7675 3.52456L20.0936 3.19855L20.9536 2.33855L20.9537 2.33843C21.0474 2.24459 21.1747 2.19184 21.3073 2.1918C21.44 2.19175 21.5672 2.2444 21.6611 2.33818C21.7549 2.43195 21.8077 2.55916 21.8077 2.69182C21.8077 2.82448 21.7551 2.95173 21.6613 3.04557L20.8014 3.90544L20.4754 4.23146L20.774 4.58278C22.5337 6.65354 23.4999 9.28251 23.4999 12C23.4999 14.7175 22.5337 17.3465 20.774 19.4172ZM19.738 18.324L20.0916 17.9704L20.0479 17.9268C19.9482 18.0615 19.8449 18.194 19.738 18.324ZM18.324 4.262L17.9704 3.90844L17.9268 3.95212C18.0615 4.05184 18.194 4.15515 18.324 4.262ZM5.676 19.738L6.02955 20.0916L6.07322 20.0479C5.9385 19.9482 5.80604 19.8449 5.676 19.738ZM9.08986 10.0555C8.70527 10.6311 8.5 11.3078 8.5 12C8.5 12.9283 8.86875 13.8185 9.52512 14.4749C10.1815 15.1312 11.0717 15.5 12 15.5C12.6922 15.5 13.3689 15.2947 13.9445 14.9101C14.5201 14.5256 14.9687 13.9789 15.2336 13.3394C15.4985 12.6998 15.5678 11.9961 15.4327 11.3172C15.2977 10.6382 14.9644 10.0146 14.4749 9.52512C13.9854 9.03564 13.3617 8.7023 12.6828 8.56725C12.0039 8.4322 11.3001 8.50151 10.6606 8.76642C10.0211 9.03133 9.47444 9.47993 9.08986 10.0555Z" stroke="#053A74"/>
</svg>
