<svg width="16" height="16" viewBox="0 0 16 16" fill="none" xmlns="http://www.w3.org/2000/svg">
<path d="M9.5014 8.825V14.625C9.5014 14.875 9.41807 15.0833 9.2514 15.25C9.08473 15.4167 8.8764 15.5 8.6264 15.5H7.3764C7.1264 15.5 6.91806 15.4167 6.7514 15.25C6.58473 15.0833 6.5014 14.875 6.5014 14.625V8.825L0.901398 1.725C0.718065 1.45833 0.693065 1.18733 0.826398 0.912C0.959731 0.637334 1.18473 0.5 1.5014 0.5H14.5014C14.8181 0.5 15.0431 0.637334 15.1764 0.912C15.3097 1.18733 15.2847 1.45833 15.1014 1.725L9.5014 8.825ZM8.0014 8.3L12.9514 2H3.0514L8.0014 8.3Z" fill="#002145"/>
</svg>
