<svg width="18" height="18" viewBox="0 0 18 18" fill="none" xmlns="http://www.w3.org/2000/svg">
<path d="M17.25 14.9982H11.112C10.8851 14.363 10.3852 13.8631 9.75002 13.6362V10.5147C10.758 10.5147 11.64 10.5057 12.0713 10.4974C12.3405 10.4924 12.6084 10.4594 12.8708 10.3992C14.2489 10.0785 15.3251 9.00235 15.6458 7.62419C16.1168 5.64957 14.9352 3.65758 12.9765 3.12419L12.8475 3.09568C12.6225 3.04544 12.5093 3.02069 12.4065 2.77393C11.4547 0.47812 8.822 -0.611443 6.5262 0.340342C5.20608 0.88762 4.22441 2.02942 3.88125 3.41665C3.71886 4.08853 3.70427 4.78761 3.8385 5.46567C2.50678 6.03868 1.89176 7.58274 2.46473 8.91442C2.77924 9.64539 3.40836 10.1942 4.17523 10.4067C4.37931 10.4609 4.58891 10.4916 4.79999 10.4982C5.29123 10.5117 6.7005 10.5177 8.17049 10.5177H8.24998V13.6369C7.61495 13.8637 7.11506 14.3633 6.88799 14.9982H0.749988C0.335777 14.9982 0 15.334 0 15.7482C0 16.1624 0.335777 16.4982 0.749988 16.4982H6.88799C7.29436 17.6646 8.56937 18.2807 9.73578 17.8744C10.3806 17.6498 10.8874 17.1429 11.112 16.4982H17.25C17.6642 16.4982 18 16.1624 18 15.7482C18 15.334 17.6642 14.9982 17.25 14.9982ZM4.842 8.99817C4.74571 8.99472 4.65008 8.98038 4.55699 8.95542C4.18623 8.85139 3.89637 8.56184 3.79199 8.19115C3.63238 7.64447 3.90646 7.06475 4.43025 6.84116C5.10381 6.55607 5.47653 5.82957 5.31524 5.11614C4.97331 3.49495 6.01038 1.90353 7.63158 1.56164C7.68568 1.55021 7.74011 1.5403 7.79474 1.53189C7.94102 1.51027 8.08864 1.49899 8.23648 1.49814C9.45517 1.49392 10.5561 2.22503 11.025 3.34989C11.2897 4.00781 11.8857 4.47423 12.588 4.57315C13.7662 4.89944 14.4736 6.10115 14.187 7.28964C13.9895 8.10411 13.3522 8.73913 12.537 8.93365C12.3751 8.97159 12.2097 8.99223 12.0435 8.99514C11.5238 9.00492 5.40826 9.01318 4.842 8.99817ZM9 16.4982C8.58579 16.4982 8.25001 16.1624 8.25001 15.7482C8.25001 15.334 8.58579 14.9982 9 14.9982C9.41421 14.9982 9.74999 15.334 9.74999 15.7482C9.74999 16.1624 9.41421 16.4982 9 16.4982Z" fill="#002145"/>
</svg>
