<svg width="26" height="18" viewBox="0 0 26 18" fill="none" xmlns="http://www.w3.org/2000/svg">
<path d="M8.91851 17.7865C8.72407 17.7865 8.53685 17.7515 8.35685 17.6815C8.17573 17.6126 8.01573 17.5087 7.87685 17.3698L0.918512 10.4115C0.668512 10.1615 0.550179 9.86257 0.563513 9.51479C0.577957 9.16813 0.69629 8.86979 0.918512 8.61979C1.16851 8.36979 1.4674 8.24479 1.81518 8.24479C2.16185 8.24479 2.44629 8.36979 2.66851 8.61979L8.91851 14.8698L23.3352 0.453125C23.5574 0.203125 23.8491 0.078125 24.2102 0.078125C24.5713 0.078125 24.863 0.203125 25.0852 0.453125C25.3352 0.703125 25.4602 1.00146 25.4602 1.34813C25.4602 1.6959 25.3352 1.99479 25.0852 2.24479L9.96018 17.3698C9.82129 17.5087 9.66184 17.6126 9.48184 17.6815C9.30073 17.7515 9.11296 17.7865 8.91851 17.7865Z" fill="#10CCAE"/>
</svg>
