<svg width="104" height="105" viewBox="0 0 104 105" fill="none" xmlns="http://www.w3.org/2000/svg">
<g filter="url(#filter0_f_3724_11818)">
<path fill-rule="evenodd" clip-rule="evenodd" d="M16.9723 20.8136C16.0641 23.6013 15.5666 26.5752 15.5515 29.6643L15.3988 60.9787C15.3207 76.9948 28.241 90.0417 44.257 90.1198L75.5714 90.2725C78.361 90.2861 81.0605 89.9054 83.6171 89.1827C85.9619 84.9968 87.2987 80.1699 87.2987 75.0307V46.7305C87.2987 30.7142 74.3149 17.7305 58.2987 17.7305H29.9984C25.314 17.7305 20.889 18.8412 16.9723 20.8136Z" fill="#36C1FE"/>
</g>
<path fill-rule="evenodd" clip-rule="evenodd" d="M29.7132 -0.00152634C21.429 -0.0419329 14.6806 6.64098 14.6402 14.9252L14.6055 22.0495C19.0676 19.248 24.3467 17.6279 30.0042 17.6279H58.3045C74.3207 17.6279 87.3045 30.6117 87.3045 46.6279V74.9282C87.3045 80.2714 85.8594 85.2772 83.3388 89.5759L88.5917 89.6015C96.8758 89.6419 103.624 82.959 103.665 74.6748L103.954 15.3608C103.994 7.07659 97.3114 0.328188 89.0273 0.287782L29.7132 -0.00152634Z" fill="#00B2FF"/>
<g filter="url(#filter1_b_3724_11818)">
<rect x="1" y="17.7305" width="86.3003" height="86.3003" rx="15" fill="url(#paint0_linear_3724_11818)" fill-opacity="0.37"/>
<rect x="1" y="17.7305" width="86.3003" height="86.3003" rx="15" stroke="url(#paint1_linear_3724_11818)" stroke-width="1.5"/>
</g>
<path d="M34.1929 59.0387L38.6186 55.7194L45.9946 46.1305L50.4203 45.7617L56.69 51.6626L61.1156 55.7194L61.8532 60.8827L44.1506 78.2165H43.0442L40.0938 75.2661L37.8809 73.7909L37.1433 70.8404V71.578L34.1929 70.1028L33.4553 67.5212L31.9801 67.1524L29.3984 64.2019L34.1929 59.0387Z" fill="white"/>
<path d="M25.7109 59.0387L29.399 63.4643L31.243 61.6203L34.1934 59.7763L36.7751 55.7194L39.3567 54.2442L42.3071 56.0882L44.52 58.6699L48.5768 57.5635V54.2442L43.7824 49.4498L41.2007 46.4993L36.7751 45.7617L34.1934 47.2369L30.8742 50.1874L26.0797 56.0882L25.7109 59.0387Z" fill="#BCEBFF"/>
<path d="M43.5615 77.0317C43.7068 77.0317 43.8738 76.9947 44.0627 76.9209C44.2516 76.847 44.4041 76.751 44.5204 76.6329L59.2088 61.6554C59.5866 61.2714 59.8699 60.8357 60.0588 60.3482C60.2476 59.8608 60.3421 59.366 60.3421 58.8638C60.3421 58.3616 60.2476 57.8594 60.0588 57.3572C59.8699 56.855 59.5866 56.4119 59.2088 56.0278L51.3634 48.0517C50.9856 47.6676 50.5498 47.3796 50.0558 47.1876C49.5618 46.9956 49.0678 46.8996 48.5739 46.8996C48.0799 46.8996 47.5932 46.9956 47.1137 47.1876C46.6343 47.3796 46.2057 47.6676 45.8279 48.0517V48.0517C45.3918 48.4951 45.3896 49.2056 45.823 49.6517L48.5739 52.4829C48.9516 52.8964 49.2858 53.3765 49.5763 53.923C49.8669 54.4695 50.0122 55.0677 50.0122 55.7176C50.0122 56.8402 49.5836 57.8298 48.7264 58.6865C47.8692 59.5432 46.8885 59.9716 45.7844 59.9716C45.0579 59.9716 44.455 59.8608 43.9755 59.6392C43.4961 59.4177 43.053 59.1001 42.6462 58.6865L41.6032 57.6262C40.4277 56.4311 38.5011 56.4311 37.3256 57.6262L31.5753 63.4722C31.43 63.6199 31.3283 63.775 31.2702 63.9375C31.2121 64.1 31.183 64.2698 31.183 64.4471C31.183 64.8311 31.3065 65.1487 31.5535 65.3998C31.8005 65.6509 32.1129 65.7764 32.4906 65.7764C32.665 65.7764 32.8321 65.7321 32.9919 65.6435C33.1517 65.5549 33.2897 65.4515 33.4059 65.3333L38.4904 60.1642C39.0017 59.6443 39.8399 59.6443 40.3512 60.1642V60.1642C40.8508 60.6721 40.8508 61.4867 40.3512 61.9946L35.2801 67.1501C35.1348 67.2978 35.0331 67.4603 34.975 67.6375C34.9169 67.8148 34.8879 67.992 34.8879 68.1693C34.8879 68.5238 35.0186 68.834 35.2801 69.0998C35.5416 69.3657 35.8467 69.4986 36.1954 69.4986C36.3698 69.4986 36.5369 69.4617 36.6967 69.3879C36.8565 69.314 36.9945 69.218 37.1107 69.0998L42.1952 63.9307C42.7065 63.4108 43.5447 63.4108 44.056 63.9307V63.9307C44.5556 64.4386 44.5556 65.2532 44.056 65.7611L38.9849 70.9166C38.8687 71.0348 38.7743 71.1899 38.7016 71.3819C38.629 71.5739 38.5927 71.7586 38.5927 71.9358C38.5927 72.2903 38.7234 72.6005 38.9849 72.8664C39.2465 73.1322 39.5516 73.2652 39.9002 73.2652C40.0746 73.2652 40.2344 73.2356 40.3797 73.1765C40.525 73.1175 40.6703 73.0141 40.8156 72.8664L45.9 67.6972C46.4113 67.1774 47.2495 67.1774 47.7608 67.6972V67.6972C48.2604 68.2051 48.2604 69.0197 47.7608 69.5276L42.6462 74.7275C42.5009 74.8752 42.3992 75.0376 42.3411 75.2149C42.2829 75.3921 42.2539 75.5546 42.2539 75.7023C42.2539 76.1159 42.3701 76.4408 42.6026 76.6772C42.835 76.9135 43.1547 77.0317 43.5615 77.0317ZM43.5615 79.6904C42.6026 79.6904 41.7454 79.3285 40.9899 78.6047C40.79 78.4133 40.6115 78.2099 40.4544 77.9947C39.6684 76.9182 38.6385 75.8858 37.5861 75.0679C37.4354 74.9509 37.2915 74.8226 37.1543 74.6831C37.0067 74.533 36.8718 74.375 36.7497 74.209C35.9649 73.1425 34.9388 72.123 33.9051 71.2955C33.7531 71.1739 33.6085 71.0402 33.4713 70.8945C33.3389 70.7538 33.2168 70.6074 33.1052 70.4552C32.3172 69.3806 31.2751 68.3687 30.2005 67.5808C29.992 67.4279 29.7965 67.2548 29.614 67.0615C28.9166 66.323 28.5679 65.4367 28.5679 64.4028C28.5679 63.9006 28.6623 63.3984 28.8512 62.8962C29.0401 62.394 29.3234 61.9508 29.7011 61.5668L37.3256 53.8153C38.5011 52.6203 40.4277 52.6203 41.6032 53.8153L44.2588 56.5152C44.4913 56.7516 44.7456 56.9362 45.0216 57.0691C45.2976 57.2021 45.5664 57.2686 45.8279 57.2686C46.2057 57.2686 46.5616 57.0987 46.8958 56.759C47.23 56.4192 47.397 56.0574 47.397 55.6733C47.397 55.4961 47.3462 55.2967 47.2445 55.0751C47.1428 54.8536 46.9757 54.6246 46.7432 54.3883L40.5104 48.0517C40.1327 47.6676 39.6968 47.3796 39.2029 47.1876C38.7089 46.9956 38.2149 46.8996 37.7209 46.8996C37.227 46.8996 36.7403 46.9956 36.2608 47.1876C35.7814 47.3796 35.3528 47.6676 34.975 48.0517L28.35 54.7871C27.9432 55.2007 27.6598 55.6364 27.5 56.0943C27.3402 56.5522 27.2458 57.0618 27.2167 57.623C27.1877 58.2139 27.2966 58.7825 27.5436 59.3291C27.7164 59.7114 29.0232 61.196 29.9122 62.2053C30.369 62.7238 30.3405 63.4869 29.8559 63.9795V63.9795C29.2999 64.5448 28.3822 64.5241 27.8635 63.9246C26.8348 62.7356 25.4021 61.015 25.1464 60.3704C24.7832 59.4546 24.6016 58.5241 24.6016 57.5787C24.6016 56.6925 24.7686 55.8432 25.1028 55.0308C25.437 54.2184 25.9091 53.502 26.5193 52.8817L33.1008 46.1906C33.7401 45.5407 34.4665 45.0606 35.2801 44.7504C36.0937 44.4402 36.9219 44.2852 37.7645 44.2852C38.6072 44.2852 39.4281 44.4402 40.2271 44.7504C41.0262 45.0606 41.7454 45.5407 42.3846 46.1906V46.1906C42.8158 46.6289 43.5226 46.6289 43.9537 46.1906V46.1906C44.593 45.5407 45.3194 45.0606 46.133 44.7504C46.9466 44.4402 47.7748 44.2852 48.6174 44.2852C49.4601 44.2852 50.281 44.4402 51.0801 44.7504C51.8791 45.0606 52.5983 45.5407 53.2376 46.1906L61.0394 54.1224C61.6787 54.7723 62.1582 55.5108 62.4778 56.338C62.7974 57.1652 62.9572 58.0071 62.9572 58.8638C62.9572 59.7205 62.7974 60.555 62.4778 61.3674C62.1582 62.1798 61.6787 62.9109 61.0394 63.5608L46.351 78.494C45.9732 78.878 45.5446 79.1734 45.0652 79.3802C44.5857 79.587 44.0845 79.6904 43.5615 79.6904Z" fill="#BCEBFF"/>
<defs>
<filter id="filter0_f_3724_11818" x="10.3984" y="12.7305" width="81.8984" height="82.543" filterUnits="userSpaceOnUse" color-interpolation-filters="sRGB">
<feFlood flood-opacity="0" result="BackgroundImageFix"/>
<feBlend mode="normal" in="SourceGraphic" in2="BackgroundImageFix" result="shape"/>
<feGaussianBlur stdDeviation="2.5" result="effect1_foregroundBlur_3724_11818"/>
</filter>
<filter id="filter1_b_3724_11818" x="-6.75" y="9.98047" width="101.797" height="101.801" filterUnits="userSpaceOnUse" color-interpolation-filters="sRGB">
<feFlood flood-opacity="0" result="BackgroundImageFix"/>
<feGaussianBlur in="BackgroundImage" stdDeviation="3.5"/>
<feComposite in2="SourceAlpha" operator="in" result="effect1_backgroundBlur_3724_11818"/>
<feBlend mode="normal" in="SourceGraphic" in2="effect1_backgroundBlur_3724_11818" result="shape"/>
</filter>
<linearGradient id="paint0_linear_3724_11818" x1="87.3003" y1="17.7328" x2="0.999997" y2="108.459" gradientUnits="userSpaceOnUse">
<stop offset="0.14101" stop-color="#25BEFF"/>
<stop offset="0.630007" stop-color="#98E0FF" stop-opacity="0.527239"/>
<stop offset="1" stop-color="#D9F4FF" stop-opacity="0"/>
</linearGradient>
<linearGradient id="paint1_linear_3724_11818" x1="79.1866" y1="21.3168" x2="-10.8017" y2="109.461" gradientUnits="userSpaceOnUse">
<stop offset="0.189653" stop-color="white"/>
<stop offset="1" stop-color="#00B2FF"/>
</linearGradient>
</defs>
</svg>
