<svg width="12" height="12" viewBox="0 0 12 12" fill="none" xmlns="http://www.w3.org/2000/svg">
<path d="M6.0026 9.28385C6.16788 9.28385 6.30652 9.22552 6.41852 9.10885C6.53013 8.99219 6.58594 8.85122 6.58594 8.68594C6.58594 8.52066 6.53013 8.37969 6.41852 8.26302C6.30652 8.14635 6.16788 8.08802 6.0026 8.08802C5.8276 8.08802 5.6843 8.14635 5.57269 8.26302C5.46069 8.37969 5.40469 8.52066 5.40469 8.68594C5.40469 8.85122 5.46069 8.99219 5.57269 9.10885C5.6843 9.22552 5.8276 9.28385 6.0026 9.28385ZM6.04635 3.50885C6.34774 3.50885 6.58827 3.58897 6.76794 3.74919C6.94799 3.9098 7.03802 4.12622 7.03802 4.39844C7.03802 4.57344 6.98688 4.74591 6.8846 4.91585C6.78272 5.08619 6.62969 5.26372 6.42552 5.44844C6.14358 5.69149 5.93941 5.9223 5.81302 6.14085C5.68663 6.3598 5.61858 6.58594 5.60885 6.81927C5.59913 6.91649 5.63316 7.00146 5.71094 7.07419C5.78871 7.1473 5.88108 7.18385 5.98802 7.18385C6.09497 7.18385 6.18985 7.1473 6.27269 7.07419C6.35513 7.00146 6.40608 6.91163 6.42552 6.80469C6.45469 6.63941 6.51788 6.48619 6.6151 6.34502C6.71233 6.20424 6.86788 6.02691 7.08177 5.81302C7.38316 5.53108 7.59219 5.2783 7.70885 5.05469C7.82552 4.83108 7.88385 4.58802 7.88385 4.32552C7.88385 3.85885 7.71372 3.47716 7.37344 3.18044C7.03316 2.8841 6.59566 2.73594 6.06094 2.73594C5.70122 2.73594 5.37066 2.81119 5.06927 2.96169C4.76788 3.11258 4.52969 3.33872 4.35469 3.6401C4.30608 3.73733 4.28916 3.83222 4.30394 3.92477C4.31833 4.01694 4.37413 4.09219 4.47135 4.15052C4.55885 4.20885 4.66347 4.2283 4.78519 4.20885C4.90652 4.18941 5.00608 4.12622 5.08385 4.01927C5.20052 3.86372 5.3343 3.73966 5.48519 3.6471C5.63569 3.55494 5.82274 3.50885 6.04635 3.50885ZM6.0026 11.5443C5.23455 11.5443 4.5151 11.3984 3.84427 11.1068C3.17344 10.8151 2.58758 10.4214 2.08669 9.92552C1.58619 9.42969 1.1901 8.84383 0.898438 8.16794C0.606771 7.49244 0.460938 6.77066 0.460938 6.0026C0.460938 5.23455 0.606771 4.51258 0.898438 3.83669C1.1901 3.16119 1.58619 2.57552 2.08669 2.07969C2.58758 1.58385 3.17344 1.1901 3.84427 0.898438C4.5151 0.606771 5.23455 0.460938 6.0026 0.460938C6.78038 0.460938 7.50469 0.606771 8.17552 0.898438C8.84635 1.1901 9.43222 1.58385 9.9331 2.07969C10.4336 2.57552 10.8274 3.16119 11.1144 3.83669C11.401 4.51258 11.5443 5.23455 11.5443 6.0026C11.5443 6.77066 11.401 7.49244 11.1144 8.16794C10.8274 8.84383 10.4336 9.42969 9.9331 9.92552C9.43222 10.4214 8.84635 10.8151 8.17552 11.1068C7.50469 11.3984 6.78038 11.5443 6.0026 11.5443ZM6.0026 10.6693C7.30538 10.6693 8.40885 10.2149 9.31302 9.30602C10.2172 8.3968 10.6693 7.29566 10.6693 6.0026C10.6693 4.70955 10.2172 3.60841 9.31302 2.69919C8.40885 1.79035 7.30538 1.33594 6.0026 1.33594C4.71927 1.33594 3.62066 1.79035 2.70677 2.69919C1.79288 3.60841 1.33594 4.70955 1.33594 6.0026C1.33594 7.29566 1.79288 8.3968 2.70677 9.30602C3.62066 10.2149 4.71927 10.6693 6.0026 10.6693Z" fill="#002145"/>
</svg>
