<svg width="16" height="16" viewBox="0 0 16 16" fill="none" xmlns="http://www.w3.org/2000/svg">
<path d="M8 0.5C3.86 0.5 0.5 3.86 0.5 8C0.5 12.14 3.86 15.5 8 15.5C12.14 15.5 15.5 12.14 15.5 8C15.5 3.86 12.14 0.5 8 0.5ZM8.75 13.25H7.25V11.75H8.75V13.25ZM10.3025 7.4375L9.6275 8.1275C9.2525 8.51 8.9825 8.855 8.8475 9.395C8.7875 9.635 8.75 9.905 8.75 10.25H7.25V9.875C7.25 9.53 7.31 9.2 7.415 8.8925C7.565 8.4575 7.8125 8.0675 8.1275 7.7525L9.0575 6.8075C9.4025 6.4775 9.5675 5.9825 9.47 5.4575C9.3725 4.9175 8.9525 4.46 8.4275 4.31C7.595 4.0775 6.8225 4.55 6.575 5.2625C6.485 5.54 6.2525 5.75 5.96 5.75H5.735C5.3 5.75 5 5.33 5.12 4.91C5.4425 3.8075 6.38 2.9675 7.5425 2.7875C8.6825 2.6075 9.77 3.2 10.445 4.1375C11.33 5.36 11.0675 6.6725 10.3025 7.4375Z" fill="#063468"/>
</svg>
