<svg width="18" height="18" viewBox="0 0 18 18" fill="none" xmlns="http://www.w3.org/2000/svg">
<path d="M11.8734 10L3.47344 10L5.89844 12.425L4.87344 13.525L0.598438 9.25L4.87344 4.975L5.89844 6.075L3.47344 8.5L11.8734 8.5V10ZM8.87344 18V16.5H15.5984C15.6651 16.5 15.7318 16.4667 15.7984 16.4C15.8651 16.3333 15.8984 16.2667 15.8984 16.2L15.8984 2.3C15.8984 2.23333 15.8651 2.16667 15.7984 2.1C15.7318 2.03333 15.6651 2 15.5984 2H8.87344V0.5H15.5984C16.0984 0.5 16.5234 0.674999 16.8734 1.025C17.2234 1.375 17.3984 1.8 17.3984 2.3L17.3984 16.2C17.3984 16.7 17.2234 17.125 16.8734 17.475C16.5234 17.825 16.0984 18 15.5984 18H8.87344Z" fill="white"/>
</svg>
