<svg width="20" height="20" viewBox="0 0 20 20" fill="none" xmlns="http://www.w3.org/2000/svg">
<path d="M13.4 8.8C13.7833 8.8 14.0957 8.67933 14.337 8.438C14.579 8.196 14.7 7.88333 14.7 7.5C14.7 7.11667 14.579 6.804 14.337 6.562C14.0957 6.32067 13.7833 6.2 13.4 6.2C13.0333 6.2 12.725 6.32067 12.475 6.562C12.225 6.804 12.1 7.11667 12.1 7.5C12.1 7.88333 12.221 8.196 12.463 8.438C12.7043 8.67933 13.0167 8.8 13.4 8.8ZM6.6 8.8C6.96667 8.8 7.275 8.67933 7.525 8.438C7.775 8.196 7.9 7.88333 7.9 7.5C7.9 7.11667 7.77933 6.804 7.538 6.562C7.296 6.32067 6.98333 6.2 6.6 6.2C6.21667 6.2 5.90433 6.32067 5.663 6.562C5.421 6.804 5.3 7.11667 5.3 7.5C5.3 7.88333 5.421 8.196 5.663 8.438C5.90433 8.67933 6.21667 8.8 6.6 8.8ZM10 19.5C8.68333 19.5 7.446 19.25 6.288 18.75C5.12933 18.25 4.125 17.575 3.275 16.725C2.425 15.875 1.75 14.8707 1.25 13.712C0.75 12.554 0.5 11.3167 0.5 10C0.5 8.68333 0.75 7.44567 1.25 6.287C1.75 5.129 2.425 4.125 3.275 3.275C4.125 2.425 5.12933 1.75 6.288 1.25C7.446 0.75 8.68333 0.5 10 0.5C11.3167 0.5 12.5543 0.75 13.713 1.25C14.871 1.75 15.875 2.425 16.725 3.275C17.575 4.125 18.25 5.129 18.75 6.287C19.25 7.44567 19.5 8.68333 19.5 10C19.5 11.3167 19.25 12.554 18.75 13.712C18.25 14.8707 17.575 15.875 16.725 16.725C15.875 17.575 14.871 18.25 13.713 18.75C12.5543 19.25 11.3167 19.5 10 19.5ZM10 18C12.2167 18 14.1043 17.221 15.663 15.663C17.221 14.1043 18 12.2167 18 10C18 7.78333 17.221 5.89567 15.663 4.337C14.1043 2.779 12.2167 2 10 2C7.78333 2 5.896 2.779 4.338 4.337C2.77933 5.89567 2 7.78333 2 10C2 12.2167 2.77933 14.1043 4.338 15.663C5.896 17.221 7.78333 18 10 18ZM5.975 14.7H14.025C14.225 14.7 14.3667 14.629 14.45 14.487C14.5333 14.3457 14.525 14.1917 14.425 14.025C13.9417 13.225 13.3127 12.604 12.538 12.162C11.7627 11.7207 10.9167 11.5 10 11.5C9.08333 11.5 8.23767 11.7207 7.463 12.162C6.68767 12.604 6.05833 13.225 5.575 14.025C5.475 14.1917 5.46667 14.3457 5.55 14.487C5.63333 14.629 5.775 14.7 5.975 14.7Z" fill="#F35242"/>
</svg>
