<svg width="24" height="24" viewBox="0 0 24 24" fill="none" xmlns="http://www.w3.org/2000/svg">
<path d="M3.63593 0.0548592C3.08735 0.202288 2.68964 0.565716 2.49421 1.09372C2.4325 1.26514 2.42221 1.38515 2.4085 2.232L2.39478 3.17829L1.8565 3.19886C1.31478 3.21943 1.11935 3.25714 0.824497 3.41143C0.543354 3.55543 0.221068 3.94629 0.0839252 4.30286C0.0222109 4.46743 0.0187823 4.704 0.00849657 11.4857C-0.00178915 17.9349 0.00163943 18.5177 0.0564966 18.7371C0.186782 19.2926 0.522782 19.6766 1.06107 19.8926L1.25307 19.9714L5.35021 19.9886C8.96393 20.0023 9.44736 20.0126 9.44393 20.0571C9.4405 20.0846 9.39936 20.2389 9.35136 20.4C9.24164 20.7669 8.8405 22.104 8.72393 22.4914C8.67593 22.6526 8.61079 22.8583 8.58336 22.9543C8.55593 23.0469 8.52507 23.1463 8.51821 23.1669C8.51136 23.2011 8.38793 23.2114 8.05879 23.2114H7.61307V23.6057V24H12.0016H16.3902V23.6057V23.2114H15.9445C15.6154 23.2114 15.4919 23.2011 15.4816 23.1669C15.4748 23.1463 15.4302 22.9851 15.3788 22.8171C15.3274 22.6457 15.2656 22.44 15.2382 22.3543C15.1868 22.1863 14.7925 20.8766 14.6519 20.4C14.6039 20.2389 14.5628 20.0846 14.5594 20.0571C14.5559 20.0126 15.0394 20.0023 18.6531 19.9886L22.7502 19.9714L22.9422 19.8926C23.4805 19.6766 23.8165 19.2926 23.9468 18.7371C24.0016 18.5177 24.0051 17.9349 23.9948 11.4857C23.9845 4.704 23.9811 4.46743 23.9194 4.30286C23.7822 3.94629 23.4599 3.55543 23.1788 3.41143C22.8874 3.26057 22.6885 3.21943 22.1468 3.19886L21.6085 3.17829L21.5948 2.232C21.5811 1.38515 21.5708 1.26514 21.5091 1.09372C21.3102 0.558859 20.9125 0.198858 20.3502 0.0548592C20.1685 0.00685883 19.2565 1.90735e-06 11.9845 0.00343132C4.91821 0.00343132 3.8005 0.0102882 3.63593 0.0548592ZM20.2988 0.860573C20.4874 0.946287 20.6245 1.07314 20.7205 1.25143L20.7959 1.38857L20.8062 8.68114L20.8131 15.9771H21.2074H21.6016L21.6085 9.984L21.6188 3.99429H22.0816C22.3731 3.99771 22.5925 4.01486 22.6748 4.04229C22.8462 4.10057 23.0279 4.26171 23.1205 4.43657L23.1959 4.57714L23.2062 10.6869L23.2131 16.8H12.0016H0.790211L0.797068 10.6869L0.807354 4.57714L0.882783 4.43657C0.975354 4.26171 1.15707 4.10057 1.3285 4.04229C1.41078 4.01486 1.63021 3.99771 1.92164 3.99429H2.3845L2.39478 9.984L2.40164 15.9771H2.79593H3.19021L3.19707 8.68114L3.20735 1.38857L3.28278 1.25143C3.37878 1.07314 3.51593 0.946287 3.7045 0.860573C3.85878 0.788572 3.88278 0.788572 12.0016 0.788572C20.1205 0.788572 20.1445 0.788572 20.2988 0.860573ZM23.2062 18.0343C23.2131 18.2846 23.1994 18.5211 23.1788 18.6C23.1205 18.8023 22.9799 18.9874 22.8051 19.0903L22.6474 19.1829H12.0016H1.35593L1.20164 19.0903C0.879354 18.9017 0.790211 18.6789 0.790211 18.0686C0.790211 17.832 0.800497 17.6229 0.814211 17.6126C0.824497 17.5989 5.86793 17.592 12.0154 17.5954L23.1959 17.6057L23.2062 18.0343ZM13.7194 20.0571C13.7331 20.0846 13.7845 20.2389 13.8325 20.4C13.8771 20.5611 13.9696 20.8697 14.0348 21.0857C14.0999 21.3017 14.1891 21.5966 14.2302 21.7371C14.2714 21.8777 14.3331 22.0869 14.3674 22.2C14.5902 22.9166 14.6656 23.1771 14.6485 23.1943C14.6245 23.2183 9.37879 23.2183 9.35478 23.1943C9.33764 23.1771 9.41307 22.9166 9.63593 22.2C9.67021 22.0869 9.73193 21.8777 9.77307 21.7371C9.88621 21.3497 10.0748 20.7257 10.1708 20.424C10.2154 20.2766 10.2531 20.136 10.2531 20.112C10.2531 19.992 10.3011 19.9886 12.0154 19.9954C13.4656 20.0057 13.6954 20.0126 13.7194 20.0571Z" fill="#D3D5E2"/>
<path d="M4.01172 2.00561V2.40332L4.39915 2.39303L4.78315 2.38275L4.79343 1.99532L4.80372 1.61132H4.406H4.01172V2.00561Z" fill="#D3D5E2"/>
<path d="M5.625 2.00562V2.3999H6.00214H6.37929V2.00562V1.61133H6.00214H5.625V2.00562Z" fill="#D3D5E2"/>
<path d="M7.2095 1.99532L7.21979 2.38275L7.60722 2.39303L7.99122 2.40332V2.00561V1.61132H7.59693H7.19922L7.2095 1.99532Z" fill="#D3D5E2"/>
<path d="M13.7334 1.6561C13.4008 1.76581 13.0888 2.0641 12.9654 2.39324C12.8797 2.61267 12.8694 2.99667 12.9414 3.2881C13.0408 3.68581 13.0442 3.65496 12.9002 3.74067C12.8317 3.78524 12.674 3.88467 12.5505 3.96353C12.3345 4.10067 10.5414 5.2321 9.41339 5.94181C9.11168 6.13038 8.76539 6.34981 8.64196 6.42867C8.08311 6.78867 7.96311 6.85038 7.71282 6.90524C7.47282 6.95667 7.06825 7.04581 6.36197 7.20353C5.67968 7.35438 5.30939 7.50867 4.96311 7.78295C4.03739 8.5201 3.76654 9.81267 4.30825 10.903C4.60997 11.5098 5.29225 12.0344 5.96768 12.175C6.07054 12.1955 6.18025 12.2264 6.21111 12.2435C6.24197 12.2607 6.28654 12.3772 6.32425 12.5384C6.35511 12.6858 6.45111 13.1144 6.53682 13.4915C6.61911 13.8687 6.74254 14.4172 6.80768 14.7121C6.94825 15.3464 6.99282 15.4595 7.12654 15.5418C7.24997 15.6138 7.36654 15.6138 7.61339 15.5521C7.71625 15.5281 7.99396 15.463 8.23054 15.4115C8.99168 15.2435 9.18025 15.1887 9.25911 15.103C9.38939 14.9658 9.37911 14.815 9.19054 13.9887C9.09454 13.5635 8.98825 13.0767 8.95054 12.9087C8.91282 12.7372 8.84425 12.4321 8.79625 12.223C8.74825 12.0172 8.71054 11.8424 8.71054 11.839C8.71054 11.8355 8.76882 11.815 8.84082 11.7978C9.01568 11.7464 9.22825 11.7498 9.64311 11.8081C9.97225 11.8561 10.274 11.8938 11.282 12.0172C11.498 12.0447 11.9265 12.0961 12.2351 12.1372C13.3871 12.2778 13.9185 12.343 14.354 12.3944C15.0294 12.4767 14.9917 12.4561 15.0602 12.7578C15.1391 13.111 15.1734 13.2172 15.2728 13.3852C15.6568 14.0435 16.6065 14.1772 17.1585 13.6527C17.3334 13.4812 17.4534 13.2892 17.5082 13.0801C17.5871 12.7852 17.57 12.5864 17.3917 11.7944C17.2031 10.9681 16.922 9.72353 16.8705 9.4801C16.8362 9.32924 16.6922 8.68124 16.5482 8.0401C16.2534 6.71667 15.8934 5.1121 15.5368 3.52467C15.386 2.83896 15.2625 2.37267 15.2111 2.27324C15.098 2.04696 14.8682 1.8241 14.642 1.72124C14.4157 1.61496 13.9562 1.5841 13.7334 1.6561ZM14.3574 2.46867C14.5322 2.57496 14.4877 2.41724 15.002 4.73153C15.314 6.13724 15.3277 6.19895 15.3791 6.42867C15.4854 6.89495 15.8214 8.39324 15.9448 8.96581C15.9791 9.11667 16.0922 9.63438 16.202 10.1144C16.3117 10.5944 16.4248 11.1121 16.4591 11.263C16.4934 11.4138 16.5757 11.791 16.6477 12.103C16.7814 12.7064 16.7882 12.871 16.6717 13.0252C16.5928 13.1315 16.3802 13.2104 16.25 13.183C16.0271 13.1315 15.9071 12.967 15.8282 12.5967C15.8008 12.4664 15.746 12.2127 15.7048 12.0344C15.6637 11.8561 15.6122 11.6161 15.5848 11.503C15.5608 11.3898 15.4202 10.7658 15.2762 10.1144C15.1288 9.46295 14.9848 8.8081 14.9505 8.65724C14.9162 8.50638 14.8031 7.98867 14.6934 7.50867C14.5837 7.02867 14.4705 6.51095 14.4362 6.3601C14.402 6.20924 14.2888 5.69153 14.1791 5.21153C14.0694 4.73153 13.9528 4.20695 13.9185 4.04581C13.8842 3.88467 13.8157 3.58638 13.7677 3.37724C13.6614 2.9041 13.658 2.73267 13.7574 2.58524C13.802 2.52353 13.8671 2.45838 13.9048 2.43781C14.0214 2.38296 14.2408 2.39667 14.3574 2.46867ZM13.2877 4.81724C13.3802 5.24581 13.5997 6.23324 13.8774 7.47438C13.9254 7.69038 13.994 7.9921 14.0248 8.14295C14.0591 8.29381 14.1722 8.81153 14.282 9.29152C14.4705 10.1247 14.5048 10.2858 14.6728 11.0401C14.7105 11.2184 14.7585 11.4241 14.7757 11.4927C14.7928 11.5612 14.7962 11.6264 14.786 11.6367C14.7757 11.647 14.714 11.647 14.6454 11.6401C14.498 11.6195 12.4477 11.3658 11.3162 11.2287C11.1002 11.2012 10.7368 11.1567 10.5105 11.1292C10.2842 11.1018 9.95168 11.0572 9.77339 11.0367C9.59511 11.0127 9.43054 10.9784 9.40654 10.9578C9.38596 10.9372 9.34482 10.8035 9.31396 10.663C9.28311 10.5224 9.17339 10.0287 9.07054 9.56581C8.96768 9.10295 8.85111 8.58524 8.81339 8.41724C8.77568 8.24581 8.71396 7.97153 8.67625 7.80353C8.63854 7.6321 8.60768 7.46753 8.60768 7.43667C8.60768 7.40238 8.72425 7.30638 8.90939 7.19324C9.34482 6.91553 11.2991 5.68467 12.3105 5.04696C12.7905 4.74181 13.1951 4.50524 13.2054 4.51896C13.2191 4.53267 13.2568 4.66638 13.2877 4.81724ZM7.83968 7.71781C7.86025 7.7521 7.98368 8.2801 8.16196 9.10295C8.19968 9.27095 8.30596 9.75438 8.40196 10.1761C8.49454 10.5978 8.57339 10.9681 8.57339 10.999C8.57339 11.0812 6.85568 11.455 6.49911 11.4515C5.78254 11.4447 5.14825 10.9715 4.90139 10.2584C4.80539 9.9841 4.80539 9.51438 4.90482 9.21953C5.00768 8.91438 5.12082 8.73267 5.34711 8.50638C5.67625 8.1841 5.79625 8.13952 7.13339 7.83438C7.48311 7.75553 7.77796 7.68695 7.79168 7.68353C7.80539 7.68353 7.82596 7.69724 7.83968 7.71781ZM8.01111 12.3464C8.05225 12.5247 8.17225 13.0527 8.27854 13.5258C8.38482 13.9955 8.48082 14.4172 8.49111 14.4584C8.50825 14.5201 8.49454 14.5372 8.41568 14.5578C8.36082 14.5681 8.23396 14.6024 8.13111 14.6264C8.02825 14.6538 7.87054 14.6847 7.78139 14.695L7.61682 14.7155L7.58596 14.5852C7.56882 14.5098 7.52082 14.2972 7.47968 14.1087C7.43854 13.9201 7.36654 13.5944 7.31854 13.3887C7.12654 12.535 7.08882 12.3567 7.08539 12.2744C7.08197 12.1955 7.10254 12.1852 7.35625 12.1304C7.50711 12.0961 7.68539 12.055 7.75054 12.0378C7.81568 12.0207 7.88768 12.0104 7.90482 12.0138C7.92539 12.0207 7.97339 12.1681 8.01111 12.3464Z" fill="#D3D5E2"/>
<path d="M16.7152 2.72899C16.4135 3.03756 16.1598 3.29813 16.153 3.30842C16.1324 3.33242 16.6364 3.83984 16.681 3.83984C16.7015 3.83984 16.9792 3.57927 17.2981 3.25699L17.881 2.67413L17.6238 2.41699C17.4832 2.27642 17.3461 2.15984 17.3152 2.16327C17.2878 2.1667 17.017 2.42042 16.7152 2.72899Z" fill="#D3D5E2"/>
<path d="M18.9107 6.56579C18.6981 6.62408 18.2558 6.72351 17.6935 6.84351C17.457 6.89493 17.2547 6.94636 17.241 6.95665C17.217 6.97722 17.361 7.66636 17.3952 7.70065C17.4021 7.7075 17.5221 7.69036 17.6627 7.6595C17.8032 7.62865 18.0398 7.57722 18.1907 7.54293C18.7701 7.41608 19.4215 7.26522 19.4318 7.25836C19.4352 7.25151 19.4112 7.11779 19.3735 6.95665C19.3358 6.79893 19.2981 6.63436 19.2878 6.58979C19.2672 6.50065 19.1747 6.49379 18.9107 6.56579Z" fill="#D3D5E2"/>
<path d="M18.021 10.7725C17.9353 10.9473 17.8633 11.1085 17.8633 11.1325C17.8633 11.1702 19.1696 11.849 19.3547 11.9108C19.4164 11.9279 19.4473 11.8868 19.5947 11.5885C19.6873 11.3999 19.7559 11.2422 19.7456 11.2353C19.725 11.2182 18.2027 10.457 18.189 10.457C18.1821 10.457 18.1067 10.5976 18.021 10.7725Z" fill="#D3D5E2"/>
</svg>
