<svg width="24" height="22" viewBox="0 0 24 22" fill="none" xmlns="http://www.w3.org/2000/svg">
<path d="M19 0H5C3.67441 0.00158786 2.40356 0.528882 1.46622 1.46622C0.528882 2.40356 0.00158786 3.67441 0 5L0 17C0.00158786 18.3256 0.528882 19.5964 1.46622 20.5338C2.40356 21.4711 3.67441 21.9984 5 22H19C20.3256 21.9984 21.5964 21.4711 22.5338 20.5338C23.4711 19.5964 23.9984 18.3256 24 17V5C23.9984 3.67441 23.4711 2.40356 22.5338 1.46622C21.5964 0.528882 20.3256 0.00158786 19 0ZM5 2H19C19.5988 2.00118 20.1835 2.18151 20.679 2.5178C21.1744 2.85409 21.5579 3.33095 21.78 3.887L14.122 11.546C13.5584 12.1073 12.7954 12.4225 12 12.4225C11.2046 12.4225 10.4416 12.1073 9.878 11.546L2.22 3.887C2.44215 3.33095 2.82561 2.85409 3.32105 2.5178C3.81648 2.18151 4.40121 2.00118 5 2ZM19 20H5C4.20435 20 3.44129 19.6839 2.87868 19.1213C2.31607 18.5587 2 17.7956 2 17V6.5L8.464 12.96C9.40263 13.8963 10.6743 14.422 12 14.422C13.3257 14.422 14.5974 13.8963 15.536 12.96L22 6.5V17C22 17.7956 21.6839 18.5587 21.1213 19.1213C20.5587 19.6839 19.7956 20 19 20Z" fill="#063468"/>
</svg>
