<svg width="104" height="104" viewBox="0 0 104 104" fill="none" xmlns="http://www.w3.org/2000/svg">
<g filter="url(#filter0_f_3724_11817)">
<path fill-rule="evenodd" clip-rule="evenodd" d="M16.8913 20.705C15.9627 23.521 15.4536 26.5285 15.4384 29.6538L15.2894 60.1991C15.2113 76.2152 28.1316 89.2621 44.1476 89.3402L74.6929 89.4892C77.5186 89.503 80.2519 89.1122 82.8379 88.3711C85.2133 84.1649 86.5688 79.3064 86.5688 74.1313V46.5742C86.5688 30.558 73.5851 17.5742 57.5688 17.5742H30.0117C25.2897 17.5742 20.8312 18.7028 16.8913 20.705Z" fill="#36C1FE"/>
</g>
<path fill-rule="evenodd" clip-rule="evenodd" d="M29.5921 -0.00152637C21.3079 -0.0419329 14.5595 6.64096 14.5191 14.9251L14.4847 21.9714C18.9728 19.1221 24.297 17.472 30.0067 17.472H57.5638C73.58 17.472 86.5638 30.4558 86.5638 46.472V74.0291C86.5638 79.4249 85.0902 84.4765 82.5234 88.8034L87.7052 88.8286C95.9893 88.869 102.738 82.1861 102.778 73.902L103.064 15.357C103.104 7.07284 96.4212 0.324437 88.137 0.28403L29.5921 -0.00152637Z" fill="#00B2FF"/>
<g filter="url(#filter1_b_3724_11817)">
<rect x="1" y="17.5742" width="85.5571" height="85.5571" rx="15" fill="url(#paint0_linear_3724_11817)" fill-opacity="0.37"/>
<rect x="1" y="17.5742" width="85.5571" height="85.5571" rx="15" stroke="url(#paint1_linear_3724_11817)" stroke-width="1.5"/>
</g>
<path d="M56.1901 62.9206L57.1792 63.6701C57.3945 63.8326 57.6557 63.9217 57.9246 63.9243C58.1935 63.9269 58.4558 63.8429 58.6732 63.6846L60.4787 62.3647C60.697 62.2045 60.858 61.9776 60.9376 61.7178C61.0173 61.4579 61.0114 61.1789 60.9208 60.9221L60.5599 59.9039C60.4992 59.7329 60.4757 59.5509 60.4911 59.3701C60.5064 59.1894 60.5602 59.0143 60.6489 58.8566L61.1975 57.8863C61.2937 57.7164 61.4279 57.5713 61.5896 57.4626C61.7512 57.3539 61.9359 57.2845 62.129 57.2598L63.2436 57.1187C63.5079 57.0849 63.7545 56.9677 63.9477 56.7838C64.141 56.5999 64.2711 56.3588 64.3191 56.0954L64.7078 53.9414C64.7564 53.6698 64.7153 53.3895 64.5907 53.143C64.4662 52.8966 64.265 52.6976 64.0179 52.5765L62.9819 52.0736C62.8207 51.9948 62.6779 51.8825 62.5631 51.744C62.4483 51.6056 62.3641 51.4442 62.3161 51.2706L61.9941 50.0999C61.9435 49.9144 61.9356 49.7199 61.971 49.5311C62.0063 49.3423 62.084 49.1643 62.1981 49.0104L62.9785 47.958C63.1406 47.7374 63.2268 47.4695 63.224 47.1948C63.2211 46.9201 63.1295 46.6535 62.9628 46.4352L61.7152 44.793C61.5596 44.589 61.3462 44.4371 61.1031 44.3576C60.8601 44.2781 60.599 44.2747 60.3546 44.3479L59.1363 44.7145C58.9662 44.7653 58.7872 44.7793 58.6111 44.7555C58.435 44.7318 58.2658 44.6708 58.1146 44.5767L57.0947 43.9381C56.9255 43.8326 56.7835 43.6884 56.6802 43.5174C56.5769 43.3463 56.5153 43.1532 56.5004 42.9539L56.4307 41.9843C56.4096 41.709 56.2994 41.4478 56.1172 41.2408C55.9349 41.0337 55.6904 40.892 55.4211 40.8373L53.4185 40.4349C53.153 40.3824 52.8781 40.4172 52.6343 40.5341C52.3906 40.651 52.1911 40.8439 52.0653 41.0842L51.5133 42.142C51.4333 42.2951 51.3229 42.4299 51.1888 42.5381C51.0548 42.6464 50.9 42.7257 50.734 42.7713L49.3111 43.1627C49.1253 43.2135 48.9302 43.2208 48.7409 43.1839C48.5515 43.1469 48.373 43.0668 48.2191 42.9496L47.3171 42.2602C47.1002 42.0948 46.8362 42.0042 46.5644 42.0021C46.2926 41.9999 46.0278 42.0862 45.8094 42.2482L44.016 43.5884C43.7877 43.7592 43.624 44.003 43.5519 44.28C43.4797 44.557 43.5032 44.8508 43.6186 45.1132L43.9713 45.9209C44.0542 46.1087 44.0905 46.3139 44.077 46.5187C44.0636 46.7235 44.0008 46.9217 43.894 47.0963L43.2937 48.073C43.196 48.2313 43.0647 48.3658 42.9092 48.4669C42.7536 48.5681 42.5776 48.6333 42.3938 48.6579L41.1604 48.8226C40.8877 48.8597 40.6349 48.9858 40.4408 49.1815C40.2467 49.3772 40.122 49.6317 40.0858 49.906L39.8162 51.8907C39.782 52.1472 39.827 52.4083 39.945 52.6389C40.063 52.8694 40.2484 53.0582 40.4761 53.1798L41.6603 53.8087C41.812 53.8895 41.9458 54.0006 42.0535 54.1351C42.1612 54.2697 42.2405 54.4248 42.2865 54.5911L42.6166 55.791C42.6675 55.9766 42.6757 56.1712 42.6406 56.3601C42.6056 56.5491 42.5281 56.7273 42.4141 56.8814L41.5917 57.99C41.4391 58.197 41.3532 58.4461 41.3456 58.704C41.3379 58.962 41.4089 59.2163 41.549 59.433L42.5963 61.0397C42.7426 61.2632 42.9554 61.4346 43.2041 61.5294C43.4529 61.6243 43.7248 61.6376 43.981 61.5675L45.4827 61.1544C45.6498 61.1087 45.8246 61.0981 45.9961 61.1235C46.1677 61.1488 46.3323 61.2095 46.4796 61.3017L47.4274 61.9011C47.5769 61.9934 47.7057 62.1159 47.8056 62.261C47.9055 62.406 47.9742 62.5703 48.0074 62.7434L48.2696 64.1708C48.3188 64.4311 48.4478 64.6695 48.6386 64.8526C48.8294 65.0357 49.0723 65.1542 49.3331 65.1914L51.3267 65.4755C51.5895 65.5118 51.8567 65.4638 52.0903 65.3382C52.3238 65.2127 52.5116 65.0161 52.6271 64.7764L53.1443 63.6966C53.222 63.5348 53.3333 63.3916 53.4707 63.2766C53.608 63.1616 53.7683 63.0775 53.9407 63.0298L55.1016 62.7105C55.2867 62.6598 55.481 62.6523 55.6697 62.6887C55.8583 62.7251 56.0364 62.8044 56.1901 62.9206V62.9206Z" fill="url(#paint2_linear_3724_11817)"/>
<path d="M52.271 58.839C55.523 58.839 58.1593 56.2027 58.1593 52.9507C58.1593 49.6988 55.523 47.0625 52.271 47.0625C49.0191 47.0625 46.3828 49.6988 46.3828 52.9507C46.3828 56.2027 49.0191 58.839 52.271 58.839Z" fill="#BCEBFF"/>
<path d="M50.019 77.6424L50.2971 78.5213C50.3579 78.7123 50.4781 78.8784 50.64 78.9954C50.8019 79.1123 50.9971 79.1739 51.1968 79.1712L52.858 79.1457C53.0592 79.1422 53.2541 79.0738 53.4139 78.9504C53.5737 78.827 53.6899 78.6552 53.7452 78.4607L53.9633 77.6884C53.9999 77.5586 54.0637 77.4382 54.1506 77.3352C54.2375 77.2322 54.3453 77.1491 54.4667 77.0915L55.2157 76.7386C55.347 76.6769 55.4906 76.6465 55.6353 76.65C55.78 76.6534 55.9217 76.6905 56.0494 76.7585L56.7858 77.1512C56.9606 77.2442 57.1604 77.2789 57.3565 77.2503C57.5526 77.2217 57.7349 77.1314 57.8771 76.9922L59.0372 75.8529C59.1832 75.7091 59.2785 75.5215 59.3087 75.3186C59.339 75.1157 59.3024 74.9087 59.2046 74.7292L58.7922 73.9797C58.7282 73.8628 58.6898 73.7334 58.6796 73.6002C58.6694 73.4669 58.6876 73.3329 58.7331 73.2071L59.0402 72.3591C59.0891 72.2249 59.1678 72.1035 59.2702 72.0042C59.3727 71.9049 59.4962 71.8303 59.6314 71.7859L60.5562 71.4827C60.7492 71.4185 60.9164 71.2931 61.0326 71.1253C61.1488 70.9575 61.2076 70.7565 61.2002 70.5526L61.1484 69.0214C61.1417 68.8309 61.0774 68.6473 60.9641 68.4948C60.8509 68.3423 60.694 68.2282 60.5144 68.1676L59.6183 67.8671C59.4934 67.8249 59.3789 67.7566 59.2823 67.6666C59.1857 67.5766 59.1092 67.4671 59.0579 67.3451L58.7136 66.5202C58.6563 66.3837 58.632 66.2353 58.6428 66.0872C58.6536 65.9392 58.6991 65.7957 58.7756 65.6684L59.1494 65.0506C59.2547 64.8745 59.3 64.669 59.2783 64.4652C59.2567 64.2614 59.1692 64.0706 59.0294 63.9218L57.9878 62.8184C57.8493 62.6726 57.6677 62.5757 57.4697 62.5421C57.2717 62.5084 57.068 62.5397 56.8886 62.6314L56.1 63.036C55.9858 63.0945 55.861 63.1288 55.7332 63.1369C55.6055 63.145 55.4775 63.1267 55.3573 63.0831L54.3266 62.7098C54.1921 62.6609 54.0707 62.5816 53.9717 62.478C53.8728 62.3743 53.7989 62.2491 53.7559 62.112L53.5048 61.3069C53.4443 61.1135 53.323 60.9453 53.1592 60.8274C52.9953 60.7094 52.7976 60.6481 52.5957 60.6526L50.9331 60.6957C50.7214 60.7013 50.5175 60.7789 50.3549 60.9159C50.1923 61.0529 50.0805 61.2411 50.0378 61.4497L49.9051 62.0908C49.8747 62.2403 49.8087 62.3803 49.7127 62.4987C49.6166 62.6171 49.4935 62.7103 49.3538 62.7704L48.5707 63.105C48.4435 63.1591 48.3062 63.1843 48.1685 63.1789C48.0307 63.1734 47.896 63.1375 47.774 63.0735L46.9554 62.6441C46.7741 62.5496 46.5667 62.5176 46.3651 62.5529C46.1634 62.5883 45.9786 62.6891 45.8389 62.8399L44.8237 63.9276C44.6929 64.0685 44.6081 64.2461 44.5808 64.4366C44.5534 64.627 44.5848 64.821 44.6707 64.9925L45.1188 65.882C45.1762 65.9961 45.2097 66.1209 45.2172 66.2487C45.2248 66.3765 45.2063 66.5046 45.1628 66.6251L44.848 67.4944C44.7993 67.6288 44.7207 67.7503 44.6184 67.8498C44.516 67.9493 44.3926 68.0242 44.2573 68.0687L43.2829 68.388C43.1016 68.448 42.9426 68.5622 42.8272 68.7153C42.7119 68.8684 42.6458 69.0531 42.6377 69.2446L42.5833 70.6683C42.5762 70.8667 42.6316 71.0619 42.7417 71.2261C42.8519 71.3904 43.0111 71.5151 43.1965 71.5826L44.2843 71.9765C44.4053 72.0205 44.5158 72.0891 44.6089 72.1781C44.7021 72.2671 44.7758 72.3745 44.8256 72.4937L45.1431 73.2638C45.1942 73.3839 45.2197 73.5136 45.218 73.6444C45.2163 73.7752 45.1875 73.9043 45.1333 74.0235L44.6797 75.0015C44.5979 75.1805 44.5738 75.3804 44.611 75.5733C44.6481 75.7662 44.7445 75.9423 44.8867 76.0768L45.9736 77.1046C46.1174 77.2394 46.3001 77.3249 46.4955 77.349C46.691 77.3731 46.8893 77.3345 47.0621 77.2387L47.8391 76.8059C47.9557 76.7411 48.0846 76.702 48.2173 76.6912C48.3499 76.6805 48.4832 76.6982 48.6082 76.7433L49.4491 77.0479C49.5831 77.0965 49.7042 77.1754 49.8029 77.2785C49.9017 77.3815 49.9756 77.506 50.019 77.6424V77.6424Z" fill="white"/>
<path d="M48.9802 68.3724C47.9281 70.1947 48.5525 72.5249 50.3748 73.577C52.1971 74.6291 54.5272 74.0047 55.5794 72.1824C56.6315 70.3601 56.0071 68.0299 54.1848 66.9778C52.3625 65.9257 50.0323 66.5501 48.9802 68.3724Z" fill="#BCEBFF"/>
<path d="M37.7868 76.3379L38.7573 77.6043C38.9688 77.8792 39.2623 78.0788 39.5947 78.1737C39.9271 78.2686 40.281 78.2539 40.6045 78.1317L43.2928 77.1111C43.618 76.987 43.8949 76.7606 44.0823 76.4656C44.2696 76.1707 44.3575 75.8227 44.3328 75.4735L44.2325 74.0883C44.2156 73.8555 44.2485 73.6219 44.3292 73.4031C44.4098 73.1843 44.5363 72.9855 44.7 72.8202L45.7109 71.8045C45.8882 71.6266 46.104 71.4926 46.3414 71.413C46.5789 71.3333 46.8315 71.3102 47.0793 71.3454L48.5092 71.5506C48.8483 71.5989 49.194 71.5376 49.4963 71.3755C49.7986 71.2134 50.042 70.959 50.1914 70.6488L51.4077 68.111C51.5605 67.791 51.6051 67.4294 51.5348 67.0814C51.4644 66.7335 51.2829 66.4182 51.0179 66.1837L49.9051 65.2071C49.732 65.0545 49.5933 64.8665 49.4982 64.6557C49.4031 64.4449 49.3538 64.2161 49.3535 63.9846V62.4235C49.3541 62.1763 49.4106 61.9325 49.5188 61.7105C49.627 61.4885 49.784 61.2943 49.9779 61.1425L51.3042 60.1039C51.5804 59.8858 51.7786 59.583 51.8687 59.2415C51.9589 58.9 51.9362 58.5382 51.804 58.2108L50.8173 55.7496C50.6941 55.4436 50.4812 55.1826 50.207 55.0011C49.9329 54.8197 49.6104 54.7265 49.2823 54.7339L47.6471 54.7729C47.4189 54.7779 47.1922 54.7342 46.982 54.6447C46.7718 54.5552 46.5828 54.4219 46.4275 54.2537L45.3809 53.1142C45.2072 52.9258 45.0803 52.6987 45.0106 52.4514C44.9408 52.2041 44.9303 51.9437 44.9798 51.6915L45.224 50.4658C45.2917 50.1173 45.2442 49.756 45.0889 49.4371C44.9335 49.1183 44.6788 48.8593 44.3635 48.6997L42.0182 47.5179C41.707 47.3623 41.3543 47.3116 41.0122 47.3735C40.6702 47.4354 40.3571 47.6064 40.1192 47.8614L39.0743 48.9845C38.9229 49.147 38.74 49.2765 38.5369 49.365C38.3338 49.4534 38.1149 49.499 37.8935 49.4989H35.9962C35.7485 49.4986 35.5042 49.4411 35.2821 49.3307C35.06 49.2204 34.866 49.0602 34.7152 48.8624L33.832 47.7002C33.6196 47.4212 33.3231 47.2189 32.987 47.1236C32.6508 47.0282 32.293 47.0449 31.967 47.1712L29.2869 48.2211C28.9456 48.355 28.6596 48.6015 28.4756 48.9203C28.2917 49.239 28.2207 49.6112 28.2743 49.9758L28.436 51.0974C28.4748 51.3585 28.4498 51.6252 28.3633 51.8745C28.2768 52.1238 28.1314 52.3481 27.9395 52.5282L26.8622 53.5342C26.6872 53.6971 26.4786 53.8192 26.2512 53.8915C26.0239 53.9638 25.7835 53.9847 25.5472 53.9525L23.9621 53.736C23.6113 53.6891 23.255 53.7593 22.9476 53.9357C22.6403 54.1121 22.3989 54.385 22.2604 54.7127L21.2495 57.0811C21.1197 57.3875 21.0864 57.7266 21.1541 58.0526C21.2217 58.3786 21.3872 58.6758 21.628 58.9043L22.8816 60.0877C23.0421 60.2396 23.1701 60.4229 23.2578 60.6264C23.3454 60.8299 23.3907 61.0493 23.3911 61.2711V62.8712C23.3909 63.1186 23.3348 63.3626 23.2269 63.5849C23.119 63.8072 22.9622 64.0018 22.7683 64.1539L21.3708 65.2478C21.111 65.4523 20.9196 65.7319 20.8222 66.049C20.7247 66.3661 20.726 66.7056 20.8257 67.022L21.5762 69.3709C21.6814 69.6979 21.8867 69.983 22.1628 70.1853C22.4388 70.3877 22.7714 70.4969 23.1129 70.4974H25.1153C25.3381 70.4976 25.5583 70.5442 25.7623 70.6341C25.9664 70.724 26.1497 70.8553 26.301 71.0199L27.2715 72.0861C27.4254 72.2515 27.5433 72.4474 27.6176 72.6612C27.692 72.8751 27.7212 73.1022 27.7033 73.3281L27.5416 75.187C27.5138 75.5264 27.5925 75.866 27.7666 76.158C27.9407 76.45 28.2014 76.6798 28.5121 76.8148L30.8866 77.8468C31.2 77.9814 31.5476 78.013 31.8799 77.937C32.2122 77.861 32.5122 77.6813 32.737 77.4236L33.7463 76.2614C33.8979 76.0872 34.0847 75.9476 34.2941 75.8519C34.5036 75.7562 34.731 75.7066 34.961 75.7063H36.509C36.7557 75.7065 36.9992 75.7635 37.2206 75.873C37.4421 75.9825 37.6358 76.1415 37.7868 76.3379V76.3379Z" fill="url(#paint3_linear_3724_11817)"/>
<path d="M36.9787 69.5315C40.9364 69.5315 44.1448 66.3231 44.1448 62.3654C44.1448 58.4076 40.9364 55.1992 36.9787 55.1992C33.0209 55.1992 29.8125 58.4076 29.8125 62.3654C29.8125 66.3231 33.0209 69.5315 36.9787 69.5315Z" fill="#BCEBFF"/>
<defs>
<filter id="filter0_f_3724_11817" x="10.2891" y="12.5742" width="81.2812" height="81.9141" filterUnits="userSpaceOnUse" color-interpolation-filters="sRGB">
<feFlood flood-opacity="0" result="BackgroundImageFix"/>
<feBlend mode="normal" in="SourceGraphic" in2="BackgroundImageFix" result="shape"/>
<feGaussianBlur stdDeviation="2.5" result="effect1_foregroundBlur_3724_11817"/>
</filter>
<filter id="filter1_b_3724_11817" x="-6.75" y="9.82422" width="101.055" height="101.059" filterUnits="userSpaceOnUse" color-interpolation-filters="sRGB">
<feFlood flood-opacity="0" result="BackgroundImageFix"/>
<feGaussianBlur in="BackgroundImage" stdDeviation="3.5"/>
<feComposite in2="SourceAlpha" operator="in" result="effect1_backgroundBlur_3724_11817"/>
<feBlend mode="normal" in="SourceGraphic" in2="effect1_backgroundBlur_3724_11817" result="shape"/>
</filter>
<linearGradient id="paint0_linear_3724_11817" x1="86.5571" y1="17.5765" x2="0.999997" y2="107.521" gradientUnits="userSpaceOnUse">
<stop offset="0.14101" stop-color="#25BEFF"/>
<stop offset="0.630007" stop-color="#98E0FF" stop-opacity="0.527239"/>
<stop offset="1" stop-color="#D9F4FF" stop-opacity="0"/>
</linearGradient>
<linearGradient id="paint1_linear_3724_11817" x1="78.5133" y1="21.1296" x2="-10.7001" y2="108.515" gradientUnits="userSpaceOnUse">
<stop offset="0.189653" stop-color="white"/>
<stop offset="1" stop-color="#00B2FF"/>
</linearGradient>
<linearGradient id="paint2_linear_3724_11817" x1="64.3916" y1="62.9887" x2="40.1459" y2="42.2067" gradientUnits="userSpaceOnUse">
<stop stop-color="#D7F3FF"/>
<stop offset="0.32557" stop-color="white"/>
</linearGradient>
<linearGradient id="paint3_linear_3724_11817" x1="72.3586" y1="50.5258" x2="16.94" y2="64.7268" gradientUnits="userSpaceOnUse">
<stop offset="0.0513499" stop-color="#D7F3FF"/>
<stop offset="0.548666" stop-color="white"/>
</linearGradient>
</defs>
</svg>
