<svg width="104" height="105" viewBox="0 0 104 105" fill="none" xmlns="http://www.w3.org/2000/svg">
<g filter="url(#filter0_f_3724_11816)">
<path fill-rule="evenodd" clip-rule="evenodd" d="M16.9799 20.8097C16.0718 23.5972 15.5744 26.5709 15.5593 29.6597L15.4066 60.9749C15.3285 76.9909 28.2488 90.0379 44.2648 90.116L75.58 90.2687C78.3696 90.2823 81.0692 89.9016 83.6258 89.1788C85.9704 84.9931 87.307 80.1664 87.307 75.0276V46.7266C87.307 30.7103 74.3233 17.7266 58.307 17.7266H30.006C25.3216 17.7266 20.8966 18.8373 16.9799 20.8097Z" fill="#36C1FE"/>
</g>
<path fill-rule="evenodd" clip-rule="evenodd" d="M29.7136 -0.00152636C21.4294 -0.0419329 14.681 6.64098 14.6406 14.9252L14.6058 22.051C19.069 19.2476 24.3499 17.6264 30.0095 17.6264H58.3105C74.3267 17.6264 87.3105 30.6101 87.3105 46.6264V74.9273C87.3105 80.2713 85.865 85.2776 83.3438 89.5767L88.5928 89.6023C96.877 89.6427 103.625 82.9598 103.666 74.6756L103.955 15.3608C103.995 7.0766 97.3126 0.328192 89.0284 0.287785L29.7136 -0.00152636Z" fill="#00B2FF"/>
<g filter="url(#filter1_b_3724_11816)">
<rect x="1" y="17.7305" width="86.301" height="86.301" rx="15" fill="url(#paint0_linear_3724_11816)" fill-opacity="0.37"/>
<rect x="1" y="17.7305" width="86.301" height="86.301" rx="15" stroke="url(#paint1_linear_3724_11816)" stroke-width="1.5"/>
</g>
<circle cx="62.4088" cy="56.1119" r="3.55722" fill="white"/>
<circle cx="25.6666" cy="56.1119" r="3.55722" fill="white"/>
<circle cx="44.1588" cy="52.276" r="3.55722" fill="white"/>
<path d="M62.5678 61.5039C59.7271 61.5039 57.3833 64.5768 57.0426 68.5469C56.9954 69.0971 57.4477 69.5463 58 69.5463H67.1356C67.6879 69.5463 68.1403 69.0971 68.0931 68.5469C67.7524 64.5768 65.4085 61.5039 62.5678 61.5039Z" fill="white" stroke="white" stroke-width="3" stroke-linecap="round"/>
<path d="M25.7553 61.5039C22.9146 61.5039 20.5708 64.5768 20.2301 68.5469C20.1829 69.0971 20.6352 69.5463 21.1875 69.5463H30.3231C30.8754 69.5463 31.3278 69.0971 31.2806 68.5469C30.9399 64.5768 28.596 61.5039 25.7553 61.5039Z" fill="white" stroke="white" stroke-width="3" stroke-linecap="round"/>
<path d="M44.1603 57.8867C45.1136 57.8867 46.123 58.3767 46.9767 59.3616H41.344C42.1977 58.3767 43.2071 57.8867 44.1603 57.8867Z" fill="white" stroke="white" stroke-width="3" stroke-linecap="round"/>
<ellipse cx="44.1607" cy="65.8475" rx="10.981" ry="5.72248" fill="#BCEBFF"/>
<defs>
<filter id="filter0_f_3724_11816" x="10.4062" y="12.7266" width="81.8984" height="82.543" filterUnits="userSpaceOnUse" color-interpolation-filters="sRGB">
<feFlood flood-opacity="0" result="BackgroundImageFix"/>
<feBlend mode="normal" in="SourceGraphic" in2="BackgroundImageFix" result="shape"/>
<feGaussianBlur stdDeviation="2.5" result="effect1_foregroundBlur_3724_11816"/>
</filter>
<filter id="filter1_b_3724_11816" x="-6.75" y="9.98047" width="101.805" height="101.801" filterUnits="userSpaceOnUse" color-interpolation-filters="sRGB">
<feFlood flood-opacity="0" result="BackgroundImageFix"/>
<feGaussianBlur in="BackgroundImage" stdDeviation="3.5"/>
<feComposite in2="SourceAlpha" operator="in" result="effect1_backgroundBlur_3724_11816"/>
<feBlend mode="normal" in="SourceGraphic" in2="effect1_backgroundBlur_3724_11816" result="shape"/>
</filter>
<linearGradient id="paint0_linear_3724_11816" x1="87.301" y1="17.7328" x2="0.999997" y2="108.459" gradientUnits="userSpaceOnUse">
<stop offset="0.14101" stop-color="#25BEFF"/>
<stop offset="0.630007" stop-color="#98E0FF" stop-opacity="0.527239"/>
<stop offset="1" stop-color="#D9F4FF" stop-opacity="0"/>
</linearGradient>
<linearGradient id="paint1_linear_3724_11816" x1="79.1872" y1="21.3168" x2="-10.8018" y2="109.462" gradientUnits="userSpaceOnUse">
<stop offset="0.189653" stop-color="white"/>
<stop offset="1" stop-color="#00B2FF"/>
</linearGradient>
</defs>
</svg>
