<svg width="16" height="18" viewBox="0 0 16 18" fill="none" xmlns="http://www.w3.org/2000/svg">
<path d="M13.9618 4.15202L11.3488 1.53752C10.8622 1.04862 10.2836 0.661015 9.64642 0.397112C9.00919 0.133208 8.32596 -0.00175791 7.63625 1.72865e-05H4.25C3.2558 0.00120818 2.30267 0.396679 1.59966 1.09968C0.896661 1.80269 0.501191 2.75582 0.5 3.75002V14.25C0.501191 15.2442 0.896661 16.1973 1.59966 16.9004C2.30267 17.6034 3.2558 17.9988 4.25 18H11.75C12.7442 17.9988 13.6973 17.6034 14.4003 16.9004C15.1033 16.1973 15.4988 15.2442 15.5 14.25V7.86377C15.5019 7.17408 15.3669 6.49089 15.1028 5.85375C14.8388 5.21661 14.4509 4.6382 13.9618 4.15202ZM12.9012 5.21252C13.1303 5.44813 13.3272 5.71291 13.487 6.00002H10.25C10.0511 6.00002 9.86032 5.921 9.71967 5.78035C9.57902 5.63969 9.5 5.44893 9.5 5.25002V2.01302C9.7872 2.17271 10.0522 2.36939 10.2882 2.59802L12.9012 5.21252ZM14 14.25C14 14.8468 13.7629 15.4191 13.341 15.841C12.919 16.263 12.3467 16.5 11.75 16.5H4.25C3.65326 16.5 3.08097 16.263 2.65901 15.841C2.23705 15.4191 2 14.8468 2 14.25V3.75002C2 3.15328 2.23705 2.58098 2.65901 2.15903C3.08097 1.73707 3.65326 1.50002 4.25 1.50002H7.63625C7.75925 1.50002 7.8785 1.52402 8 1.53527V5.25002C8 5.84675 8.23705 6.41905 8.65901 6.84101C9.08097 7.26296 9.65326 7.50002 10.25 7.50002H13.9647C13.976 7.62152 14 7.74002 14 7.86377V14.25Z" fill="#002145"/>
</svg>
