<svg width="25" height="25" viewBox="0 0 25 25" fill="none" xmlns="http://www.w3.org/2000/svg">
<path d="M1.38617 13.5813H9.37508C10.1074 13.5813 10.7066 12.9742 10.7066 12.2321V1.43899C10.7066 0.696958 10.1074 0.0898438 9.37508 0.0898438H1.38617C0.653855 0.0898438 0.0546875 0.696958 0.0546875 1.43899V12.2321C0.0546875 12.9742 0.653855 13.5813 1.38617 13.5813ZM1.38617 24.3744H9.37508C10.1074 24.3744 10.7066 23.7673 10.7066 23.0253V17.6287C10.7066 16.8867 10.1074 16.2796 9.37508 16.2796H1.38617C0.653855 16.2796 0.0546875 16.8867 0.0546875 17.6287V23.0253C0.0546875 23.7673 0.653855 24.3744 1.38617 24.3744ZM14.701 24.3744H22.6899C23.4222 24.3744 24.0214 23.7673 24.0214 23.0253V12.2321C24.0214 11.4901 23.4222 10.883 22.6899 10.883H14.701C13.9687 10.883 13.3695 11.4901 13.3695 12.2321V23.0253C13.3695 23.7673 13.9687 24.3744 14.701 24.3744ZM13.3695 1.43899V6.83556C13.3695 7.57759 13.9687 8.1847 14.701 8.1847H22.6899C23.4222 8.1847 24.0214 7.57759 24.0214 6.83556V1.43899C24.0214 0.696958 23.4222 0.0898438 22.6899 0.0898438H14.701C13.9687 0.0898438 13.3695 0.696958 13.3695 1.43899Z" fill="#002145"/>
</svg>
