<svg width="19" height="14" viewBox="0 0 19 14" fill="none" xmlns="http://www.w3.org/2000/svg">
<path d="M14 13.75C13.7833 13.75 13.604 13.6793 13.462 13.538C13.3207 13.396 13.25 13.2167 13.25 13V9.75H10C9.78333 9.75 9.60433 9.679 9.463 9.537C9.321 9.39567 9.25 9.21667 9.25 9C9.25 8.78333 9.321 8.604 9.463 8.462C9.60433 8.32067 9.78333 8.25 10 8.25H13.25V5C13.25 4.78333 13.3207 4.604 13.462 4.462C13.604 4.32067 13.7833 4.25 14 4.25C14.2167 4.25 14.396 4.32067 14.538 4.462C14.6793 4.604 14.75 4.78333 14.75 5V8.25H18C18.2167 8.25 18.396 8.32067 18.538 8.462C18.6793 8.604 18.75 8.78333 18.75 9C18.75 9.21667 18.6793 9.39567 18.538 9.537C18.396 9.679 18.2167 9.75 18 9.75H14.75V13C14.75 13.2167 14.6793 13.396 14.538 13.538C14.396 13.6793 14.2167 13.75 14 13.75ZM1 9.75C0.783333 9.75 0.604333 9.679 0.463 9.537C0.321 9.39567 0.25 9.21667 0.25 9C0.25 8.78333 0.321 8.604 0.463 8.462C0.604333 8.32067 0.783333 8.25 1 8.25H6.5C6.71667 8.25 6.896 8.32067 7.038 8.462C7.17933 8.604 7.25 8.78333 7.25 9C7.25 9.21667 7.17933 9.39567 7.038 9.537C6.896 9.679 6.71667 9.75 6.5 9.75H1ZM1 5.75C0.783333 5.75 0.604333 5.679 0.463 5.537C0.321 5.39567 0.25 5.21667 0.25 5C0.25 4.78333 0.321 4.604 0.463 4.462C0.604333 4.32067 0.783333 4.25 1 4.25H10.5C10.7167 4.25 10.896 4.32067 11.038 4.462C11.1793 4.604 11.25 4.78333 11.25 5C11.25 5.21667 11.1793 5.39567 11.038 5.537C10.896 5.679 10.7167 5.75 10.5 5.75H1ZM1 1.75C0.783333 1.75 0.604333 1.679 0.463 1.537C0.321 1.39567 0.25 1.21667 0.25 1C0.25 0.783333 0.321 0.604333 0.463 0.463C0.604333 0.321 0.783333 0.25 1 0.25H10.5C10.7167 0.25 10.896 0.321 11.038 0.463C11.1793 0.604333 11.25 0.783333 11.25 1C11.25 1.21667 11.1793 1.39567 11.038 1.537C10.896 1.679 10.7167 1.75 10.5 1.75H1Z" fill="white"/>
</svg>
