<svg width="38" height="38" viewBox="0 0 38 38" fill="none" xmlns="http://www.w3.org/2000/svg">
<path d="M19 37.5625C18.4042 37.5625 17.9119 37.3682 17.5233 36.9795C17.1328 36.589 16.9375 36.0958 16.9375 35.5V21.0625H2.5C1.90417 21.0625 1.41192 20.8672 1.02325 20.4767C0.632749 20.0881 0.4375 19.5958 0.4375 19C0.4375 18.4042 0.632749 17.911 1.02325 17.5205C1.41192 17.1318 1.90417 16.9375 2.5 16.9375H16.9375V2.5C16.9375 1.90417 17.1328 1.41192 17.5233 1.02325C17.9119 0.632749 18.4042 0.4375 19 0.4375C19.5958 0.4375 20.089 0.632749 20.4795 1.02325C20.8682 1.41192 21.0625 1.90417 21.0625 2.5V16.9375H35.5C36.0958 16.9375 36.589 17.1318 36.9795 17.5205C37.3682 17.911 37.5625 18.4042 37.5625 19C37.5625 19.5958 37.3682 20.0881 36.9795 20.4767C36.589 20.8672 36.0958 21.0625 35.5 21.0625H21.0625V35.5C21.0625 36.0958 20.8682 36.589 20.4795 36.9795C20.089 37.3682 19.5958 37.5625 19 37.5625Z" fill="#D9D9D9"/>
</svg>
