<svg width="18" height="18" viewBox="0 0 18 18" fill="none" xmlns="http://www.w3.org/2000/svg">
<path d="M14.25 0.75H3.75C2.7558 0.751191 1.80267 1.14666 1.09966 1.84966C0.396661 2.55267 0.00119089 3.5058 0 4.5L0 10.5C0.00119089 11.4942 0.396661 12.4473 1.09966 13.1503C1.80267 13.8533 2.7558 14.2488 3.75 14.25H8.25V15.75H5.25C5.05109 15.75 4.86032 15.829 4.71967 15.9697C4.57902 16.1103 4.5 16.3011 4.5 16.5C4.5 16.6989 4.57902 16.8897 4.71967 17.0303C4.86032 17.171 5.05109 17.25 5.25 17.25H12.75C12.9489 17.25 13.1397 17.171 13.2803 17.0303C13.421 16.8897 13.5 16.6989 13.5 16.5C13.5 16.3011 13.421 16.1103 13.2803 15.9697C13.1397 15.829 12.9489 15.75 12.75 15.75H9.75V14.25H14.25C15.2442 14.2488 16.1973 13.8533 16.9003 13.1503C17.6033 12.4473 17.9988 11.4942 18 10.5V4.5C17.9988 3.5058 17.6033 2.55267 16.9003 1.84966C16.1973 1.14666 15.2442 0.751191 14.25 0.75ZM16.5 10.5C16.5 11.0967 16.2629 11.669 15.841 12.091C15.419 12.5129 14.8467 12.75 14.25 12.75H3.75C3.15326 12.75 2.58097 12.5129 2.15901 12.091C1.73705 11.669 1.5 11.0967 1.5 10.5V4.5C1.5 3.90326 1.73705 3.33097 2.15901 2.90901C2.58097 2.48705 3.15326 2.25 3.75 2.25H14.25C14.8467 2.25 15.419 2.48705 15.841 2.90901C16.2629 3.33097 16.5 3.90326 16.5 4.5V10.5ZM15 7.5C15 7.69891 14.921 7.88968 14.7803 8.03033C14.6397 8.17098 14.4489 8.25 14.25 8.25H12.0262L10.7513 10.1663C10.6825 10.2693 10.5894 10.3536 10.4801 10.4119C10.3708 10.4701 10.2488 10.5004 10.125 10.5C10.1093 10.5 10.0935 10.5 10.0785 10.5C9.94728 10.4919 9.82049 10.4495 9.71084 10.377C9.60119 10.3044 9.51253 10.2043 9.45375 10.0868L7.782 6.741L6.999 7.91625C6.93049 8.01894 6.83769 8.10313 6.72884 8.16135C6.61998 8.21957 6.49844 8.25002 6.375 8.25H3.75C3.55109 8.25 3.36032 8.17098 3.21967 8.03033C3.07902 7.88968 3 7.69891 3 7.5C3 7.30109 3.07902 7.11032 3.21967 6.96967C3.36032 6.82902 3.55109 6.75 3.75 6.75H5.97375L7.24875 4.83375C7.32093 4.72317 7.42137 4.63391 7.53966 4.57523C7.65795 4.51654 7.78979 4.49057 7.9215 4.5C8.05272 4.50808 8.17951 4.55052 8.28916 4.62305C8.39881 4.69558 8.48747 4.79565 8.54625 4.91325L10.218 8.2575L11.001 7.08225C11.0697 6.97984 11.1626 6.89595 11.2714 6.83799C11.3802 6.78004 11.5017 6.74982 11.625 6.75H14.25C14.4489 6.75 14.6397 6.82902 14.7803 6.96967C14.921 7.11032 15 7.30109 15 7.5Z" fill="#002145"/>
</svg>
