<svg width="18" height="18" viewBox="0 0 18 18" fill="none" xmlns="http://www.w3.org/2000/svg">
<path d="M5.62922 18C4.27153 17.9991 2.95998 17.5072 1.93656 16.6151C0.913149 15.7229 0.246949 14.4907 0.0608936 13.1459C-0.125161 11.801 0.181485 10.4342 0.924248 9.29769C1.66701 8.1612 2.79576 7.3317 4.10222 6.96227C5.05182 6.69033 6.05694 6.6779 7.01297 6.92626L12.944 0.996764C13.2588 0.679727 13.6335 0.428365 14.0463 0.257261C14.459 0.0861575 14.9017 -0.00128235 15.3485 1.42104e-05C16.0516 0.000610035 16.7258 0.280208 17.2231 0.777425C17.7203 1.27464 17.9999 1.94884 18.0005 2.65201C18.0016 3.09886 17.9142 3.5415 17.7433 3.95435C17.5723 4.36719 17.3212 4.74206 17.0045 5.05726L16.5005 5.56126C16.2185 5.84134 15.8374 5.99899 15.44 6.00001H14.2505V6.75001C14.2505 7.14784 14.0924 7.52937 13.8111 7.81067C13.5298 8.09198 13.1483 8.25002 12.7505 8.25002H12.0005V9.43952C12.001 9.63657 11.9624 9.83177 11.887 10.0138C11.8116 10.1958 11.7007 10.3611 11.561 10.5L11.0735 10.9875C11.3232 11.9431 11.311 12.9483 11.0382 13.8975C10.7313 14.979 10.1085 15.9443 9.24958 16.6697C8.3907 17.3951 7.33484 17.8476 6.21722 17.9693C6.02188 17.9896 5.82562 17.9998 5.62922 18ZM5.62922 8.25002C4.86133 8.24927 4.10848 8.46288 3.45541 8.8668C2.80234 9.27073 2.27498 9.84892 1.9327 10.5363C1.59041 11.2237 1.44679 11.993 1.518 12.7575C1.58921 13.5221 1.87242 14.2516 2.33576 14.864C2.7991 15.4763 3.42416 15.9472 4.14059 16.2236C4.85702 16.5 5.63637 16.5709 6.39091 16.4283C7.14546 16.2858 7.84524 15.9355 8.41148 15.4168C8.97772 14.8981 9.38794 14.2317 9.59597 13.4925C9.82997 12.6799 9.80374 11.8145 9.52097 11.0175C9.47482 10.8844 9.46709 10.741 9.49866 10.6037C9.53023 10.4665 9.59982 10.3408 9.69947 10.2413L10.5005 9.43952V8.25002C10.5005 7.85219 10.6585 7.47066 10.9398 7.18935C11.2211 6.90805 11.6026 6.75001 12.0005 6.75001H12.7505V6.00001C12.7505 5.60219 12.9085 5.22066 13.1898 4.93935C13.4711 4.65805 13.8526 4.50001 14.2505 4.50001H15.44L15.944 3.99601C16.1209 3.81988 16.2612 3.61041 16.3568 3.37972C16.4523 3.14903 16.5011 2.9017 16.5005 2.65201C16.5003 2.34668 16.3789 2.05389 16.1631 1.83791C15.9473 1.62193 15.6546 1.50041 15.3492 1.50001C15.0994 1.4994 14.8519 1.54833 14.621 1.64398C14.3902 1.73963 14.1807 1.8801 14.0045 2.05726L7.75622 8.30476C7.65651 8.40443 7.53072 8.47396 7.39329 8.5054C7.25586 8.53684 7.11235 8.52891 6.97922 8.48252C6.54427 8.32938 6.08659 8.25077 5.62547 8.25002H5.62922ZM3.75047 13.5C3.75047 13.6484 3.79446 13.7934 3.87687 13.9167C3.95928 14.04 4.07641 14.1362 4.21346 14.1929C4.3505 14.2497 4.5013 14.2645 4.64679 14.2356C4.79227 14.2067 4.92591 14.1352 5.0308 14.0303C5.13569 13.9255 5.20712 13.7918 5.23606 13.6463C5.265 13.5008 5.25015 13.35 5.19338 13.213C5.13662 13.076 5.04049 12.9588 4.91715 12.8764C4.79381 12.794 4.64881 12.75 4.50047 12.75C4.30156 12.75 4.11079 12.829 3.97014 12.9697C3.82949 13.1103 3.75047 13.3011 3.75047 13.5Z" fill="#002145"/>
</svg>
