<svg width="17" height="14" viewBox="0 0 17 14" fill="none" xmlns="http://www.w3.org/2000/svg">
<path d="M16.5 1.09982L16.5 12.8998C16.5 13.2331 16.3623 13.4831 16.087 13.6498C15.8123 13.8165 15.525 13.8415 15.225 13.7248L1.275 7.84982C0.908332 7.68315 0.725 7.39982 0.725 6.99982C0.725 6.59982 0.908332 6.31648 1.275 6.14982L15.225 0.274816C15.525 0.158149 15.8123 0.18315 16.087 0.349816C16.3623 0.516483 16.5 0.766483 16.5 1.09982ZM15 1.99982L3.15 6.99982L15 11.9998L15 8.29982L9.575 6.99982L15 5.69982L15 1.99982Z" fill="white"/>
</svg>
