<svg width="20" height="20" viewBox="0 0 20 20" fill="none" xmlns="http://www.w3.org/2000/svg">
<path d="M11.4975 19.5H8.4725C8.25583 19.5 8.06417 19.425 7.8975 19.275C7.73083 19.125 7.63083 18.9333 7.5975 18.7L7.2975 16.45C7.03083 16.3667 6.76017 16.2417 6.4855 16.075C6.21017 15.9083 5.95583 15.7333 5.7225 15.55L3.6475 16.45C3.43083 16.5333 3.2185 16.5417 3.0105 16.475C2.80183 16.4083 2.63083 16.275 2.4975 16.075L0.9975 13.45C0.880833 13.25 0.8475 13.0373 0.8975 12.812C0.9475 12.5873 1.05583 12.4083 1.2225 12.275L3.0475 10.9C3.01417 10.75 2.9935 10.6 2.9855 10.45C2.97683 10.3 2.9725 10.15 2.9725 10C2.9725 9.86667 2.97683 9.725 2.9855 9.575C2.9935 9.425 3.01417 9.26667 3.0475 9.1L1.2225 7.725C1.05583 7.59167 0.9475 7.41267 0.8975 7.188C0.8475 6.96267 0.880833 6.75 0.9975 6.55L2.4975 3.95C2.61417 3.75 2.78083 3.61667 2.9975 3.55C3.21417 3.48333 3.4225 3.49167 3.6225 3.575L5.7225 4.45C5.95583 4.26667 6.21017 4.096 6.4855 3.938C6.76017 3.77933 7.03083 3.65 7.2975 3.55L7.5975 1.3C7.63083 1.06667 7.73083 0.875 7.8975 0.725C8.06417 0.575 8.25583 0.5 8.4725 0.5H11.4975C11.7308 0.5 11.9308 0.575 12.0975 0.725C12.2642 0.875 12.3642 1.06667 12.3975 1.3L12.6975 3.55C12.9975 3.66667 13.2682 3.79567 13.5095 3.937C13.7515 4.079 13.9975 4.25 14.2475 4.45L16.3725 3.575C16.5725 3.49167 16.7768 3.48333 16.9855 3.55C17.1935 3.61667 17.3642 3.75 17.4975 3.95L18.9975 6.55C19.1142 6.75 19.1475 6.96267 19.0975 7.188C19.0475 7.41267 18.9392 7.59167 18.7725 7.725L16.9225 9.125C16.9558 9.29167 16.9725 9.44167 16.9725 9.575V10C16.9725 10.1333 16.9682 10.2707 16.9595 10.412C16.9515 10.554 16.9308 10.7167 16.8975 10.9L18.7225 12.275C18.9058 12.4083 19.0225 12.5873 19.0725 12.812C19.1225 13.0373 19.0808 13.25 18.9475 13.45L17.4475 16.05C17.3308 16.25 17.1642 16.3833 16.9475 16.45C16.7308 16.5167 16.5142 16.5083 16.2975 16.425L14.2475 15.55C13.9975 15.75 13.7435 15.925 13.4855 16.075C13.2268 16.225 12.9642 16.35 12.6975 16.45L12.3975 18.7C12.3642 18.9333 12.2642 19.125 12.0975 19.275C11.9308 19.425 11.7308 19.5 11.4975 19.5ZM9.9975 13C10.8308 13 11.5392 12.7083 12.1225 12.125C12.7058 11.5417 12.9975 10.8333 12.9975 10C12.9975 9.16667 12.7058 8.45833 12.1225 7.875C11.5392 7.29167 10.8308 7 9.9975 7C9.16417 7 8.45583 7.29167 7.8725 7.875C7.28917 8.45833 6.9975 9.16667 6.9975 10C6.9975 10.8333 7.28917 11.5417 7.8725 12.125C8.45583 12.7083 9.16417 13 9.9975 13ZM9.9975 11.5C9.58083 11.5 9.22683 11.354 8.9355 11.062C8.6435 10.7707 8.4975 10.4167 8.4975 10C8.4975 9.58333 8.6435 9.22933 8.9355 8.938C9.22683 8.646 9.58083 8.5 9.9975 8.5C10.4142 8.5 10.7682 8.646 11.0595 8.938C11.3515 9.22933 11.4975 9.58333 11.4975 10C11.4975 10.4167 11.3515 10.7707 11.0595 11.062C10.7682 11.354 10.4142 11.5 9.9975 11.5ZM8.9975 18H10.9725L11.3225 15.325C11.8392 15.1917 12.3058 15 12.7225 14.75C13.1392 14.5 13.5475 14.1833 13.9475 13.8L16.4225 14.85L17.4225 13.15L15.2475 11.525C15.3308 11.2583 15.3852 11 15.4105 10.75C15.4352 10.5 15.4475 10.25 15.4475 10C15.4475 9.73333 15.4352 9.47933 15.4105 9.238C15.3852 8.996 15.3308 8.75 15.2475 8.5L17.4225 6.85L16.4475 5.15L13.9225 6.2C13.5892 5.85 13.1892 5.53733 12.7225 5.262C12.2558 4.98733 11.7892 4.79167 11.3225 4.675L10.9975 2H9.0225L8.6725 4.675C8.1725 4.79167 7.70583 4.975 7.2725 5.225C6.83917 5.475 6.4225 5.79167 6.0225 6.175L3.5475 5.15L2.5725 6.85L4.7225 8.45C4.63917 8.7 4.58083 8.95 4.5475 9.2C4.51417 9.45 4.4975 9.71667 4.4975 10C4.4975 10.2667 4.51417 10.525 4.5475 10.775C4.58083 11.025 4.63917 11.275 4.7225 11.525L2.5725 13.15L3.5475 14.85L6.0225 13.8C6.40583 14.1833 6.81417 14.5 7.2475 14.75C7.68083 15 8.15583 15.1917 8.6725 15.325L8.9975 18Z" fill="#488CDA"/>
</svg>
