<svg width="19" height="19" viewBox="0 0 19 19" fill="none" xmlns="http://www.w3.org/2000/svg">
<path d="M1.12752 0.624512H7.1192C7.66844 0.624512 8.11781 1.07985 8.11781 1.63637V7.70752C8.11781 8.26404 7.66844 8.71937 7.1192 8.71937H1.12752C0.578282 8.71937 0.128906 8.26404 0.128906 7.70752V1.63637C0.128906 1.07985 0.578282 0.624512 1.12752 0.624512ZM11.1137 0.624512H17.1053C17.6546 0.624512 18.1039 1.07985 18.1039 1.63637V7.70752C18.1039 8.26404 17.6546 8.71937 17.1053 8.71937H11.1137C10.5644 8.71937 10.115 8.26404 10.115 7.70752V1.63637C10.115 1.07985 10.5644 0.624512 11.1137 0.624512ZM1.12752 10.7431H7.1192C7.66844 10.7431 8.11781 11.1984 8.11781 11.7549V17.8261C8.11781 18.3826 7.66844 18.838 7.1192 18.838H1.12752C0.578282 18.838 0.128906 18.3826 0.128906 17.8261V11.7549C0.128906 11.1984 0.578282 10.7431 1.12752 10.7431ZM14.1095 10.7431C13.5603 10.7431 13.1109 11.1984 13.1109 11.7549V13.7787H11.1137C10.5644 13.7787 10.115 14.234 10.115 14.7905C10.115 15.347 10.5644 15.8024 11.1137 15.8024H13.1109V17.8261C13.1109 18.3826 13.5603 18.838 14.1095 18.838C14.6587 18.838 15.1081 18.3826 15.1081 17.8261V15.8024H17.1053C17.6546 15.8024 18.1039 15.347 18.1039 14.7905C18.1039 14.234 17.6546 13.7787 17.1053 13.7787H15.1081V11.7549C15.1081 11.1984 14.6587 10.7431 14.1095 10.7431Z" fill="#063468"/>
</svg>
