<svg width="20" height="18" viewBox="0 0 20 18" fill="none" xmlns="http://www.w3.org/2000/svg">
<path d="M3.07812 17.75C2.57812 17.75 2.15313 17.575 1.80313 17.225C1.45312 16.875 1.27813 16.45 1.27813 15.95V7.95C0.861459 7.61667 0.553125 7.18733 0.353125 6.662C0.153125 6.13733 0.153125 5.56667 0.353125 4.95L1.35312 1.65C1.48646 1.23333 1.71579 0.895667 2.04113 0.637C2.36579 0.379 2.74479 0.25 3.17813 0.25H16.8281C17.2781 0.25 17.6615 0.375 17.9781 0.625C18.2948 0.875 18.5198 1.20833 18.6531 1.625L19.6781 4.95C19.8781 5.56667 19.8781 6.13733 19.6781 6.662C19.4781 7.18733 19.1781 7.625 18.7781 7.975V15.95C18.7781 16.45 18.6031 16.875 18.2531 17.225C17.9031 17.575 17.4698 17.75 16.9531 17.75H3.07812ZM12.2281 7.25C12.7615 7.25 13.1658 7.08333 13.4411 6.75C13.7158 6.41667 13.8281 6.05833 13.7781 5.675L13.1781 1.75H10.7781V5.7C10.7781 6.11667 10.9198 6.479 11.2031 6.787C11.4865 7.09567 11.8281 7.25 12.2281 7.25ZM7.72813 7.25C8.17813 7.25 8.54913 7.09567 8.84113 6.787C9.13246 6.479 9.27812 6.11667 9.27812 5.7V1.75H6.85313L6.25313 5.7C6.20312 6.06667 6.31579 6.41667 6.59113 6.75C6.86579 7.08333 7.24479 7.25 7.72813 7.25ZM3.27813 7.25C3.64479 7.25 3.96146 7.121 4.22813 6.863C4.49479 6.60433 4.66146 6.28333 4.72813 5.9L5.30313 1.75H3.17813C3.07813 1.75 2.99479 1.775 2.92813 1.825C2.86146 1.875 2.81146 1.95 2.77813 2.05L1.82813 5.3C1.69479 5.71667 1.75313 6.14567 2.00313 6.587C2.25313 7.029 2.67813 7.25 3.27813 7.25ZM16.7781 7.25C17.3115 7.25 17.7241 7.03767 18.0161 6.613C18.3075 6.18767 18.3781 5.75 18.2281 5.3L17.2031 2.025C17.1698 1.925 17.1238 1.854 17.0651 1.812C17.0071 1.77067 16.9198 1.75 16.8031 1.75H14.7281L15.3281 5.9C15.3781 6.28333 15.5365 6.60433 15.8031 6.863C16.0698 7.121 16.3948 7.25 16.7781 7.25ZM3.07812 16.25H16.9531C17.0531 16.25 17.1325 16.221 17.1911 16.163C17.2491 16.1043 17.2781 16.0333 17.2781 15.95V8.65C17.1615 8.7 17.0658 8.72933 16.9911 8.738C16.9158 8.746 16.8448 8.75 16.7781 8.75C16.3281 8.75 15.9321 8.66667 15.5901 8.5C15.2488 8.33333 14.9115 8.075 14.5781 7.725C14.3115 8.04167 13.9865 8.29167 13.6031 8.475C13.2198 8.65833 12.7781 8.75 12.2781 8.75C11.8615 8.75 11.4658 8.66267 11.0911 8.488C10.7158 8.31267 10.3615 8.05833 10.0281 7.725C9.71146 8.05833 9.35746 8.31267 8.96613 8.488C8.57413 8.66267 8.17812 8.75 7.77812 8.75C7.32812 8.75 6.90713 8.66667 6.51513 8.5C6.12379 8.33333 5.77813 8.075 5.47813 7.725C5.04479 8.14167 4.65313 8.41667 4.30313 8.55C3.95313 8.68333 3.61146 8.75 3.27813 8.75C3.19479 8.75 3.11146 8.746 3.02813 8.738C2.94479 8.72933 2.86146 8.7 2.77813 8.65V15.95C2.77813 16.0333 2.80746 16.1043 2.86613 16.163C2.92413 16.221 2.99479 16.25 3.07812 16.25ZM16.9531 16.25H3.07812C3.11146 16.25 3.14479 16.25 3.17813 16.25C3.21146 16.25 3.24479 16.25 3.27813 16.25C3.54479 16.25 3.92413 16.25 4.41613 16.25C4.90746 16.25 5.26146 16.25 5.47813 16.25C5.56146 16.25 5.70313 16.25 5.90313 16.25C6.10313 16.25 6.31979 16.25 6.55313 16.25C6.78646 16.25 7.01146 16.25 7.22813 16.25C7.44479 16.25 7.62812 16.25 7.77812 16.25C7.91146 16.25 8.08646 16.25 8.30313 16.25C8.51979 16.25 8.74079 16.25 8.96613 16.25C9.19079 16.25 9.40313 16.25 9.60313 16.25C9.80313 16.25 9.94479 16.25 10.0281 16.25C10.2115 16.25 10.5615 16.25 11.0781 16.25C11.5948 16.25 11.9948 16.25 12.2781 16.25C12.4115 16.25 12.5865 16.25 12.8031 16.25C13.0198 16.25 13.2448 16.25 13.4781 16.25C13.7115 16.25 13.9321 16.25 14.1401 16.25C14.3488 16.25 14.4948 16.25 14.5781 16.25C14.7948 16.25 15.1448 16.25 15.6281 16.25C16.1115 16.25 16.4948 16.25 16.7781 16.25C16.7948 16.25 16.8155 16.25 16.8401 16.25C16.8655 16.25 16.9031 16.25 16.9531 16.25Z" fill="#002145"/>
</svg>
