<svg width="34" height="34" viewBox="0 0 34 34" fill="none" xmlns="http://www.w3.org/2000/svg">
<path d="M5.71875 14.1828C5.71875 7.89281 10.8077 2.8335 16.9971 2.8335C23.1864 2.8335 28.2754 7.89281 28.2754 14.1828" stroke="#063468" stroke-width="1.5" stroke-miterlimit="10" stroke-linecap="round"/>
<path d="M27.3155 27.9932C25.8026 30.7279 22.3641 31.6851 19.6133 30.181" stroke="#063468" stroke-width="1.5" stroke-miterlimit="10" stroke-linecap="round"/>
<path d="M7.92103 25.1218H5.17022C3.93236 25.1218 2.83203 24.0279 2.83203 22.7972V19.242C2.83203 18.0114 3.93236 16.9175 5.17022 16.9175H7.92103C8.60873 16.9175 9.02135 17.4644 9.02135 18.0114V23.8911C9.02135 24.5748 8.60873 25.1218 7.92103 25.1218Z" fill="#063468" stroke="#063468" stroke-width="1.5" stroke-miterlimit="10" stroke-linecap="round" stroke-linejoin="round"/>
<path d="M26.0769 16.9175H28.8277C30.0656 16.9175 31.1659 18.0114 31.1659 19.242V22.7972C31.1659 24.0279 30.0656 25.1218 28.8277 25.1218H26.0769C25.3892 25.1218 24.9766 24.5748 24.9766 24.0279V18.1481C24.9766 17.4644 25.3892 16.9175 26.0769 16.9175Z" fill="#063468" stroke="#063468" stroke-width="1.5" stroke-miterlimit="10" stroke-linecap="round" stroke-linejoin="round"/>
<path d="M19.5386 29.7561C20.0042 28.977 19.5875 27.8765 18.6079 27.298C17.6283 26.7195 16.4569 26.8821 15.9913 27.6611C15.5258 28.4402 15.9425 29.5408 16.9221 30.1193C17.9017 30.6978 19.0731 30.5352 19.5386 29.7561Z" fill="#063468" stroke="#063468" stroke-width="1.5" stroke-miterlimit="10" stroke-linecap="round"/>
</svg>
