<svg width="18" height="18" viewBox="0 0 18 18" fill="none" xmlns="http://www.w3.org/2000/svg">
<path d="M17.1217 0.881249C16.7577 0.514013 16.3044 0.247914 15.8064 0.109168C15.3084 -0.0295779 14.7828 -0.0361844 14.2814 0.0899994C10.3946 1.11041 6.8349 3.11183 3.9434 5.9025C3.3746 6.47474 2.93104 7.15904 2.64092 7.91192C2.3508 8.66479 2.22045 9.46979 2.25815 10.2758C2.31187 11.4457 2.72253 12.5711 3.4349 13.5008L0.221154 16.7205C0.149521 16.7897 0.0923844 16.8724 0.0530776 16.9639C0.0137709 17.0555 -0.00691882 17.1539 -0.00778418 17.2535C-0.00864954 17.353 0.0103267 17.4518 0.0480374 17.544C0.0857481 17.6361 0.141438 17.7199 0.211857 17.7903C0.282277 17.8607 0.366016 17.9164 0.458188 17.9541C0.55036 17.9918 0.64912 18.0108 0.748705 18.0099C0.848289 18.0091 0.946704 17.9884 1.03821 17.9491C1.12971 17.9098 1.21247 17.8526 1.28165 17.781L4.49465 14.568C5.47948 15.3369 6.69371 15.7534 7.94315 15.7508C8.76994 15.7388 9.58627 15.5641 10.3455 15.2365C11.1048 14.909 11.7921 14.4352 12.3682 13.842C15.6682 10.542 17.5304 5.2575 17.9137 3.69825C18.0382 3.20038 18.0307 2.67862 17.8918 2.18456C17.7529 1.69049 17.4874 1.24125 17.1217 0.881249ZM3.75665 10.2067C3.72843 9.6088 3.82486 9.01152 4.03984 8.45284C4.25481 7.89416 4.58363 7.38629 5.0054 6.9615C5.3264 6.64275 5.66015 6.3435 6.0014 6.051V10.9403L4.5089 12.4328C4.05411 11.7761 3.79341 11.0047 3.75665 10.2067ZM11.2852 12.801C10.5709 13.5773 9.60301 14.0733 8.55567 14.1998C7.50833 14.3263 6.45023 14.075 5.57165 13.491L7.2809 11.7818L9.3119 9.75075H13.6334C12.9541 10.8431 12.1674 11.8649 11.2852 12.801ZM16.4602 3.336C16.0081 5.04602 15.3534 6.69595 14.5102 8.25075H10.8119L13.2817 5.781C13.3533 5.71181 13.4104 5.62906 13.4497 5.53755C13.489 5.44605 13.5097 5.34764 13.5106 5.24805C13.5115 5.14847 13.4925 5.04971 13.4548 4.95753C13.4171 4.86536 13.3614 4.78162 13.291 4.7112C13.2205 4.64078 13.1368 4.58509 13.0446 4.54738C12.9524 4.50967 12.8537 4.4907 12.7541 4.49156C12.6545 4.49243 12.5561 4.51312 12.4646 4.55242C12.3731 4.59173 12.2903 4.64887 12.2212 4.7205L8.47115 8.4705L7.5014 9.44025V4.88475C9.66967 3.36517 12.0864 2.23549 14.6429 1.5465C14.7616 1.51662 14.8835 1.50126 15.0059 1.50075C15.2025 1.50117 15.397 1.54041 15.5783 1.61622C15.7597 1.69203 15.9243 1.80291 16.0627 1.9425C16.2453 2.11945 16.378 2.34151 16.4473 2.58621C16.5165 2.8309 16.52 3.08956 16.4572 3.336H16.4602Z" fill="#002145"/>
</svg>
