<svg width="18" height="18" viewBox="0 0 18 18" fill="none" xmlns="http://www.w3.org/2000/svg">
<path d="M16.125 18H1.875C1.62877 18 1.38495 17.9515 1.15747 17.8573C0.929983 17.763 0.723285 17.6249 0.549175 17.4508C0.375065 17.2767 0.236953 17.07 0.142726 16.8425C0.0484983 16.615 0 16.3712 0 16.125C0 15.6277 0.197544 15.1508 0.549175 14.7992C0.900805 14.4475 1.37772 14.25 1.875 14.25H16.125C16.3712 14.25 16.615 14.2985 16.8425 14.3927C17.07 14.487 17.2767 14.6251 17.4508 14.7992C17.6249 14.9733 17.763 15.18 17.8573 15.4075C17.9515 15.635 18 15.8788 18 16.125C18 16.3712 17.9515 16.615 17.8573 16.8425C17.763 17.07 17.6249 17.2767 17.4508 17.4508C17.2767 17.6249 17.07 17.763 16.8425 17.8573C16.615 17.9515 16.3712 18 16.125 18ZM18 10.5C18 10.1022 17.842 9.72064 17.5607 9.43934C17.2794 9.15804 16.8978 9 16.5 9H1.5C1.10218 9 0.720644 9.15804 0.43934 9.43934C0.158035 9.72064 0 10.1022 0 10.5C0 10.8978 0.158035 11.2794 0.43934 11.5607C0.720644 11.842 1.10218 12 1.5 12H16.5C16.8978 12 17.2794 11.842 17.5607 11.5607C17.842 11.2794 18 10.8978 18 10.5ZM18 5.625C18 5.32663 17.8815 5.04048 17.6705 4.8295C17.4595 4.61853 17.1734 4.5 16.875 4.5H1.125C0.826631 4.5 0.540483 4.61853 0.329505 4.8295C0.118526 5.04048 0 5.32663 0 5.625C0 5.92337 0.118526 6.20952 0.329505 6.4205C0.540483 6.63147 0.826631 6.75 1.125 6.75H16.875C17.1734 6.75 17.4595 6.63147 17.6705 6.4205C17.8815 6.20952 18 5.92337 18 5.625ZM18 1.5C18 1.30109 17.921 1.11032 17.7803 0.96967C17.6397 0.829018 17.4489 0.75 17.25 0.75H0.75C0.551088 0.75 0.360322 0.829018 0.21967 0.96967C0.0790176 1.11032 0 1.30109 0 1.5C0 1.69891 0.0790176 1.88968 0.21967 2.03033C0.360322 2.17098 0.551088 2.25 0.75 2.25H17.25C17.4489 2.25 17.6397 2.17098 17.7803 2.03033C17.921 1.88968 18 1.69891 18 1.5Z" fill="#002145"/>
</svg>
