<svg width="108" height="108" viewBox="0 0 108 108" fill="none" xmlns="http://www.w3.org/2000/svg">
<mask id="mask0_1233_2793" style="mask-type:alpha" maskUnits="userSpaceOnUse" x="0" y="0" width="108" height="108">
<rect width="108" height="108" fill="#D9D9D9"/>
</mask>
<g mask="url(#mask0_1233_2793)">
<path d="M57.6016 52.65L69.9766 65.025C70.5766 65.625 70.8766 66.3945 70.8766 67.3335C70.8766 68.2695 70.5766 69.075 69.9766 69.75C69.3016 70.425 68.4961 70.7625 67.5601 70.7625C66.6211 70.7625 65.8141 70.425 65.1391 69.75L51.9766 56.5875C51.6016 56.1375 51.3211 55.668 51.1351 55.179C50.9461 54.693 50.8516 54.1875 50.8516 53.6625V34.875C50.8516 33.9 51.1711 33.0945 51.8101 32.4585C52.4461 31.8195 53.2516 31.5 54.2266 31.5C55.1266 31.5 55.9141 31.8195 56.5891 32.4585C57.2641 33.0945 57.6016 33.9 57.6016 34.875V52.65ZM54.2266 92.25C48.9016 92.25 43.9141 91.2375 39.2641 89.2125C34.6141 87.1875 30.5641 84.45 27.1141 81C23.6641 77.55 20.9461 73.518 18.9601 68.904C16.9711 64.293 15.9766 59.325 15.9766 54C15.9766 48.675 16.9711 43.707 18.9601 39.096C20.9461 34.482 23.6641 30.45 27.1141 27C30.5641 23.55 34.6141 20.8125 39.2641 18.7875C43.9141 16.7625 48.9016 15.75 54.2266 15.75C59.8516 15.75 65.2141 16.9305 70.3141 19.2915C75.4141 21.6555 79.8016 25.0125 83.4766 29.3625V22.05C83.4766 21.075 83.7961 20.268 84.4351 19.629C85.0711 18.993 85.8766 18.675 86.8516 18.675C87.7516 18.675 88.5391 18.993 89.2141 19.629C89.8891 20.268 90.2266 21.075 90.2266 22.05V37.4625C90.2266 38.5875 89.8336 39.543 89.0476 40.329C88.2586 41.118 87.2641 41.5125 86.0641 41.5125H70.6516C69.7516 41.5125 68.9641 41.193 68.2891 40.554C67.6141 39.918 67.2766 39.1125 67.2766 38.1375C67.2766 37.1625 67.6141 36.3555 68.2891 35.7165C68.9641 35.0805 69.7516 34.7625 70.6516 34.7625H79.0891C76.0141 30.9375 72.3211 27.9375 68.0101 25.7625C63.6961 23.5875 59.1016 22.5 54.2266 22.5C45.4516 22.5 38.0086 25.5555 31.8976 31.6665C25.7836 37.7805 22.7266 45.225 22.7266 54C22.7266 62.775 25.7836 70.218 31.8976 76.329C38.0086 82.443 45.4516 85.5 54.2266 85.5C61.3516 85.5 67.7266 83.343 73.3516 79.029C78.9766 74.718 82.6891 69.1125 84.4891 62.2125C84.7891 61.2375 85.3141 60.45 86.0641 59.85C86.8141 59.25 87.6391 59.0625 88.5391 59.2875C89.5891 59.5125 90.3586 60.075 90.8476 60.975C91.3336 61.875 91.4266 62.8125 91.1266 63.7875C88.9516 72.1875 84.4336 79.032 77.5726 84.321C70.7086 89.607 62.9266 92.25 54.2266 92.25Z" fill="white"/>
</g>
</svg>
