<svg width="32" height="34" viewBox="0 0 32 34" fill="none" xmlns="http://www.w3.org/2000/svg">
<path d="M23.6693 33.8255C21.5859 33.8255 19.8154 33.0966 18.3576 31.6389C16.8987 30.18 16.1693 28.4089 16.1693 26.3255C16.1693 24.2422 16.8987 22.4711 18.3576 21.0122C19.8154 19.5544 21.5859 18.8255 23.6693 18.8255C25.7248 18.8255 27.4887 19.5544 28.9609 21.0122C30.4332 22.4711 31.1693 24.2422 31.1693 26.3255C31.1693 28.4089 30.4332 30.18 28.9609 31.6389C27.4887 33.0966 25.7248 33.8255 23.6693 33.8255ZM25.9193 29.6172C26.0582 29.7839 26.2248 29.8672 26.4193 29.8672C26.6137 29.8672 26.7943 29.7839 26.9609 29.6172C27.0998 29.4505 27.1693 29.2772 27.1693 29.0972C27.1693 28.9161 27.0998 28.7422 26.9609 28.5755L24.3776 26.0339V22.1589C24.3776 21.9644 24.3082 21.7911 24.1693 21.6389C24.0304 21.4855 23.8637 21.4089 23.6693 21.4089C23.4748 21.4089 23.3015 21.4855 23.1493 21.6389C22.9959 21.7911 22.9193 21.9644 22.9193 22.1589V25.9922C22.9193 26.1866 22.9537 26.3744 23.0226 26.5555C23.0926 26.7355 23.2109 26.9089 23.3776 27.0755L25.9193 29.6172ZM3.83594 32.1589C3.0026 32.1589 2.29427 31.8672 1.71094 31.2839C1.1276 30.7005 0.835938 29.9922 0.835938 29.1589V6.82552C0.835938 5.99219 1.1276 5.28385 1.71094 4.70052C2.29427 4.11719 3.0026 3.82552 3.83594 3.82552H11.2109C11.4332 3.01997 11.8982 2.34608 12.6059 1.80385C13.3148 1.26274 14.1137 0.992188 15.0026 0.992188C15.9193 0.992188 16.732 1.26274 17.4409 1.80385C18.1487 2.34608 18.6137 3.01997 18.8359 3.82552H26.1693C27.0026 3.82552 27.7109 4.11719 28.2943 4.70052C28.8776 5.28385 29.1693 5.99219 29.1693 6.82552V17.0755C28.7804 16.8255 28.3848 16.61 27.9826 16.4289C27.5793 16.2489 27.1415 16.0755 26.6693 15.9089V6.82552C26.6693 6.68663 26.6209 6.56885 26.5243 6.47219C26.4265 6.37441 26.3082 6.32552 26.1693 6.32552H22.5026V7.65885C22.5026 8.49219 22.2109 9.20774 21.6276 9.80552C21.0443 10.4022 20.3359 10.7005 19.5026 10.7005H10.5026C9.66927 10.7005 8.96094 10.4022 8.3776 9.80552C7.79427 9.20774 7.5026 8.49219 7.5026 7.65885V6.32552H3.83594C3.69705 6.32552 3.57927 6.37441 3.4826 6.47219C3.38483 6.56885 3.33594 6.68663 3.33594 6.82552V29.1589C3.33594 29.2977 3.38483 29.4161 3.4826 29.5139C3.57927 29.6105 3.69705 29.6589 3.83594 29.6589H13.3776C13.5165 30.1311 13.6759 30.5689 13.8559 30.9722C14.037 31.3744 14.2665 31.77 14.5443 32.1589H3.83594ZM15.0026 6.53385C15.4193 6.53385 15.7732 6.38774 16.0643 6.09552C16.3565 5.80441 16.5026 5.43663 16.5026 4.99219C16.5026 4.57552 16.3565 4.22108 16.0643 3.92885C15.7732 3.63774 15.4193 3.49219 15.0026 3.49219C14.5859 3.49219 14.232 3.63774 13.9409 3.92885C13.6487 4.22108 13.5026 4.58941 13.5026 5.03385C13.5026 5.45052 13.6487 5.80441 13.9409 6.09552C14.232 6.38774 14.5859 6.53385 15.0026 6.53385Z" fill="#FFCE47"/>
</svg>
