<svg width="22" height="15" viewBox="0 0 22 15" fill="none" xmlns="http://www.w3.org/2000/svg">
<path d="M11.0031 11.575C12.1365 11.575 13.0988 11.179 13.8901 10.387C14.6821 9.59567 15.0781 8.63333 15.0781 7.5C15.0781 6.36667 14.6821 5.40433 13.8901 4.613C13.0988 3.821 12.1365 3.425 11.0031 3.425C9.86979 3.425 8.90746 3.821 8.11613 4.613C7.32413 5.40433 6.92813 6.36667 6.92813 7.5C6.92813 8.63333 7.32413 9.59567 8.11613 10.387C8.90746 11.179 9.86979 11.575 11.0031 11.575ZM11.0031 10.2C10.2531 10.2 9.61579 9.93733 9.09113 9.412C8.56579 8.88733 8.30313 8.25 8.30313 7.5C8.30313 6.75 8.56579 6.11233 9.09113 5.587C9.61579 5.06233 10.2531 4.8 11.0031 4.8C11.7531 4.8 12.3908 5.06233 12.9161 5.587C13.4408 6.11233 13.7031 6.75 13.7031 7.5C13.7031 8.25 13.4408 8.88733 12.9161 9.412C12.3908 9.93733 11.7531 10.2 11.0031 10.2ZM11.0031 14.5C8.81979 14.5 6.81546 13.925 4.99012 12.775C3.16546 11.625 1.76979 10.0667 0.803125 8.1C0.769792 8.03333 0.744792 7.94567 0.728125 7.837C0.711458 7.729 0.703125 7.61667 0.703125 7.5C0.703125 7.38333 0.711458 7.27067 0.728125 7.162C0.744792 7.054 0.769792 6.96667 0.803125 6.9C1.76979 4.93333 3.16546 3.375 4.99012 2.225C6.81546 1.075 8.81979 0.5 11.0031 0.5C13.1865 0.5 15.1905 1.075 17.0151 2.225C18.8405 3.375 20.2365 4.93333 21.2031 6.9C21.2365 6.96667 21.2615 7.054 21.2781 7.162C21.2948 7.27067 21.3031 7.38333 21.3031 7.5C21.3031 7.61667 21.2948 7.729 21.2781 7.837C21.2615 7.94567 21.2365 8.03333 21.2031 8.1C20.2365 10.0667 18.8405 11.625 17.0151 12.775C15.1905 13.925 13.1865 14.5 11.0031 14.5ZM11.0031 13C12.8865 13 14.6158 12.504 16.1911 11.512C17.7658 10.5207 18.9698 9.18333 19.8031 7.5C18.9698 5.81667 17.7658 4.479 16.1911 3.487C14.6158 2.49567 12.8865 2 11.0031 2C9.11979 2 7.39046 2.49567 5.81512 3.487C4.24046 4.479 3.03646 5.81667 2.20312 7.5C3.03646 9.18333 4.24046 10.5207 5.81512 11.512C7.39046 12.504 9.11979 13 11.0031 13Z" fill="#002145"/>
</svg>
