<svg width="22" height="15" viewBox="0 0 22 15" fill="none" xmlns="http://www.w3.org/2000/svg">
<path d="M11.0031 11.3416C12.1365 11.3416 13.0988 10.9453 13.8901 10.1527C14.6821 9.36071 15.0781 8.39761 15.0781 7.26338C15.0781 6.12914 14.6821 5.16604 13.8901 4.37408C13.0988 3.58145 12.1365 3.18514 11.0031 3.18514C9.86979 3.18514 8.90746 3.58145 8.11613 4.37408C7.32413 5.16604 6.92813 6.12914 6.92813 7.26338C6.92813 8.39761 7.32413 9.36071 8.11613 10.1527C8.90746 10.9453 9.86979 11.3416 11.0031 11.3416ZM11.0031 9.96552C10.2531 9.96552 9.61579 9.70265 9.09113 9.1769C8.56579 8.65181 8.30313 8.01397 8.30313 7.26338C8.30313 6.51278 8.56579 5.87461 9.09113 5.34886C9.61579 4.82377 10.2531 4.56123 11.0031 4.56123C11.7531 4.56123 12.3908 4.82377 12.9161 5.34886C13.4408 5.87461 13.7031 6.51278 13.7031 7.26338C13.7031 8.01397 13.4408 8.65181 12.9161 9.1769C12.3908 9.70265 11.7531 9.96552 11.0031 9.96552ZM11.0031 14.2689C8.81979 14.2689 6.81546 13.6935 4.99012 12.5426C3.16546 11.3917 1.76979 9.83208 0.803125 7.86385C0.769792 7.79713 0.744792 7.7094 0.728125 7.60064C0.711458 7.49256 0.703125 7.38014 0.703125 7.26338C0.703125 7.14662 0.711458 7.03386 0.728125 6.92511C0.744792 6.81702 0.769792 6.72962 0.803125 6.6629C1.76979 4.69467 3.16546 3.1351 4.99012 1.98418C6.81546 0.833269 8.81979 0.257812 11.0031 0.257812C13.1865 0.257812 15.1905 0.833269 17.0151 1.98418C18.8405 3.1351 20.2365 4.69467 21.2031 6.6629C21.2365 6.72962 21.2615 6.81702 21.2781 6.92511C21.2948 7.03386 21.3031 7.14662 21.3031 7.26338C21.3031 7.38014 21.2948 7.49256 21.2781 7.60064C21.2615 7.7094 21.2365 7.79713 21.2031 7.86385C20.2365 9.83208 18.8405 11.3917 17.0151 12.5426C15.1905 13.6935 13.1865 14.2689 11.0031 14.2689ZM11.0031 12.7677C12.8865 12.7677 14.6158 12.2714 16.1911 11.2786C17.7658 10.2864 18.9698 8.94805 19.8031 7.26338C18.9698 5.57871 17.7658 4.23998 16.1911 3.24719C14.6158 2.25507 12.8865 1.759 11.0031 1.759C9.11979 1.759 7.39046 2.25507 5.81512 3.24719C4.24046 4.23998 3.03646 5.57871 2.20312 7.26338C3.03646 8.94805 4.24046 10.2864 5.81512 11.2786C7.39046 12.2714 9.11979 12.7677 11.0031 12.7677Z" fill="#002145"/>
</svg>
