<svg width="20" height="16" viewBox="0 0 20 16" fill="none" xmlns="http://www.w3.org/2000/svg">
<path d="M2.3 15.5C1.8 15.5 1.375 15.325 1.025 14.975C0.675 14.625 0.5 14.2 0.5 13.7V2.3C0.5 1.8 0.675 1.375 1.025 1.025C1.375 0.675 1.8 0.5 2.3 0.5H17.7C18.2 0.5 18.625 0.675 18.975 1.025C19.325 1.375 19.5 1.8 19.5 2.3V13.7C19.5 14.2 19.325 14.625 18.975 14.975C18.625 15.325 18.2 15.5 17.7 15.5H2.3ZM2 8.8H12.75V5.125H2V8.8ZM12.75 14V10.3H2V13.7C2 13.7667 2.03333 13.8333 2.1 13.9C2.16667 13.9667 2.23333 14 2.3 14H12.75ZM14.25 14H17.7C17.7667 14 17.8333 13.9667 17.9 13.9C17.9667 13.8333 18 13.7667 18 13.7V5.125H14.25V14Z" fill="#002145"/>
</svg>
