<svg width="15" height="12" viewBox="0 0 15 12" fill="none" xmlns="http://www.w3.org/2000/svg">
<path d="M1.86663 10C1.53329 10 1.24996 9.88333 1.01663 9.65C0.783293 9.41667 0.666626 9.13333 0.666626 8.8V1.2C0.666626 0.866667 0.783293 0.583333 1.01663 0.35C1.24996 0.116667 1.53329 0 1.86663 0H12.1333C12.4666 0 12.75 0.116667 12.9833 0.35C13.2166 0.583333 13.3333 0.866667 13.3333 1.2V4.73333H1.66663V8.8C1.66663 8.86667 1.68618 8.91667 1.72529 8.95C1.76396 8.98333 1.81107 9 1.86663 9H7.56663C7.71107 9 7.83063 9.04711 7.92529 9.14133C8.01951 9.236 8.06663 9.35556 8.06663 9.5C8.06663 9.64444 8.01951 9.764 7.92529 9.85867C7.83063 9.95289 7.71107 10 7.56663 10H1.86663ZM1.66663 2.6H12.3333V1.2C12.3333 1.14444 12.314 1.09733 12.2753 1.05867C12.2362 1.01956 12.1888 1 12.1333 1H1.86663C1.81107 1 1.76396 1.01956 1.72529 1.05867C1.68618 1.09733 1.66663 1.14444 1.66663 1.2V2.6ZM12.3333 11.5C12.1888 11.5 12.0693 11.4529 11.9746 11.3587C11.8804 11.264 11.8333 11.1444 11.8333 11V9.5H10.3333C10.1888 9.5 10.0693 9.45289 9.97463 9.35867C9.8804 9.264 9.83329 9.14444 9.83329 9C9.83329 8.85556 9.8804 8.736 9.97463 8.64133C10.0693 8.54711 10.1888 8.5 10.3333 8.5H11.8333V7C11.8333 6.85556 11.8804 6.736 11.9746 6.64133C12.0693 6.54711 12.1888 6.5 12.3333 6.5C12.4777 6.5 12.5973 6.54711 12.692 6.64133C12.7862 6.736 12.8333 6.85556 12.8333 7V8.5H14.3333C14.4777 8.5 14.5973 8.54711 14.692 8.64133C14.7862 8.736 14.8333 8.85556 14.8333 9C14.8333 9.14444 14.7862 9.264 14.692 9.35867C14.5973 9.45289 14.4777 9.5 14.3333 9.5H12.8333V11C12.8333 11.1444 12.7862 11.264 12.692 11.3587C12.5973 11.4529 12.4777 11.5 12.3333 11.5ZM1.66663 9V8.5C1.66663 7.57778 1.66663 6.79156 1.66663 6.14133C1.66663 5.49156 1.66663 5.16667 1.66663 5.16667V4.73333V1.2V8.8C1.66663 8.86667 1.66663 8.91667 1.66663 8.95C1.66663 8.98333 1.66663 9 1.66663 9Z" fill="#002145"/>
</svg>
