<svg width="14" height="14" viewBox="0 0 14 14" fill="none" xmlns="http://www.w3.org/2000/svg">
<path d="M7.64892 0.700531C9.16003 0.844975 10.4463 1.44498 11.5076 2.50053C12.5685 3.55609 13.1711 4.84498 13.3156 6.3672H8.79892C8.69892 6.08942 8.54892 5.85053 8.34892 5.65053C8.14892 5.45053 7.91559 5.30053 7.64892 5.20053V0.700531ZM8.64892 1.95053V4.60053C8.79336 4.71164 8.92958 4.82831 9.05758 4.95053C9.18514 5.07275 9.29892 5.21164 9.39892 5.3672H12.0656C11.81 4.54498 11.3796 3.83098 10.7743 3.2252C10.1685 2.61986 9.46003 2.19498 8.64892 1.95053ZM6.38225 0.700531V5.20053C6.00447 5.33386 5.69892 5.5672 5.46558 5.90053C5.23225 6.23386 5.11558 6.60053 5.11558 7.00053C5.11558 7.40053 5.23225 7.76164 5.46558 8.08386C5.69892 8.40609 6.00447 8.63386 6.38225 8.7672V13.3005C4.76003 13.1339 3.40447 12.4505 2.31558 11.2505C1.2267 10.0505 0.682251 8.63386 0.682251 7.00053C0.682251 5.3672 1.2267 3.94764 2.31558 2.74186C3.40447 1.53653 4.76003 0.856087 6.38225 0.700531ZM5.38225 1.95053C4.28225 2.28386 3.39047 2.9172 2.70692 3.85053C2.02381 4.78386 1.68225 5.83386 1.68225 7.00053C1.68225 8.1672 2.02381 9.2172 2.70692 10.1505C3.39047 11.0839 4.28225 11.7228 5.38225 12.0672V9.3672C4.99336 9.08942 4.68514 8.74498 4.45758 8.33386C4.22958 7.92275 4.11558 7.47831 4.11558 7.00053C4.11558 6.52275 4.22958 6.07542 4.45758 5.65853C4.68514 5.24209 4.99336 4.89498 5.38225 4.6172V1.95053ZM8.79892 7.63386H13.3156C13.1711 9.14498 12.5685 10.4312 11.5076 11.4925C10.4463 12.5534 9.16003 13.1561 7.64892 13.3005V8.7672C7.91559 8.6672 8.14892 8.51986 8.34892 8.3252C8.54892 8.13098 8.69892 7.90053 8.79892 7.63386ZM9.39892 8.63386C9.29892 8.77831 9.18514 8.91164 9.05758 9.03386C8.92958 9.15609 8.79336 9.2672 8.64892 9.3672V12.0505C9.47114 11.8061 10.1823 11.3812 10.7823 10.7759C11.3823 10.1701 11.81 9.45609 12.0656 8.63386H9.39892Z" fill="#002145"/>
</svg>
