<svg width="12" height="12" viewBox="0 0 12 12" fill="none" xmlns="http://www.w3.org/2000/svg">
<path d="M3.58233 3.34999C3.68233 3.4611 3.73233 3.58332 3.73233 3.71666C3.73233 3.84999 3.68233 3.96666 3.58233 4.06666L2.31567 5.33332L7.41567 5.33332C7.56011 5.33332 7.67944 5.38066 7.77366 5.47532C7.86833 5.56955 7.91567 5.68888 7.91567 5.83332C7.91567 5.97777 7.86833 6.09732 7.77366 6.19199C7.67944 6.28621 7.56011 6.33332 7.41567 6.33332L2.31567 6.33332L3.58233 7.61666C3.68233 7.71666 3.73233 7.83332 3.73233 7.96666C3.73233 8.09999 3.68233 8.21666 3.58233 8.31666C3.48233 8.41666 3.36567 8.46666 3.23233 8.46666C3.099 8.46666 2.98789 8.42221 2.899 8.33332L0.815666 6.24999C0.760109 6.19444 0.718332 6.13066 0.690332 6.05866C0.662776 5.98621 0.648999 5.9111 0.648999 5.83332C0.648999 5.75555 0.662776 5.68066 0.690332 5.60866C0.718332 5.53621 0.760109 5.47221 0.815666 5.41666L2.899 3.33332C2.999 3.22221 3.11278 3.17221 3.24033 3.18332C3.36833 3.19443 3.48233 3.24999 3.58233 3.34999ZM10.399 -1.03855e-05C10.7323 -1.04147e-05 11.0157 0.116656 11.249 0.349989C11.4823 0.583323 11.599 0.866655 11.599 1.19999L11.599 10.4667C11.599 10.8 11.4823 11.0833 11.249 11.3167C11.0157 11.55 10.7323 11.6667 10.399 11.6667L6.41567 11.6667C6.28233 11.6667 6.16567 11.6195 6.06567 11.5253C5.96567 11.4307 5.91567 11.3111 5.91567 11.1667C5.91567 11.0222 5.96567 10.9029 6.06567 10.8087C6.16567 10.714 6.28233 10.6667 6.41567 10.6667L10.399 10.6667C10.4434 10.6667 10.4879 10.6444 10.5323 10.6C10.5768 10.5555 10.599 10.5111 10.599 10.4667L10.599 1.19999C10.599 1.15554 10.5768 1.1111 10.5323 1.06666C10.4879 1.02221 10.4434 0.99999 10.399 0.99999L6.41566 0.99999C6.28233 0.99999 6.16567 0.952878 6.06567 0.858656C5.96566 0.76399 5.91566 0.644434 5.91566 0.49999C5.91566 0.355546 5.96566 0.23599 6.06567 0.141324C6.16567 0.0471005 6.28233 -1.00256e-05 6.41566 -1.00373e-05L10.399 -1.03855e-05Z" fill="#F35242"/>
</svg>
