<svg width="13" height="11" viewBox="0 0 13 11" fill="none" xmlns="http://www.w3.org/2000/svg">
<path d="M5.66663 4.80012C5.02218 4.80012 4.47218 4.56945 4.01663 4.10812C3.56107 3.64723 3.33329 3.10012 3.33329 2.46679C3.33329 1.82234 3.56107 1.27234 4.01663 0.816787C4.47218 0.361231 5.02218 0.133453 5.66663 0.133453C6.31107 0.133453 6.86107 0.361231 7.31663 0.816787C7.77218 1.27234 7.99996 1.82234 7.99996 2.46679C7.99996 3.10012 7.77218 3.64723 7.31663 4.10812C6.86107 4.56945 6.31107 4.80012 5.66663 4.80012ZM1.26663 9.86679C1.09996 9.86679 0.958404 9.81123 0.841959 9.70012C0.72507 9.58901 0.666626 9.44456 0.666626 9.26679V8.38345C0.666626 8.05012 0.752848 7.74723 0.925293 7.47479C1.09729 7.20279 1.33885 6.98901 1.64996 6.83345C2.1944 6.56679 2.78885 6.33901 3.43329 6.15012C4.07774 5.96123 4.82218 5.86679 5.66663 5.86679C5.7444 5.86679 5.81107 5.86679 5.86663 5.86679C5.92218 5.86679 5.97774 5.8779 6.03329 5.90012C5.96663 6.05568 5.91107 6.2139 5.86663 6.37479C5.82218 6.53612 5.78885 6.70012 5.76663 6.86679H5.66663C4.89996 6.86679 4.21951 6.95568 3.62529 7.13345C3.03063 7.31123 2.52218 7.51123 2.09996 7.73345C1.95551 7.81123 1.84707 7.90567 1.77463 8.01679C1.70263 8.1279 1.66663 8.25012 1.66663 8.38345V8.86679H5.86663C5.91107 9.04456 5.97507 9.21945 6.05863 9.39145C6.14174 9.5639 6.22774 9.72234 6.31663 9.86679H1.26663ZM5.66663 3.80012C6.03329 3.80012 6.34729 3.66945 6.60863 3.40812C6.86951 3.14723 6.99996 2.83345 6.99996 2.46679C6.99996 2.10012 6.86951 1.78612 6.60863 1.52479C6.34729 1.2639 6.03329 1.13345 5.66663 1.13345C5.29996 1.13345 4.98618 1.2639 4.72529 1.52479C4.46396 1.78612 4.33329 2.10012 4.33329 2.46679C4.33329 2.83345 4.46396 3.14723 4.72529 3.40812C4.98618 3.66945 5.29996 3.80012 5.66663 3.80012ZM10.2 8.70012C10.5555 8.70012 10.8555 8.57523 11.1 8.32545C11.3444 8.07523 11.4666 7.77234 11.4666 7.41679C11.4666 7.07234 11.3444 6.77501 11.1 6.52479C10.8555 6.27501 10.5555 6.15012 10.2 6.15012C9.85551 6.15012 9.5584 6.27501 9.30863 6.52479C9.0584 6.77501 8.93329 7.07234 8.93329 7.41679C8.93329 7.77234 9.0584 8.07523 9.30863 8.32545C9.5584 8.57523 9.85551 8.70012 10.2 8.70012ZM9.58329 9.48345C9.42774 9.43901 9.28063 9.3779 9.14196 9.30012C9.00285 9.22234 8.86663 9.1279 8.73329 9.01679L8.09996 9.23345C8.03329 9.25568 7.97218 9.25279 7.91663 9.22479C7.86107 9.19723 7.81663 9.15567 7.78329 9.10012L7.53329 8.70012C7.49996 8.64456 7.48885 8.58345 7.49996 8.51679C7.51107 8.45012 7.5444 8.39456 7.59996 8.35012L8.11663 7.93345C8.06107 7.75567 8.03329 7.58345 8.03329 7.41679C8.03329 7.25012 8.06107 7.08345 8.11663 6.91679L7.59996 6.48345C7.5444 6.43901 7.51107 6.38345 7.49996 6.31679C7.48885 6.25012 7.49996 6.18901 7.53329 6.13345L7.78329 5.71679C7.82774 5.67234 7.87774 5.63612 7.93329 5.60812C7.98885 5.58056 8.0444 5.5779 8.09996 5.60012L8.73329 5.83345C8.85551 5.71123 8.98885 5.6139 9.13329 5.54145C9.27774 5.46945 9.42774 5.41123 9.58329 5.36679L9.69996 4.70012C9.72218 4.63345 9.75552 4.58056 9.79996 4.54145C9.8444 4.50279 9.89996 4.48345 9.96663 4.48345H10.45C10.5277 4.48345 10.5888 4.50279 10.6333 4.54145C10.6777 4.58056 10.7055 4.63345 10.7166 4.70012L10.8333 5.36679C10.9888 5.41123 11.1388 5.47234 11.2833 5.55012C11.4277 5.6279 11.5611 5.7279 11.6833 5.85012L12.3 5.60012C12.3666 5.5779 12.4306 5.58056 12.492 5.60812C12.5528 5.63612 12.6 5.6779 12.6333 5.73345L12.8833 6.16679C12.9166 6.22234 12.9277 6.28056 12.9166 6.34145C12.9055 6.40279 12.8722 6.45568 12.8166 6.50012L12.3 6.93345C12.3555 7.08901 12.3833 7.25567 12.3833 7.43345C12.3833 7.61123 12.3555 7.7779 12.3 7.93345L12.8166 8.35012C12.8722 8.39456 12.9055 8.45012 12.9166 8.51679C12.9277 8.58345 12.9166 8.64456 12.8833 8.70012L12.6333 9.11679C12.6 9.17234 12.5555 9.21123 12.5 9.23345C12.4444 9.25568 12.3833 9.25568 12.3166 9.23345L11.6833 9.01679C11.55 9.1279 11.414 9.22234 11.2753 9.30012C11.1362 9.3779 10.9888 9.43901 10.8333 9.48345L10.7166 10.1501C10.7055 10.2057 10.6777 10.2557 10.6333 10.3001C10.5888 10.3446 10.5277 10.3668 10.45 10.3668H9.96663C9.89996 10.3668 9.8444 10.3446 9.79996 10.3001C9.75552 10.2557 9.72218 10.2057 9.69996 10.1501L9.58329 9.48345Z" fill="#002145"/>
</svg>
