<svg width="14" height="10" viewBox="0 0 14 10" fill="none" xmlns="http://www.w3.org/2000/svg">
<path d="M8.16771 5.46668C7.70104 5.46668 7.3066 5.30557 6.98438 4.98334C6.66215 4.66112 6.50104 4.26668 6.50104 3.80001C6.50104 3.34445 6.66215 2.9529 6.98438 2.62534C7.3066 2.29734 7.70104 2.13334 8.16771 2.13334C8.63437 2.13334 9.02882 2.29734 9.35104 2.62534C9.67326 2.9529 9.83438 3.34445 9.83438 3.80001C9.83438 4.26668 9.67326 4.66112 9.35104 4.98334C9.02882 5.30557 8.63437 5.46668 8.16771 5.46668ZM3.76771 7.53334C3.43438 7.53334 3.15104 7.41668 2.91771 7.18334C2.68438 6.95001 2.56771 6.66668 2.56771 6.33334V1.28334C2.56771 0.95001 2.68438 0.666677 2.91771 0.433344C3.15104 0.20001 3.43438 0.0833435 3.76771 0.0833435H12.5677C12.901 0.0833435 13.1844 0.20001 13.4177 0.433344C13.651 0.666677 13.7677 0.95001 13.7677 1.28334V6.33334C13.7677 6.66668 13.651 6.95001 13.4177 7.18334C13.1844 7.41668 12.901 7.53334 12.5677 7.53334H3.76771ZM4.76771 6.53334H11.5677C11.5677 6.20001 11.6844 5.91668 11.9177 5.68334C12.151 5.45001 12.4344 5.33334 12.7677 5.33334V2.28334C12.4344 2.28334 12.151 2.16379 11.9177 1.92468C11.6844 1.68601 11.5677 1.40557 11.5677 1.08334H4.76771C4.76771 1.41668 4.65104 1.70001 4.41771 1.93334C4.18438 2.16668 3.90104 2.28334 3.56771 2.28334V5.33334C3.90104 5.33334 4.18438 5.45001 4.41771 5.68334C4.65104 5.91668 4.76771 6.20001 4.76771 6.53334ZM1.43438 9.86668C1.10104 9.86668 0.817708 9.75001 0.584375 9.51668C0.351042 9.28334 0.234375 9.00001 0.234375 8.66668V2.56668C0.234375 2.42223 0.281486 2.30268 0.375708 2.20801C0.470375 2.11379 0.58993 2.06668 0.734375 2.06668C0.878819 2.06668 0.998375 2.11379 1.09304 2.20801C1.18726 2.30268 1.23437 2.42223 1.23437 2.56668V8.66668C1.23437 8.72223 1.2566 8.76934 1.30104 8.80801C1.34549 8.84712 1.38993 8.86668 1.43438 8.86668H11.2844C11.4288 8.86668 11.5482 8.91668 11.6424 9.01668C11.737 9.11668 11.7844 9.23334 11.7844 9.36668C11.7844 9.51112 11.737 9.63046 11.6424 9.72468C11.5482 9.81934 11.4288 9.86668 11.2844 9.86668H1.43438ZM3.76771 6.53334H3.56771C3.56771 6.53334 3.56771 6.51379 3.56771 6.47468C3.56771 6.43601 3.56771 6.3889 3.56771 6.33334V1.28334C3.56771 1.22779 3.56771 1.18068 3.56771 1.14201C3.56771 1.1029 3.56771 1.08334 3.56771 1.08334H3.76771C3.71215 1.08334 3.66504 1.1029 3.62638 1.14201C3.58726 1.18068 3.56771 1.22779 3.56771 1.28334V6.33334C3.56771 6.3889 3.58726 6.43601 3.62638 6.47468C3.66504 6.51379 3.71215 6.53334 3.76771 6.53334Z" fill="#002145"/>
</svg>
