<svg width="34" height="34" viewBox="0 0 34 34" fill="none" xmlns="http://www.w3.org/2000/svg">
<path d="M5.72168 14.1826C5.72168 7.89266 10.8107 2.83334 17 2.83334C23.1893 2.83334 28.2783 7.89266 28.2783 14.1826" stroke="#063468" stroke-width="1.5" stroke-miterlimit="10" stroke-linecap="round"/>
<path d="M27.3155 27.9932C25.8026 30.7279 22.3641 31.6851 19.6133 30.181" stroke="#063468" stroke-width="1.5" stroke-miterlimit="10" stroke-linecap="round"/>
<path d="M7.92225 25.1217H5.17144C3.93358 25.1217 2.83325 24.0278 2.83325 22.7971V19.2419C2.83325 18.0113 3.93358 16.9174 5.17144 16.9174H7.92225C8.60995 16.9174 9.02257 17.4643 9.02257 18.0113V23.891C9.02257 24.5747 8.60995 25.1217 7.92225 25.1217Z" fill="#063468" stroke="#063468" stroke-width="1.5" stroke-miterlimit="10" stroke-linecap="round" stroke-linejoin="round"/>
<path d="M26.0776 16.9174H28.8284C30.0663 16.9174 31.1666 18.0113 31.1666 19.2419V22.7971C31.1666 24.0278 30.0663 25.1217 28.8284 25.1217H26.0776C25.3899 25.1217 24.9773 24.5747 24.9773 24.0278V18.148C24.9773 17.4643 25.3899 16.9174 26.0776 16.9174Z" fill="#063468" stroke="#063468" stroke-width="1.5" stroke-miterlimit="10" stroke-linecap="round" stroke-linejoin="round"/>
<path d="M19.5386 29.756C20.0042 28.977 19.5875 27.8764 18.6079 27.2979C17.6283 26.7194 16.4569 26.882 15.9913 27.6611C15.5258 28.4401 15.9425 29.5407 16.9221 30.1192C17.9017 30.6977 19.0731 30.5351 19.5386 29.756Z" fill="#063468" stroke="#063468" stroke-width="1.5" stroke-miterlimit="10" stroke-linecap="round"/>
</svg>
