<svg width="24" height="24" viewBox="0 0 24 24" fill="none" xmlns="http://www.w3.org/2000/svg">
<path d="M17.0433 0.0511627C16.9261 0.116986 14.5349 2.50492 14.4763 2.61462C14.3811 2.79381 14.4433 3.06808 14.5971 3.14121C14.6338 3.1595 14.8791 3.18144 15.1391 3.19241L15.6151 3.21069L15.6261 3.60198L15.6371 3.99692H8.78944C1.21671 3.99692 1.61586 3.98595 1.11418 4.23096C0.645465 4.465 0.304912 4.84531 0.110833 5.34996C0.0192869 5.584 0.0192869 5.6096 0.015625 6.59329V7.59893H0.40012H0.784615L0.802925 6.62986C0.821234 5.69736 0.824896 5.65348 0.909118 5.48892C1.02264 5.26585 1.24967 5.03912 1.48037 4.91479L1.66346 4.81971H8.6393H15.6151L15.6261 8.61188L15.6335 12.4077H16.0179H16.4024V7.56236C16.4024 2.29282 16.4134 2.56343 16.201 2.46835C16.1498 2.44275 16.0399 2.42447 15.963 2.42447C15.8825 2.42447 15.8165 2.4135 15.8165 2.39521C15.8165 2.35499 17.1824 0.99829 17.2264 0.99829C17.2776 0.99829 18.6325 2.3623 18.6142 2.39521C18.6032 2.40984 18.5263 2.42447 18.4421 2.42447C18.3542 2.42447 18.248 2.45007 18.2041 2.48298C18.0027 2.62194 18.0137 2.36596 18.0137 7.37952V12.0054H18.4165H18.8193V8.39978V4.79777L19.7823 4.80874C20.6465 4.81971 20.7564 4.82703 20.8882 4.89285C21.1189 5.00256 21.3386 5.19271 21.4412 5.36824C21.6426 5.71564 21.6389 5.584 21.6389 9.96492V14.0167H22.0234H22.4079V9.90641C22.4079 7.38683 22.3932 5.72661 22.3713 5.6096C22.2394 4.90748 21.6609 4.29678 20.9248 4.07737C20.793 4.03714 20.4818 4.01886 19.7823 4.00789L18.8193 3.9896V3.59101V3.19241H19.2697C19.7823 3.19241 19.8702 3.16315 19.9654 2.96203C20.0204 2.85232 20.0277 2.80478 19.9947 2.7097C19.9654 2.62559 19.5516 2.18677 18.6801 1.31644C17.501 0.138928 17.3948 0.0401926 17.2593 0.0255651C17.1824 0.0182514 17.0835 0.0292215 17.0433 0.0511627Z" fill="#063468"/>
<path d="M19.6289 0.402263V0.804518L19.8596 0.830116C20.5078 0.895939 21.0644 1.44081 21.2072 2.15024L21.2548 2.38794H21.6356H22.0201L21.9945 2.13196C21.9395 1.5944 21.7125 1.13729 21.2951 0.724067C20.8776 0.307184 20.4125 0.0841155 19.8596 0.0256057L19.6289 7.60867e-06V0.402263Z" fill="#063468"/>
<path d="M2.01562 6.00827V6.41052H2.40012H2.78462V6.00827V5.60601H2.40012H2.01562V6.00827Z" fill="#063468"/>
<path d="M3.60326 5.65356C3.59228 5.68281 3.59228 5.85834 3.59594 6.0485L3.60693 6.39224L4.00241 6.40321L4.39423 6.41418V6.00827V5.60602H4.00973C3.72044 5.60602 3.61791 5.61699 3.60326 5.65356Z" fill="#063468"/>
<path d="M5.19922 6.00827V6.41052H5.60202H6.00483V6.00827V5.60601H5.60202H5.19922V6.00827Z" fill="#063468"/>
<path d="M11.8221 6.06673C11.5987 6.1874 11.6097 5.91314 11.6097 10.7804V15.2272L11.2179 15.2162L10.8224 15.2052L10.8041 12.1225L10.7858 9.0361L10.6649 8.93005L10.5478 8.824H9.22583C7.83432 8.824 7.74643 8.83497 7.66954 8.99588C7.65123 9.03244 7.62925 10.444 7.61827 12.1335L7.59996 15.2052L7.20814 15.2162L6.81266 15.2272V13.5926C6.81266 11.7787 6.81266 11.7714 6.57464 11.6617C6.39521 11.574 4.00768 11.574 3.82825 11.6617C3.59389 11.7714 3.59022 11.8117 3.59022 13.6145V15.2235H2.80292H2.01562V15.6075V15.9915H7.21546H12.4153V11.4021V6.81273H13.2209H14.0265V10.0125V13.2122H14.411H14.7955V9.73456V6.25688L14.671 6.13255L14.5465 6.00822H13.2319C12.1443 6.01187 11.9026 6.01919 11.8221 6.06673ZM9.99848 12.4077V15.2235L9.20385 15.2162L8.40557 15.2052L8.39458 12.4443C8.39092 10.9267 8.39458 9.66142 8.40557 9.63583C8.41655 9.60291 8.61429 9.59194 9.21118 9.59194H9.99848V12.4077ZM6.00705 13.8156V15.2235L5.21243 15.2162L4.41414 15.2052L4.40316 13.8047L4.39583 12.4077H5.20144H6.00705V13.8156Z" fill="#063468"/>
<path d="M0.00732371 13.4207L0.0183093 18.4233L0.109856 18.661C0.380833 19.3558 0.933774 19.8239 1.64417 19.9555C1.90783 20.0067 2.39852 20.014 5.30969 20.014H8.66762L8.60537 20.2444C8.56875 20.3687 8.52114 20.5187 8.50283 20.5808C8.48086 20.6393 8.4296 20.8149 8.38565 20.9648C8.34171 21.1147 8.25016 21.4183 8.18425 21.6413C8.11834 21.8607 8.01947 22.1899 7.96454 22.3727C7.91327 22.5519 7.85468 22.742 7.83637 22.7932C7.81807 22.8444 7.78511 22.9541 7.76314 23.0382L7.72286 23.1955H7.26879H6.81105V23.5977V24H11.2053H15.5995V23.5977V23.1991L15.1528 23.1882L14.706 23.1772L14.6621 23.0492C14.6364 22.9797 14.5925 22.8371 14.5632 22.7384C14.3105 21.879 14.1897 21.5133 14.1567 21.5133C14.1348 21.5133 13.97 21.5609 13.7869 21.6194C13.5123 21.7035 13.4573 21.7364 13.4683 21.7913C13.4793 21.8571 13.5159 21.9887 13.7649 22.8115C13.8272 23.009 13.8711 23.1772 13.8638 23.1845C13.8601 23.1918 12.659 23.1918 11.198 23.1882L8.54311 23.1772L8.64565 22.8481C8.70057 22.6652 8.77747 22.402 8.82141 22.263C8.8617 22.1204 9.01183 21.6267 9.15098 21.1659C9.29013 20.7015 9.42562 20.2554 9.44759 20.1713L9.48787 20.014L10.9416 20.0067L12.3954 19.9957L12.4064 19.6044L12.4174 19.2095L7.04175 19.2022L1.66615 19.1912L1.48305 19.0961C1.25236 18.9718 1.02532 18.7451 0.911803 18.522C0.842227 18.3831 0.823918 18.277 0.812932 17.9735L0.798285 17.6005H6.40459H12.0146L12.0036 17.2055L11.9926 16.8143L6.40093 16.8033L0.805609 16.796V12.6089V8.42176H0.402804H0L0.00732371 13.4207Z" fill="#063468"/>
<path d="M17.0066 12.8319C16.948 12.8392 16.7832 12.8758 16.6404 12.905C15.6846 13.1171 14.8973 13.545 14.2235 14.2179C13.5571 14.8834 13.1579 15.6075 12.9163 16.5839C12.843 16.8764 12.832 17.019 12.832 17.6005C12.832 18.1819 12.843 18.3245 12.9163 18.6171C13.1579 19.5898 13.5571 20.3212 14.2235 20.9867C14.8973 21.6632 15.67 22.0801 16.677 22.3068C17.1311 22.4092 18.2076 22.3983 18.6544 22.2849C19.0901 22.1752 19.4124 22.0582 19.7603 21.8826L20.0459 21.74L21.0749 22.7603C22.2686 23.9415 22.3236 23.9817 22.8289 23.9817C23.0743 23.9817 23.1548 23.9634 23.3269 23.8793C23.5723 23.7623 23.8066 23.5209 23.9165 23.2759C23.9751 23.1479 23.997 23.0309 23.997 22.8115C24.0007 22.3068 23.9604 22.2483 22.774 21.0562L21.756 20.0323L21.8988 19.747C22.3199 18.9206 22.4957 17.904 22.3748 16.9971C22.1624 15.4027 21.1774 14.0204 19.7529 13.311C19.0755 12.9745 18.5189 12.8429 17.7206 12.8283C17.3874 12.8209 17.0688 12.8246 17.0066 12.8319ZM18.2699 13.6547C18.5482 13.6986 18.7679 13.7644 19.1561 13.9143C19.9983 14.2398 20.8076 15.0077 21.2177 15.8598C21.4264 16.3023 21.518 16.6058 21.5912 17.136C21.6498 17.5493 21.6498 17.6078 21.5912 18.0576C21.3532 19.9445 19.958 21.3378 18.0685 21.5755C17.6181 21.634 17.5595 21.634 17.1457 21.5755C16.6147 21.5023 16.3108 21.4109 15.8677 21.2025C15.0768 20.8222 14.3371 20.0798 13.9855 19.3046C13.6926 18.6646 13.601 18.16 13.6303 17.403C13.6559 16.7777 13.7475 16.4083 14.0295 15.8159C14.2895 15.2674 14.8753 14.6091 15.4136 14.2654C15.8824 13.9655 16.5561 13.7022 17.0066 13.6401C17.2409 13.6072 18.0429 13.6181 18.2699 13.6547ZM23.2134 22.8078C23.2134 22.9505 23.1951 23.0016 23.1072 23.0894C23.0193 23.1772 22.9681 23.1955 22.8252 23.1955H22.6495L21.6864 22.2374L20.7233 21.2756L21.0053 20.994L21.2909 20.7088L22.2503 21.6706L23.2134 22.6323V22.8078Z" fill="#063468"/>
<path d="M17.0827 14.4556C16.7897 14.5068 16.5187 14.6019 16.2148 14.7481C15.8376 14.9346 15.6289 15.0809 15.3543 15.3588C14.2777 16.4303 14.1239 18.1271 14.9844 19.4143C15.1309 19.641 15.563 20.0725 15.7937 20.2298C16.3466 20.6065 16.9325 20.782 17.6356 20.782C18.1812 20.782 18.5547 20.6942 19.0527 20.4492C19.9426 20.0104 20.5871 19.1474 20.7592 18.171C20.8104 17.8894 20.8104 17.308 20.7592 17.03C20.6127 16.2036 20.0744 15.3881 19.386 14.9493C18.8221 14.5909 18.3863 14.4519 17.7418 14.4337C17.4818 14.43 17.1852 14.4373 17.0827 14.4556ZM18.0567 15.2455C18.9905 15.421 19.7339 16.1304 19.9572 17.0556C20.0488 17.4433 20.0488 17.7578 19.9572 18.1454C19.7412 19.0377 19.0527 19.7251 18.1593 19.9409C17.7711 20.0323 17.4562 20.0323 17.068 19.9409C16.1416 19.7178 15.4312 18.9755 15.2554 18.043C15.1822 17.6554 15.1822 17.5457 15.2664 17.1324C15.4715 16.156 16.2185 15.421 17.1925 15.2418C17.5441 15.176 17.7015 15.176 18.0567 15.2455Z" fill="#063468"/>
<path d="M17.1991 16.0682C16.6242 16.2035 16.1116 16.785 16.053 17.3737L16.0273 17.6005H16.4192C16.7854 17.6005 16.8073 17.5968 16.8073 17.5273C16.8073 17.2238 17.2284 16.7996 17.5324 16.796C17.6093 16.796 17.6129 16.785 17.6129 16.412V16.028L17.4774 16.0317C17.4005 16.0353 17.276 16.05 17.1991 16.0682Z" fill="#063468"/>
</svg>
