<svg width="22" height="24" viewBox="0 0 22 24" fill="none" xmlns="http://www.w3.org/2000/svg">
<path d="M20.294 13.9L19.85 13.644C20.0499 12.5564 20.0499 11.4416 19.85 10.354L20.294 10.098C20.6355 9.90102 20.9348 9.63871 21.1748 9.32606C21.4149 9.01341 21.591 8.65654 21.6932 8.27582C21.7953 7.8951 21.8215 7.49799 21.7702 7.10716C21.7188 6.71633 21.591 6.33944 21.394 5.998C21.1971 5.65656 20.9348 5.35727 20.6221 5.1172C20.3095 4.87714 19.9526 4.70101 19.5719 4.59886C19.1911 4.49672 18.794 4.47056 18.4032 4.52189C18.0124 4.57321 17.6355 4.70102 17.294 4.898L16.849 5.155C16.0086 4.43692 15.0427 3.88025 14 3.513V3C14 2.20435 13.684 1.44129 13.1214 0.87868C12.5588 0.31607 11.7957 0 11 0C10.2044 0 9.44133 0.31607 8.87872 0.87868C8.31611 1.44129 8.00004 2.20435 8.00004 3V3.513C6.95743 3.88157 5.99189 4.4396 5.15204 5.159L4.70504 4.9C4.01548 4.50218 3.19612 4.39457 2.42723 4.60086C1.65833 4.80715 1.00287 5.31044 0.605043 6C0.207218 6.68956 0.0996151 7.50892 0.305905 8.27782C0.512195 9.04672 1.01548 9.70218 1.70504 10.1L2.14904 10.356C1.94915 11.4436 1.94915 12.5584 2.14904 13.646L1.70504 13.902C1.01548 14.2998 0.512195 14.9553 0.305905 15.7242C0.0996151 16.4931 0.207218 17.3124 0.605043 18.002C1.00287 18.6916 1.65833 19.1948 2.42723 19.4011C3.19612 19.6074 4.01548 19.4998 4.70504 19.102L5.15004 18.845C5.99081 19.5632 6.95702 20.1199 8.00004 20.487V21C8.00004 21.7956 8.31611 22.5587 8.87872 23.1213C9.44133 23.6839 10.2044 24 11 24C11.7957 24 12.5588 23.6839 13.1214 23.1213C13.684 22.5587 14 21.7956 14 21V20.487C15.0427 20.1184 16.0082 19.5604 16.848 18.841L17.295 19.099C17.9846 19.4968 18.804 19.6044 19.5729 19.3981C20.3418 19.1918 20.9972 18.6886 21.395 17.999C21.7929 17.3094 21.9005 16.4901 21.6942 15.7212C21.4879 14.9523 20.9846 14.2968 20.295 13.899L20.294 13.9ZM17.746 10.124C18.0847 11.3511 18.0847 12.6469 17.746 13.874C17.6869 14.0876 17.7004 14.3147 17.7844 14.5198C17.8684 14.7249 18.0181 14.8963 18.21 15.007L19.294 15.633C19.5239 15.7656 19.6916 15.9841 19.7603 16.2403C19.829 16.4966 19.7932 16.7697 19.6605 16.9995C19.5279 17.2293 19.3095 17.397 19.0532 17.4658C18.7969 17.5345 18.5239 17.4986 18.294 17.366L17.208 16.738C17.0159 16.6267 16.7923 16.5826 16.5723 16.6124C16.3523 16.6423 16.1485 16.7445 15.993 16.903C15.103 17.8117 13.9816 18.46 12.75 18.778C12.5351 18.8333 12.3446 18.9585 12.2086 19.1339C12.0727 19.3094 11.9989 19.525 11.999 19.747V21C11.999 21.2652 11.8937 21.5196 11.7062 21.7071C11.5186 21.8946 11.2643 22 10.999 22C10.7338 22 10.4795 21.8946 10.2919 21.7071C10.1044 21.5196 9.99904 21.2652 9.99904 21V19.748C9.99915 19.526 9.92542 19.3104 9.78945 19.1349C9.65348 18.9595 9.46301 18.8343 9.24804 18.779C8.01639 18.4597 6.89537 17.81 6.00604 16.9C5.85057 16.7415 5.64678 16.6393 5.4268 16.6094C5.20682 16.5796 4.98315 16.6237 4.79104 16.735L3.70704 17.362C3.59327 17.4287 3.46743 17.4722 3.33677 17.4901C3.2061 17.508 3.0732 17.4998 2.9457 17.4661C2.8182 17.4324 2.69862 17.3738 2.59386 17.2937C2.4891 17.2136 2.40122 17.1135 2.33528 16.9993C2.26934 16.8851 2.22664 16.759 2.20964 16.6282C2.19264 16.4974 2.20168 16.3646 2.23623 16.2373C2.27079 16.11 2.33017 15.9909 2.41098 15.8866C2.49178 15.7824 2.5924 15.6952 2.70704 15.63L3.79104 15.004C3.98299 14.8933 4.13272 14.7219 4.2167 14.5168C4.30069 14.3117 4.31417 14.0846 4.25504 13.871C3.9164 12.6439 3.9164 11.3481 4.25504 10.121C4.31311 9.90788 4.29898 9.68153 4.21486 9.47729C4.13074 9.27305 3.98136 9.10241 3.79004 8.992L2.70604 8.366C2.47623 8.23339 2.30851 8.01492 2.23978 7.75865C2.17105 7.50239 2.20693 7.22931 2.33954 6.9995C2.47215 6.76969 2.69062 6.60197 2.94689 6.53324C3.20316 6.46451 3.47623 6.50039 3.70604 6.633L4.79204 7.261C4.98362 7.37251 5.20682 7.41721 5.42657 7.38807C5.64632 7.35893 5.85015 7.25759 6.00604 7.1C6.89613 6.19134 8.01747 5.54302 9.24904 5.225C9.46467 5.16956 9.65564 5.04375 9.79168 4.8675C9.92771 4.69125 10.001 4.47464 10 4.252V3C10 2.73478 10.1054 2.48043 10.2929 2.29289C10.4805 2.10536 10.7348 2 11 2C11.2653 2 11.5196 2.10536 11.7071 2.29289C11.8947 2.48043 12 2.73478 12 3V4.252C11.9999 4.47396 12.0737 4.68964 12.2096 4.86508C12.3456 5.04052 12.5361 5.16573 12.751 5.221C13.9831 5.54015 15.1044 6.18988 15.994 7.1C16.1495 7.25847 16.3533 7.36069 16.5733 7.39057C16.7933 7.42044 17.0169 7.37626 17.209 7.265L18.293 6.638C18.4068 6.5713 18.5327 6.52777 18.6633 6.5099C18.794 6.49204 18.9269 6.50019 19.0544 6.5339C19.1819 6.56761 19.3015 6.6262 19.4062 6.70631C19.511 6.78642 19.5989 6.88646 19.6648 7.00067C19.7307 7.11488 19.7734 7.24101 19.7904 7.37179C19.8074 7.50257 19.7984 7.63542 19.7639 7.76269C19.7293 7.88997 19.6699 8.00915 19.5891 8.11337C19.5083 8.2176 19.4077 8.30482 19.293 8.37L18.209 8.996C18.0181 9.10671 17.8691 9.27748 17.7854 9.48169C17.7016 9.68591 17.6878 9.9121 17.746 10.125V10.124Z" fill="#063468"/>
</svg>
