<svg width="19" height="19" viewBox="0 0 19 19" fill="none" xmlns="http://www.w3.org/2000/svg">
<path d="M1.12776 0.126495H7.11944C7.66868 0.126495 8.11806 0.581831 8.11806 1.13835V7.2095C8.11806 7.76602 7.66868 8.22136 7.11944 8.22136H1.12776C0.578526 8.22136 0.12915 7.76602 0.12915 7.2095V1.13835C0.12915 0.581831 0.578526 0.126495 1.12776 0.126495ZM11.1139 0.126495H17.1056C17.6548 0.126495 18.1042 0.581831 18.1042 1.13835V7.2095C18.1042 7.76602 17.6548 8.22136 17.1056 8.22136H11.1139C10.5647 8.22136 10.1153 7.76602 10.1153 7.2095V1.13835C10.1153 0.581831 10.5647 0.126495 11.1139 0.126495ZM1.12776 10.2451H7.11944C7.66868 10.2451 8.11806 10.7004 8.11806 11.2569V17.3281C8.11806 17.8846 7.66868 18.3399 7.11944 18.3399H1.12776C0.578526 18.3399 0.12915 17.8846 0.12915 17.3281V11.2569C0.12915 10.7004 0.578526 10.2451 1.12776 10.2451ZM14.1097 10.2451C13.5605 10.2451 13.1111 10.7004 13.1111 11.2569V13.2806H11.1139C10.5647 13.2806 10.1153 13.736 10.1153 14.2925C10.1153 14.849 10.5647 15.3044 11.1139 15.3044H13.1111V17.3281C13.1111 17.8846 13.5605 18.3399 14.1097 18.3399C14.659 18.3399 15.1083 17.8846 15.1083 17.3281V15.3044H17.1056C17.6548 15.3044 18.1042 14.849 18.1042 14.2925C18.1042 13.736 17.6548 13.2806 17.1056 13.2806H15.1083V11.2569C15.1083 10.7004 14.659 10.2451 14.1097 10.2451Z" fill="black"/>
</svg>
