<svg width="12" height="12" viewBox="0 0 12 12" fill="none" xmlns="http://www.w3.org/2000/svg">
<path d="M6.00016 9.28126C6.16544 9.28126 6.30408 9.22293 6.41608 9.10626C6.52769 8.98959 6.5835 8.84862 6.5835 8.68334C6.5835 8.51807 6.52769 8.37709 6.41608 8.26043C6.30408 8.14376 6.16544 8.08543 6.00016 8.08543C5.82516 8.08543 5.68186 8.14376 5.57025 8.26043C5.45825 8.37709 5.40225 8.51807 5.40225 8.68334C5.40225 8.84862 5.45825 8.98959 5.57025 9.10626C5.68186 9.22293 5.82516 9.28126 6.00016 9.28126ZM6.04391 3.50626C6.3453 3.50626 6.58583 3.58637 6.7655 3.74659C6.94555 3.9072 7.03558 4.12362 7.03558 4.39584C7.03558 4.57084 6.98444 4.74332 6.88216 4.91326C6.78027 5.08359 6.62725 5.26112 6.42308 5.44584C6.14114 5.6889 5.93697 5.9197 5.81058 6.13826C5.68419 6.3572 5.61613 6.58334 5.60641 6.81668C5.59669 6.9139 5.63072 6.99887 5.7085 7.07159C5.78627 7.1447 5.87863 7.18126 5.98558 7.18126C6.09252 7.18126 6.18741 7.1447 6.27025 7.07159C6.35269 6.99887 6.40364 6.90904 6.42308 6.80209C6.45225 6.63682 6.51544 6.48359 6.61266 6.34243C6.70989 6.20165 6.86544 6.02432 7.07933 5.81043C7.38072 5.52848 7.58975 5.2757 7.70641 5.05209C7.82308 4.82848 7.88141 4.58543 7.88141 4.32293C7.88141 3.85626 7.71127 3.47457 7.371 3.17784C7.03072 2.88151 6.59322 2.73334 6.0585 2.73334C5.69877 2.73334 5.36822 2.80859 5.06683 2.95909C4.76544 3.10998 4.52725 3.33612 4.35225 3.63751C4.30363 3.73473 4.28672 3.82962 4.3015 3.92218C4.31589 4.01434 4.37169 4.08959 4.46891 4.14793C4.55641 4.20626 4.66102 4.2257 4.78275 4.20626C4.90408 4.18682 5.00363 4.12362 5.08141 4.01668C5.19808 3.86112 5.33186 3.73707 5.48275 3.64451C5.63325 3.55234 5.8203 3.50626 6.04391 3.50626ZM6.00016 11.5417C5.23211 11.5417 4.51266 11.3958 3.84183 11.1042C3.171 10.8125 2.58513 10.4188 2.08425 9.92293C1.58375 9.42709 1.18766 8.84123 0.895996 8.16534C0.604329 7.48984 0.458496 6.76807 0.458496 6.00001C0.458496 5.23195 0.604329 4.50998 0.895996 3.83409C1.18766 3.15859 1.58375 2.57293 2.08425 2.07709C2.58513 1.58126 3.171 1.18751 3.84183 0.895844C4.51266 0.604177 5.23211 0.458344 6.00016 0.458344C6.77794 0.458344 7.50225 0.604177 8.17308 0.895844C8.84391 1.18751 9.42977 1.58126 9.93066 2.07709C10.4312 2.57293 10.8249 3.15859 11.1119 3.83409C11.3985 4.50998 11.5418 5.23195 11.5418 6.00001C11.5418 6.76807 11.3985 7.48984 11.1119 8.16534C10.8249 8.84123 10.4312 9.42709 9.93066 9.92293C9.42977 10.4188 8.84391 10.8125 8.17308 11.1042C7.50225 11.3958 6.77794 11.5417 6.00016 11.5417ZM6.00016 10.6667C7.30294 10.6667 8.40641 10.2123 9.31058 9.30343C10.2147 8.3942 10.6668 7.29307 10.6668 6.00001C10.6668 4.70695 10.2147 3.60582 9.31058 2.69659C8.40641 1.78776 7.30294 1.33334 6.00016 1.33334C4.71683 1.33334 3.61822 1.78776 2.70433 2.69659C1.79044 3.60582 1.3335 4.70695 1.3335 6.00001C1.3335 7.29307 1.79044 8.3942 2.70433 9.30343C3.61822 10.2123 4.71683 10.6667 6.00016 10.6667Z" fill="#002145"/>
</svg>