<svg width="24" height="24" viewBox="0 0 24 24" fill="none" xmlns="http://www.w3.org/2000/svg">
<mask id="mask0_1373_4387" style="mask-type:alpha" maskUnits="userSpaceOnUse" x="0" y="0" width="24" height="24">
<rect width="24" height="24" fill="#D9D9D9"/>
</mask>
<g mask="url(#mask0_1373_4387)">
<path d="M12 13.075C12.2167 13.075 12.396 13.004 12.538 12.862C12.6793 12.7207 12.75 12.5417 12.75 12.325V7.8C12.75 7.6 12.6793 7.429 12.538 7.287C12.396 7.14567 12.2167 7.075 12 7.075C11.7833 7.075 11.6043 7.14567 11.463 7.287C11.321 7.429 11.25 7.60833 11.25 7.825V12.35C11.25 12.55 11.321 12.7207 11.463 12.862C11.6043 13.004 11.7833 13.075 12 13.075ZM12 16.725C12.2333 16.725 12.425 16.65 12.575 16.5C12.725 16.35 12.8 16.1583 12.8 15.925C12.8 15.6917 12.725 15.5 12.575 15.35C12.425 15.2 12.2333 15.125 12 15.125C11.7667 15.125 11.575 15.2 11.425 15.35C11.275 15.5 11.2 15.6917 11.2 15.925C11.2 16.1583 11.275 16.35 11.425 16.5C11.575 16.65 11.7667 16.725 12 16.725ZM12 21.5C10.6833 21.5 9.446 21.25 8.288 20.75C7.12933 20.25 6.125 19.575 5.275 18.725C4.425 17.875 3.75 16.8707 3.25 15.712C2.75 14.554 2.5 13.3167 2.5 12C2.5 10.6833 2.75 9.44567 3.25 8.287C3.75 7.129 4.425 6.125 5.275 5.275C6.125 4.425 7.12933 3.75 8.288 3.25C9.446 2.75 10.6833 2.5 12 2.5C13.3167 2.5 14.5543 2.75 15.713 3.25C16.871 3.75 17.875 4.425 18.725 5.275C19.575 6.125 20.25 7.129 20.75 8.287C21.25 9.44567 21.5 10.6833 21.5 12C21.5 13.3167 21.25 14.554 20.75 15.712C20.25 16.8707 19.575 17.875 18.725 18.725C17.875 19.575 16.871 20.25 15.713 20.75C14.5543 21.25 13.3167 21.5 12 21.5ZM12 20C14.2167 20 16.1043 19.221 17.663 17.663C19.221 16.1043 20 14.2167 20 12C20 9.78333 19.221 7.89567 17.663 6.337C16.1043 4.779 14.2167 4 12 4C9.78333 4 7.896 4.779 6.338 6.337C4.77933 7.89567 4 9.78333 4 12C4 14.2167 4.77933 16.1043 6.338 17.663C7.896 19.221 9.78333 20 12 20Z" fill="#0A65CD"/>
</g>
</svg>
