<svg width="196" height="173" viewBox="0 0 196 173" fill="none" xmlns="http://www.w3.org/2000/svg">
<g filter="url(#filter0_f_3301_8744)">
<path fill-rule="evenodd" clip-rule="evenodd" d="M31.4652 77.3657C48.7043 77.3657 62.6793 63.6742 62.6793 46.7848C62.6793 44.3799 62.3959 42.0399 61.8602 39.7949H37.5469C29.2626 39.7949 22.5469 46.5107 22.5469 54.7949V76.0993C25.3727 76.9232 28.3662 77.3657 31.4652 77.3657Z" fill="#A6D6FF"/>
</g>
<path fill-rule="evenodd" clip-rule="evenodd" d="M61.0421 40.6485H38.4017C30.1175 40.6485 23.4017 47.3643 23.4017 55.6485V76.1278C11.0568 72.4538 2.05469 61.018 2.05469 47.4796C2.05469 30.9741 15.435 17.5938 31.9405 17.5938C46.0958 17.5938 57.9525 27.4349 61.0421 40.6485Z" fill="#A6D6FF"/>
<g filter="url(#filter1_f_3301_8744)">
<path fill-rule="evenodd" clip-rule="evenodd" d="M170.268 98.9008V128.968C170.268 137.253 163.552 143.968 155.268 143.968H120.003C119.37 141.222 119.035 138.364 119.035 135.43C119.035 114.208 136.53 97.0049 158.111 97.0049C162.355 97.0049 166.442 97.6703 170.268 98.9008Z" fill="#1991F8"/>
</g>
<path fill-rule="evenodd" clip-rule="evenodd" d="M119.19 143.358L152.585 143.358C160.869 143.358 167.585 136.642 167.585 128.358L167.585 97.7419C183.457 102.466 195.031 117.169 195.031 134.575C195.031 155.797 177.828 173 156.607 173C138.407 173 123.163 160.347 119.19 143.358Z" fill="#1991F8"/>
<path d="M23.4023 55.6484C23.4023 47.3642 30.1181 40.6484 38.4023 40.6484H153.562C161.846 40.6484 168.562 47.3642 168.562 55.6484V128.114C168.562 136.398 161.846 143.114 153.562 143.114H38.4024C30.1181 143.114 23.4023 136.398 23.4023 128.114V55.6484Z" fill="#D7E7FF" fill-opacity="0.6" stroke="url(#paint0_linear_3301_8744)" stroke-width="1.3"/>
<g filter="url(#filter2_d_3301_8744)">
<rect x="2" y="99" width="46" height="21" rx="4" fill="#F0F4FF"/>
<rect x="2" y="99" width="46" height="21" rx="4" stroke="url(#paint1_linear_3301_8744)"/>
</g>
<g filter="url(#filter3_d_3301_8744)">
<rect x="73" y="99" width="46" height="21" rx="4" fill="#F0F4FF"/>
<rect x="73" y="99" width="46" height="21" rx="4" stroke="url(#paint2_linear_3301_8744)"/>
</g>
<path d="M67 110.5C67.2761 110.5 67.5 110.276 67.5 110C67.5 109.724 67.2761 109.5 67 109.5V110.5ZM53.6464 109.646C53.4512 109.842 53.4512 110.158 53.6464 110.354L56.8284 113.536C57.0237 113.731 57.3403 113.731 57.5355 113.536C57.7308 113.34 57.7308 113.024 57.5355 112.828L54.7071 110L57.5355 107.172C57.7308 106.976 57.7308 106.66 57.5355 106.464C57.3403 106.269 57.0237 106.269 56.8284 106.464L53.6464 109.646ZM67 109.5H54V110.5H67V109.5Z" fill="#111111" fill-opacity="0.9"/>
<defs>
<filter id="filter0_f_3301_8744" x="17.5469" y="34.7949" width="50.1328" height="47.5703" filterUnits="userSpaceOnUse" color-interpolation-filters="sRGB">
<feFlood flood-opacity="0" result="BackgroundImageFix"/>
<feBlend mode="normal" in="SourceGraphic" in2="BackgroundImageFix" result="shape"/>
<feGaussianBlur stdDeviation="2.5" result="effect1_foregroundBlur_3301_8744"/>
</filter>
<filter id="filter1_f_3301_8744" x="114.035" y="92.0049" width="61.2344" height="56.9639" filterUnits="userSpaceOnUse" color-interpolation-filters="sRGB">
<feFlood flood-opacity="0" result="BackgroundImageFix"/>
<feBlend mode="normal" in="SourceGraphic" in2="BackgroundImageFix" result="shape"/>
<feGaussianBlur stdDeviation="2.5" result="effect1_foregroundBlur_3301_8744"/>
</filter>
<filter id="filter2_d_3301_8744" x="0.5" y="97.5" width="55" height="30" filterUnits="userSpaceOnUse" color-interpolation-filters="sRGB">
<feFlood flood-opacity="0" result="BackgroundImageFix"/>
<feColorMatrix in="SourceAlpha" type="matrix" values="0 0 0 0 0 0 0 0 0 0 0 0 0 0 0 0 0 0 127 0" result="hardAlpha"/>
<feOffset dx="3" dy="3"/>
<feGaussianBlur stdDeviation="2"/>
<feComposite in2="hardAlpha" operator="out"/>
<feColorMatrix type="matrix" values="0 0 0 0 0 0 0 0 0 0 0 0 0 0 0 0 0 0 0.2 0"/>
<feBlend mode="normal" in2="BackgroundImageFix" result="effect1_dropShadow_3301_8744"/>
<feBlend mode="normal" in="SourceGraphic" in2="effect1_dropShadow_3301_8744" result="shape"/>
</filter>
<filter id="filter3_d_3301_8744" x="71.5" y="97.5" width="57" height="32" filterUnits="userSpaceOnUse" color-interpolation-filters="sRGB">
<feFlood flood-opacity="0" result="BackgroundImageFix"/>
<feColorMatrix in="SourceAlpha" type="matrix" values="0 0 0 0 0 0 0 0 0 0 0 0 0 0 0 0 0 0 127 0" result="hardAlpha"/>
<feOffset dx="4" dy="4"/>
<feGaussianBlur stdDeviation="2.5"/>
<feComposite in2="hardAlpha" operator="out"/>
<feColorMatrix type="matrix" values="0 0 0 0 0 0 0 0 0 0 0 0 0 0 0 0 0 0 0.2 0"/>
<feBlend mode="normal" in2="BackgroundImageFix" result="effect1_dropShadow_3301_8744"/>
<feBlend mode="normal" in="SourceGraphic" in2="effect1_dropShadow_3301_8744" result="shape"/>
</filter>
<linearGradient id="paint0_linear_3301_8744" x1="15.5005" y1="36" x2="179.298" y2="168.121" gradientUnits="userSpaceOnUse">
<stop stop-color="#0167FF" stop-opacity="0.49"/>
<stop offset="1" stop-color="white"/>
</linearGradient>
<linearGradient id="paint1_linear_3301_8744" x1="19.5" y1="143.5" x2="25" y2="90.5" gradientUnits="userSpaceOnUse">
<stop offset="0.333982" stop-color="#0167FF"/>
<stop offset="1" stop-color="white"/>
</linearGradient>
<linearGradient id="paint2_linear_3301_8744" x1="90.5" y1="143.5" x2="96" y2="90" gradientUnits="userSpaceOnUse">
<stop offset="0.337094" stop-color="#0167FF"/>
<stop offset="1" stop-color="white"/>
</linearGradient>
</defs>
</svg>
